<svg class="u-max-width" style="position:relative;bottom:-50px;margin:40px 0" viewBox="0 0 1440 320" xmlns="http://www.w3.org/2000/svg">
    <g fill="#F5F0EE">
        <path opacity=".323" d="M0 64V32h43.6v96h43.7V64h43.6v32h43.6V32h43.7v224h43.6V128h43.7v32h43.6V0h43.6v160h43.7V64H480v192h43.6V96h43.7V32h43.6v64h43.6V32h43.7v128h43.6v32h43.7v128h43.6V32h43.6v256h43.7V160H960V64h43.6v64h43.7v96h43.6v-64h43.6v96h43.7V96h87.3v224h43.6V96h43.6v32h43.7v128h43.6v64H0z"/>
        <path opacity=".493" d="M0 0v288h43.6v-64h43.7v-96h43.6v96h43.6v64h43.7v-64h43.6v-96h43.7V32h43.6V0h43.6v224h43.7v32H480v-96h43.6V64h43.7v96h43.6V64h43.6V32h43.7v32h43.6v32h43.7V32h43.6v192h43.6V32h43.7v64H960v224h43.6V192h43.7V96h43.6v32h43.6v128h131v-32h43.6v64h43.6v-32h43.7V96h43.6v224H0z"/>
        <path opacity=".667" d="M0 256v-96h43.6v-32h43.7v96h43.6v-32h87.3V96h43.6v192h43.7V96h43.6v64h87.3v32H480V32h43.6v256h43.7V160h43.6v-32h43.6v64h43.7V32h43.6v128h43.7V96h43.6v64h43.6v96h43.7V0H960v160h43.6v64h43.7v64h87.2v-64h87.3V64h43.7v160h43.6v-96h43.6v128h43.7v-64h43.6v128H0z"/>
        <path opacity=".833" d="M0 288V128h43.6v64h43.7V64h43.6v160h43.6v-64h43.7v128h87.3v-96h43.6V64h87.3v32H480v160h43.6V64h43.7v192h43.6V96h43.6v96h43.7v64h43.6v-96h43.7V96h43.6v192h43.6V32H960v128h87.3V96h43.6v192h87.3V64h43.6v192h43.7v64h43.6V128h43.6v32h43.7V96h43.6v224H0z"/>
        <path d="M0 160v96h43.6v-96h87.3v128h43.6V64h43.7v64h43.6v160h43.7V64h43.6v32h43.6v128h43.7v64h87.2v-64h43.7v32h87.2v-32h43.7v-96h43.6v192h43.7V160h43.6V96h43.6V32h43.7v224h87.2v-64h43.7V96h43.6v128h43.6v-96h43.7v32h43.6V64h43.7v224h43.6V32h87.3v128h43.6v160H0z"/>
    </g>
</svg>
