<svg class="u-max-full-width dont-print" viewBox="0 0 1650 371" xmlns="http://www.w3.org/2000/svg">
    <g fill="#C0BDDD" fill-rule="evenodd">
        <g transform="translate(6 117)" opacity=".5">
            <circle cx="19" cy="33" r="19"/>
            <circle cx="120" cy="119" r="19"/>
            <circle cx="220" cy="42" r="19"/>
            <circle cx="321" cy="65" r="19"/>
            <circle cx="421" cy="148" r="19"/>
            <circle cx="421" cy="231" r="19"/>
            <circle cx="520" cy="19" r="19"/>
            <circle cx="621" cy="61" r="19"/>
            <circle cx="722" cy="119" r="19"/>
            <circle cx="823" cy="45" r="19"/>
            <circle cx="919" cy="80" r="19"/>
            <circle cx="919" cy="192" r="19"/>
            <circle cx="1019" cy="118" r="19"/>
            <circle cx="1120" cy="34" r="19"/>
            <circle cx="1221" cy="154" r="19"/>
            <circle cx="1321" cy="80" r="19"/>
            <circle cx="1420" cy="118" r="19"/>
            <circle cx="1521" cy="34" r="19"/>
            <circle cx="1622" cy="121" r="19"/>
        </g>
        <path d="M425.52 307.661c13.52 0 24.48 10.96 24.48 24.48v14.192c0 13.52-10.96 24.48-24.48 24.48h-1.04c-13.52 0-24.48-10.96-24.48-24.48V332.14c0-13.52 10.96-24.48 24.48-24.48h1.04zM440 346h-8.182l-.004.234a6.825 6.825 0 01-6.814 6.584V361l.313-.003C433.438 360.829 440 354.17 440 346zm485.52-107.232c13.52 0 24.48 10.96 24.48 24.48v45.768c0 13.52-10.96 24.48-24.48 24.48h-1.04c-13.52 0-24.48-10.96-24.48-24.48v-45.768c0-13.52 10.96-24.48 24.48-24.48h1.04zM940 308h-8.182l-.004.234a6.825 6.825 0 01-6.814 6.584V323l.313-.003C933.438 322.829 940 316.17 940 308zm301-35h-8.182l-.004.234a6.825 6.825 0 01-6.814 6.584V288l.313-.003c8.125-.168 14.687-6.827 14.687-14.997zm-801-8h-8.182l-.004.234a6.825 6.825 0 01-6.814 6.584V280l.313-.003C433.438 279.829 440 273.17 440 265zM200 0h1450v236.738c0 13.52-10.96 24.48-24.48 24.48h-1.04c-13.52 0-24.48-10.96-24.48-24.48V147.48c0-13.385-10.742-24.26-24.075-24.477l-.405-.003h-1.04c-13.385 0-24.26 10.742-24.477 24.075l-.003.405v3.142c0 13.52-10.96 24.48-24.48 24.48h-1.04c-13.52 0-24.48-10.96-24.48-24.48v-29.875c0-13.385-10.742-24.261-24.075-24.477l-.405-.003h-1.04c-13.385 0-24.26 10.742-24.477 24.075l-.003.405v115.99c0 13.52-10.96 24.48-24.48 24.48h-1.04c-13.52 0-24.48-10.96-24.48-24.48V142.38c0-13.385-10.742-24.261-24.075-24.477l-.405-.003h-1.04c-13.385 0-24.26 10.741-24.477 24.075l-.003.405v54.17c0 13.52-10.96 24.48-24.48 24.48h-1.04c-13.52 0-24.48-10.96-24.48-24.48v-10.905c0-13.384-10.742-24.26-24.075-24.476l-.405-.004h-1.04c-13.385 0-24.26 10.742-24.477 24.076l-.003.404v88.41c0 13.52-10.96 24.48-24.48 24.48h-1.04c-13.52 0-24.48-10.96-24.48-24.48V142.38c0-13.385-10.742-24.261-24.075-24.477l-.405-.003h-1.04c-13.385 0-24.26 10.741-24.477 24.075l-.003.405v8.242c0 13.52-10.96 24.48-24.48 24.48h-1.04c-13.52 0-24.48-10.96-24.48-24.48V99.114c0-13.385-10.742-24.26-24.075-24.477l-.405-.003h-1.04c-13.385 0-24.26 10.742-24.477 24.075l-.003.405v137.624c0 13.52-10.96 24.48-24.48 24.48h-1.04c-13.52 0-24.48-10.96-24.48-24.48V133.726c0-13.384-10.742-24.26-24.075-24.476l-.405-.004h-1.04c-13.385 0-24.26 10.742-24.477 24.076l-.003.404v62.824c0 13.52-10.96 24.48-24.48 24.48h-1.04c-13.52 0-24.48-10.96-24.48-24.48v-75.803c0-13.385-10.742-24.261-24.075-24.477l-.405-.003h-1.04c-13.385 0-24.26 10.742-24.477 24.075l-.003.405v41.357c0 13.52-10.96 24.48-24.48 24.48h-1.04c-13.385 0-24.26-10.742-24.477-24.075l-.003-.346v1.812l-.003-.363c-.212-13.2-10.872-23.862-24.072-24.076l-.405-.004h-1.04c-13.385 0-24.26 10.742-24.477 24.076l-.003.404v72.726c0 13.52-10.96 24.48-24.48 24.48h-1.04c-13.52 0-24.48-10.96-24.48-24.48V99.114c0-13.385-10.742-24.26-24.075-24.477l-.405-.003h-1.04c-13.385 0-24.26 10.742-24.477 24.075l-.003.405v80.213c0 13.52-10.96 24.48-24.48 24.48h-1.04c-13.52 0-24.48-10.96-24.48-24.48v-58.58c0-13.385-10.742-24.261-24.075-24.477l-.405-.003h-1.04c-13.385 0-24.26 10.742-24.477 24.075l-.003.405v15.522c0 13.52-10.96 24.48-24.48 24.48h-1.04c-13.52 0-24.48-10.96-24.48-24.48V99.114c0-13.385-10.742-24.26-24.075-24.477l-.405-.003h-1.04c-13.385 0-24.26 10.742-24.477 24.075l-.003.405v166.329c0 13.52-10.96 24.48-24.48 24.48h-1.04c-13.52 0-24.48-10.96-24.48-24.48v-101.43c0-13.385-10.742-24.261-24.075-24.477l-.405-.004h-1.04c-13.385 0-24.26 10.742-24.477 24.076l-.003.404v18.186c0 13.52-10.96 24.48-24.48 24.48h-1.04c-13.52 0-24.48-10.96-24.48-24.48V99.114c0-13.385-10.742-24.26-24.075-24.477l-.405-.003h-1.04c-13.385 0-24.26 10.742-24.477 24.075l-.003.405v60.12c0 13.52-10.96 24.48-24.48 24.48h-1.04c-13.52 0-24.48-10.96-24.48-24.48V142.38c0-13.385-10.742-24.261-24.075-24.477l-.405-.003h-1.04c-13.385 0-24.26 10.741-24.477 24.075l-.003.405v94.358c0 13.52-10.96 24.48-24.48 24.48h-1.04c-13.52 0-24.48-10.96-24.48-24.48V120.747c0-13.385-10.742-24.261-24.075-24.477l-.405-.003h-1.04c-13.385 0-24.26 10.742-24.477 24.075l-.003.405v29.875c0 13.52-10.96 24.48-24.48 24.48h-1.04c-13.52 0-24.48-10.96-24.48-24.48V0h200v74.633V0zm1440 236h-8.182l-.004.234a6.825 6.825 0 01-6.814 6.584V251l.313-.003c8.125-.168 14.687-6.827 14.687-14.997zm-200 0h-8.182l-.004.234a6.825 6.825 0 01-6.814 6.584V251l.313-.003c8.125-.168 14.687-6.827 14.687-14.997zm-400 0h-8.182l-.004.234a6.825 6.825 0 01-6.814 6.584V251l.313-.003c8.125-.168 14.687-6.827 14.687-14.997zm-300 0h-8.182l-.004.234a6.825 6.825 0 01-6.814 6.584V251l.313-.003C733.438 250.829 740 244.17 740 236zm-600 0h-8.182l-.004.234a6.825 6.825 0 01-6.814 6.584V251l.313-.003C133.438 250.829 140 244.17 140 236zm800-40h-8.182l-.004.234a6.825 6.825 0 01-6.814 6.584V211l.313-.003C933.438 210.829 940 204.17 940 196zm400 0h-8.182l-.004.234a6.825 6.825 0 01-6.814 6.584V211l.313-.003c8.125-.168 14.687-6.827 14.687-14.997zM340 182h-8.182l-.004.234a6.825 6.825 0 01-6.814 6.584V197l.313-.003C333.438 196.829 340 190.17 340 182zm300-3h-8.182l-.004.234a6.825 6.825 0 01-6.814 6.584V194l.313-.003C633.438 193.829 640 187.17 640 179zm200-18h-8.182l-.004.234a6.825 6.825 0 01-6.814 6.584V176l.313-.003C833.438 175.829 840 169.17 840 161zm-600-3h-8.182l-.004.234a6.825 6.825 0 01-6.814 6.584V173l.313-.003C233.438 172.829 240 166.17 240 158zm-200-8h-8.182l-.004.234A6.825 6.825 0 0125 156.818V165l.313-.003C33.438 164.829 40 158.17 40 150zm1100 0h-8.182l-.004.234a6.825 6.825 0 01-6.814 6.584V165l.313-.003c8.125-.168 14.687-6.827 14.687-14.997zm400 0h-8.182l-.004.234a6.825 6.825 0 01-6.814 6.584V165l.313-.003c8.125-.168 14.687-6.827 14.687-14.997zM540 136h-8.182l-.004.234a6.825 6.825 0 01-6.814 6.584V151l.313-.003C533.438 150.829 540 144.17 540 136z" fill-rule="nonzero"/>
    </g>
</svg>
