<svg class="u-max-width" viewBox="0 0 1650 1342" xmlns="http://www.w3.org/2000/svg">
    <g fill="none" fill-rule="evenodd">
        <g transform="translate(977 520)">
            <circle fill="#FFF" opacity=".12" cx="380" cy="380" r="380"/>
            <circle fill="#FFFBCC" opacity=".12" cx="380" cy="380" r="305"/>
            <circle fill="#FFF366" opacity=".12" cx="380" cy="380" r="230"/>
            <circle fill="#FFEC00" cx="380" cy="380" r="155"/>
        </g>
        <path d="M-239 1011c-13.807 0-25-11.193-25-25s11.193-25 25-25H57c13.807 0 25 11.193 25 25s-11.193 25-25 25H32c-13.807 0-25 11.193-25 25s11.193 25 25 25h78c13.807 0 25 11.193 25 25s-11.193 25-25 25H-37c-13.807 0-25-11.193-25-25s11.193-25 25-25h-51c13.807 0 25-11.193 25-25s-11.193-25-25-25h-151zm758-350c13.807 0 25 11.193 25 25s-11.193 25-25 25h-30.5c-13.807 0-25 11.193-25 25s11.193 25 25 25H692c13.807 0 25 11.193 25 25s-11.193 25-25 25h-39c-13.807 0-25 11.193-25 25s11.193 25 25 25h22c13.807 0 25 11.193 25 25s-11.193 25-25 25H228c-13.807 0-25-11.193-25-25s11.193-25 25-25h208c13.807 0 25-11.193 25-25s-11.193-25-25-25H67c-13.807 0-25-11.193-25-25s11.193-25 25-25h301.5c13.807 0 25-11.193 25-25s-11.193-25-25-25H196c-13.807 0-25-11.193-25-25s11.193-25 25-25h323zm1153-301c13.807 0 25 11.193 25 25s-11.193 25-25 25h-33c-13.807 0-25 11.193-25 25s11.193 25 25 25h282c13.807 0 25 11.193 25 25s-11.193 25-25 25h-211c-13.807 0-25 11.193-25 25s11.193 25 25 25h-14c13.807 0 25 11.193 25 25 0 13.669-10.97 24.776-24.587 24.997L1696 610h-167c-13.807 0-25 11.193-25 25s11.193 25 25 25h167c13.807 0 25 11.193 25 25s-11.193 25-25 25h-85c-13.807 0-25 11.193-25 25s11.193 25 25 25h352c13.807 0 25 11.193 25 25s-11.193 25-25 25h-551c-13.807 0-25-11.193-25-25s11.193-25 25-25h49c13.807 0 25-11.193 25-25s-11.193-25-25-25h-316c-13.807 0-25-11.193-25-25s11.193-25 25-25h41c13.807 0 25-11.193 25-25s-11.193-25-25-25H755c-13.807 0-25-11.193-25-25s11.193-25 25-25h516c13.807 0 25-11.193 25-25s-11.193-25-25-25h-25c-13.807 0-25-11.193-25-25s11.193-25 25-25h293c13.807 0 25-11.193 25-25s-11.193-25-25-25h1c-13.807 0-25-11.193-25-25s11.193-25 25-25h132zM426 561c13.807 0 25 11.193 25 25s-11.193 25-25 25H245c-13.807 0-25-11.193-25-25s11.193-25 25-25h181zm748-301c13.807 0 25 11.193 25 25s-11.193 25-25 25H830c-13.807 0-25 11.193-25 25s11.193 25 25 25h195c13.807 0 25 11.193 25 25s-11.193 25-25 25h-25c-13.807 0-25 11.193-25 25s11.193 25 25 25h96c13.807 0 25 11.193 25 25s-11.193 25-25 25H97c-13.807 0-25-11.193-25-25s11.193-25 25-25h194c13.807 0 25-11.193 25-25s-11.193-25-25-25H82c-13.807 0-25-11.193-25-25s11.193-25 25-25h354c13.807 0 25 11.193 25 25s-11.193 25-25 25h-25c-13.807 0-25 11.193-25 25s11.193 25 25 25h150c13.807 0 25-11.193 25-25s-11.193-25-25-25h-25c-13.807 0-25-11.193-25-25s11.193-25 25-25h174c13.807 0 25-11.193 25-25s-11.193-25-25-25h-25c-13.807 0-25-11.193-25-25s11.193-25 25-25h489zm266 100c13.807 0 25 11.193 25 25s-11.193 25-25 25-25-11.193-25-25 11.193-25 25-25zM234 260c13.807 0 25 11.193 25 25s-11.193 25-25 25h-354c-13.807 0-25-11.193-25-25s11.193-25 25-25h354zm242 0c13.807 0 25 11.193 25 25s-11.193 25-25 25h-92c-13.807 0-25-11.193-25-25s11.193-25 25-25h92zm608-100c13.807 0 25 11.193 25 25s-11.193 25-25 25H829c-13.807 0-25-11.193-25-25s11.193-25 25-25h255z" fill="#FFF"/>
    </g>
</svg>
