<svg class="u-max-full-width svg-animation-1" viewBox="0 0 1600 900" xmlns="http://www.w3.org/2000/svg">
    <defs>
        <linearGradient x1="100%" y1="34.18%" x2="0%" y2="65.82%" id="a">
            <stop stop-color="#32C5FF" offset="0%"/>
            <stop stop-color="#3AC5FD" offset="8.176%"/>
            <stop stop-color="#49C4F9" offset="15.535%"/>
            <stop stop-color="#5BC3F2" offset="22.197%"/>
            <stop stop-color="#6DC2E9" offset="28.281%"/>
            <stop stop-color="#80C1DF" offset="33.909%"/>
            <stop stop-color="#91C0D3" offset="39.199%"/>
            <stop stop-color="#A1BFC5" offset="44.273%"/>
            <stop stop-color="#B1BDB6" offset="49.25%"/>
            <stop stop-color="#BFBCA5" offset="54.25%"/>
            <stop stop-color="#CCBA93" offset="59.395%"/>
            <stop stop-color="#D8B97F" offset="64.802%"/>
            <stop stop-color="#E2B86A" offset="70.594%"/>
            <stop stop-color="#EAB754" offset="76.889%"/>
            <stop stop-color="#F0B63C" offset="83.809%"/>
            <stop stop-color="#F5B523" offset="91.472%"/>
            <stop stop-color="#F7B500" offset="100%"/>
        </linearGradient>
    </defs>
    <g fill="none" fill-rule="evenodd">
        <rect fill="url(#a)" fill-rule="nonzero" opacity=".791" width="1600" height="900"/>
        <g stroke-width="2">
            <path d="M852.869 279.584c-69.022 326.009 69.964 226.666-32.162 141.381C718.582 335.68 537.267-32.459 636.21 372.4c98.94 404.858-87.951 453.231 101.186 352.879 189.137-100.353 364.133-364.392 285.578-341.866C944.42 405.937 921.89-46.424 852.87 279.584z" stroke="#D3EB62"/>
            <path d="M852.85 264.18c-69.022 326.009 69.964 226.666-32.162 141.38-102.126-85.284-283.44-453.423-184.499-48.565s-87.95 453.23 101.187 352.878c189.137-100.352 364.133-364.39 285.578-341.866C944.4 390.532 921.871-61.829 852.85 264.18z" stroke="#E22183"/>
            <path d="M849.972 284.818c-69.022 326.009 69.964 226.666-32.162 141.38-102.126-85.284-283.44-453.423-184.499-48.565s-87.95 453.23 101.187 352.878C923.635 630.16 1098.63 366.12 1020.076 388.645 941.521 411.17 918.993-41.19 849.972 284.818z" stroke="#650675"/>
        </g>
        <g opacity=".98" stroke-width=".8">
            <path d="M861.663 286.238C771.9 600.54 914.62 512.85 820.555 422.388c-94.064-90.46-246.269-463.154-177.137-60.174 69.131 402.979-116.964 437.505 74.876 352.265 191.84-85.239 381.025-331.632 302.655-314.974-78.37 16.658-69.522-427.57-159.286-113.267z" stroke="#D3EB62"/>
            <path d="M862.696 271.162c-89.764 314.302 52.956 226.612-41.108 136.15-94.064-90.46-246.269-463.154-177.137-60.175 69.131 402.98-116.964 437.505 74.876 352.266 191.84-85.24 381.025-331.632 302.655-314.974-78.37 16.658-69.522-427.57-159.286-113.267z" stroke="#E22183"/>
            <path d="M858.472 291.16c-89.764 314.303 52.956 226.613-41.108 136.152C723.3 336.85 571.095-35.843 640.227 367.137c69.131 402.979-116.964 437.505 74.876 352.265 191.84-85.239 381.025-331.632 302.655-314.974-78.37 16.658-69.522-427.57-159.286-113.267z" stroke="#650675"/>
        </g>
        <g opacity=".96" stroke-width="2">
            <path d="M869.787 293.396c-109.22 301.32 36.3 225.312-49.486 130.375-85.786-94.937-209.145-469.951-169.072-71 40.073 398.953-144.224 419.981 49.152 349.735 193.375-70.246 395.158-298.323 317.4-287.395-77.756 10.928-38.775-423.034-147.994-121.715z" stroke="#D3EB62"/>
            <path d="M871.826 278.719c-109.219 301.32 36.3 225.312-49.486 130.375-85.786-94.938-209.145-469.952-169.072-71 40.073 398.952-144.223 419.98 49.152 349.735 193.376-70.246 395.158-298.324 317.401-287.396C942.064 411.361 981.046-22.6 871.826 278.72z" stroke="#E22183"/>
            <path d="M866.331 297.994c-109.219 301.32 36.3 225.312-49.486 130.375-85.786-94.938-209.145-469.952-169.072-71 40.073 398.952-144.223 419.98 49.152 349.735 193.376-70.246 395.158-298.324 317.4-287.396C936.57 430.636 975.55-3.326 866.332 297.994z" stroke="#650675"/>
        </g>
        <g opacity=".94" stroke-width="2">
            <path d="M877.214 301c-127.311 287.183 20.088 222.813-57.264 124.105-77.35-98.708-172.293-473.87-160.376-80.998 11.916 392.872-169.623 400.825 24.15 345.364 193.773-55.46 406.539-264.688 329.805-259.322-76.734 5.366-9.004-416.333-136.315-129.15z" stroke="#D3EB62"/>
            <path d="M880.209 286.786C752.898 573.969 900.297 509.6 822.946 410.892c-77.352-98.708-172.294-473.87-160.377-80.998 11.917 392.871-169.623 400.825 24.15 345.364 193.773-55.461 406.54-264.688 329.805-259.322-76.734 5.366-9.004-416.333-136.315-129.15z" stroke="#E22183"/>
            <path d="M873.523 305.259C746.21 592.442 893.61 528.073 816.259 429.365s-172.293-473.87-160.376-80.999c11.916 392.872-169.623 400.825 24.15 345.365 193.772-55.461 406.539-264.688 329.805-259.323-76.734 5.366-9.004-416.332-136.315-129.15z" stroke="#650675"/>
        </g>
        <g opacity=".92" stroke-width="2">
            <path d="M884.068 308.986c-144.231 272.018 4.41 219.173-64.527 117.399C750.603 324.61 683.369-48.6 668.147 336.247c-15.221 384.846-193.41 380.211 0 339.243 193.41-40.968 415.93-230.943 340.475-230.943-75.455 0 19.677-407.58-124.554-135.561z" stroke="#D3EB62"/>
            <path d="M887.971 295.297c-144.23 272.019 4.41 219.173-64.527 117.399S687.273-62.288 672.051 322.558c-15.222 384.846-193.41 380.211 0 339.243 193.41-40.967 415.929-230.943 340.474-230.943-75.455 0 19.677-407.58-124.554-135.561z" stroke="#E22183"/>
            <path d="M880.164 312.897c-144.23 272.019 4.411 219.173-64.526 117.399C746.7 328.522 679.466-44.688 664.244 340.158c-15.222 384.846-193.41 380.211 0 339.243 193.41-40.967 415.929-230.943 340.474-230.943-75.455 0 19.677-407.58-124.554-135.561z" stroke="#650675"/>
        </g>
        <g opacity=".9" stroke-width="2">
            <path d="M890.198 317.142c-159.697 256.319-10.683 214.774-71.152 110.467C758.577 323.303 718.348-46.5 677.124 329.05c-41.223 375.55-215.206 358.827-23.213 331.967 191.993-26.86 422.655-197.54 348.846-202.7-73.808-5.162 47.138-397.492-112.559-141.174z" stroke="#D3EB62"/>
            <path d="M894.953 304.014C735.256 560.332 884.27 518.787 823.8 414.481c-60.47-104.306-100.698-474.11-141.922-98.56-41.223 375.55-215.206 358.826-23.213 331.967 191.993-26.86 422.654-197.54 348.846-202.701-73.808-5.161 47.138-397.491-112.56-141.173z" stroke="#E22183"/>
            <path d="M886.112 320.703C726.415 577.02 875.43 535.476 814.96 431.17c-60.469-104.307-100.698-474.11-141.922-98.56-41.223 375.55-215.206 358.826-23.213 331.966 191.993-26.86 422.655-197.54 348.847-202.7-73.809-5.162 47.137-397.492-112.56-141.173z" stroke="#650675"/>
        </g>
        <g opacity=".88" stroke-width=".8">
            <path d="M895.602 325.58c-173.69 239.809-25.142 209.355-77.13 103.192-51.99-106.162-66.021-470.645-132.027-106.109C620.439 687.2 451.463 658.95 641.03 645.798c189.568-13.15 426.788-164.34 354.971-174.434-71.816-10.093 73.29-385.594-100.4-145.785z" stroke="#D3EB62"/>
            <path d="M901.15 313.062c-173.69 239.81-25.142 209.356-77.131 103.194-51.99-106.163-66.02-470.645-132.027-106.11-66.006 364.537-234.981 336.287-45.413 323.136 189.568-13.152 426.787-164.342 354.971-174.435-71.816-10.093 73.29-385.594-100.4-145.785z" stroke="#E22183"/>
            <path d="M891.364 328.782c-173.69 239.81-25.143 209.356-77.132 103.194-51.989-106.163-66.02-470.645-132.026-106.11-66.006 364.537-234.982 336.287-45.414 323.136C826.36 635.85 1063.58 484.66 991.764 474.567c-71.816-10.093 73.29-385.594-100.4-145.785z" stroke="#650675"/>
        </g>
        <g opacity=".86" stroke-width="2">
            <path d="M900.273 334.235c-186.176 222.62-38.9 202.987-82.45 95.633C774.273 322.513 785.5-34.83 696.04 317.1c-89.46 351.93-252.684 312.768-66.5 312.855 186.185.087 428.39-131.544 358.887-146.318-69.503-14.773 98.02-372.023-88.155-149.402z" stroke="#D3EB62"/>
            <path d="M906.551 322.375c-186.175 222.62-38.9 202.988-82.45 95.633C780.553 310.654 791.78-46.689 702.32 305.24c-89.46 351.93-252.683 312.768-66.499 312.855 186.185.087 428.39-131.544 358.887-146.318-69.503-14.773 98.02-372.022-88.156-149.402z" stroke="#E22183"/>
            <path d="M895.91 337.077c-186.175 222.62-38.9 202.988-82.45 95.634-43.549-107.355-32.322-464.698-121.782-112.768-89.46 351.93-252.683 312.768-66.499 312.855 186.184.086 428.39-131.545 358.887-146.318-69.503-14.773 98.02-372.023-88.156-149.403z" stroke="#650675"/>
        </g>
        <g opacity=".84" stroke-width=".8">
            <path d="M904.346 343.089c-197.373 204.81-51.889 195.742-87.208 87.812-35.318-107.93-.01-456.454-111.521-118.6-111.51 337.855-268.604 288.356-86.379 301.239 182.225 12.882 428.245-99.135 361.224-118.354-67.022-19.218 121.256-356.906-76.116-152.097z" stroke="#D3EB62"/>
            <path d="M911.298 331.928C713.926 536.737 859.41 527.67 824.091 419.74c-35.319-107.93-.011-456.454-111.522-118.6-111.51 337.855-268.603 288.356-86.378 301.238 182.225 12.883 428.245-99.135 361.223-118.353-67.021-19.218 121.257-356.906-76.116-152.097z" stroke="#E22183"/>
            <path d="M899.883 345.568C702.51 550.377 847.994 541.31 812.675 433.38c-35.318-107.93-.01-456.454-111.521-118.6-111.51 337.855-268.604 288.355-86.379 301.238C797 628.901 1043.02 516.883 976 497.665c-67.022-19.218 121.256-356.907-76.116-152.097z" stroke="#650675"/>
        </g>
        <g opacity=".82" stroke-width=".8">
            <path d="M907.734 351.901c-207.146 186.916-64.17 187.995-91.342 79.964C789.22 323.833 847.624-14.802 715.386 308.18 583.148 631.162 432.82 571.978 610.246 597.05c177.425 25.071 425.822-67.716 361.557-91.106-64.265-23.39 143.078-340.96-64.069-154.043z" stroke="#D3EB62"/>
            <path d="M915.301 341.455c-207.146 186.916-64.17 187.995-91.342 79.963-27.172-108.031 31.232-446.666-101.006-123.684-132.238 322.982-282.565 263.798-105.14 288.87 177.425 25.07 425.822-67.716 361.557-91.107-64.265-23.39 143.078-340.958-64.069-154.042z" stroke="#E22183"/>
            <path d="M903.198 354.021c-207.147 186.917-64.171 187.996-91.343 79.964C784.683 325.953 843.087-12.681 710.85 310.3 578.612 633.282 428.285 574.098 605.71 599.17c177.425 25.071 425.822-67.716 361.557-91.106-64.265-23.39 143.078-340.959-64.068-154.043z" stroke="#650675"/>
        </g>
        <g opacity=".8" stroke-width="2">
            <path d="M910.406 360.78C695 529.455 834.776 540.286 815.59 432.754 796.404 325.22 876.702-2.033 725.256 304.86 573.811 611.755 430.821 543.584 602.65 580.24c171.828 36.656 421.142-37.124 359.883-64.398-61.259-27.274 163.28-323.737-52.127-155.062z" stroke="#D3EB62"/>
            <path d="M918.523 351.079c-215.407 168.675-75.631 179.506-94.817 71.974-19.185-107.533 61.112-434.786-90.333-127.893-151.446 306.894-294.436 238.723-122.607 275.38 171.829 36.656 421.142-37.123 359.883-64.398-61.258-27.274 163.28-323.737-52.126-155.062z" stroke="#E22183"/>
            <path d="M905.824 362.544c-215.407 168.675-75.631 179.506-94.817 71.973C791.822 326.985 872.12-.269 720.674 306.625 569.228 613.52 426.239 545.348 598.067 582.004c171.829 36.655 421.142-37.124 359.884-64.398-61.26-27.274 163.279-323.737-52.127-155.062z" stroke="#650675"/>
        </g>
        <g opacity=".78" stroke-width="2">
            <path d="M912.369 369.67c-222.15 150.208-86.227 170.351-97.63 63.895-11.403-106.456 89.493-420.955-79.575-131.226-169.068 289.73-304.212 213.3-138.715 260.885 165.498 47.584 414.31-7.518 356.28-38.373-58.03-30.855 181.79-305.39-40.36-155.182z" stroke="#D3EB62"/>
            <path d="M920.968 360.738c-222.15 150.209-86.226 170.352-97.63 63.896-11.402-106.456 89.494-420.955-79.575-131.226-169.068 289.73-304.212 213.3-138.714 260.885 165.497 47.585 414.31-7.518 356.28-38.373-58.03-30.855 181.79-305.39-40.36-155.182z" stroke="#E22183"/>
            <path d="M907.768 371.08c-222.151 150.21-86.227 170.353-97.63 63.896-11.403-106.456 89.493-420.955-79.575-131.226-169.068 289.73-304.213 213.3-138.715 260.885 165.498 47.585 414.31-7.518 356.28-38.373-58.03-30.855 181.79-305.39-40.36-155.181z" stroke="#650675"/>
        </g>
        <g opacity=".76" stroke-width="2">
            <path d="M913.634 378.514c-227.39 131.638-95.922 160.61-99.787 55.782-3.865-104.828 116.25-405.325-68.8-133.695S433.14 488.298 591.635 546.112c158.495 57.814 405.44 20.954 350.834-13.168-54.606-34.121 198.555-286.068-28.835-154.43z" stroke="#D3EB62"/>
            <path d="M922.65 370.372c-227.39 131.638-95.923 160.61-99.788 55.783-3.865-104.829 116.251-405.325-68.8-133.695-185.05 271.63-311.907 187.697-153.412 245.51 158.496 57.815 405.44 20.954 350.834-13.167-54.605-34.122 198.556-286.068-28.834-154.43z" stroke="#E22183"/>
            <path d="M909.04 379.58c-227.39 131.637-95.921 160.61-99.787 55.781-3.865-104.828 116.251-405.324-68.8-133.694-185.05 271.63-311.907 187.697-153.411 245.51 158.495 57.814 405.44 20.954 350.833-13.168-54.605-34.121 198.556-286.067-28.834-154.43z" stroke="#650675"/>
        </g>
        <g opacity=".74" stroke-width="2">
            <path d="M914.437 387.21c-231.584 113.253-104.87 150.626-101.492 47.756 3.379-102.87 141.49-388.757-58.213-135.577S436.584 461.718 587.784 529.174c151.2 67.456 395.45 48.31 344.328 11.168-51.122-37.142 213.91-266.386-17.675-153.132z" stroke="#D3EB62"/>
            <path d="M923.819 379.859c-231.585 113.253-104.872 150.627-101.493 47.756 3.379-102.87 141.49-388.757-58.213-135.577s-318.148 162.33-166.948 229.785c151.2 67.456 395.45 48.31 344.328 11.168-51.121-37.142 213.91-266.386-17.674-153.132z" stroke="#E22183"/>
            <path d="M909.868 387.937c-231.585 113.254-104.871 150.627-101.492 47.757 3.378-102.87 141.49-388.758-58.213-135.577C550.459 553.297 432.014 462.446 583.214 529.9c151.2 67.456 395.45 48.31 344.329 11.169-51.122-37.143 213.91-266.386-17.675-153.133z" stroke="#650675"/>
        </g>
        <g opacity=".72" stroke-width=".8">
            <path d="M914.585 395.787c-234.343 94.936-112.904 140.191-102.573 39.77 10.33-100.422 164.998-370.68-47.704-136.647-212.703 234.034-322.399 137.02-179.054 213.388 143.346 76.368 383.657 74.38 336.17 34.533-47.488-39.846 227.505-245.98-6.839-151.044z" stroke="#D3EB62"/>
            <path d="M924.267 389.238c-234.343 94.936-112.904 140.191-102.573 39.77 10.33-100.422 164.998-370.68-47.704-136.647-212.703 234.034-322.4 137.02-179.054 213.388 143.345 76.368 383.656 74.38 336.17 34.533-47.488-39.846 227.505-245.98-6.839-151.044z" stroke="#E22183"/>
            <path d="M910.064 396.186c-234.343 94.936-112.904 140.191-102.573 39.77 10.331-100.422 164.998-370.68-47.704-136.647-212.702 234.034-322.399 137.02-179.054 213.388 143.346 76.368 383.657 74.38 336.17 34.533-47.488-39.846 227.505-245.98-6.839-151.044z" stroke="#650675"/>
        </g>
        <g opacity=".7" stroke-width="2">
            <path d="M914.1 404.198c-235.698 76.796-120.004 129.383-103.045 31.868 16.959-97.514 186.69-351.252-37.334-136.923-224.024 214.33-324.7 111.922-189.702 196.442 134.998 84.52 370.188 99.047 326.46 56.818-43.73-42.229 239.318-225 3.62-148.205z" stroke="#D3EB62"/>
            <path d="M924.016 398.456C688.32 475.251 804.013 527.84 820.972 430.324c16.959-97.514 186.69-351.252-37.334-136.923-224.024 214.33-324.7 111.922-189.702 196.442 134.998 84.52 370.188 99.047 326.46 56.818-43.73-42.229 239.318-225 3.62-148.205z" stroke="#E22183"/>
            <path d="M909.65 404.278c-235.698 76.796-120.003 129.383-103.044 31.869 16.959-97.515 186.69-351.253-37.334-136.924-224.024 214.33-324.7 111.922-189.702 196.442 134.998 84.52 370.188 99.047 326.46 56.818-43.73-42.228 239.318-225 3.62-148.205z" stroke="#650675"/>
        </g>
        <g opacity=".68" stroke-width="2">
            <path d="M913.003 412.397c-235.685 58.936-126.156 118.279-102.922 24.098 23.233-94.18 206.492-330.638-27.162-136.432-233.654 194.207-325.1 87.181-198.876 179.07 126.224 91.887 355.183 122.205 315.31 77.92-39.874-44.284 249.335-203.591 13.65-144.656z" stroke="#D3EB62"/>
            <path d="M923.09 407.463C687.406 466.398 796.936 525.74 820.169 431.56c23.234-94.18 206.493-330.638-27.161-136.432-233.654 194.207-325.1 87.181-198.877 179.07 126.224 91.887 355.184 122.205 315.31 77.92-39.874-44.284 249.336-203.59 13.65-144.655z" stroke="#E22183"/>
            <path d="M908.647 412.17c-235.685 58.936-126.156 118.28-102.922 24.099 23.233-94.18 206.492-330.639-27.162-136.432-233.654 194.206-325.1 87.18-198.876 179.069 126.224 91.888 355.184 122.206 315.31 77.921-39.874-44.284 249.336-203.592 13.65-144.656z" stroke="#650675"/>
        </g>
        <g opacity=".66" stroke-width="2">
            <path d="M911.324 420.34c-234.353 41.458-131.357 106.96-102.229 16.503 29.128-90.456 224.35-309.006-17.242-135.202-241.591 173.803-323.664 62.938-206.571 161.39 117.092 98.453 338.787 143.767 302.838 97.755-35.95-46.013 257.557-181.903 23.204-140.445z" stroke="#D3EB62"/>
            <path d="M921.52 416.209c-234.354 41.457-131.358 106.958-102.23 16.502s224.35-309.006-17.242-135.202c-241.591 173.803-323.664 62.938-206.571 161.39 117.093 98.453 338.787 143.767 302.838 97.755-35.95-46.013 257.557-181.903 23.204-140.445z" stroke="#E22183"/>
            <path d="M907.083 419.82c-234.353 41.458-131.357 106.96-102.23 16.503 29.129-90.456 224.35-309.006-17.241-135.202C546.02 474.925 463.948 364.06 581.04 462.512c117.092 98.453 338.786 143.766 302.837 97.754-35.949-46.013 257.558-181.902 23.205-140.445z" stroke="#650675"/>
        </g>
        <g opacity=".64" stroke-width="2">
            <path d="M909.234 427.893c-232.085 24.68-135.873 95.68-101.13 9.219 34.742-86.46 240.795-286.914-7.519-133.341-248.313 153.573-320.924 39.64-213.202 143.807C695.105 551.745 908.81 611.037 876.829 563.623c-31.98-47.413 264.49-160.41 32.405-135.73z" stroke="#D3EB62"/>
            <path d="M919.491 424.543c-232.085 24.68-135.873 95.68-101.13 9.219 34.743-86.46 240.795-286.914-7.518-133.341-248.314 153.573-320.925 39.64-213.203 143.807 107.722 104.167 321.427 163.459 289.447 116.045-31.981-47.413 264.49-160.41 32.404-135.73z" stroke="#E22183"/>
            <path d="M905.121 427.098c-232.085 24.68-135.873 95.68-101.13 9.219 34.743-86.46 240.795-286.914-7.518-133.341-248.314 153.573-320.925 39.64-213.203 143.807C690.992 550.95 904.698 610.242 872.717 562.828c-31.981-47.413 264.49-160.41 32.404-135.73z" stroke="#650675"/>
        </g>
        <g opacity=".62" stroke-width="2">
            <path d="M906.71 435.258c-228.768 8.201-139.464 84.308-99.58 2.071 39.884-82.236 255.153-264.269 1.727-131.026C555.43 439.545 492.144 323.039 590.45 432.4c98.306 109.36 303.37 182.084 275.307 133.479-28.062-48.605 269.72-138.823 40.953-130.621z" stroke="#D3EB62"/>
            <path d="M916.975 432.684c-228.768 8.201-139.465 84.308-99.58 2.072 39.884-82.237 255.153-264.27 1.726-131.027-253.427 133.242-316.713 16.737-218.406 126.097 98.306 109.36 303.37 182.085 275.307 133.48-28.062-48.606 269.72-138.823 40.953-130.622z" stroke="#E22183"/>
            <path d="M902.74 434.197c-228.767 8.201-139.464 84.308-99.58 2.072 39.884-82.237 255.154-264.27 1.727-131.027C551.46 438.484 488.174 321.979 586.48 431.339c98.306 109.36 303.37 182.085 275.308 133.48-28.062-48.606 269.72-138.823 40.952-130.622z" stroke="#650675"/>
        </g>
        <g opacity=".6" stroke-width="2">
            <path d="M903.695 442.286c-224.304-7.693-142.145 72.91-97.535-4.815 44.61-77.724 267.55-241.044 10.613-128.084-256.938 112.959-310.9-5.384-222.2 108.374 88.7 113.757 284.308 199.003 260.172 149.517-24.135-49.485 273.254-117.3 48.95-124.992z" stroke="#D3EB62"/>
            <path d="M913.91 440.473c-224.304-7.693-142.145 72.909-97.536-4.815 44.61-77.724 267.551-241.044 10.613-128.084-256.938 112.959-310.9-5.384-222.2 108.374 88.7 113.757 284.309 199.003 260.173 149.517-24.136-49.485 273.254-117.3 48.95-124.992z" stroke="#E22183"/>
            <path d="M899.885 440.975c-224.304-7.693-142.145 72.91-97.535-4.815 44.609-77.724 267.55-241.043 10.612-128.084-256.938 112.96-310.9-5.383-222.2 108.374 88.7 113.758 284.309 199.004 260.173 149.518-24.136-49.486 273.254-117.3 48.95-124.993z" stroke="#650675"/>
        </g>
        <g opacity=".58" stroke-width="2">
            <path d="M900.224 448.945c-218.76-22.925-143.928 61.554-95.024-11.406 48.903-72.96 277.976-217.4 19.097-124.553-258.879 92.846-303.574-26.612-224.606 90.747C678.658 521.09 864.083 617.9 843.858 567.84c-20.226-50.06 275.125-95.972 56.366-118.896z" stroke="#D3EB62"/>
            <path d="M910.333 447.873c-218.76-22.925-143.928 61.554-95.024-11.406 48.904-72.96 277.977-217.4 19.098-124.553-258.88 92.846-303.574-26.612-224.607 90.747 78.968 117.358 264.393 214.168 244.167 164.108-20.225-50.06 275.125-95.972 56.366-118.896z" stroke="#E22183"/>
            <path d="M896.588 447.401c-218.76-22.925-143.928 61.555-95.024-11.406 48.904-72.96 277.977-217.4 19.097-124.553-258.879 92.847-303.573-26.611-224.606 90.747 78.967 117.358 264.392 214.169 244.167 164.109-20.226-50.06 275.125-95.972 56.366-118.897z" stroke="#650675"/>
        </g>
        <g opacity=".56" stroke-width="2">
            <path d="M896.332 455.206c-212.204-37.423-144.834 50.312-92.078-17.672 52.756-67.983 286.436-193.496 27.144-120.474-259.292 73.023-294.831-46.845-225.659 73.321 69.173 120.167 243.772 227.546 227.417 177.211-16.354-50.334 275.38-74.964 63.176-112.386z" stroke="#D3EB62"/>
            <path d="M906.284 454.85c-212.204-37.422-144.834 50.313-92.078-17.67 52.756-67.984 286.436-193.497 27.144-120.474-259.292 73.023-294.831-46.846-225.659 73.32 69.173 120.167 243.772 227.546 227.417 177.212-16.355-50.335 275.38-74.965 63.176-112.387z" stroke="#E22183"/>
            <path d="M892.885 453.447c-212.204-37.423-144.834 50.312-92.078-17.671 52.756-67.984 286.435-193.497 27.144-120.474-259.292 73.023-294.832-46.846-225.66 73.32C671.465 508.79 846.064 616.169 829.71 565.835c-16.355-50.335 275.38-74.965 63.176-112.387z" stroke="#650675"/>
        </g>
        <g opacity=".54" stroke-width="2">
            <path d="M892.225 461.002c-205.1-51.024-145.2 39.326-88.897-23.541 56.302-62.868 293.619-169.66 34.845-115.923-258.775 53.738-285.316-65.86-225.88 56.318 59.436 122.178 222.925 239.029 210.38 188.711-12.546-50.318 274.652-54.54 69.552-105.565z" stroke="#D3EB62"/>
            <path d="M901.988 461.333c-205.1-51.025-145.2 39.326-88.897-23.542 56.303-62.867 293.62-169.66 34.845-115.922-258.774 53.737-285.315-65.86-225.88 56.318 59.436 122.177 222.926 239.029 210.38 188.71-12.545-50.318 274.652-54.54 69.552-105.564z" stroke="#E22183"/>
            <path d="M888.971 459.048c-205.1-51.024-145.199 39.327-88.897-23.541 56.303-62.868 293.62-169.66 34.845-115.923-258.774 53.738-285.315-65.86-225.88 56.318 59.436 122.178 222.926 239.03 210.38 188.711-12.545-50.318 274.653-54.54 69.552-105.565z" stroke="#650675"/>
        </g>
        <g opacity=".52" stroke-width="2">
            <path d="M887.78 466.376c-197.152-63.823-144.751 28.539-85.354-29.056 59.397-57.594 298.9-145.781 42.047-110.896-256.854 34.886-274.61-83.78-224.85 39.647C669.386 489.5 821.31 614.808 812.49 564.788c-8.82-50.02 272.443-34.589 75.29-98.412z" stroke="#D3EB62"/>
            <path d="M897.31 467.364c-197.153-63.823-144.752 28.538-85.355-29.056 59.398-57.594 298.9-145.781 42.047-110.896-256.854 34.886-274.61-83.78-224.85 39.647C678.915 490.487 830.84 615.796 822.02 565.776c-8.82-50.02 272.443-34.59 75.29-98.412z" stroke="#E22183"/>
            <path d="M884.732 464.246c-197.152-63.823-144.752 28.538-85.354-29.056 59.397-57.594 298.9-145.782 42.046-110.896-256.853 34.886-274.61-83.78-224.849 39.647 49.761 123.427 201.686 248.737 192.867 198.716-8.82-50.02 272.442-34.589 75.29-98.411z" stroke="#650675"/>
        </g>
        <g opacity=".5" stroke-width="2">
            <path d="M883.053 471.456c-188.463-76.021-143.518 18.015-81.495-34.308 62.024-52.322 302.284-122.246 48.693-105.706-253.591 16.54-262.857-100.878-222.615 23.398C667.878 479.115 807.912 612.242 802.7 562.657c-5.212-49.586 268.817-15.18 80.353-91.201z" stroke="#D3EB62"/>
            <path d="M892.306 473.077c-188.464-76.021-143.519 18.015-81.495-34.308 62.023-52.322 302.283-122.246 48.692-105.706-253.59 16.54-262.857-100.878-222.615 23.398 40.243 124.276 180.276 257.403 175.064 207.817-5.211-49.586 268.817-15.18 80.354-91.201z" stroke="#E22183"/>
            <path d="M880.217 469.16c-188.463-76.02-143.518 18.015-81.495-34.307 62.024-52.322 302.284-122.246 48.693-105.706-253.591 16.54-262.857-100.878-222.615 23.397 40.242 124.276 180.275 257.403 175.064 207.817-5.212-49.585 268.817-15.18 80.353-91.2z" stroke="#650675"/>
        </g>
        <g opacity=".48" stroke-width="2">
            <path d="M878.048 476.082c-179.052-87.326-141.538 7.804-77.328-39.166 64.21-46.969 303.87-98.96 54.825-100.139-249.045-1.18-250.083-116.753-219.231 7.656 30.851 124.408 158.656 264.316 156.948 215.42-1.707-48.895 263.837 3.554 84.786-83.771z" stroke="#D3EB62"/>
            <path d="M886.982 478.302c-179.051-87.325-141.537 7.804-77.327-39.165 64.21-46.97 303.87-98.96 54.824-100.14-249.045-1.179-250.082-116.752-219.23 7.656 30.85 124.409 158.655 264.317 156.948 215.421-1.708-48.896 263.837 3.553 84.785-83.772z" stroke="#E22183"/>
            <path d="M875.432 473.64c-179.052-87.325-141.537 7.805-77.328-39.165 64.21-46.969 303.87-98.96 54.825-100.14-249.045-1.178-250.082-116.752-219.23 7.656 30.85 124.409 158.655 264.317 156.947 215.421-1.707-48.896 263.837 3.553 84.786-83.772z" stroke="#650675"/>
        </g>
        <g opacity=".46" stroke-width="2">
            <path d="M872.803 480.24c-168.999-97.694-138.844-2.041-72.887-43.612 65.958-41.57 303.71-76.058 60.422-94.242-243.287-18.183-236.397-131.347-214.756-7.499 21.641 123.848 136.965 269.493 138.64 221.53 1.675-47.964 257.58 21.518 88.58-76.177z" stroke="#D3EB62"/>
            <path d="M881.382 483.024c-168.999-97.695-138.844-2.042-72.887-43.612 65.958-41.57 303.71-76.058 60.422-94.242-243.287-18.183-236.397-131.347-214.756-7.5C675.802 461.52 791.126 607.164 792.8 559.2c1.675-47.963 257.58 21.518 88.581-76.176z" stroke="#E22183"/>
            <path d="M870.414 477.672c-168.999-97.694-138.845-2.041-72.887-43.612 65.958-41.57 303.71-76.058 60.422-94.241-243.287-18.184-236.398-131.348-214.756-7.5 21.64 123.848 136.965 269.493 138.64 221.53 1.674-47.963 257.58 21.518 88.58-76.177z" stroke="#650675"/>
        </g>
        <g opacity=".44" stroke-width="2">
            <path d="M867.529 483.939c-158.785-107.138-135.801-11.508-68.38-47.653 67.42-36.145 302.557-53.594 65.6-88.045-236.955-34.451-222.473-144.673-209.752-22.046 12.721 122.627 115.676 272.991 120.595 226.19 4.92-46.802 250.722 38.691 91.937-68.446z" stroke="#D3EB62"/>
            <path d="M875.738 487.25c-158.785-107.138-135.801-11.508-68.38-47.653 67.42-36.145 302.557-53.595 65.601-88.046-236.956-34.45-222.474-144.672-209.753-22.045 12.722 122.626 115.676 272.99 120.595 226.19 4.92-46.802 250.722 38.691 91.937-68.447z" stroke="#E22183"/>
            <path d="M865.365 481.263c-158.785-107.137-135.801-11.507-68.38-47.652 67.42-36.145 302.557-53.595 65.601-88.046-236.956-34.45-222.474-144.672-209.753-22.046 12.722 122.627 115.676 272.992 120.595 226.19 4.92-46.801 250.722 38.692 91.937-68.446z" stroke="#650675"/>
        </g>
        <g opacity=".42" stroke-width="2">
            <path d="M862.094 487.176C714 371.534 729.967 466.616 798.42 435.895c68.454-30.722 299.78-31.668 70.217-81.595-229.562-49.926-207.863-156.709-203.785-35.932 4.079 120.776 94.577 274.859 102.587 229.434 8.01-45.426 242.746 55.017 94.654-60.626z" stroke="#D3EB62"/>
            <path d="M869.902 490.976c-148.092-115.642-132.126-20.56-63.672-51.281 68.454-30.722 299.78-31.668 70.217-81.595s-207.864-156.709-203.785-35.932c4.079 120.776 94.577 274.859 102.587 229.433 8.01-45.425 242.746 55.018 94.653-60.625z" stroke="#E22183"/>
            <path d="M860.159 484.412c-148.093-115.642-132.127-20.56-63.673-51.281 68.454-30.722 299.78-31.668 70.217-81.595-229.562-49.927-207.863-156.709-203.785-35.933 4.079 120.777 94.577 274.86 102.587 229.434 8.01-45.425 242.746 55.017 94.654-60.625z" stroke="#650675"/>
        </g>
        <g opacity=".4" stroke-width="2">
            <path d="M856.536 489.95c-137-123.19-127.863-29.158-58.797-54.492 69.065-25.333 295.445-10.392 74.259-74.936-221.186-64.544-192.677-167.428-196.921-49.098s73.789 275.14 84.722 231.29c10.933-43.85 233.737 70.423 96.737-52.765z" stroke="#D3EB62"/>
            <path d="M863.916 494.199c-137-123.189-127.862-29.157-58.797-54.49 69.066-25.334 295.445-10.394 74.259-74.938-221.186-64.544-192.677-167.427-196.92-49.098-4.245 118.33 73.788 275.141 84.721 231.29 10.934-43.85 233.737 70.424 96.737-52.764z" stroke="#E22183"/>
            <path d="M854.831 487.115c-137-123.189-127.863-29.158-58.797-54.491 69.066-25.334 295.445-10.393 74.259-74.937-221.186-64.544-192.677-167.427-196.92-49.098-4.245 118.33 73.788 275.14 84.721 231.29 10.933-43.85 233.737 70.424 96.737-52.764z" stroke="#650675"/>
        </g>
        <g opacity=".38" stroke-width=".8">
            <path d="M850.893 492.256c-125.59-129.763-123.056-37.263-53.79-57.275 69.266-20.012 289.631 10.121 77.721-68.12-211.91-78.242-177.026-176.807-189.231-61.485-12.206 115.321 53.43 273.888 67.106 231.794 13.677-42.093 223.784 84.848 98.194-44.914z" stroke="#D3EB62"/>
            <path d="M857.82 496.914c-125.589-129.762-123.054-37.263-53.789-57.275 69.266-20.012 289.631 10.122 77.721-68.12-211.91-78.242-177.025-176.807-189.231-61.485-12.206 115.322 53.43 273.888 67.107 231.795 13.677-42.094 223.783 84.848 98.193-44.915z" stroke="#E22183"/>
            <path d="M849.419 489.37c-125.59-129.763-123.056-37.264-53.79-57.276 69.266-20.012 289.63 10.122 77.721-68.12-211.91-78.242-177.026-176.807-189.231-61.485-12.206 115.322 53.43 273.888 67.106 231.795 13.677-42.094 223.784 84.847 98.194-44.915z" stroke="#650675"/>
        </g>
        <g opacity=".36" stroke-width="2">
            <path d="M845.202 494.098C731.26 358.74 727.45 449.255 796.517 434.466c69.067-14.788 282.422 29.775 80.602-61.192-201.82-90.968-161.022-184.837-180.792-73.045-19.77 111.792 33.61 271.164 49.84 230.992 16.23-40.171 212.977 98.235 99.035-37.123z" stroke="#D3EB62"/>
            <path d="M851.658 499.124c-113.942-135.358-117.752-44.844-48.686-59.632 69.067-14.788 282.423 29.775 80.602-61.193-201.82-90.967-161.022-184.836-180.792-73.044-19.77 111.791 33.61 271.163 49.84 230.992 16.23-40.172 212.978 98.235 99.036-37.123z" stroke="#E22183"/>
            <path d="M843.958 491.178c-113.942-135.358-117.752-44.844-48.686-59.632 69.067-14.788 282.423 29.775 80.602-61.193-201.82-90.967-161.022-184.836-180.792-73.044-19.77 111.791 33.61 271.164 49.84 230.992 16.23-40.172 212.978 98.235 99.036-37.123z" stroke="#650675"/>
        </g>
        <g opacity=".34" stroke-width="2">
            <path d="M839.437 495.613c-102.025-140.203-112.006-51.863-43.47-61.664 68.537-9.8 274.018 48.258 83.021-54.442-190.997-102.7-144.626-191.82-171.68-83.734-27.053 108.087 14.11 267.697 32.753 229.475 18.642-38.223 201.4 110.568 99.376-29.635z" stroke="#D3EB62"/>
            <path d="M845.4 500.97c-102.025-140.204-112.006-51.864-43.47-61.665 68.537-9.8 274.018 48.258 83.021-54.442-190.996-102.7-144.626-191.82-171.68-83.734-27.053 108.087 14.11 267.697 32.753 229.475 18.642-38.223 201.4 110.568 99.376-29.635z" stroke="#E22183"/>
            <path d="M838.422 492.67c-102.025-140.203-112.006-51.863-43.469-61.664 68.537-9.8 274.017 48.259 83.02-54.442-190.996-102.7-144.626-191.82-171.68-83.734-27.053 108.087 14.11 267.698 32.753 229.475 18.642-38.223 201.4 110.569 99.376-29.635z" stroke="#650675"/>
        </g>
        <g opacity=".32" stroke-width="2">
            <path d="M833.679 496.667c-89.997-144.059-105.865-58.305-38.211-63.265 67.654-4.96 264.436 65.72 84.897-47.657-179.538-113.377-128.056-197.436-161.974-93.516-33.918 103.92-4.74 262.857 16.124 226.72 20.863-36.136 189.161 121.777 99.164-22.282z" stroke="#D3EB62"/>
            <path d="M839.135 502.31c-89.997-144.059-105.865-58.305-38.21-63.265 67.653-4.96 264.435 65.72 84.897-47.657-179.539-113.377-128.056-197.436-161.974-93.516-33.918 103.92-4.74 262.856 16.123 226.72 20.864-36.136 189.161 121.777 99.164-22.282z" stroke="#E22183"/>
            <path d="M832.89 493.72c-89.996-144.06-105.865-58.305-38.21-63.265 67.654-4.96 264.436 65.719 84.897-47.658-179.538-113.376-128.056-197.436-161.974-93.516-33.918 103.92-4.74 262.857 16.124 226.72 20.863-36.136 189.16 121.778 99.164-22.281z" stroke="#650675"/>
        </g>
        <g opacity=".3" stroke-width="2">
            <path d="M828.104 497.364c-78.269-147.157-99.649-64.328-33.088-64.536 66.56-.207 254.359 82.476 86.35-40.805C713.36 268.74 769.485 190.017 729.198 289.383c-40.286 99.366-22.563 256.905.323 222.975 22.886-33.93 176.854 132.163 98.584-14.994z" stroke="#D3EB62"/>
            <path d="M833.06 503.261c-78.268-147.157-99.648-64.328-33.088-64.536 66.56-.207 254.359 82.476 86.351-40.805-168.008-123.282-111.883-202.006-152.17-102.64-40.286 99.366-22.563 256.905.323 222.975 22.886-33.93 176.854 132.163 98.585-14.994z" stroke="#E22183"/>
            <path d="M827.534 494.426c-78.27-147.158-99.649-64.329-33.088-64.536 66.56-.207 254.358 82.476 86.35-40.806s-111.883-202.006-152.17-102.64c-40.286 99.367-22.563 256.905.323 222.975 22.886-33.93 176.854 132.164 98.585-14.993z" stroke="#650675"/>
        </g>
        <g opacity=".28" stroke-width=".8">
            <path d="M822.594 497.64c-66.555-149.336-93.118-69.776-27.978-65.406 65.14 4.369 243.255 98.154 87.27-33.988-155.986-132.142-95.707-205.3-141.896-110.861-46.189 94.44-39.582 249.771-14.878 218.15 24.705-31.62 164.036 141.439 97.482-7.896z" stroke="#D3EB62"/>
            <path d="M827.041 503.748c-66.554-149.334-93.117-69.774-27.978-65.405 65.14 4.369 243.256 98.154 87.27-33.988-155.985-132.142-95.706-205.3-141.895-110.86-46.189 94.439-39.583 249.77-14.878 218.15 24.705-31.62 164.036 141.438 97.481-7.897z" stroke="#E22183"/>
            <path d="M822.236 494.725c-66.555-149.334-93.118-69.774-27.978-65.405 65.14 4.369 243.255 98.154 87.27-33.988-155.986-132.142-95.707-205.3-141.896-110.86-46.189 94.439-39.582 249.77-14.878 218.15 24.705-31.62 164.036 141.438 97.482-7.897z" stroke="#650675"/>
        </g>
        <g opacity=".26" stroke-width="2">
            <path d="M817.177 497.505c-54.923-150.61-86.32-74.63-22.91-65.883 63.412 8.746 231.228 112.694 87.668-27.244s-79.624-207.342-131.23-118.16c-51.604 89.183-55.72 241.54-29.405 212.314 26.315-29.226 150.8 149.582 95.877-1.027z" stroke="#D3EB62"/>
            <path d="M821.111 503.785c-54.923-150.61-86.32-74.63-22.91-65.884 63.412 8.747 231.228 112.695 87.668-27.243-143.56-139.939-79.624-207.342-131.23-118.16-51.604 89.183-55.72 241.54-29.405 212.314 26.315-29.226 150.8 149.582 95.877-1.027z" stroke="#E22183"/>
            <path d="M817.026 494.63c-54.924-150.608-86.32-74.629-22.91-65.882 63.411 8.746 231.227 112.694 87.667-27.244s-79.624-207.342-131.229-118.16c-51.605 89.183-55.72 241.54-29.405 212.314 26.315-29.226 150.8 149.582 95.877-1.027z" stroke="#650675"/>
        </g>
        <g opacity=".24" stroke-width="2">
            <path d="M811.885 496.976c-43.444-151.003-79.308-78.884-17.912-65.979 61.395 12.905 218.377 126.045 87.556-20.613-130.821-146.658-63.73-208.159-120.248-124.52-56.517 83.639-70.909 232.296-43.195 205.532 27.715-26.763 137.244 156.583 93.8 5.58z" stroke="#D3EB62"/>
            <path d="M815.304 503.385c-43.444-151.003-79.308-78.884-17.913-65.979 61.395 12.905 218.378 126.046 87.557-20.613-130.822-146.658-63.731-208.159-120.248-124.52-56.518 83.639-70.91 232.296-43.195 205.532 27.714-26.763 137.243 156.583 93.799 5.58z" stroke="#E22183"/>
            <path d="M811.933 494.156c-43.444-151.003-79.308-78.884-17.913-65.979 61.395 12.905 218.378 126.045 87.556-20.613-130.82-146.658-63.73-208.159-120.248-124.52-56.517 83.639-70.908 232.295-43.194 205.532 27.714-26.763 137.243 156.583 93.799 5.58z" stroke="#650675"/>
        </g>
        <g opacity=".22" stroke-width="2">
            <path d="M806.746 496.07c-32.181-150.545-72.13-82.531-13.016-65.706 59.114 16.826 204.814 138.165 86.957-14.132s-48.117-207.79-109.03-129.938c-60.915 77.853-85.087 222.134-56.186 197.883 28.9-24.25 123.457 162.437 91.275 11.892z" stroke="#D3EB62"/>
            <path d="M809.65 502.567c-32.181-150.544-72.13-82.53-13.016-65.705 59.115 16.826 204.814 138.165 86.957-14.132s-48.117-207.79-109.03-129.938c-60.914 77.853-85.087 222.134-56.186 197.883 28.901-24.25 123.457 162.436 91.276 11.892z" stroke="#E22183"/>
            <path d="M806.984 493.317c-32.181-150.544-72.13-82.53-13.016-65.705 59.114 16.825 204.814 138.164 86.957-14.132-117.857-152.297-48.117-207.79-109.03-129.938-60.915 77.852-85.087 222.133-56.186 197.883 28.9-24.251 123.457 162.436 91.275 11.892z" stroke="#650675"/>
        </g>
        <g opacity=".2" stroke-width="2">
            <path d="M801.786 494.803c-21.198-149.264-64.838-85.568-8.246-65.076 56.59 20.493 190.643 149.02 85.888-7.837-104.754-156.856-32.87-206.278-97.654-134.41-64.785 71.869-98.2 211.148-68.326 189.443 29.875-21.706 109.535 167.145 88.338 17.88z" stroke="#D3EB62"/>
            <path d="M804.18 501.35c-21.197-149.265-64.837-85.569-8.245-65.076 56.59 20.493 190.643 149.02 85.888-7.837-104.754-156.857-32.87-206.279-97.654-134.41-64.785 71.868-98.2 211.148-68.326 189.442 29.875-21.705 109.535 167.146 88.338 17.88z" stroke="#E22183"/>
            <path d="M802.205 492.13c-21.197-149.264-64.837-85.568-8.246-65.075 56.592 20.493 190.644 149.02 85.889-7.837-104.755-156.857-32.87-206.278-97.655-134.41-64.784 71.868-98.2 211.148-68.325 189.442 29.875-21.705 109.535 167.146 88.337 17.88z" stroke="#650675"/>
        </g>
        <g opacity=".18" stroke-width="2">
            <path d="M796.905 493.276c-10.335-147.337-57.485-87.995-3.532-64.168 53.954 23.827 176.181 158.458 84.602-1.903-91.579-160.36-17.781-203.854-86.195-137.941-68.414 65.912-110.83 199.826-80.08 180.61 30.751-19.215 95.54 170.74 85.205 23.402z" stroke="#D3EB62"/>
            <path d="M798.792 499.837c-10.335-147.337-57.485-87.996-3.531-64.17 53.954 23.828 176.18 158.46 84.601-1.902-91.578-160.36-17.781-203.854-86.195-137.941-68.414 65.912-110.83 199.826-80.08 180.61 30.752-19.215 95.54 170.74 85.205 23.403z" stroke="#E22183"/>
            <path d="M797.502 490.692c-10.335-147.337-57.485-87.996-3.531-64.169 53.953 23.828 176.18 158.459 84.601-1.902-91.578-160.36-17.781-203.854-86.195-137.942-68.414 65.912-110.83 199.826-80.08 180.61 30.752-19.215 95.54 170.74 85.205 23.403z" stroke="#650675"/>
        </g>
        <g opacity=".16" stroke-width="2">
            <path d="M792.32 491.566c-.033-144.988-50.268-90.108.935-63.08 51.202 27.029 161.674 167.238 82.975 3.932-78.699-163.306-3.456-200.842-74.962-140.983-71.506 59.859-122.21 188.089-90.781 171.378 31.428-16.71 81.866 173.74 81.833 28.753z" stroke="#D3EB62"/>
            <path d="M793.719 498.119c-.033-144.988-50.268-90.107.935-63.08 51.202 27.029 161.674 167.238 82.975 3.932-78.699-163.306-3.456-200.842-74.962-140.983-71.506 59.859-122.21 188.09-90.781 171.379 31.428-16.711 81.866 173.74 81.833 28.752z" stroke="#E22183"/>
            <path d="M793.081 489.076c-.033-144.988-50.267-90.108.935-63.08 51.203 27.029 161.674 167.238 82.976 3.932-78.7-163.306-3.457-200.842-74.962-140.983-71.506 59.859-122.21 188.089-90.782 171.378 31.428-16.71 81.867 173.74 81.833 28.753z" stroke="#650675"/>
        </g>
        <g opacity=".14" stroke-width=".8">
            <path d="M787.952 489.554c9.89-141.933-43.04-91.649 5.232-61.685s146.816 174.78 80.954 9.53c-65.86-165.25 10.362-196.844-63.73-143.143-74.093 53.701-132.502 175.756-100.594 161.55 31.908-14.207 68.248 175.68 78.138 33.748z" stroke="#D3EB62"/>
            <path d="M788.873 496.065c9.89-141.933-43.04-91.649 5.232-61.685 48.271 29.964 146.815 174.78 80.954 9.53-65.86-165.25 10.362-196.844-63.73-143.143-74.093 53.7-132.502 175.755-100.594 161.549 31.908-14.206 68.248 175.681 78.138 33.749z" stroke="#E22183"/>
            <path d="M788.868 487.169c9.89-141.933-43.04-91.649 5.232-61.685 48.271 29.963 146.815 174.78 80.954 9.53-65.86-165.25 10.362-196.844-63.73-143.143-74.093 53.7-132.502 175.755-100.594 161.549 31.908-14.206 68.248 175.681 78.138 33.749z" stroke="#650675"/>
        </g>
        <g opacity=".12" stroke-width="2">
            <path d="M783.82 487.263c19.388-138.212-35.846-92.63 9.34-60.004 45.185 32.625 131.706 181.08 78.564 14.865-53.141-166.214 23.606-191.913-52.57-144.434-76.176 47.478-141.68 162.918-109.486 151.2 32.195-11.718 54.764 176.585 74.152 38.373z" stroke="#D3EB62"/>
            <path d="M784.276 493.697c19.387-138.212-35.846-92.629 9.34-60.004 45.185 32.625 131.706 181.08 78.564 14.866-53.142-166.215 23.606-191.914-52.57-144.435-76.176 47.479-141.681 162.919-109.486 151.2 32.195-11.717 54.764 176.586 74.152 38.373z" stroke="#E22183"/>
            <path d="M784.88 484.992c19.387-138.213-35.846-92.63 9.34-60.005 45.185 32.625 131.706 181.08 78.564 14.866-53.142-166.214 23.606-191.914-52.57-144.435-76.176 47.479-141.681 162.919-109.486 151.2 32.195-11.717 54.763 176.586 74.151 38.374z" stroke="#650675"/>
        </g>
        <g opacity=".1" stroke-width="2">
            <path d="M779.941 484.716c28.417-133.872-28.727-93.061 13.24-58.057 41.967 35.005 116.446 186.141 75.832 19.917-40.614-166.225 36.215-186.113-41.544-144.882-77.76 41.232-149.729 149.673-117.435 140.413 32.293-9.26 41.49 176.48 69.907 42.61z" stroke="#D3EB62"/>
            <path d="M779.947 491.041c28.417-133.871-28.728-93.06 13.24-58.056 41.967 35.004 116.446 186.14 75.832 19.916-40.614-166.225 36.215-186.113-41.544-144.881-77.76 41.231-149.729 149.672-117.436 140.413 32.294-9.26 41.491 176.48 69.908 42.608z" stroke="#E22183"/>
            <path d="M781.133 482.567c28.417-133.872-28.728-93.061 13.24-58.057 41.967 35.005 116.445 186.14 75.832 19.916-40.614-166.224 36.215-186.113-41.544-144.88-77.76 41.23-149.73 149.672-117.436 140.412 32.293-9.26 41.491 176.48 69.908 42.609z" stroke="#650675"/>
        </g>
        <g opacity=".08" stroke-width="2">
            <path d="M776.331 481.937c36.937-128.957-21.727-92.96 16.915-55.863 38.641 37.098 101.132 189.973 72.785 24.66-28.348-165.313 48.134-179.506-30.716-144.507-78.85 35-156.633 136.113-124.425 129.266 32.209-6.846 28.504 175.402 65.441 46.444z" stroke="#D3EB62"/>
            <path d="M775.904 488.122c36.938-128.957-21.727-92.96 16.915-55.863 38.641 37.098 101.132 189.973 72.785 24.66-28.347-165.313 48.134-179.506-30.716-144.507-78.85 35-156.633 136.113-124.424 129.267 32.208-6.846 28.503 175.4 65.44 46.443z" stroke="#E22183"/>
            <path d="M777.643 479.917c36.938-128.958-21.727-92.96 16.915-55.863 38.641 37.098 101.132 189.973 72.785 24.66-28.347-165.313 48.134-179.506-30.716-144.507-78.85 35-156.633 136.112-124.425 129.266 32.209-6.846 28.504 175.402 65.441 46.444z" stroke="#650675"/>
        </g>
        <g opacity=".06" stroke-width="2">
            <path d="M773.003 478.951c44.914-123.52-14.883-92.345 20.35-53.445 35.231 38.901 85.86 192.594 69.452 29.078s59.312-172.161-20.145-143.342c-79.458 28.82-162.39 122.331-130.443 117.841 31.947-4.49 15.872 173.388 60.786 49.868z" stroke="#D3EB62"/>
            <path d="M772.163 484.967c44.914-123.52-14.883-92.345 20.35-53.444 35.231 38.9 85.86 192.594 69.452 29.077-16.408-163.516 59.312-172.16-20.145-143.342-79.458 28.82-162.39 122.332-130.443 117.842 31.948-4.49 15.872 173.387 60.786 49.867z" stroke="#E22183"/>
            <path d="M774.423 477.066c44.915-123.52-14.882-92.345 20.35-53.445 35.232 38.901 85.861 192.594 69.453 29.078-16.409-163.516 59.312-172.16-20.146-143.342-79.457 28.82-162.39 122.332-130.443 117.842 31.948-4.49 15.872 173.387 60.786 49.867z" stroke="#650675"/>
        </g>
        <g opacity=".04" stroke-width="2">
            <path d="M769.967 475.784c52.317-117.61-8.231-91.238 23.531-50.825 31.763 40.412 70.726 194.029 65.866 33.153-4.86-160.875 69.706-164.148-9.889-141.42C769.88 339.419 682.471 425.114 713.99 422.91c31.518-2.204 3.661 170.483 55.978 52.874z" stroke="#D3EB62"/>
            <path d="M768.736 481.604c52.317-117.61-8.231-91.238 23.531-50.825 31.763 40.413 70.726 194.03 65.866 33.154-4.86-160.876 69.706-164.148-9.89-141.42C768.65 345.24 681.24 430.934 712.758 428.73c31.518-2.204 3.662 170.483 55.979 52.873z" stroke="#E22183"/>
            <path d="M771.484 474.04c52.317-117.61-8.232-91.239 23.531-50.826 31.762 40.413 70.726 194.03 65.866 33.154-4.86-160.876 69.706-164.148-9.89-141.42-79.594 22.727-167.004 108.422-135.486 106.218 31.518-2.204 3.662 170.483 55.979 52.873z" stroke="#650675"/>
        </g>
        <g opacity=".02" stroke-width="2">
            <path d="M767.233 472.46c59.12-111.28-1.808-89.661 26.45-48.026 28.256 41.634 55.815 194.311 62.054 36.874 6.24-157.437 79.278-155.54 0-138.781-79.277 16.76-170.486 94.477-139.558 94.477 30.929 0-8.065 166.737 51.054 55.456z" stroke="#D3EB62"/>
            <path d="M765.633 478.06c59.12-111.28-1.808-89.661 26.45-48.026 28.256 41.634 55.815 194.311 62.054 36.874 6.24-157.437 79.278-155.54 0-138.781-79.277 16.76-170.486 94.477-139.558 94.477 30.929 0-8.065 166.737 51.054 55.456z" stroke="#E22183"/>
            <path d="M768.833 470.86c59.12-111.28-1.808-89.661 26.45-48.026 28.256 41.634 55.815 194.311 62.054 36.874 6.24-157.437 79.278-155.54 0-138.781-79.277 16.76-170.486 94.477-139.558 94.477 30.929 0-8.065 166.737 51.054 55.456z" stroke="#650675"/>
        </g>
    </g>
</svg>
