<svg class="u-max-full-width" viewBox="0 0 466 116" xmlns="http://www.w3.org/2000/svg">
    <g fill="none" fill-rule="evenodd">
        <path d="M2 51a2 2 0 012 2v10a2 2 0 11-4 0V53a2 2 0 012-2zm6 4a2 2 0 012 2v2a2 2 0 11-4 0v-2a2 2 0 012-2zm12-3a2 2 0 012 2v8a2 2 0 11-4 0v-8a2 2 0 012-2zm6-8a2 2 0 012 2v24a2 2 0 11-4 0V46a2 2 0 012-2zm6 1a2 2 0 012 2v22a2 2 0 11-4 0V47a2 2 0 012-2zm6 3a2 2 0 012 2v16a2 2 0 11-4 0V50a2 2 0 012-2zm6 8a2 2 0 110 4 2 2 0 010-4zm6 0a2 2 0 110 4 2 2 0 010-4zm6-3a2 2 0 012 2v6a2 2 0 11-4 0v-6a2 2 0 012-2zm6 0a2 2 0 012 2v6a2 2 0 11-4 0v-6a2 2 0 012-2zm6-6a2 2 0 012 2v18a2 2 0 11-4 0V49a2 2 0 012-2zm6 1a2 2 0 012 2v16a2 2 0 11-4 0V50a2 2 0 012-2zm6-5a2 2 0 012 2v26a2 2 0 11-4 0V45a2 2 0 012-2zm6-5a2 2 0 012 2v36a2 2 0 11-4 0V40a2 2 0 012-2zm6-1a2 2 0 012 2v38a2 2 0 11-4 0V39a2 2 0 012-2zm6 8a2 2 0 012 2v22a2 2 0 11-4 0V47a2 2 0 012-2zm6-2a2 2 0 012 2v26a2 2 0 01-4 0V45a2 2 0 012-2zm6 10a2 2 0 012 2v6a2 2 0 01-4 0v-6a2 2 0 012-2zm6 1a2 2 0 012 2v4a2 2 0 01-4 0v-4a2 2 0 012-2zm6 2a2 2 0 110 4 2 2 0 010-4zm6 0a2 2 0 110 4 2 2 0 010-4zm6 0a2 2 0 110 4 2 2 0 010-4zm6 0a2 2 0 110 4 2 2 0 010-4zm6-2a2 2 0 012 2v4a2 2 0 01-4 0v-4a2 2 0 012-2zm6-5a2 2 0 012 2v14a2 2 0 01-4 0V51a2 2 0 012-2zm6 3a2 2 0 012 2v8a2 2 0 01-4 0v-8a2 2 0 012-2z" fill="#E85059"/>
        <path d="M272 44a2 2 0 012 2v24a2 2 0 01-4 0V46a2 2 0 012-2z" fill="#D1D1D3"/>
        <path d="M164 54a2 2 0 012 2v4a2 2 0 01-4 0v-4a2 2 0 012-2z" fill="#E85059"/>
        <path d="M278 49a2 2 0 012 2v14a2 2 0 01-4 0V51a2 2 0 012-2z" fill="#D1D1D3"/>
        <path d="M170 50a2 2 0 012 2v12a2 2 0 01-4 0V52a2 2 0 012-2z" fill="#E85059"/>
        <path d="M284 42a2 2 0 012 2v28a2 2 0 01-4 0V44a2 2 0 012-2z" fill="#D1D1D3"/>
        <path d="M176 41a2 2 0 012 2v30a2 2 0 01-4 0V43a2 2 0 012-2z" fill="#E85059"/>
        <path d="M290 44a2 2 0 012 2v24a2 2 0 01-4 0V46a2 2 0 012-2z" fill="#D1D1D3"/>
        <path d="M182 45a2 2 0 012 2v22a2 2 0 01-4 0V47a2 2 0 012-2z" fill="#E85059"/>
        <path d="M296 37a2 2 0 012 2v38a2 2 0 01-4 0V39a2 2 0 012-2z" fill="#D1D1D3"/>
        <path d="M188 51a2 2 0 012 2v10a2 2 0 01-4 0V53a2 2 0 012-2z" fill="#E85059"/>
        <path d="M302 40a2 2 0 012 2v32a2 2 0 01-4 0V42a2 2 0 012-2z" fill="#D1D1D3"/>
        <path d="M194 47a2 2 0 012 2v18a2 2 0 01-4 0V49a2 2 0 012-2z" fill="#E85059"/>
        <path d="M308 42a2 2 0 012 2v28a2 2 0 01-4 0V44a2 2 0 012-2z" fill="#D1D1D3"/>
        <path d="M200 51a2 2 0 012 2v10a2 2 0 01-4 0V53a2 2 0 012-2z" fill="#E85059"/>
        <path d="M314 41a2 2 0 012 2v30a2 2 0 01-4 0V43a2 2 0 012-2z" fill="#D1D1D3"/>
        <path d="M206 54a2 2 0 012 2v4a2 2 0 01-4 0v-4a2 2 0 012-2z" fill="#E85059"/>
        <path d="M320 44a2 2 0 012 2v24a2 2 0 01-4 0V46a2 2 0 012-2zM212 56a2 2 0 110 4 2 2 0 010-4zm114-5a2 2 0 012 2v10a2 2 0 01-4 0V53a2 2 0 012-2zm-108 2a2 2 0 012 2v6a2 2 0 01-4 0v-6a2 2 0 012-2zm114 2a2 2 0 012 2v2a2 2 0 01-4 0v-2a2 2 0 012-2zm-108 0a2 2 0 012 2v2a2 2 0 01-4 0v-2a2 2 0 012-2zm114-2a2 2 0 012 2v6a2 2 0 01-4 0v-6a2 2 0 012-2zm-108-4a2 2 0 012 2v14a2 2 0 01-4 0V51a2 2 0 012-2zm114 6a2 2 0 012 2v2a2 2 0 01-4 0v-2a2 2 0 012-2zM236 42a2 2 0 012 2v28a2 2 0 01-4 0V44a2 2 0 012-2zm114 12a2 2 0 012 2v4a2 2 0 01-4 0v-4a2 2 0 012-2zM242 43a2 2 0 012 2v26a2 2 0 01-4 0V45a2 2 0 012-2zm114 8a2 2 0 012 2v10a2 2 0 01-4 0V53a2 2 0 012-2zM248 41a2 2 0 012 2v30a2 2 0 01-4 0V43a2 2 0 012-2zm114 5a2 2 0 012 2v20a2 2 0 01-4 0V48a2 2 0 012-2zm-108-6a2 2 0 012 2v32a2 2 0 01-4 0V42a2 2 0 012-2zm114 12a2 2 0 012 2v8a2 2 0 01-4 0v-8a2 2 0 012-2zm-108-8a2 2 0 012 2v24a2 2 0 01-4 0V46a2 2 0 012-2zm114 7a2 2 0 012 2v10a2 2 0 01-4 0V53a2 2 0 012-2zm-108-7a2 2 0 012 2v24a2 2 0 01-4 0V46a2 2 0 012-2zm114-2a2 2 0 012 2v28a2 2 0 01-4 0V44a2 2 0 012-2zm6 3a2 2 0 012 2v22a2 2 0 01-4 0V47a2 2 0 012-2zm6-2a2 2 0 012 2v26a2 2 0 01-4 0V45a2 2 0 012-2zm6-3a2 2 0 012 2v32a2 2 0 01-4 0V42a2 2 0 012-2zm6 1a2 2 0 012 2v30a2 2 0 01-4 0V43a2 2 0 012-2zm6-4a2 2 0 012 2v38a2 2 0 01-4 0V39a2 2 0 012-2zm6 1a2 2 0 012 2v36a2 2 0 01-4 0V40a2 2 0 012-2zm6 0a2 2 0 012 2v36a2 2 0 01-4 0V40a2 2 0 012-2zm6 7a2 2 0 012 2v22a2 2 0 01-4 0V47a2 2 0 012-2zm6 9a2 2 0 012 2v4a2 2 0 01-4 0v-4a2 2 0 012-2zm6 2a2 2 0 110 4 2 2 0 010-4zm6-11a2 2 0 012 2v22a2 2 0 01-4 0V47a2 2 0 012-2zm6-3a2 2 0 012 2v28a2 2 0 01-4 0V44a2 2 0 012-2zm6 7a2 2 0 012 2v14a2 2 0 01-4 0V51a2 2 0 012-2zm6-4a2 2 0 012 2v22a2 2 0 01-4 0V47a2 2 0 012-2z" fill="#D1D1D3"/>
        <rect fill="#D1D1D3" x="229" y="8" width="2" height="50" rx="1"/>
        <rect fill="#D1D1D3" x="13" y="8" width="2" height="50" rx="1"/>
        <circle stroke="#FFF" stroke-width="2" fill="#E85059" cx="230" cy="7" r="3"/>
        <circle stroke="#FFF" stroke-width="2" fill="#D1D1D3" cx="14" cy="7" r="3"/>
        <path d="M230 37a2.99 2.99 0 00-2.121.879A2.99 2.99 0 00227 40v36c0 .828.336 1.578.879 2.121A2.99 2.99 0 00230 79a2.99 2.99 0 002.121-.879A2.99 2.99 0 00233 76V40a2.99 2.99 0 00-.879-2.121A2.99 2.99 0 00230 37z" stroke="#FFF" stroke-width="2" fill="#D1D1D3"/>
        <path d="M14 55a2.99 2.99 0 00-2.121.879A2.99 2.99 0 0011 58c0 .828.336 1.578.879 2.121A2.99 2.99 0 0014 61a2.99 2.99 0 002.121-.879A2.99 2.99 0 0017 58a2.99 2.99 0 00-.879-2.121A2.99 2.99 0 0014 55z" stroke="#F4F4F5" stroke-width="2" fill="#E85059"/>
        <g fill-rule="nonzero">
            <path d="M23.102 11V4.326h2.273V3.002h-6.129v1.324h2.268V11h1.588zm4.534 0V8.018h1.418l1.4 2.982h1.77L30.62 7.777c.726-.28 1.453-1.072 1.453-2.244 0-1.53-1.032-2.531-2.807-2.531h-3.193V11h1.564zm1.377-4.172h-1.377V4.244h1.4c.838 0 1.401.463 1.401 1.318 0 .844-.545 1.266-1.424 1.266zM34.052 11l.627-2.057h2.671L37.977 11h1.682l-2.672-7.998h-1.851L32.452 11h1.6zm2.982-3.234h-2.027l.978-3.235h.07l.98 3.235zm6.128 3.386c1.752 0 3.047-1.054 3.124-2.584v-.152h-1.53c-.064.82-.662 1.4-1.582 1.4-1.119 0-1.758-.826-1.758-2.302v-.99c0-1.483.65-2.338 1.758-2.338.908 0 1.518.626 1.582 1.476h1.53v-.146c-.07-1.582-1.366-2.666-3.124-2.666-2.138 0-3.357 1.4-3.357 3.668v.996c0 2.267 1.207 3.638 3.357 3.638zM48.97 11V8.434l.82-.932L52.027 11h1.904l-2.976-4.553 2.853-3.445h-1.74l-3.023 3.58h-.076v-3.58h-1.582V11h1.582zm12.584 0V9.518h.979V8.24h-.979V3.002h-2.279c-1.049 1.728-2.139 3.463-3.076 5.22v1.296h3.873V11h1.482zm-1.482-2.76h-2.437V8.2c.72-1.36 1.552-2.731 2.355-4.003h.082V8.24z" fill="#9C9CA0"/>
            <path d="M24.977 25v-1.348h-3.393v-6.65h-1.582V25h4.975zm3.216.111c1.699 0 2.836-1.043 2.836-2.888v-.698c0-1.757-1.137-2.853-2.836-2.853-1.711 0-2.854 1.137-2.854 2.865v.686c0 1.857 1.131 2.888 2.854 2.888zm0-1.2c-.89 0-1.295-.768-1.295-1.7v-.645c0-.937.433-1.699 1.295-1.699.855 0 1.277.756 1.277 1.7v.644c0 .937-.392 1.7-1.277 1.7zm7.253 1.171c1.46 0 2.338-1.043 2.338-2.771v-.844c0-1.729-.873-2.766-2.314-2.766-.891 0-1.594.416-1.8 1.067h-.075V16.58h-1.547V25h1.523v-.95h.076c.252.64.932 1.032 1.8 1.032zm-.515-1.23c-.791 0-1.336-.622-1.336-1.536v-.773c0-.99.504-1.611 1.318-1.611.82 0 1.29.62 1.29 1.699v.539c0 1.066-.464 1.682-1.272 1.682zm6.028 1.26c1.664 0 2.66-.762 2.66-2.028 0-1.143-.832-1.559-1.98-1.752-.674-.117-1.605-.2-1.605-.844 0-.463.38-.75.996-.75.668 0 1.002.381 1.037.75h1.365c0-1.154-.979-1.816-2.373-1.816-1.318 0-2.496.557-2.496 1.945 0 1.213.902 1.588 2.021 1.81.809.159 1.541.241 1.541.839 0 .427-.322.779-1.095.779-.692 0-1.037-.31-1.096-.762H38.44c0 1.113.943 1.828 2.52 1.828zm6.07-.077c.352 0 .785-.04.908-.064v-1.143c-.111.012-.34.024-.533.024-.644 0-.902-.188-.902-.809v-3.018h1.377v-1.183h-1.377v-1.547h-1.5v1.547h-.979v1.183h.944v3.217c0 1.272.515 1.793 2.062 1.793zm4.365.076c1.775 0 2.543-1.107 2.607-1.88h-1.465c-.07.386-.515.69-1.148.69-.809 0-1.318-.573-1.318-1.394v-.293h3.99v-.714c0-1.758-1.131-2.848-2.742-2.848-1.547 0-2.76 1.008-2.76 2.848v.738c0 1.834 1.113 2.853 2.836 2.853zm1.172-3.814H50.07v-.065c0-.843.51-1.4 1.254-1.4.75 0 1.242.557 1.242 1.4v.065zM56.678 25v-3.557c0-.838.48-1.43 1.489-1.43.24 0 .492.018.61.053V18.73a2.498 2.498 0 00-.487-.04c-.985 0-1.442.644-1.57 1.066h-.077v-.973h-1.54V25h1.575zm8.115.152c2.144 0 3.164-1.312 3.164-2.865v-1.594h-3.153v1.178h1.647v.51c0 .803-.545 1.447-1.64 1.447-1.26 0-1.84-.943-1.84-2.35v-.996c0-1.459.656-2.302 1.798-2.302.88 0 1.453.498 1.606 1.218h1.552c-.134-1.394-1.236-2.548-3.14-2.548-2.168 0-3.416 1.453-3.416 3.62v1.014c0 2.168 1.125 3.668 3.422 3.668zm6.064-.058c.92 0 1.44-.428 1.687-.885h.07V25h1.46v-4.178c0-1.576-1.137-2.138-2.532-2.138-1.705 0-2.432.82-2.502 1.84h1.46c.075-.387.374-.663 1.007-.663.633 0 1.037.3 1.037.926v.557h-1.518c-1.441 0-2.214.738-2.214 1.851 0 1.172.832 1.899 2.045 1.899zm.503-1.137c-.527 0-1.013-.281-1.013-.861 0-.475.322-.82 1.008-.82h1.189v.644c0 .603-.533 1.037-1.184 1.037zM76.956 25v-3.557c0-.838.48-1.43 1.488-1.43.24 0 .492.018.61.053V18.73a2.498 2.498 0 00-.487-.04c-.984 0-1.441.644-1.57 1.066h-.077v-.973h-1.54V25h1.576zm4.353 0v-3.791c0-.809.474-1.254 1.095-1.254s1.084.399 1.084 1.207V25h1.489v-3.78c0-.796.486-1.265 1.119-1.265.644 0 1.066.387 1.066 1.178V25h1.541v-4.342c0-1.219-.744-1.974-2.004-1.974-1.066 0-1.67.597-1.886 1.171h-.06c-.187-.673-.767-1.171-1.704-1.171-1.131 0-1.565.662-1.7 1.125h-.076v-1.026h-1.505V25h1.54zm11.202.111c1.776 0 2.543-1.107 2.608-1.88h-1.465c-.07.386-.516.69-1.149.69-.808 0-1.318-.573-1.318-1.394v-.293h3.99v-.714c0-1.758-1.13-2.848-2.742-2.848-1.547 0-2.76 1.008-2.76 2.848v.738c0 1.834 1.114 2.853 2.836 2.853zm1.172-3.814h-2.496v-.065c0-.843.51-1.4 1.254-1.4.75 0 1.242.557 1.242 1.4v.065zM97.703 25v-3.445c0-.938.474-1.576 1.306-1.576.633 0 1.119.369 1.119 1.289V25h1.54v-4.166c0-1.441-.825-2.15-2.073-2.15-1.225 0-1.7.709-1.852 1.195h-.076v-1.096H96.16V25h1.541zm7.674.035c.352 0 .785-.04.909-.064v-1.143c-.112.012-.34.024-.534.024-.644 0-.902-.188-.902-.809v-3.018h1.377v-1.183h-1.377v-1.547h-1.5v1.547h-.979v1.183h.944v3.217c0 1.272.515 1.793 2.062 1.793zm3.972.076c1.664 0 2.66-.761 2.66-2.027 0-1.143-.831-1.559-1.98-1.752-.674-.117-1.605-.2-1.605-.844 0-.463.38-.75.996-.75.668 0 1.002.381 1.037.75h1.365c0-1.154-.978-1.816-2.373-1.816-1.318 0-2.496.557-2.496 1.945 0 1.213.902 1.588 2.021 1.81.809.159 1.541.241 1.541.839 0 .427-.322.779-1.095.779-.692 0-1.037-.31-1.096-.762h-1.494c0 1.113.943 1.828 2.52 1.828z" fill="#E85059"/>
        </g>
        <g fill-rule="nonzero">
            <path d="M243.102 11V4.326h2.273V3.002h-6.129v1.324h2.268V11h1.588zm4.534 0V8.018h1.418l1.4 2.982h1.77l-1.605-3.223c.726-.28 1.453-1.072 1.453-2.244 0-1.53-1.032-2.531-2.807-2.531h-3.193V11h1.564zm1.377-4.172h-1.377V4.244h1.4c.838 0 1.401.463 1.401 1.318 0 .844-.545 1.266-1.424 1.266zM254.052 11l.627-2.057h2.671l.627 2.057h1.682l-2.672-7.998h-1.851L252.452 11h1.6zm2.982-3.234h-2.027l.978-3.235h.07l.98 3.235zm6.128 3.386c1.752 0 3.047-1.054 3.124-2.584v-.152h-1.53c-.064.82-.662 1.4-1.582 1.4-1.119 0-1.758-.826-1.758-2.302v-.99c0-1.483.65-2.338 1.758-2.338.908 0 1.518.626 1.582 1.476h1.53v-.146c-.07-1.582-1.366-2.666-3.124-2.666-2.138 0-3.357 1.4-3.357 3.668v.996c0 2.267 1.207 3.638 3.357 3.638zM268.97 11V8.434l.82-.932L272.027 11h1.904l-2.976-4.553 2.853-3.445h-1.74l-3.023 3.58h-.076v-3.58h-1.582V11h1.582zm10.51.152c1.688 0 2.942-1.025 2.942-2.8 0-1.688-1.248-2.561-2.514-2.561-1.084 0-1.688.568-1.928 1.113h-.094c-.035-1.664.616-2.789 1.665-2.789.703 0 1.09.387 1.2.739h1.507c-.059-.932-.961-1.993-2.684-1.993-1.951 0-3.211 1.407-3.211 4.348 0 1.166.223 2.027.598 2.637.58.949 1.511 1.306 2.52 1.306zm0-1.248c-.79 0-1.412-.556-1.412-1.488 0-.844.58-1.441 1.418-1.441.75 0 1.406.498 1.406 1.447 0 .978-.609 1.482-1.412 1.482z" fill="#9C9CA0"/>
            <path d="M243.037 25.152c1.752 0 3.047-1.054 3.123-2.584v-.152h-1.53c-.064.82-.661 1.4-1.581 1.4-1.12 0-1.758-.826-1.758-2.302v-.99c0-1.483.65-2.338 1.758-2.338.908 0 1.517.626 1.582 1.476h1.53v-.146c-.071-1.582-1.366-2.666-3.124-2.666-2.139 0-3.357 1.4-3.357 3.668v.996c0 2.267 1.207 3.638 3.357 3.638zm5.73-.152v-8.42h-1.547V25h1.547zm3.058.094c.92 0 1.442-.428 1.688-.885h.07V25h1.459v-4.178c0-1.576-1.137-2.138-2.531-2.138-1.705 0-2.432.82-2.502 1.84h1.459c.076-.387.375-.663 1.007-.663.633 0 1.038.3 1.038.926v.557h-1.518c-1.441 0-2.215.738-2.215 1.851 0 1.172.832 1.899 2.045 1.899zm.504-1.137c-.527 0-1.014-.281-1.014-.861 0-.475.323-.82 1.008-.82h1.19v.644c0 .603-.534 1.037-1.184 1.037zM258.868 25l1.177-4.424h.047L261.293 25h1.594l1.617-6.217h-1.535l-.926 4.588h-.064l-1.184-4.588h-1.447l-1.16 4.588h-.059l-.908-4.588h-1.629l1.67 6.217h1.606zm7.622-4.406l.205-3.592h-1.629l.205 3.592h1.22zm3.351 4.517c1.664 0 2.66-.761 2.66-2.027 0-1.143-.832-1.559-1.98-1.752-.674-.117-1.606-.2-1.606-.844 0-.463.381-.75.996-.75.668 0 1.002.381 1.038.75h1.365c0-1.154-.979-1.816-2.373-1.816-1.319 0-2.496.557-2.496 1.945 0 1.213.902 1.588 2.021 1.81.809.159 1.541.241 1.541.839 0 .427-.322.779-1.096.779-.691 0-1.037-.31-1.095-.762h-1.494c0 1.113.943 1.828 2.52 1.828zm8.97.041c1.963 0 3.228-1.16 3.228-2.912v-5.238h-1.588v5.086c0 1.101-.656 1.717-1.64 1.717-.99 0-1.647-.604-1.647-1.717v-5.086h-1.588v5.238c0 1.752 1.266 2.912 3.235 2.912zm6.058 1.91v-3.011h.076c.275.656.914 1.031 1.764 1.031 1.459 0 2.338-1.043 2.338-2.771v-.844c0-1.729-.874-2.766-2.315-2.766-.873 0-1.559.399-1.81 1.067h-.083v-.99h-1.517v8.284h1.547zm1.318-3.21c-.79 0-1.318-.604-1.318-1.518v-.809c0-.99.498-1.593 1.3-1.593.833 0 1.301.615 1.301 1.693v.54c0 1.071-.468 1.687-1.283 1.687zm9.24 2.976c-.815-1.266-1.436-2.947-1.436-5.232 0-2.28.738-4.008 1.441-5.016h-1.418c-.885 1.137-1.594 2.666-1.594 5.027 0 2.362.715 4.172 1.577 5.221h1.43zM301.19 25v-1.348h-3.39v-6.65h-1.582V25h4.974zm3.217.111c1.699 0 2.836-1.043 2.836-2.888v-.698c0-1.757-1.137-2.853-2.836-2.853-1.711 0-2.854 1.137-2.854 2.865v.686c0 1.857 1.131 2.888 2.854 2.888zm0-1.2c-.891 0-1.295-.768-1.295-1.7v-.645c0-.937.433-1.699 1.295-1.699.855 0 1.277.756 1.277 1.7v.644c0 .937-.393 1.7-1.277 1.7zm7.253 1.171c1.459 0 2.338-1.043 2.338-2.771v-.844c0-1.729-.873-2.766-2.315-2.766-.89 0-1.593.416-1.798 1.067h-.077V16.58h-1.546V25h1.523v-.95h.076c.252.64.932 1.032 1.799 1.032zm-.516-1.23c-.79 0-1.336-.622-1.336-1.536v-.773c0-.99.504-1.611 1.319-1.611.82 0 1.289.62 1.289 1.699v.539c0 1.066-.463 1.682-1.272 1.682zm7.283 1.23c1.46 0 2.338-1.043 2.338-2.771v-.844c0-1.729-.873-2.766-2.314-2.766-.891 0-1.594.416-1.8 1.067h-.075V16.58h-1.547V25h1.523v-.95h.076c.252.64.932 1.032 1.8 1.032zm-.516-1.23c-.79 0-1.335-.622-1.335-1.536v-.773c0-.99.503-1.611 1.318-1.611.82 0 1.289.62 1.289 1.699v.539c0 1.066-.463 1.682-1.272 1.682zm4.424 3.328c1.33 0 2.08-.563 2.619-1.987l.14-.369c.012-.035 1.606-4.635 2.04-6.04H325.5l-1.348 4.886h-.064l-1.325-4.887h-1.705l2.157 6.229-.041.164c-.118.61-.463.855-1.16.855-.165 0-.399-.017-.499-.035v1.12c.182.04.545.064.82.064zM332.958 25c2.414 0 3.58-1.477 3.58-4.02 0-2.525-1.149-3.978-3.58-3.978h-2.918V25h2.918zm-.211-1.295h-1.125v-5.414h1.125c1.482 0 2.162.914 2.162 2.719 0 1.804-.674 2.695-2.162 2.695zm7.417 1.406c1.7 0 2.836-1.043 2.836-2.888v-.698c0-1.757-1.137-2.853-2.836-2.853-1.71 0-2.853 1.137-2.853 2.865v.686c0 1.857 1.13 2.888 2.853 2.888zm0-1.2c-.89 0-1.295-.768-1.295-1.7v-.645c0-.937.434-1.699 1.295-1.699.856 0 1.278.756 1.278 1.7v.644c0 .937-.393 1.7-1.278 1.7zM345.548 25v-3.791c0-.809.475-1.254 1.096-1.254.621 0 1.084.399 1.084 1.207V25h1.488v-3.78c0-.796.487-1.265 1.12-1.265.644 0 1.066.387 1.066 1.178V25h1.541v-4.342c0-1.219-.744-1.974-2.004-1.974-1.066 0-1.67.597-1.887 1.171h-.058c-.188-.673-.768-1.171-1.705-1.171-1.131 0-1.565.662-1.7 1.125h-.076v-1.026h-1.506V25h1.541zm9.668-4.406l.205-3.592h-1.629l.205 3.592h1.219zm3.35 4.517c1.665 0 2.661-.761 2.661-2.027 0-1.143-.832-1.559-1.98-1.752-.674-.117-1.606-.2-1.606-.844 0-.463.381-.75.996-.75.668 0 1.002.381 1.037.75h1.366c0-1.154-.979-1.816-2.373-1.816-1.319 0-2.497.557-2.497 1.945 0 1.213.903 1.588 2.022 1.81.809.159 1.541.241 1.541.839 0 .427-.322.779-1.096.779-.691 0-1.037-.31-1.095-.762h-1.495c0 1.113.944 1.828 2.52 1.828zm8.93-.111v-6.674h2.273v-1.324h-6.129v1.324h2.268V25h1.588zm4.446 0v-3.445c0-.944.504-1.576 1.313-1.576.638 0 1.142.375 1.142 1.294V25h1.541v-4.154c0-1.448-.855-2.162-2.062-2.162-1.207 0-1.723.75-1.852 1.195h-.082V16.58h-1.535V25h1.535zm7.799.111c1.775 0 2.543-1.107 2.607-1.88h-1.465c-.07.386-.515.69-1.148.69-.809 0-1.319-.573-1.319-1.394v-.293h3.99v-.714c0-1.758-1.13-2.848-2.742-2.848-1.546 0-2.76 1.008-2.76 2.848v.738c0 1.834 1.114 2.853 2.837 2.853zm1.171-3.814h-2.496v-.065c0-.843.51-1.4 1.254-1.4.75 0 1.242.557 1.242 1.4v.065zm4.02 3.703v-3.791c0-.809.474-1.254 1.095-1.254s1.084.399 1.084 1.207V25h1.488v-3.78c0-.796.487-1.265 1.12-1.265.644 0 1.066.387 1.066 1.178V25h1.541v-4.342c0-1.219-.744-1.974-2.004-1.974-1.066 0-1.67.597-1.887 1.171h-.058c-.188-.673-.768-1.171-1.705-1.171-1.131 0-1.565.662-1.7 1.125h-.076v-1.026h-1.506V25h1.541zm11.202.111c1.775 0 2.543-1.107 2.607-1.88h-1.464c-.07.386-.516.69-1.149.69-.808 0-1.318-.573-1.318-1.394v-.293h3.99v-.714c0-1.758-1.13-2.848-2.742-2.848-1.547 0-2.76 1.008-2.76 2.848v.738c0 1.834 1.113 2.853 2.836 2.853zm1.172-3.814h-2.496v-.065c0-.843.51-1.4 1.254-1.4.75 0 1.242.557 1.242 1.4v.065zm3.322 5.531c.861-1.049 1.576-2.86 1.576-5.22 0-2.362-.71-3.891-1.594-5.028h-1.418c.703 1.008 1.442 2.736 1.442 5.016 0 2.285-.622 3.966-1.436 5.232h1.43z" fill="#E85059"/>
        </g>
    </g>
</svg>
