<svg class="u-max-full-width" viewBox="0 0 900 376" xmlns="http://www.w3.org/2000/svg" xmlns:xlink="http://www.w3.org/1999/xlink">
    <defs>
        <path d="M536 9a2 2 0 012 2v22a2 2 0 01-4 0V11a2 2 0 012-2z" id="a"/>
    </defs>
    <g fill="none" fill-rule="evenodd">
        <path d="M238 56a2 2 0 012 2v40a2 2 0 01-4 0V58a2 2 0 012-2zM244 62a2 2 0 012 2v28a2 2 0 01-4 0V64a2 2 0 012-2zM250 66a2 2 0 012 2v20a2 2 0 01-4 0V68a2 2 0 012-2zM256 58a2 2 0 012 2v36a2 2 0 01-4 0V60a2 2 0 012-2zM262 68a2 2 0 012 2v16a2 2 0 01-4 0V70a2 2 0 012-2zM268 63a2 2 0 012 2v26a2 2 0 01-4 0V65a2 2 0 012-2zM274 60a2 2 0 012 2v32a2 2 0 01-4 0V62a2 2 0 012-2zM280 67a2 2 0 012 2v18a2 2 0 01-4 0V69a2 2 0 012-2zM286 59a2 2 0 012 2v34a2 2 0 01-4 0V61a2 2 0 012-2zM292 75a2 2 0 012 2v2a2 2 0 01-4 0v-2a2 2 0 012-2zM298 73a2 2 0 012 2v6a2 2 0 01-4 0v-6a2 2 0 012-2zM304 64a2 2 0 012 2v24a2 2 0 01-4 0V66a2 2 0 012-2zM310 56a2 2 0 012 2v40a2 2 0 01-4 0V58a2 2 0 012-2zM64 56a2 2 0 012 2v40a2 2 0 11-4 0V58a2 2 0 012-2zM316 56a2 2 0 012 2v40a2 2 0 01-4 0V58a2 2 0 012-2zM70 56a2 2 0 012 2v40a2 2 0 11-4 0V58a2 2 0 012-2zM322 56a2 2 0 012 2v40a2 2 0 01-4 0V58a2 2 0 012-2zM76 56a2 2 0 012 2v40a2 2 0 11-4 0V58a2 2 0 012-2zM328 61a2 2 0 012 2v30a2 2 0 01-4 0V63a2 2 0 012-2zM82 61a2 2 0 012 2v30a2 2 0 11-4 0V63a2 2 0 012-2zM334 65a2 2 0 012 2v22a2 2 0 01-4 0V67a2 2 0 012-2zM88 65a2 2 0 012 2v22a2 2 0 11-4 0V67a2 2 0 012-2zM340 61a2 2 0 012 2v30a2 2 0 01-4 0V63a2 2 0 012-2zM94 61a2 2 0 012 2v30a2 2 0 11-4 0V63a2 2 0 012-2zM346 73a2 2 0 012 2v6a2 2 0 01-4 0v-6a2 2 0 012-2zM100 73a2 2 0 012 2v6a2 2 0 11-4 0v-6a2 2 0 012-2zM352 63a2 2 0 012 2v26a2 2 0 01-4 0V65a2 2 0 012-2zM106 63a2 2 0 012 2v26a2 2 0 01-4 0V65a2 2 0 012-2zM358 70a2 2 0 012 2v12a2 2 0 01-4 0V72a2 2 0 012-2zM112 70a2 2 0 012 2v12a2 2 0 01-4 0V72a2 2 0 012-2zM364 65a2 2 0 012 2v22a2 2 0 01-4 0V67a2 2 0 012-2zM118 65a2 2 0 012 2v22a2 2 0 01-4 0V67a2 2 0 012-2zM370 58a2 2 0 012 2v36a2 2 0 01-4 0V60a2 2 0 012-2zM124 58a2 2 0 012 2v36a2 2 0 01-4 0V60a2 2 0 012-2zM376 70a2 2 0 012 2v12a2 2 0 01-4 0V72a2 2 0 012-2zM130 70a2 2 0 012 2v12a2 2 0 01-4 0V72a2 2 0 012-2zM382 65a2 2 0 012 2v22a2 2 0 01-4 0V67a2 2 0 012-2zM136 65a2 2 0 012 2v22a2 2 0 01-4 0V67a2 2 0 012-2zM388 68a2 2 0 012 2v16a2 2 0 01-4 0V70a2 2 0 012-2zM142 68a2 2 0 012 2v16a2 2 0 01-4 0V70a2 2 0 012-2zM394 76a2 2 0 110 4 2 2 0 010-4zM148 76a2 2 0 110 4 2 2 0 010-4zM400 76a2 2 0 110 4 2 2 0 010-4zM154 76a2 2 0 110 4 2 2 0 010-4zM406 73a2 2 0 012 2v6a2 2 0 01-4 0v-6a2 2 0 012-2zM160 73a2 2 0 012 2v6a2 2 0 01-4 0v-6a2 2 0 012-2zM412 73a2 2 0 012 2v6a2 2 0 01-4 0v-6a2 2 0 012-2zM166 73a2 2 0 012 2v6a2 2 0 01-4 0v-6a2 2 0 012-2zM418 67a2 2 0 012 2v18a2 2 0 01-4 0V69a2 2 0 012-2zM172 67a2 2 0 012 2v18a2 2 0 01-4 0V69a2 2 0 012-2zM424 57a2 2 0 012 2v38a2 2 0 01-4 0V59a2 2 0 012-2zM430 63a2 2 0 012 2v26a2 2 0 01-4 0V65a2 2 0 012-2zM436 68a2 2 0 012 2v16a2 2 0 01-4 0V70a2 2 0 012-2zM442 60a2 2 0 012 2v32a2 2 0 01-4 0V62a2 2 0 012-2zM448 65a2 2 0 012 2v22a2 2 0 01-4 0V67a2 2 0 012-2z" fill="#125677"/>
        <path d="M454 63a2 2 0 012 2v26a2 2 0 01-4 0V65a2 2 0 012-2zM460 73a2 2 0 012 2v6a2 2 0 01-4 0v-6a2 2 0 012-2zM466 74a2 2 0 012 2v4a2 2 0 01-4 0v-4a2 2 0 012-2zM472 76a2 2 0 110 4 2 2 0 010-4zM478 76a2 2 0 110 4 2 2 0 010-4zM484 76a2 2 0 110 4 2 2 0 010-4zM490 76a2 2 0 110 4 2 2 0 010-4zM496 74a2 2 0 012 2v4a2 2 0 01-4 0v-4a2 2 0 012-2zM502 65a2 2 0 012 2v22a2 2 0 01-4 0V67a2 2 0 012-2zM508 72a2 2 0 012 2v8a2 2 0 01-4 0v-8a2 2 0 012-2zM622 72a2 2 0 012 2v8a2 2 0 01-4 0v-8a2 2 0 012-2zM514 74a2 2 0 012 2v4a2 2 0 01-4 0v-4a2 2 0 012-2zM628 74a2 2 0 012 2v4a2 2 0 01-4 0v-4a2 2 0 012-2zM520 70a2 2 0 012 2v12a2 2 0 01-4 0V72a2 2 0 012-2zM634 70a2 2 0 012 2v12a2 2 0 01-4 0V72a2 2 0 012-2zM526 61a2 2 0 012 2v30a2 2 0 01-4 0V63a2 2 0 012-2zM640 61a2 2 0 012 2v30a2 2 0 01-4 0V63a2 2 0 012-2zM532 57a2 2 0 012 2v38a2 2 0 01-4 0V59a2 2 0 012-2zM646 57a2 2 0 012 2v38a2 2 0 01-4 0V59a2 2 0 012-2zM538 58a2 2 0 012 2v36a2 2 0 01-4 0V60a2 2 0 012-2zM652 58a2 2 0 012 2v36a2 2 0 01-4 0V60a2 2 0 012-2zM544 58a2 2 0 012 2v36a2 2 0 01-4 0V60a2 2 0 012-2zM658 58a2 2 0 012 2v36a2 2 0 01-4 0V60a2 2 0 012-2zM550 65a2 2 0 012 2v22a2 2 0 01-4 0V67a2 2 0 012-2zM664 65a2 2 0 012 2v22a2 2 0 01-4 0V67a2 2 0 012-2zM556 74a2 2 0 012 2v4a2 2 0 01-4 0v-4a2 2 0 012-2zM670 74a2 2 0 012 2v4a2 2 0 01-4 0v-4a2 2 0 012-2zM562 76a2 2 0 110 4 2 2 0 010-4zM676 76a2 2 0 110 4 2 2 0 010-4zM568 65a2 2 0 012 2v22a2 2 0 01-4 0V67a2 2 0 012-2zM682 65a2 2 0 012 2v22a2 2 0 01-4 0V67a2 2 0 012-2zM574 62a2 2 0 012 2v28a2 2 0 01-4 0V64a2 2 0 012-2zM688 62a2 2 0 012 2v28a2 2 0 01-4 0V64a2 2 0 012-2zM580 69a2 2 0 012 2v14a2 2 0 01-4 0V71a2 2 0 012-2zM694 69a2 2 0 012 2v14a2 2 0 01-4 0V71a2 2 0 012-2zM586 65a2 2 0 012 2v22a2 2 0 01-4 0V67a2 2 0 012-2zM700 65a2 2 0 012 2v22a2 2 0 01-4 0V67a2 2 0 012-2zM592 58a2 2 0 012 2v36a2 2 0 01-4 0V60a2 2 0 012-2zM706 58a2 2 0 012 2v36a2 2 0 01-4 0V60a2 2 0 012-2zM598 70a2 2 0 012 2v12a2 2 0 01-4 0V72a2 2 0 012-2zM712 70a2 2 0 012 2v12a2 2 0 01-4 0V72a2 2 0 012-2zM604 63a2 2 0 012 2v26a2 2 0 01-4 0V65a2 2 0 012-2zM718 63a2 2 0 012 2v26a2 2 0 01-4 0V65a2 2 0 012-2zM610 68a2 2 0 012 2v16a2 2 0 01-4 0V70a2 2 0 012-2zM724 68a2 2 0 012 2v16a2 2 0 01-4 0V70a2 2 0 012-2zM616 74a2 2 0 012 2v4a2 2 0 01-4 0v-4a2 2 0 012-2zM730 74a2 2 0 012 2v4a2 2 0 01-4 0v-4a2 2 0 012-2zM736 72a2 2 0 012 2v8a2 2 0 01-4 0v-8a2 2 0 012-2zM742 74a2 2 0 012 2v4a2 2 0 01-4 0v-4a2 2 0 012-2zM748 70a2 2 0 012 2v12a2 2 0 01-4 0V72a2 2 0 012-2zM754 61a2 2 0 012 2v30a2 2 0 01-4 0V63a2 2 0 012-2zM760 57a2 2 0 012 2v38a2 2 0 01-4 0V59a2 2 0 012-2zM766 58a2 2 0 012 2v36a2 2 0 01-4 0V60a2 2 0 012-2zM772 58a2 2 0 012 2v36a2 2 0 01-4 0V60a2 2 0 012-2zM778 65a2 2 0 012 2v22a2 2 0 01-4 0V67a2 2 0 012-2zM784 74a2 2 0 012 2v4a2 2 0 01-4 0v-4a2 2 0 012-2zM790 76a2 2 0 110 4 2 2 0 010-4zM796 65a2 2 0 012 2v22a2 2 0 01-4 0V67a2 2 0 012-2zM802 62a2 2 0 012 2v28a2 2 0 01-4 0V64a2 2 0 012-2zM808 69a2 2 0 012 2v14a2 2 0 01-4 0V71a2 2 0 012-2zM814 65a2 2 0 012 2v22a2 2 0 01-4 0V67a2 2 0 012-2zM820 58a2 2 0 012 2v36a2 2 0 01-4 0V60a2 2 0 012-2zM826 70a2 2 0 012 2v12a2 2 0 01-4 0V72a2 2 0 012-2zM832 63a2 2 0 012 2v26a2 2 0 01-4 0V65a2 2 0 012-2zM838 68a2 2 0 012 2v16a2 2 0 01-4 0V70a2 2 0 012-2zM844 74a2 2 0 012 2v4a2 2 0 01-4 0v-4a2 2 0 012-2zM850 72a2 2 0 012 2v8a2 2 0 01-4 0v-8a2 2 0 012-2zM856 74a2 2 0 012 2v4a2 2 0 01-4 0v-4a2 2 0 012-2zM862 70a2 2 0 012 2v12a2 2 0 01-4 0V72a2 2 0 012-2zM868 61a2 2 0 012 2v30a2 2 0 01-4 0V63a2 2 0 012-2zM874 57a2 2 0 012 2v38a2 2 0 01-4 0V59a2 2 0 012-2zM880 58a2 2 0 012 2v36a2 2 0 01-4 0V60a2 2 0 012-2zM886 58a2 2 0 012 2v36a2 2 0 01-4 0V60a2 2 0 012-2zM892 65a2 2 0 012 2v22a2 2 0 01-4 0V67a2 2 0 012-2zM898 74a2 2 0 012 2v4a2 2 0 01-4 0v-4a2 2 0 012-2z" fill="#D1D1D3"/>
        <path d="M178 76a2 2 0 110 4 2 2 0 010-4zM184 65a2 2 0 012 2v22a2 2 0 01-4 0V67a2 2 0 012-2zM190 62a2 2 0 012 2v28a2 2 0 01-4 0V64a2 2 0 012-2zM196 69a2 2 0 012 2v14a2 2 0 01-4 0V71a2 2 0 012-2zM202 65a2 2 0 012 2v22a2 2 0 01-4 0V67a2 2 0 012-2zM208 58a2 2 0 012 2v36a2 2 0 01-4 0V60a2 2 0 012-2zM214 70a2 2 0 012 2v12a2 2 0 01-4 0V72a2 2 0 012-2zM220 63a2 2 0 012 2v26a2 2 0 01-4 0V65a2 2 0 012-2zM226 68a2 2 0 012 2v16a2 2 0 01-4 0V70a2 2 0 012-2zM232 74a2 2 0 012 2v4a2 2 0 01-4 0v-4a2 2 0 012-2zM4 66a2 2 0 012 2v20a2 2 0 11-4 0V68a2 2 0 012-2zM10 58a2 2 0 012 2v36a2 2 0 11-4 0V60a2 2 0 012-2zM16 68a2 2 0 012 2v16a2 2 0 11-4 0V70a2 2 0 012-2zM22 63a2 2 0 012 2v26a2 2 0 11-4 0V65a2 2 0 012-2zM28 60a2 2 0 012 2v32a2 2 0 11-4 0V62a2 2 0 012-2zM34 67a2 2 0 012 2v18a2 2 0 11-4 0V69a2 2 0 012-2zM40 59a2 2 0 012 2v34a2 2 0 11-4 0V61a2 2 0 012-2zM46 75a2 2 0 012 2v2a2 2 0 11-4 0v-2a2 2 0 012-2zM52 73a2 2 0 012 2v6a2 2 0 11-4 0v-6a2 2 0 012-2zM58 64a2 2 0 012 2v24a2 2 0 11-4 0V66a2 2 0 012-2z" fill="#125677"/>
        <g transform="translate(500 20)">
            <g fill-rule="nonzero">
                <path d="M11.037 11.152c1.752 0 3.047-1.054 3.123-2.584v-.152h-1.53c-.064.82-.661 1.4-1.581 1.4-1.12 0-1.758-.826-1.758-2.302v-.99c0-1.483.65-2.338 1.758-2.338.908 0 1.517.626 1.582 1.476h1.53v-.146c-.071-1.582-1.366-2.666-3.124-2.666-2.139 0-3.357 1.4-3.357 3.668v.996c0 2.267 1.207 3.638 3.357 3.638zM16.843 11V7.572h3.363V11h1.583V3.002h-1.583v3.252h-3.363V3.002h-1.582V11h1.582zm7.242 0l.627-2.057h2.672L28.01 11h1.681L27.02 3.002H25.17L22.485 11h1.6zm2.982-3.234H25.04l.978-3.235h.07l.98 3.235zM31.971 11V8.316h1.606c1.728 0 2.712-1.142 2.712-2.648 0-1.494-.972-2.666-2.7-2.666h-3.2V11h1.582zm1.313-3.926h-1.319V4.262h1.319c.873 0 1.394.51 1.394 1.406 0 .89-.521 1.406-1.394 1.406zM40.267 11V4.326h2.274V3.002h-6.13v1.324h2.269V11h1.587zm8.121 0V9.705h-3.58V7.561h3.369V6.348h-3.37V4.297h3.581V3.002h-5.15V11h5.15zm2.777 0V8.018h1.418l1.4 2.982h1.77l-1.606-3.223c.727-.28 1.453-1.072 1.453-2.244 0-1.53-1.03-2.531-2.806-2.531H49.6V11h1.565zm1.377-4.172h-1.377V4.244h1.4c.838 0 1.4.463 1.4 1.318 0 .844-.544 1.266-1.423 1.266zm8.77 4.33c1.652 0 3.047-.879 3.03-2.396-.018-1.272-.997-1.84-1.723-1.91V6.77c.586-.094 1.5-.704 1.476-1.834-.017-1.207-1.066-2.092-2.736-2.086-1.746.005-2.725.978-2.766 2.226h1.471c.03-.521.51-1.002 1.248-1.002.71 0 1.236.44 1.236 1.084.006.639-.51 1.113-1.236 1.113h-.844v1.22h.885c.861 0 1.406.503 1.412 1.2.012.715-.568 1.225-1.447 1.225-.797-.006-1.383-.434-1.424-1.008h-1.453c.041 1.219 1.055 2.25 2.871 2.25z" fill="#9C9CA0"/>
                <path d="M11.107 25.152c2.14 0 3.422-1.377 3.422-3.632v-1.026c0-2.262-1.283-3.644-3.422-3.644-2.138 0-3.427 1.37-3.427 3.644v1.026c0 2.255 1.289 3.632 3.427 3.632zm0-1.318c-1.06 0-1.816-.768-1.816-2.309v-1.043c0-1.54.756-2.314 1.816-2.314 1.055 0 1.817.773 1.817 2.314v1.043c0 1.541-.762 2.309-1.817 2.309zM17.124 25v-3.445c0-.938.475-1.576 1.307-1.576.633 0 1.12.369 1.12 1.289V25h1.54v-4.166c0-1.441-.826-2.15-2.074-2.15-1.225 0-1.7.709-1.852 1.195h-.076v-1.096h-1.506V25h1.541zm12.585 0v-1.295h-3.58v-2.144h3.37v-1.213h-3.37v-2.051h3.58v-1.295h-5.15V25h5.15zm2.853.094c.92 0 1.442-.428 1.688-.885h.07V25h1.46v-4.178c0-1.576-1.138-2.138-2.532-2.138-1.705 0-2.432.82-2.502 1.84h1.459c.076-.387.375-.663 1.008-.663s1.037.3 1.037.926v.557h-1.518c-1.441 0-2.215.738-2.215 1.851 0 1.172.832 1.899 2.045 1.899zm.504-1.137c-.527 0-1.013-.281-1.013-.861 0-.475.322-.82 1.007-.82h1.19v.644c0 .603-.533 1.037-1.184 1.037zM38.661 25v-3.557c0-.838.48-1.43 1.489-1.43.24 0 .492.018.61.053V18.73a2.498 2.498 0 00-.487-.04c-.985 0-1.442.644-1.57 1.066h-.077v-.973h-1.54V25h1.575zm5.543.035c.351 0 .785-.04.908-.064v-1.143c-.111.012-.34.024-.533.024-.645 0-.903-.188-.903-.809v-3.018h1.377v-1.183h-1.377v-1.547h-1.5v1.547h-.978v1.183h.943v3.217c0 1.272.516 1.793 2.063 1.793zM47.578 25v-3.445c0-.944.504-1.576 1.313-1.576.638 0 1.142.375 1.142 1.294V25h1.541v-4.154c0-1.448-.855-2.162-2.062-2.162-1.207 0-1.723.75-1.852 1.195h-.082V16.58h-1.535V25h1.535zm9.093.094c.92 0 1.441-.428 1.687-.885h.07V25h1.46v-4.178c0-1.576-1.137-2.138-2.531-2.138-1.706 0-2.432.82-2.502 1.84h1.459c.076-.387.375-.663 1.007-.663.633 0 1.037.3 1.037.926v.557h-1.517c-1.441 0-2.215.738-2.215 1.851 0 1.172.832 1.899 2.045 1.899zm.504-1.137c-.527 0-1.014-.281-1.014-.861 0-.475.322-.82 1.008-.82h1.19v.644c0 .603-.534 1.037-1.184 1.037zm6.117 1.154c1.664 0 2.66-.761 2.66-2.027 0-1.143-.832-1.559-1.98-1.752-.675-.117-1.606-.2-1.606-.844 0-.463.38-.75.996-.75.668 0 1.002.381 1.037.75h1.365c0-1.154-.978-1.816-2.373-1.816-1.318 0-2.496.557-2.496 1.945 0 1.213.902 1.588 2.022 1.81.808.159 1.54.241 1.54.839 0 .427-.322.779-1.095.779-.692 0-1.037-.31-1.096-.762h-1.494c0 1.113.943 1.828 2.52 1.828zm7.41-.111v-7.998h-1.581V25h1.582zm3.873.035c.352 0 .785-.04.908-.064v-1.143c-.111.012-.34.024-.533.024-.644 0-.902-.188-.902-.809v-3.018h1.377v-1.183h-1.377v-1.547h-1.5v1.547h-.979v1.183h.944v3.217c0 1.272.515 1.793 2.062 1.793zm5.6-.035v-7.998h-1.581V25h1.582zm3.533.111c1.664 0 2.66-.761 2.66-2.027 0-1.143-.832-1.559-1.98-1.752-.674-.117-1.606-.2-1.606-.844 0-.463.381-.75.997-.75.668 0 1.002.381 1.037.75h1.365c0-1.154-.979-1.816-2.373-1.816-1.318 0-2.496.557-2.496 1.945 0 1.213.902 1.588 2.021 1.81.809.159 1.541.241 1.541.839 0 .427-.322.779-1.095.779-.692 0-1.038-.31-1.096-.762h-1.494c0 1.113.943 1.828 2.52 1.828zm6.626-7.312c.58 0 .973-.346.973-.85 0-.51-.393-.861-.973-.861-.568 0-.967.346-.967.861 0 .504.399.85.967.85zM91.108 25v-6.217h-1.541V25h1.54zm2.952 0v-3.445c0-.938.475-1.576 1.307-1.576.633 0 1.119.369 1.119 1.289V25h1.541v-4.166c0-1.441-.826-2.15-2.074-2.15-1.225 0-1.7.709-1.852 1.195h-.076v-1.096h-1.506V25h1.541zm9.849.035c.351 0 .785-.04.908-.064v-1.143c-.111.012-.34.024-.533.024-.645 0-.903-.188-.903-.809v-3.018h1.377v-1.183h-1.377v-1.547h-1.5v1.547h-.978v1.183h.943v3.217c0 1.272.516 1.793 2.063 1.793zm3.374-.035v-3.445c0-.944.504-1.576 1.313-1.576.638 0 1.142.375 1.142 1.294V25h1.541v-4.154c0-1.448-.855-2.162-2.062-2.162-1.207 0-1.723.75-1.852 1.195h-.082V16.58h-1.535V25h1.535zm7.798.111c1.776 0 2.543-1.107 2.608-1.88h-1.465c-.07.386-.516.69-1.148.69-.809 0-1.319-.573-1.319-1.394v-.293h3.99v-.714c0-1.758-1.13-2.848-2.742-2.848-1.547 0-2.76 1.008-2.76 2.848v.738c0 1.834 1.114 2.853 2.836 2.853zm1.172-3.814h-2.496v-.065c0-.843.51-1.4 1.254-1.4.75 0 1.242.557 1.242 1.4v.065zM122.516 25v-3.428h3.363V25h1.582v-7.998h-1.582v3.252h-3.363v-3.252h-1.582V25h1.582zm8.87.111c1.776 0 2.544-1.107 2.608-1.88h-1.465c-.07.386-.516.69-1.148.69-.809 0-1.319-.573-1.319-1.394v-.293h3.99v-.714c0-1.758-1.13-2.848-2.742-2.848-1.547 0-2.76 1.008-2.76 2.848v.738c0 1.834 1.114 2.853 2.837 2.853zm1.172-3.814h-2.496v-.065c0-.843.51-1.4 1.254-1.4.75 0 1.242.557 1.242 1.4v.065zm4.201 3.797c.92 0 1.441-.428 1.688-.885h.07V25h1.459v-4.178c0-1.576-1.137-2.138-2.531-2.138-1.705 0-2.432.82-2.502 1.84h1.459c.076-.387.375-.663 1.007-.663.633 0 1.038.3 1.038.926v.557h-1.518c-1.441 0-2.215.738-2.215 1.851 0 1.172.832 1.899 2.045 1.899zm.504-1.137c-.527 0-1.014-.281-1.014-.861 0-.475.323-.82 1.008-.82h1.19v.644c0 .603-.534 1.037-1.184 1.037zM144.229 25l2.18-6.217h-1.629l-1.36 4.781h-.064l-1.23-4.78h-1.682L142.512 25h1.717zm5.226.111c1.776 0 2.543-1.107 2.608-1.88h-1.465c-.07.386-.516.69-1.149.69-.808 0-1.318-.573-1.318-1.394v-.293h3.99v-.714c0-1.758-1.13-2.848-2.742-2.848-1.547 0-2.76 1.008-2.76 2.848v.738c0 1.834 1.114 2.853 2.836 2.853zm1.172-3.814h-2.496v-.065c0-.843.51-1.4 1.254-1.4.75 0 1.242.557 1.242 1.4v.065zm4.02 3.703v-3.445c0-.938.474-1.576 1.306-1.576.633 0 1.119.369 1.119 1.289V25h1.54v-4.166c0-1.441-.825-2.15-2.073-2.15-1.225 0-1.7.709-1.852 1.195h-.076v-1.096h-1.506V25h1.541zm7.387.111c1.664 0 2.66-.761 2.66-2.027 0-1.143-.832-1.559-1.98-1.752-.674-.117-1.606-.2-1.606-.844 0-.463.381-.75.997-.75.668 0 1.002.381 1.037.75h1.365c0-1.154-.979-1.816-2.373-1.816-1.318 0-2.496.557-2.496 1.945 0 1.213.902 1.588 2.021 1.81.809.159 1.541.241 1.541.839 0 .427-.322.779-1.095.779-.692 0-1.038-.31-1.096-.762h-1.494c0 1.113.943 1.828 2.52 1.828z" fill="#125677"/>
            </g>
            <rect fill="#D1D1D3" x="1" y="8" width="2" height="50" rx="1"/>
            <circle stroke="#F4F4F5" stroke-width="2" fill="#125677" cx="2" cy="7" r="3"/>
            <path d="M2 44a2.99 2.99 0 00-2.121.879A2.99 2.99 0 00-1 47v22c0 .828.336 1.578.879 2.121A2.99 2.99 0 002 72a2.99 2.99 0 002.121-.879A2.99 2.99 0 005 69V47a2.99 2.99 0 00-.879-2.121A2.99 2.99 0 002 44z" stroke="#F4F4F5" stroke-width="2" fill="#D1D1D3"/>
        </g>
        <g>
            <path d="M238 171a2 2 0 012 2v40a2 2 0 01-4 0v-40a2 2 0 012-2zM244 177a2 2 0 012 2v28a2 2 0 01-4 0v-28a2 2 0 012-2zM250 181a2 2 0 012 2v20a2 2 0 01-4 0v-20a2 2 0 012-2zM256 173a2 2 0 012 2v36a2 2 0 01-4 0v-36a2 2 0 012-2zM262 183a2 2 0 012 2v16a2 2 0 01-4 0v-16a2 2 0 012-2zM268 178a2 2 0 012 2v26a2 2 0 01-4 0v-26a2 2 0 012-2zM274 175a2 2 0 012 2v32a2 2 0 01-4 0v-32a2 2 0 012-2zM280 182a2 2 0 012 2v18a2 2 0 01-4 0v-18a2 2 0 012-2zM286 174a2 2 0 012 2v34a2 2 0 01-4 0v-34a2 2 0 012-2zM292 190a2 2 0 012 2v2a2 2 0 01-4 0v-2a2 2 0 012-2zM298 188a2 2 0 012 2v6a2 2 0 01-4 0v-6a2 2 0 012-2zM304 179a2 2 0 012 2v24a2 2 0 01-4 0v-24a2 2 0 012-2zM310 171a2 2 0 012 2v40a2 2 0 01-4 0v-40a2 2 0 012-2zM64 171a2 2 0 012 2v40a2 2 0 11-4 0v-40a2 2 0 012-2zM316 171a2 2 0 012 2v40a2 2 0 01-4 0v-40a2 2 0 012-2zM70 171a2 2 0 012 2v40a2 2 0 11-4 0v-40a2 2 0 012-2zM322 171a2 2 0 012 2v40a2 2 0 01-4 0v-40a2 2 0 012-2zM76 171a2 2 0 012 2v40a2 2 0 11-4 0v-40a2 2 0 012-2zM328 176a2 2 0 012 2v30a2 2 0 01-4 0v-30a2 2 0 012-2zM82 176a2 2 0 012 2v30a2 2 0 11-4 0v-30a2 2 0 012-2zM334 180a2 2 0 012 2v22a2 2 0 01-4 0v-22a2 2 0 012-2zM88 180a2 2 0 012 2v22a2 2 0 11-4 0v-22a2 2 0 012-2zM340 176a2 2 0 012 2v30a2 2 0 01-4 0v-30a2 2 0 012-2zM94 176a2 2 0 012 2v30a2 2 0 11-4 0v-30a2 2 0 012-2zM346 188a2 2 0 012 2v6a2 2 0 01-4 0v-6a2 2 0 012-2zM100 188a2 2 0 012 2v6a2 2 0 11-4 0v-6a2 2 0 012-2zM352 178a2 2 0 012 2v26a2 2 0 01-4 0v-26a2 2 0 012-2zM106 178a2 2 0 012 2v26a2 2 0 01-4 0v-26a2 2 0 012-2zM358 185a2 2 0 012 2v12a2 2 0 01-4 0v-12a2 2 0 012-2zM112 185a2 2 0 012 2v12a2 2 0 01-4 0v-12a2 2 0 012-2zM364 180a2 2 0 012 2v22a2 2 0 01-4 0v-22a2 2 0 012-2zM118 180a2 2 0 012 2v22a2 2 0 01-4 0v-22a2 2 0 012-2zM370 173a2 2 0 012 2v36a2 2 0 01-4 0v-36a2 2 0 012-2zM124 173a2 2 0 012 2v36a2 2 0 01-4 0v-36a2 2 0 012-2zM376 185a2 2 0 012 2v12a2 2 0 01-4 0v-12a2 2 0 012-2zM130 185a2 2 0 012 2v12a2 2 0 01-4 0v-12a2 2 0 012-2zM382 180a2 2 0 012 2v22a2 2 0 01-4 0v-22a2 2 0 012-2zM136 180a2 2 0 012 2v22a2 2 0 01-4 0v-22a2 2 0 012-2zM388 183a2 2 0 012 2v16a2 2 0 01-4 0v-16a2 2 0 012-2zM142 183a2 2 0 012 2v16a2 2 0 01-4 0v-16a2 2 0 012-2zM394 191a2 2 0 110 4 2 2 0 010-4zM148 191a2 2 0 110 4 2 2 0 010-4zM400 191a2 2 0 110 4 2 2 0 010-4zM154 191a2 2 0 110 4 2 2 0 010-4zM406 188a2 2 0 012 2v6a2 2 0 01-4 0v-6a2 2 0 012-2zM160 188a2 2 0 012 2v6a2 2 0 01-4 0v-6a2 2 0 012-2zM412 188a2 2 0 012 2v6a2 2 0 01-4 0v-6a2 2 0 012-2zM166 188a2 2 0 012 2v6a2 2 0 01-4 0v-6a2 2 0 012-2zM418 182a2 2 0 012 2v18a2 2 0 01-4 0v-18a2 2 0 012-2zM172 182a2 2 0 012 2v18a2 2 0 01-4 0v-18a2 2 0 012-2zM424 172a2 2 0 012 2v38a2 2 0 01-4 0v-38a2 2 0 012-2zM430 178a2 2 0 012 2v26a2 2 0 01-4 0v-26a2 2 0 012-2zM436 183a2 2 0 012 2v16a2 2 0 01-4 0v-16a2 2 0 012-2zM442 175a2 2 0 012 2v32a2 2 0 01-4 0v-32a2 2 0 012-2zM448 180a2 2 0 012 2v22a2 2 0 01-4 0v-22a2 2 0 012-2z" fill="#E85059"/>
            <path d="M454 178a2 2 0 012 2v26a2 2 0 01-4 0v-26a2 2 0 012-2zM460 188a2 2 0 012 2v6a2 2 0 01-4 0v-6a2 2 0 012-2zM466 189a2 2 0 012 2v4a2 2 0 01-4 0v-4a2 2 0 012-2zM472 191a2 2 0 110 4 2 2 0 010-4zM478 191a2 2 0 110 4 2 2 0 010-4zM484 191a2 2 0 110 4 2 2 0 010-4zM490 191a2 2 0 110 4 2 2 0 010-4zM496 189a2 2 0 012 2v4a2 2 0 01-4 0v-4a2 2 0 012-2zM502 180a2 2 0 012 2v22a2 2 0 01-4 0v-22a2 2 0 012-2zM508 187a2 2 0 012 2v8a2 2 0 01-4 0v-8a2 2 0 012-2zM622 187a2 2 0 012 2v8a2 2 0 01-4 0v-8a2 2 0 012-2zM514 189a2 2 0 012 2v4a2 2 0 01-4 0v-4a2 2 0 012-2zM628 189a2 2 0 012 2v4a2 2 0 01-4 0v-4a2 2 0 012-2zM520 185a2 2 0 012 2v12a2 2 0 01-4 0v-12a2 2 0 012-2zM634 185a2 2 0 012 2v12a2 2 0 01-4 0v-12a2 2 0 012-2zM526 176a2 2 0 012 2v30a2 2 0 01-4 0v-30a2 2 0 012-2zM640 176a2 2 0 012 2v30a2 2 0 01-4 0v-30a2 2 0 012-2zM532 172a2 2 0 012 2v38a2 2 0 01-4 0v-38a2 2 0 012-2zM646 172a2 2 0 012 2v38a2 2 0 01-4 0v-38a2 2 0 012-2zM538 173a2 2 0 012 2v36a2 2 0 01-4 0v-36a2 2 0 012-2zM652 173a2 2 0 012 2v36a2 2 0 01-4 0v-36a2 2 0 012-2zM544 173a2 2 0 012 2v36a2 2 0 01-4 0v-36a2 2 0 012-2zM658 173a2 2 0 012 2v36a2 2 0 01-4 0v-36a2 2 0 012-2zM550 180a2 2 0 012 2v22a2 2 0 01-4 0v-22a2 2 0 012-2zM664 180a2 2 0 012 2v22a2 2 0 01-4 0v-22a2 2 0 012-2zM556 189a2 2 0 012 2v4a2 2 0 01-4 0v-4a2 2 0 012-2zM670 189a2 2 0 012 2v4a2 2 0 01-4 0v-4a2 2 0 012-2zM562 191a2 2 0 110 4 2 2 0 010-4zM676 191a2 2 0 110 4 2 2 0 010-4zM568 180a2 2 0 012 2v22a2 2 0 01-4 0v-22a2 2 0 012-2zM682 180a2 2 0 012 2v22a2 2 0 01-4 0v-22a2 2 0 012-2zM574 177a2 2 0 012 2v28a2 2 0 01-4 0v-28a2 2 0 012-2zM688 177a2 2 0 012 2v28a2 2 0 01-4 0v-28a2 2 0 012-2zM580 184a2 2 0 012 2v14a2 2 0 01-4 0v-14a2 2 0 012-2zM694 184a2 2 0 012 2v14a2 2 0 01-4 0v-14a2 2 0 012-2zM586 180a2 2 0 012 2v22a2 2 0 01-4 0v-22a2 2 0 012-2zM700 180a2 2 0 012 2v22a2 2 0 01-4 0v-22a2 2 0 012-2zM592 173a2 2 0 012 2v36a2 2 0 01-4 0v-36a2 2 0 012-2zM706 173a2 2 0 012 2v36a2 2 0 01-4 0v-36a2 2 0 012-2zM598 185a2 2 0 012 2v12a2 2 0 01-4 0v-12a2 2 0 012-2zM712 185a2 2 0 012 2v12a2 2 0 01-4 0v-12a2 2 0 012-2zM604 178a2 2 0 012 2v26a2 2 0 01-4 0v-26a2 2 0 012-2zM718 178a2 2 0 012 2v26a2 2 0 01-4 0v-26a2 2 0 012-2zM610 183a2 2 0 012 2v16a2 2 0 01-4 0v-16a2 2 0 012-2zM724 183a2 2 0 012 2v16a2 2 0 01-4 0v-16a2 2 0 012-2zM616 189a2 2 0 012 2v4a2 2 0 01-4 0v-4a2 2 0 012-2zM730 189a2 2 0 012 2v4a2 2 0 01-4 0v-4a2 2 0 012-2zM736 187a2 2 0 012 2v8a2 2 0 01-4 0v-8a2 2 0 012-2zM742 189a2 2 0 012 2v4a2 2 0 01-4 0v-4a2 2 0 012-2zM748 185a2 2 0 012 2v12a2 2 0 01-4 0v-12a2 2 0 012-2zM754 176a2 2 0 012 2v30a2 2 0 01-4 0v-30a2 2 0 012-2zM760 172a2 2 0 012 2v38a2 2 0 01-4 0v-38a2 2 0 012-2zM766 173a2 2 0 012 2v36a2 2 0 01-4 0v-36a2 2 0 012-2zM772 173a2 2 0 012 2v36a2 2 0 01-4 0v-36a2 2 0 012-2zM778 180a2 2 0 012 2v22a2 2 0 01-4 0v-22a2 2 0 012-2zM784 189a2 2 0 012 2v4a2 2 0 01-4 0v-4a2 2 0 012-2zM790 191a2 2 0 110 4 2 2 0 010-4zM796 180a2 2 0 012 2v22a2 2 0 01-4 0v-22a2 2 0 012-2zM802 177a2 2 0 012 2v28a2 2 0 01-4 0v-28a2 2 0 012-2zM808 184a2 2 0 012 2v14a2 2 0 01-4 0v-14a2 2 0 012-2zM814 180a2 2 0 012 2v22a2 2 0 01-4 0v-22a2 2 0 012-2zM820 173a2 2 0 012 2v36a2 2 0 01-4 0v-36a2 2 0 012-2zM826 185a2 2 0 012 2v12a2 2 0 01-4 0v-12a2 2 0 012-2zM832 178a2 2 0 012 2v26a2 2 0 01-4 0v-26a2 2 0 012-2zM838 183a2 2 0 012 2v16a2 2 0 01-4 0v-16a2 2 0 012-2zM844 189a2 2 0 012 2v4a2 2 0 01-4 0v-4a2 2 0 012-2zM850 187a2 2 0 012 2v8a2 2 0 01-4 0v-8a2 2 0 012-2zM856 189a2 2 0 012 2v4a2 2 0 01-4 0v-4a2 2 0 012-2zM862 185a2 2 0 012 2v12a2 2 0 01-4 0v-12a2 2 0 012-2zM868 176a2 2 0 012 2v30a2 2 0 01-4 0v-30a2 2 0 012-2zM874 172a2 2 0 012 2v38a2 2 0 01-4 0v-38a2 2 0 012-2zM880 173a2 2 0 012 2v36a2 2 0 01-4 0v-36a2 2 0 012-2zM886 173a2 2 0 012 2v36a2 2 0 01-4 0v-36a2 2 0 012-2zM892 180a2 2 0 012 2v22a2 2 0 01-4 0v-22a2 2 0 012-2zM898 189a2 2 0 012 2v4a2 2 0 01-4 0v-4a2 2 0 012-2z" fill="#D1D1D3"/>
            <path d="M178 191a2 2 0 110 4 2 2 0 010-4zM184 180a2 2 0 012 2v22a2 2 0 01-4 0v-22a2 2 0 012-2zM190 177a2 2 0 012 2v28a2 2 0 01-4 0v-28a2 2 0 012-2zM196 184a2 2 0 012 2v14a2 2 0 01-4 0v-14a2 2 0 012-2zM202 180a2 2 0 012 2v22a2 2 0 01-4 0v-22a2 2 0 012-2zM208 173a2 2 0 012 2v36a2 2 0 01-4 0v-36a2 2 0 012-2zM214 185a2 2 0 012 2v12a2 2 0 01-4 0v-12a2 2 0 012-2zM220 178a2 2 0 012 2v26a2 2 0 01-4 0v-26a2 2 0 012-2zM226 183a2 2 0 012 2v16a2 2 0 01-4 0v-16a2 2 0 012-2zM232 189a2 2 0 012 2v4a2 2 0 01-4 0v-4a2 2 0 012-2zM4 181a2 2 0 012 2v20a2 2 0 11-4 0v-20a2 2 0 012-2zM10 173a2 2 0 012 2v36a2 2 0 11-4 0v-36a2 2 0 012-2zM16 183a2 2 0 012 2v16a2 2 0 11-4 0v-16a2 2 0 012-2zM22 178a2 2 0 012 2v26a2 2 0 11-4 0v-26a2 2 0 012-2zM28 175a2 2 0 012 2v32a2 2 0 11-4 0v-32a2 2 0 012-2zM34 182a2 2 0 012 2v18a2 2 0 11-4 0v-18a2 2 0 012-2zM40 174a2 2 0 012 2v34a2 2 0 11-4 0v-34a2 2 0 012-2zM46 190a2 2 0 012 2v2a2 2 0 11-4 0v-2a2 2 0 012-2zM52 188a2 2 0 012 2v6a2 2 0 11-4 0v-6a2 2 0 012-2zM58 179a2 2 0 012 2v24a2 2 0 11-4 0v-24a2 2 0 012-2z" fill="#E85059"/>
            <g transform="translate(578 135)">
                <g fill-rule="nonzero">
                    <path d="M11.102 11V4.326h2.273V3.002H7.246v1.324h2.268V11h1.588zm4.534 0V8.018h1.418l1.4 2.982h1.77L18.62 7.777c.726-.28 1.453-1.072 1.453-2.244 0-1.53-1.032-2.531-2.807-2.531h-3.193V11h1.564zm1.377-4.172h-1.377V4.244h1.4c.838 0 1.401.463 1.401 1.318 0 .844-.545 1.266-1.424 1.266zM22.052 11l.627-2.057h2.671L25.977 11h1.682l-2.672-7.998h-1.851L20.452 11h1.6zm2.982-3.234h-2.027l.978-3.235h.07l.98 3.235zm6.128 3.386c1.752 0 3.047-1.054 3.124-2.584v-.152h-1.53c-.064.82-.662 1.4-1.582 1.4-1.119 0-1.758-.826-1.758-2.302v-.99c0-1.483.65-2.338 1.758-2.338.908 0 1.518.626 1.582 1.476h1.53v-.146c-.07-1.582-1.366-2.666-3.124-2.666-2.138 0-3.357 1.4-3.357 3.668v.996c0 2.267 1.207 3.638 3.357 3.638zM36.97 11V8.434l.82-.932L40.027 11h1.904l-2.976-4.553 2.853-3.445h-1.74l-3.023 3.58h-.076v-3.58h-1.582V11h1.582zm13.03 0V9.71H46.64v-.075l1.817-2.004c.697-.762 1.406-1.442 1.406-2.543 0-1.272-1.078-2.238-2.73-2.238-1.858 0-2.737 1.242-2.737 2.46v.077h1.5v-.088c0-.627.446-1.184 1.201-1.184.686 0 1.196.463 1.196 1.12 0 .661-.47 1.171-.897 1.628l-2.924 3.153V11H50z" fill="#9C9CA0"/>
                    <path d="M9.432 25v-5.32h.076l1.904 4.318h1.031l1.893-4.318h.076V25h1.43v-7.998h-1.6l-2.28 5.191h-.052l-2.28-5.191H8.02V25h1.412zm9.526.094c.92 0 1.442-.428 1.688-.885h.07V25h1.46v-4.178c0-1.576-1.137-2.138-2.532-2.138-1.705 0-2.432.82-2.502 1.84h1.459c.076-.387.375-.663 1.008-.663s1.037.3 1.037.926v.557h-1.518c-1.441 0-2.214.738-2.214 1.851 0 1.172.832 1.899 2.044 1.899zm.504-1.137c-.527 0-1.013-.281-1.013-.861 0-.475.322-.82 1.007-.82h1.19v.644c0 .603-.533 1.037-1.184 1.037zM25.058 25v-3.557c0-.838.48-1.43 1.488-1.43.24 0 .492.018.61.053V18.73a2.498 2.498 0 00-.487-.04c-.985 0-1.442.644-1.57 1.066h-.077v-.973h-1.54V25h1.576zm4.364 0v-2.162l.446-.492L31.66 25h1.798l-2.42-3.533 2.268-2.684h-1.74l-2.074 2.596h-.07V16.58h-1.548V25h1.547zm6.937.111c1.776 0 2.543-1.107 2.608-1.88h-1.465c-.07.386-.516.69-1.149.69-.808 0-1.318-.573-1.318-1.394v-.293h3.99v-.714c0-1.758-1.13-2.848-2.742-2.848-1.547 0-2.76 1.008-2.76 2.848v.738c0 1.834 1.114 2.853 2.836 2.853zm1.172-3.814h-2.496v-.065c0-.843.51-1.4 1.254-1.4.75 0 1.242.557 1.242 1.4v.065zm4.974 3.738c.352 0 .785-.04.908-.064v-1.143c-.111.012-.34.024-.533.024-.644 0-.902-.188-.902-.809v-3.018h1.377v-1.183h-1.377v-1.547h-1.5v1.547h-.979v1.183h.944v3.217c0 1.272.515 1.793 2.062 1.793zm5.6-.035v-2.684h1.606c1.729 0 2.713-1.142 2.713-2.648 0-1.494-.973-2.666-2.701-2.666h-3.2V25h1.583zm1.313-3.926H48.1v-2.812h1.318c.873 0 1.395.51 1.395 1.406 0 .89-.522 1.406-1.395 1.406zM54.855 25v-3.557c0-.838.48-1.43 1.488-1.43.24 0 .493.018.61.053V18.73a2.498 2.498 0 00-.487-.04c-.984 0-1.441.644-1.57 1.066h-.076v-.973h-1.541V25h1.576zm3.691-7.201c.58 0 .973-.346.973-.85 0-.51-.393-.861-.973-.861-.568 0-.967.346-.967.861 0 .504.399.85.967.85zM59.319 25v-6.217h-1.54V25h1.54zm3.89.111c1.7 0 2.567-.931 2.59-2.115h-1.423c-.07.51-.375.879-1.12.879-.79 0-1.26-.615-1.26-1.623v-.75c0-.973.446-1.594 1.255-1.594.761 0 1.054.51 1.101.932h1.424c-.024-1.184-.943-2.168-2.566-2.168-1.694 0-2.766 1.101-2.766 2.807v.779c0 1.763 1.043 2.853 2.766 2.853zm6.07 0c1.776 0 2.543-1.107 2.608-1.88h-1.465c-.07.386-.516.69-1.149.69-.808 0-1.318-.573-1.318-1.394v-.293h3.99v-.714c0-1.758-1.13-2.848-2.742-2.848-1.547 0-2.76 1.008-2.76 2.848v.738c0 1.834 1.114 2.853 2.836 2.853zm1.172-3.814h-2.496v-.065c0-.843.51-1.4 1.254-1.4.75 0 1.242.557 1.242 1.4v.065z" fill="#E85059"/>
                </g>
                <rect fill="#D1D1D3" x="1" y="8" width="2" height="50" rx="1"/>
                <circle stroke="#F4F4F5" stroke-width="2" fill="#E85059" cx="2" cy="7" r="3"/>
                <path d="M2 44a2.99 2.99 0 00-2.121.879A2.99 2.99 0 00-1 47v22c0 .828.336 1.578.879 2.121A2.99 2.99 0 002 72a2.99 2.99 0 002.121-.879A2.99 2.99 0 005 69V47a2.99 2.99 0 00-.879-2.121A2.99 2.99 0 002 44z" stroke="#F4F4F5" stroke-width="2" fill="#D1D1D3"/>
            </g>
        </g>
        <g>
            <g transform="translate(536 250)">
                <g fill-rule="nonzero">
                    <path d="M8.84 11l.627-2.057h2.672L12.766 11h1.681l-2.672-7.998H9.924L7.24 11h1.6zm2.982-3.234H9.795l.978-3.235h.07l.98 3.235zM18.062 11c2.414 0 3.58-1.477 3.58-4.02 0-2.525-1.148-3.978-3.58-3.978h-2.918V11h2.918zm-.211-1.295h-1.125V4.291h1.125c1.482 0 2.162.914 2.162 2.719 0 1.804-.674 2.695-2.162 2.695zm10.112 3.123v-1.13h-1.687V3.71h1.687V2.58H24.8v10.247h3.164zm3.38-1.676c2.028 0 3.17-1.02 3.17-2.507 0-1.342-.855-1.963-2.15-2.256l-1.242-.287c-.703-.153-1.096-.47-1.096-.95 0-.62.522-1.072 1.395-1.072.85 0 1.37.44 1.47 1.014h1.5c-.076-1.23-1.13-2.256-2.959-2.256-1.763 0-2.988.955-2.988 2.42 0 1.213.785 1.928 2.028 2.209l1.236.287c.832.193 1.23.48 1.23 1.037 0 .656-.521 1.107-1.506 1.107-.943 0-1.54-.457-1.646-1.078h-1.53c.071 1.266 1.055 2.332 3.089 2.332zM37.162 11V8.434l.82-.932L40.22 11h1.904l-2.976-4.553L42 3.002h-1.74l-3.023 3.58h-.077v-3.58H35.58V11h1.582zm7.13 0V3.002H42.71V11h1.582zm3.041 0V8.316h1.606c1.728 0 2.713-1.142 2.713-2.648 0-1.494-.973-2.666-2.702-2.666H45.75V11h1.582zm1.313-3.926h-1.319V4.262h1.319c.873 0 1.394.51 1.394 1.406 0 .89-.521 1.406-1.394 1.406zM54.11 11V8.316h1.605c1.729 0 2.713-1.142 2.713-2.648 0-1.494-.972-2.666-2.7-2.666h-3.2V11h1.582zm1.312-3.926h-1.318V4.262h1.318c.874 0 1.395.51 1.395 1.406 0 .89-.521 1.406-1.395 1.406zM64.458 11V9.705h-3.58V7.561h3.37V6.348h-3.37V4.297h3.58V3.002h-5.15V11h5.15zm4.13 0c2.414 0 3.58-1.477 3.58-4.02 0-2.525-1.148-3.978-3.58-3.978H65.67V11h2.918zm-.21-1.295h-1.126V4.291h1.125c1.483 0 2.163.914 2.163 2.719 0 1.804-.674 2.695-2.163 2.695zm7.2 3.123V2.58h-3.164v1.13h1.693v7.987h-1.693v1.131h3.164z" fill="#9C9CA0"/>
                    <path d="M10.598 25.152c2.027 0 3.17-1.02 3.17-2.507 0-1.342-.856-1.963-2.15-2.256l-1.243-.287c-.703-.153-1.096-.47-1.096-.95 0-.62.522-1.072 1.395-1.072.85 0 1.37.44 1.47 1.014h1.5c-.076-1.23-1.13-2.256-2.958-2.256-1.764 0-2.989.955-2.989 2.42 0 1.213.785 1.928 2.028 2.209l1.236.287c.832.193 1.23.48 1.23 1.037 0 .656-.521 1.107-1.505 1.107-.944 0-1.541-.457-1.647-1.078H7.51c.071 1.266 1.055 2.332 3.089 2.332zm5.7 1.91v-3.011h.076c.276.656.915 1.031 1.764 1.031 1.46 0 2.338-1.043 2.338-2.771v-.844c0-1.729-.873-2.766-2.314-2.766-.873 0-1.559.399-1.811 1.067h-.082v-.99h-1.518v8.284h1.547zm1.319-3.21c-.791 0-1.319-.604-1.319-1.518v-.809c0-.99.498-1.593 1.301-1.593.832 0 1.3.615 1.3 1.693v.54c0 1.071-.468 1.687-1.282 1.687zm6.45 1.26c1.7 0 2.836-1.044 2.836-2.89v-.697c0-1.757-1.136-2.853-2.836-2.853-1.71 0-2.853 1.137-2.853 2.865v.686c0 1.857 1.13 2.888 2.853 2.888zm0-1.202c-.89 0-1.295-.767-1.295-1.7v-.644c0-.937.434-1.699 1.295-1.699.856 0 1.278.756 1.278 1.7v.644c0 .937-.393 1.7-1.278 1.7zM29.452 25v-3.445c0-.938.474-1.576 1.306-1.576.633 0 1.12.369 1.12 1.289V25h1.54v-4.166c0-1.441-.826-2.15-2.074-2.15-1.225 0-1.7.709-1.851 1.195h-.077v-1.096h-1.505V25h1.54zm7.388.111c1.664 0 2.66-.761 2.66-2.027 0-1.143-.832-1.559-1.98-1.752-.674-.117-1.606-.2-1.606-.844 0-.463.38-.75.996-.75.668 0 1.002.381 1.037.75h1.365c0-1.154-.978-1.816-2.373-1.816-1.318 0-2.496.557-2.496 1.945 0 1.213.903 1.588 2.022 1.81.808.159 1.54.241 1.54.839 0 .427-.322.779-1.095.779-.691 0-1.037-.31-1.096-.762H34.32c0 1.113.943 1.828 2.52 1.828zm6.192 0c1.7 0 2.836-1.043 2.836-2.888v-.698c0-1.757-1.136-2.853-2.836-2.853-1.71 0-2.853 1.137-2.853 2.865v.686c0 1.857 1.13 2.888 2.853 2.888zm0-1.2c-.89 0-1.294-.768-1.294-1.7v-.645c0-.937.433-1.699 1.294-1.699.856 0 1.278.756 1.278 1.7v.644c0 .937-.393 1.7-1.278 1.7zM48.51 25v-3.557c0-.838.48-1.43 1.489-1.43.24 0 .492.018.61.053V18.73a2.498 2.498 0 00-.487-.04c-.985 0-1.442.644-1.57 1.066h-.077v-.973h-1.54V25h1.575zm3.773-3.75c.58 0 1.037-.387 1.037-.984 0-.598-.45-1.002-1.037-1.002-.568 0-1.02.392-1.02 1.002 0 .597.458.984 1.02.984zm0 3.867c.58 0 1.037-.392 1.037-.984 0-.604-.45-1.008-1.037-1.008-.568 0-1.02.393-1.02 1.008 0 .592.458.984 1.02.984zM58.317 25v-2.982h1.418l1.4 2.982h1.77L61.3 21.777c.726-.28 1.453-1.072 1.453-2.244 0-1.53-1.031-2.531-2.807-2.531h-3.193V25h1.564zm1.377-4.172h-1.377v-2.584h1.4c.839 0 1.401.463 1.401 1.318 0 .844-.545 1.266-1.424 1.266zm4.998-3.03c.58 0 .973-.345.973-.849 0-.51-.393-.861-.973-.861-.568 0-.967.346-.967.861 0 .504.399.85.967.85zM65.465 25v-6.217h-1.54V25h1.54zm4.822.082c1.46 0 2.338-1.043 2.338-2.771v-.844c0-1.729-.873-2.766-2.314-2.766-.891 0-1.594.416-1.8 1.067h-.075V16.58h-1.547V25h1.523v-.95h.076c.252.64.932 1.032 1.8 1.032zm-.516-1.23c-.79 0-1.335-.622-1.335-1.536v-.773c0-.99.503-1.611 1.318-1.611.82 0 1.289.62 1.289 1.699v.539c0 1.066-.463 1.682-1.272 1.682zM76.146 25v-6.674h2.273v-1.324H72.29v1.324h2.268V25h1.588zm3.615-7.201c.58 0 .972-.346.972-.85 0-.51-.392-.861-.972-.861-.569 0-.967.346-.967.861 0 .504.398.85.967.85zM80.534 25v-6.217h-1.54V25h1.54zm2.959 2.062v-3.011h.076c.275.656.914 1.031 1.763 1.031 1.46 0 2.338-1.043 2.338-2.771v-.844c0-1.729-.873-2.766-2.314-2.766-.873 0-1.559.399-1.81 1.067h-.083v-.99h-1.517v8.284h1.547zm1.318-3.21c-.791 0-1.318-.604-1.318-1.518v-.809c0-.99.498-1.593 1.3-1.593.832 0 1.301.615 1.301 1.693v.54c0 1.071-.469 1.687-1.283 1.687zm6.04 1.26c1.664 0 2.66-.762 2.66-2.028 0-1.143-.831-1.559-1.98-1.752-.674-.117-1.605-.2-1.605-.844 0-.463.38-.75.996-.75.668 0 1.002.381 1.037.75h1.365c0-1.154-.978-1.816-2.373-1.816-1.318 0-2.496.557-2.496 1.945 0 1.213.902 1.588 2.021 1.81.809.159 1.541.241 1.541.839 0 .427-.322.779-1.095.779-.692 0-1.037-.31-1.096-.762h-1.494c0 1.113.943 1.828 2.52 1.828zM99.78 25v-6.674h2.273v-1.324h-6.128v1.324h2.267V25h1.588zm9.328.117c.586 0 1.037-.392 1.037-.984 0-.604-.451-1.008-1.037-1.008-.563 0-1.02.393-1.02 1.008 0 .592.457.984 1.02.984zm-3.24 0c.58 0 1.03-.392 1.03-.984 0-.604-.45-1.008-1.03-1.008-.569 0-1.02.393-1.02 1.008 0 .592.451.984 1.02.984zm-3.247 0c.58 0 1.037-.392 1.037-.984 0-.604-.45-1.008-1.037-1.008-.568 0-1.02.393-1.02 1.008 0 .592.458.984 1.02.984z" fill="#0BD6C4"/>
                </g>
                <rect fill="#D1D1D3" x="1" y="8" width="2" height="50" rx="1"/>
                <circle stroke="#F4F4F5" stroke-width="2" fill="#0BD6C4" cx="2" cy="7" r="3"/>
            </g>
            <g transform="translate(656 250)">
                <g fill-rule="nonzero">
                    <path d="M11.037 11.152c1.752 0 3.047-1.054 3.123-2.584v-.152h-1.53c-.064.82-.661 1.4-1.581 1.4-1.12 0-1.758-.826-1.758-2.302v-.99c0-1.483.65-2.338 1.758-2.338.908 0 1.517.626 1.582 1.476h1.53v-.146c-.071-1.582-1.366-2.666-3.124-2.666-2.139 0-3.357 1.4-3.357 3.668v.996c0 2.267 1.207 3.638 3.357 3.638zM16.843 11V7.572h3.363V11h1.583V3.002h-1.583v3.252h-3.363V3.002h-1.582V11h1.582zm7.242 0l.627-2.057h2.672L28.01 11h1.681L27.02 3.002H25.17L22.485 11h1.6zm2.982-3.234H25.04l.978-3.235h.07l.98 3.235zM31.971 11V8.316h1.606c1.728 0 2.712-1.142 2.712-2.648 0-1.494-.972-2.666-2.7-2.666h-3.2V11h1.582zm1.313-3.926h-1.319V4.262h1.319c.873 0 1.394.51 1.394 1.406 0 .89-.521 1.406-1.394 1.406zM40.267 11V4.326h2.274V3.002h-6.13v1.324h2.269V11h1.587zm8.121 0V9.705h-3.58V7.561h3.369V6.348h-3.37V4.297h3.581V3.002h-5.15V11h5.15zm2.777 0V8.018h1.418l1.4 2.982h1.77l-1.606-3.223c.727-.28 1.453-1.072 1.453-2.244 0-1.53-1.03-2.531-2.806-2.531H49.6V11h1.565zm1.377-4.172h-1.377V4.244h1.4c.838 0 1.4.463 1.4 1.318 0 .844-.544 1.266-1.423 1.266z" fill="#9C9CA0"/>
                    <path d="M9.15 25l.44-2.156h1.517L10.68 25h1.172l.427-2.156h1.242l.217-1.12h-1.26l.311-1.535h1.283l.211-1.113h-1.242l.41-2.074H12.28l-.41 2.074h-1.53l.423-2.074H9.584l-.41 2.074h-1.19l-.21 1.113h1.2l-.31 1.536H7.445l-.216 1.119h1.183L7.984 25H9.15zm2.239-3.164H9.713l.357-1.752h1.67l-.351 1.752zm5.22 3.258c.92 0 1.441-.428 1.687-.885h.07V25h1.46v-4.178c0-1.576-1.137-2.138-2.532-2.138-1.705 0-2.431.82-2.502 1.84h1.46c.076-.387.374-.663 1.007-.663.633 0 1.037.3 1.037.926v.557H16.78c-1.442 0-2.215.738-2.215 1.851 0 1.172.832 1.899 2.045 1.899zm.504-1.137c-.528 0-1.014-.281-1.014-.861 0-.475.322-.82 1.008-.82h1.19v.644c0 .603-.534 1.037-1.184 1.037zm6.116 1.154c1.664 0 2.66-.761 2.66-2.027 0-1.143-.831-1.559-1.98-1.752-.674-.117-1.605-.2-1.605-.844 0-.463.38-.75.996-.75.668 0 1.002.381 1.037.75h1.365c0-1.154-.978-1.816-2.373-1.816-1.318 0-2.496.557-2.496 1.945 0 1.213.902 1.588 2.021 1.81.809.159 1.541.241 1.541.839 0 .427-.322.779-1.095.779-.692 0-1.037-.31-1.096-.762H20.71c0 1.113.943 1.828 2.52 1.828zM28.41 25v-2.162l.445-.492L30.647 25h1.799l-2.42-3.533 2.267-2.684h-1.74L28.48 21.38h-.07V16.58h-1.547V25h1.547zm6.192.094c.92 0 1.442-.428 1.688-.885h.07V25h1.46v-4.178c0-1.576-1.138-2.138-2.532-2.138-1.705 0-2.432.82-2.502 1.84h1.459c.076-.387.375-.663 1.008-.663s1.037.3 1.037.926v.557H34.77c-1.441 0-2.215.738-2.215 1.851 0 1.172.832 1.899 2.045 1.899zm.504-1.137c-.527 0-1.013-.281-1.013-.861 0-.475.322-.82 1.007-.82h1.19v.644c0 .603-.533 1.037-1.184 1.037zm6.404 1.078c.352 0 .785-.04.908-.064v-1.143c-.111.012-.34.024-.533.024-.644 0-.902-.188-.902-.809v-3.018h1.377v-1.183h-1.377v-1.547h-1.5v1.547h-.979v1.183h.944v3.217c0 1.272.515 1.793 2.062 1.793zm3.363 2.027v-3.011h.076c.275.656.914 1.031 1.764 1.031 1.459 0 2.338-1.043 2.338-2.771v-.844c0-1.729-.874-2.766-2.315-2.766-.873 0-1.559.399-1.81 1.067h-.082v-.99h-1.518v8.284h1.547zm1.318-3.21c-.79 0-1.318-.604-1.318-1.518v-.809c0-.99.498-1.593 1.3-1.593.833 0 1.301.615 1.301 1.693v.54c0 1.071-.468 1.687-1.283 1.687zm4.845-2.602c.58 0 1.037-.387 1.037-.984 0-.598-.45-1.002-1.037-1.002-.568 0-1.02.392-1.02 1.002 0 .597.458.984 1.02.984zm0 3.867c.58 0 1.037-.392 1.037-.984 0-.604-.45-1.008-1.037-1.008-.568 0-1.02.393-1.02 1.008 0 .592.458.984 1.02.984zm5.9-.117v-5.32h.076l1.904 4.318h1.031l1.893-4.318h.076V25h1.43v-7.998h-1.6l-2.28 5.191h-.052l-2.28-5.191h-1.61V25h1.412zm9.526.094c.92 0 1.442-.428 1.688-.885h.07V25h1.46v-4.178c0-1.576-1.137-2.138-2.532-2.138-1.705 0-2.432.82-2.502 1.84h1.459c.076-.387.375-.663 1.008-.663s1.037.3 1.037.926v.557h-1.518c-1.441 0-2.214.738-2.214 1.851 0 1.172.832 1.899 2.044 1.899zm.504-1.137c-.527 0-1.013-.281-1.013-.861 0-.475.322-.82 1.008-.82h1.189v.644c0 .603-.533 1.037-1.184 1.037zm6.44 1.154c1.699 0 2.566-.931 2.59-2.115H74.57c-.07.51-.375.879-1.119.879-.79 0-1.26-.615-1.26-1.623v-.75c0-.973.446-1.594 1.254-1.594.762 0 1.055.51 1.102.932h1.424c-.024-1.184-.944-2.168-2.567-2.168-1.693 0-2.765 1.101-2.765 2.807v.779c0 1.763 1.043 2.853 2.765 2.853zm7.188 1.951v-3.011h.076c.275.656.914 1.031 1.764 1.031 1.459 0 2.337-1.043 2.337-2.771v-.844c0-1.729-.873-2.766-2.314-2.766-.873 0-1.559.399-1.81 1.067h-.083v-.99h-1.517v8.284h1.547zm1.318-3.21c-.791 0-1.318-.604-1.318-1.518v-.809c0-.99.498-1.593 1.3-1.593.832 0 1.301.615 1.301 1.693v.54c0 1.071-.469 1.687-1.283 1.687zM87.43 25v-3.557c0-.838.48-1.43 1.488-1.43.24 0 .493.018.61.053V18.73a2.498 2.498 0 00-.487-.04c-.984 0-1.441.644-1.57 1.066h-.076v-.973h-1.541V25h1.576zm5.302.111c1.7 0 2.836-1.043 2.836-2.888v-.698c0-1.757-1.137-2.853-2.836-2.853-1.71 0-2.853 1.137-2.853 2.865v.686c0 1.857 1.13 2.888 2.853 2.888zm0-1.2c-.89 0-1.295-.768-1.295-1.7v-.645c0-.937.434-1.699 1.295-1.699.856 0 1.278.756 1.278 1.7v.644c0 .937-.393 1.7-1.278 1.7zm7.687 1.183c.92 0 1.441-.428 1.687-.885h.07V25h1.46v-4.178c0-1.576-1.137-2.138-2.532-2.138-1.705 0-2.431.82-2.502 1.84h1.46c.075-.387.374-.663 1.007-.663.633 0 1.037.3 1.037.926v.557h-1.517c-1.442 0-2.215.738-2.215 1.851 0 1.172.832 1.899 2.045 1.899zm.504-1.137c-.528 0-1.014-.281-1.014-.861 0-.475.322-.82 1.008-.82h1.19v.644c0 .603-.534 1.037-1.184 1.037zm5.507 3.105v-3.011h.076c.275.656.914 1.031 1.764 1.031 1.459 0 2.338-1.043 2.338-2.771v-.844c0-1.729-.873-2.766-2.315-2.766-.873 0-1.558.399-1.81 1.067h-.082v-.99h-1.518v8.284h1.547zm1.318-3.21c-.79 0-1.318-.604-1.318-1.518v-.809c0-.99.498-1.593 1.3-1.593.833 0 1.301.615 1.301 1.693v.54c0 1.071-.468 1.687-1.283 1.687zm5.431 3.21v-3.011h.077c.275.656.914 1.031 1.763 1.031 1.46 0 2.338-1.043 2.338-2.771v-.844c0-1.729-.873-2.766-2.314-2.766-.873 0-1.559.399-1.81 1.067h-.083v-.99h-1.518v8.284h1.547zm1.319-3.21c-.791 0-1.319-.604-1.319-1.518v-.809c0-.99.498-1.593 1.301-1.593.832 0 1.3.615 1.3 1.693v.54c0 1.071-.468 1.687-1.282 1.687zm6.04 1.26c1.664 0 2.66-.762 2.66-2.028 0-1.143-.832-1.559-1.98-1.752-.674-.117-1.606-.2-1.606-.844 0-.463.381-.75.996-.75.668 0 1.002.381 1.038.75h1.365c0-1.154-.979-1.816-2.373-1.816-1.319 0-2.496.557-2.496 1.945 0 1.213.902 1.588 2.021 1.81.809.159 1.541.241 1.541.839 0 .427-.322.779-1.096.779-.69 0-1.037-.31-1.095-.762h-1.494c0 1.113.943 1.828 2.52 1.828zm8.314 0c1.699 0 2.835-1.044 2.835-2.89v-.697c0-1.757-1.136-2.853-2.835-2.853-1.711 0-2.854 1.137-2.854 2.865v.686c0 1.857 1.13 2.888 2.854 2.888zm0-1.202c-.891 0-1.295-.767-1.295-1.7v-.644c0-.937.433-1.699 1.295-1.699.855 0 1.277.756 1.277 1.7v.644c0 .937-.393 1.7-1.277 1.7zm5.384 1.09v-3.445c0-.938.474-1.576 1.306-1.576.633 0 1.12.369 1.12 1.289V25h1.54v-4.166c0-1.441-.826-2.15-2.074-2.15-1.224 0-1.699.709-1.851 1.195h-.076v-1.096h-1.506V25h1.54zm8.231-7.201c.58 0 .973-.346.973-.85 0-.51-.393-.861-.973-.861-.568 0-.967.346-.967.861 0 .504.399.85.967.85zm.774 7.201v-6.217H141.7V25h1.54zm3.075 0v-2.684h1.606c1.728 0 2.713-1.142 2.713-2.648 0-1.494-.973-2.666-2.702-2.666h-3.199V25h1.582zm1.313-3.926h-1.319v-2.812h1.319c.873 0 1.394.51 1.394 1.406 0 .89-.521 1.406-1.394 1.406zm5.443 4.02c.92 0 1.441-.428 1.687-.885h.07V25h1.46v-4.178c0-1.576-1.137-2.138-2.532-2.138-1.705 0-2.432.82-2.502 1.84h1.46c.075-.387.374-.663 1.007-.663.633 0 1.037.3 1.037.926v.557h-1.518c-1.44 0-2.214.738-2.214 1.851 0 1.172.832 1.899 2.045 1.899zm.503-1.137c-.527 0-1.013-.281-1.013-.861 0-.475.322-.82 1.008-.82h1.19v.644c0 .603-.534 1.037-1.185 1.037zm6.006 1.12c.902 0 1.629-.44 1.822-1.073h.076V25h1.518v-8.42h-1.547v3.147h-.07c-.24-.633-.909-1.026-1.782-1.026-1.412 0-2.338 1.02-2.338 2.725v.926c0 1.705.915 2.724 2.32 2.724zm.556-1.225c-.796 0-1.294-.598-1.294-1.665v-.603c0-1.06.492-1.652 1.271-1.652.773 0 1.336.586 1.336 1.517v.803c0 1.014-.527 1.6-1.313 1.6zm6.773-1.36v-.31c0-.645.258-.832.944-1.33.562-.405 1.16-.873 1.16-1.887 0-1.43-1.207-2.127-2.572-2.127-1.319 0-2.69.639-2.637 2.379h1.424c0-.65.386-1.155 1.125-1.155.568 0 1.095.293 1.095.985 0 .557-.351.814-.902 1.201-.656.451-1.102 1.008-1.043 1.887l.006.357h1.4zm-.656 2.625c.633 0 1.043-.375 1.043-.902 0-.545-.41-.914-1.043-.914-.61 0-1.02.369-1.02.914 0 .527.417.902 1.02.902z" fill="#0BD6C4"/>
                </g>
                <rect fill="#D1D1D3" x="1" y="8" width="2" height="50" rx="1"/>
                <circle stroke="#F4F4F5" stroke-width="2" fill="#0BD6C4" cx="2" cy="7" r="3"/>
            </g>
            <path d="M238 286a2 2 0 012 2v40a2 2 0 01-4 0v-40a2 2 0 012-2zM244 292a2 2 0 012 2v28a2 2 0 01-4 0v-28a2 2 0 012-2zM250 296a2 2 0 012 2v20a2 2 0 01-4 0v-20a2 2 0 012-2zM256 288a2 2 0 012 2v36a2 2 0 01-4 0v-36a2 2 0 012-2zM262 298a2 2 0 012 2v16a2 2 0 01-4 0v-16a2 2 0 012-2zM268 293a2 2 0 012 2v26a2 2 0 01-4 0v-26a2 2 0 012-2zM274 290a2 2 0 012 2v32a2 2 0 01-4 0v-32a2 2 0 012-2zM280 297a2 2 0 012 2v18a2 2 0 01-4 0v-18a2 2 0 012-2zM286 289a2 2 0 012 2v34a2 2 0 01-4 0v-34a2 2 0 012-2zM292 305a2 2 0 012 2v2a2 2 0 01-4 0v-2a2 2 0 012-2zM298 303a2 2 0 012 2v6a2 2 0 01-4 0v-6a2 2 0 012-2zM304 294a2 2 0 012 2v24a2 2 0 01-4 0v-24a2 2 0 012-2zM310 286a2 2 0 012 2v40a2 2 0 01-4 0v-40a2 2 0 012-2zM64 286a2 2 0 012 2v40a2 2 0 11-4 0v-40a2 2 0 012-2zM316 286a2 2 0 012 2v40a2 2 0 01-4 0v-40a2 2 0 012-2zM70 286a2 2 0 012 2v40a2 2 0 11-4 0v-40a2 2 0 012-2zM322 286a2 2 0 012 2v40a2 2 0 01-4 0v-40a2 2 0 012-2zM76 286a2 2 0 012 2v40a2 2 0 11-4 0v-40a2 2 0 012-2zM328 291a2 2 0 012 2v30a2 2 0 01-4 0v-30a2 2 0 012-2zM82 291a2 2 0 012 2v30a2 2 0 11-4 0v-30a2 2 0 012-2zM334 295a2 2 0 012 2v22a2 2 0 01-4 0v-22a2 2 0 012-2zM88 295a2 2 0 012 2v22a2 2 0 11-4 0v-22a2 2 0 012-2zM340 291a2 2 0 012 2v30a2 2 0 01-4 0v-30a2 2 0 012-2zM94 291a2 2 0 012 2v30a2 2 0 11-4 0v-30a2 2 0 012-2zM346 303a2 2 0 012 2v6a2 2 0 01-4 0v-6a2 2 0 012-2zM100 303a2 2 0 012 2v6a2 2 0 11-4 0v-6a2 2 0 012-2zM352 293a2 2 0 012 2v26a2 2 0 01-4 0v-26a2 2 0 012-2zM106 293a2 2 0 012 2v26a2 2 0 01-4 0v-26a2 2 0 012-2zM358 300a2 2 0 012 2v12a2 2 0 01-4 0v-12a2 2 0 012-2zM112 300a2 2 0 012 2v12a2 2 0 01-4 0v-12a2 2 0 012-2zM364 295a2 2 0 012 2v22a2 2 0 01-4 0v-22a2 2 0 012-2zM118 295a2 2 0 012 2v22a2 2 0 01-4 0v-22a2 2 0 012-2zM370 288a2 2 0 012 2v36a2 2 0 01-4 0v-36a2 2 0 012-2zM124 288a2 2 0 012 2v36a2 2 0 01-4 0v-36a2 2 0 012-2zM376 300a2 2 0 012 2v12a2 2 0 01-4 0v-12a2 2 0 012-2zM130 300a2 2 0 012 2v12a2 2 0 01-4 0v-12a2 2 0 012-2zM382 295a2 2 0 012 2v22a2 2 0 01-4 0v-22a2 2 0 012-2zM136 295a2 2 0 012 2v22a2 2 0 01-4 0v-22a2 2 0 012-2zM388 298a2 2 0 012 2v16a2 2 0 01-4 0v-16a2 2 0 012-2zM142 298a2 2 0 012 2v16a2 2 0 01-4 0v-16a2 2 0 012-2zM394 306a2 2 0 110 4 2 2 0 010-4zM148 306a2 2 0 110 4 2 2 0 010-4zM400 306a2 2 0 110 4 2 2 0 010-4zM154 306a2 2 0 110 4 2 2 0 010-4zM406 303a2 2 0 012 2v6a2 2 0 01-4 0v-6a2 2 0 012-2zM160 303a2 2 0 012 2v6a2 2 0 01-4 0v-6a2 2 0 012-2zM412 303a2 2 0 012 2v6a2 2 0 01-4 0v-6a2 2 0 012-2zM166 303a2 2 0 012 2v6a2 2 0 01-4 0v-6a2 2 0 012-2zM418 297a2 2 0 012 2v18a2 2 0 01-4 0v-18a2 2 0 012-2zM172 297a2 2 0 012 2v18a2 2 0 01-4 0v-18a2 2 0 012-2zM424 287a2 2 0 012 2v38a2 2 0 01-4 0v-38a2 2 0 012-2zM430 293a2 2 0 012 2v26a2 2 0 01-4 0v-26a2 2 0 012-2zM436 298a2 2 0 012 2v16a2 2 0 01-4 0v-16a2 2 0 012-2zM442 290a2 2 0 012 2v32a2 2 0 01-4 0v-32a2 2 0 012-2zM448 295a2 2 0 012 2v22a2 2 0 01-4 0v-22a2 2 0 012-2z" fill="#0BD6C4"/>
            <path d="M454 293a2 2 0 012 2v26a2 2 0 01-4 0v-26a2 2 0 012-2zM460 303a2 2 0 012 2v6a2 2 0 01-4 0v-6a2 2 0 012-2zM466 304a2 2 0 012 2v4a2 2 0 01-4 0v-4a2 2 0 012-2zM472 306a2 2 0 110 4 2 2 0 010-4zM478 306a2 2 0 110 4 2 2 0 010-4zM484 306a2 2 0 110 4 2 2 0 010-4zM490 306a2 2 0 110 4 2 2 0 010-4zM496 304a2 2 0 012 2v4a2 2 0 01-4 0v-4a2 2 0 012-2zM502 295a2 2 0 012 2v22a2 2 0 01-4 0v-22a2 2 0 012-2zM508 302a2 2 0 012 2v8a2 2 0 01-4 0v-8a2 2 0 012-2z" fill="#D1D1D3"/>
            <path d="M622 302.5c-.414 0-.79.168-1.06.44-.272.27-.44.646-.44 1.06v8c0 .414.168.79.44 1.06a1.495 1.495 0 002.121 0c.271-.27.439-.646.439-1.06v-8c0-.414-.168-.79-.44-1.06a1.495 1.495 0 00-1.06-.44z" stroke="#D1D1D3" fill="#F4F4F5"/>
            <path d="M514 304a2 2 0 012 2v4a2 2 0 01-4 0v-4a2 2 0 012-2z" fill="#D1D1D3"/>
            <path d="M628 304.5c-.414 0-.79.168-1.06.44-.272.27-.44.646-.44 1.06v4c0 .414.168.79.44 1.06a1.495 1.495 0 002.121 0c.271-.27.439-.646.439-1.06v-4c0-.414-.168-.79-.44-1.06a1.495 1.495 0 00-1.06-.44z" stroke="#D1D1D3" fill="#F4F4F5"/>
            <path d="M520 300a2 2 0 012 2v12a2 2 0 01-4 0v-12a2 2 0 012-2z" fill="#D1D1D3"/>
            <path d="M634 300.5c-.414 0-.79.168-1.06.44-.272.27-.44.646-.44 1.06v12c0 .414.168.79.44 1.06a1.495 1.495 0 002.121 0c.271-.27.439-.646.439-1.06v-12c0-.414-.168-.79-.44-1.06a1.495 1.495 0 00-1.06-.44z" stroke="#D1D1D3" fill="#F4F4F5"/>
            <path d="M526 291a2 2 0 012 2v30a2 2 0 01-4 0v-30a2 2 0 012-2z" fill="#D1D1D3"/>
            <path d="M640 291.5c-.414 0-.79.168-1.06.44-.272.27-.44.646-.44 1.06v30c0 .414.168.79.44 1.06a1.495 1.495 0 002.121 0c.271-.27.439-.646.439-1.06v-30c0-.414-.168-.79-.44-1.06a1.495 1.495 0 00-1.06-.44z" stroke="#D1D1D3" fill="#F4F4F5"/>
            <path d="M532 287a2 2 0 012 2v38a2 2 0 01-4 0v-38a2 2 0 012-2z" fill="#D1D1D3"/>
            <path d="M646 287.5c-.414 0-.79.168-1.06.44-.272.27-.44.646-.44 1.06v38c0 .414.168.79.44 1.06a1.495 1.495 0 002.121 0c.271-.27.439-.646.439-1.06v-38c0-.414-.168-.79-.44-1.06a1.495 1.495 0 00-1.06-.44zM652 295.5c-.414 0-.79.168-1.06.44-.272.27-.44.646-.44 1.06v22c0 .414.168.79.44 1.06a1.495 1.495 0 002.121 0c.271-.27.439-.646.439-1.06v-22c0-.414-.168-.79-.44-1.06a1.495 1.495 0 00-1.06-.44zM544 288.5c-.414 0-.79.168-1.06.44-.272.27-.44.646-.44 1.06v36c0 .414.168.79.44 1.06a1.495 1.495 0 002.121 0c.271-.27.439-.646.439-1.06v-36c0-.414-.168-.79-.44-1.06a1.495 1.495 0 00-1.06-.44zM550 295.5c-.414 0-.79.168-1.06.44-.272.27-.44.646-.44 1.06v22c0 .414.168.79.44 1.06a1.495 1.495 0 002.121 0c.271-.27.439-.646.439-1.06v-22c0-.414-.168-.79-.44-1.06a1.495 1.495 0 00-1.06-.44z" stroke="#D1D1D3" fill="#F4F4F5"/>
            <path d="M664 295a2 2 0 012 2v22a2 2 0 01-4 0v-22a2 2 0 012-2z" fill="#D1D1D3"/>
            <path d="M556 304.5c-.414 0-.79.168-1.06.44-.272.27-.44.646-.44 1.06v4c0 .414.168.79.44 1.06a1.495 1.495 0 002.121 0c.271-.27.439-.646.439-1.06v-4c0-.414-.168-.79-.44-1.06a1.495 1.495 0 00-1.06-.44z" stroke="#D1D1D3" fill="#F4F4F5"/>
            <path d="M670 304a2 2 0 012 2v4a2 2 0 01-4 0v-4a2 2 0 012-2z" fill="#D1D1D3"/>
            <path d="M562 306.5c-.414 0-.79.168-1.06.44a1.495 1.495 0 000 2.121c.27.271.646.439 1.06.439.414 0 .79-.168 1.06-.44a1.495 1.495 0 000-2.121 1.495 1.495 0 00-1.06-.439z" stroke="#D1D1D3" fill="#F4F4F5"/>
            <path d="M676 306a2 2 0 110 4 2 2 0 010-4z" fill="#D1D1D3"/>
            <path d="M568 295.5c-.414 0-.79.168-1.06.44-.272.27-.44.646-.44 1.06v22c0 .414.168.79.44 1.06a1.495 1.495 0 002.121 0c.271-.27.439-.646.439-1.06v-22c0-.414-.168-.79-.44-1.06a1.495 1.495 0 00-1.06-.44z" stroke="#D1D1D3" fill="#F4F4F5"/>
            <path d="M682 295a2 2 0 012 2v22a2 2 0 01-4 0v-22a2 2 0 012-2z" fill="#D1D1D3"/>
            <path d="M574 292.5c-.414 0-.79.168-1.06.44-.272.27-.44.646-.44 1.06v28c0 .414.168.79.44 1.06a1.495 1.495 0 002.121 0c.271-.27.439-.646.439-1.06v-28c0-.414-.168-.79-.44-1.06a1.495 1.495 0 00-1.06-.44z" stroke="#D1D1D3" fill="#F4F4F5"/>
            <path d="M688 292a2 2 0 012 2v28a2 2 0 01-4 0v-28a2 2 0 012-2z" fill="#D1D1D3"/>
            <path d="M580 299.5c-.414 0-.79.168-1.06.44-.272.27-.44.646-.44 1.06v14c0 .414.168.79.44 1.06a1.495 1.495 0 002.121 0c.271-.27.439-.646.439-1.06v-14c0-.414-.168-.79-.44-1.06a1.495 1.495 0 00-1.06-.44z" stroke="#D1D1D3" fill="#F4F4F5"/>
            <path d="M694 299a2 2 0 012 2v14a2 2 0 01-4 0v-14a2 2 0 012-2z" fill="#D1D1D3"/>
            <path d="M586 295a2 2 0 012 2v22a2 2 0 01-4 0v-22a2 2 0 012-2z" stroke="#D1D1D3" fill="#F4F4F5"/>
            <path d="M700 295a2 2 0 012 2v22a2 2 0 01-4 0v-22a2 2 0 012-2z" fill="#D1D1D3"/>
            <path d="M592 288a2 2 0 012 2v36a2 2 0 01-4 0v-36a2 2 0 012-2z" stroke="#D1D1D3" fill="#F4F4F5"/>
            <path d="M706 288a2 2 0 012 2v36a2 2 0 01-4 0v-36a2 2 0 012-2z" fill="#D1D1D3"/>
            <path d="M598 300a2 2 0 012 2v12a2 2 0 01-4 0v-12a2 2 0 012-2z" stroke="#D1D1D3" fill="#F4F4F5"/>
            <path d="M712 300a2 2 0 012 2v12a2 2 0 01-4 0v-12a2 2 0 012-2z" fill="#D1D1D3"/>
            <path d="M604 293.5c-.414 0-.79.168-1.06.44-.272.27-.44.646-.44 1.06v26c0 .414.168.79.44 1.06a1.495 1.495 0 002.121 0c.271-.27.439-.646.439-1.06v-26c0-.414-.168-.79-.44-1.06a1.495 1.495 0 00-1.06-.44z" stroke="#D1D1D3" fill="#F4F4F5"/>
            <path d="M718 293a2 2 0 012 2v26a2 2 0 01-4 0v-26a2 2 0 012-2z" fill="#D1D1D3"/>
            <path d="M610 298.5c-.414 0-.79.168-1.06.44-.272.27-.44.646-.44 1.06v16c0 .414.168.79.44 1.06a1.495 1.495 0 002.121 0c.271-.27.439-.646.439-1.06v-16c0-.414-.168-.79-.44-1.06a1.495 1.495 0 00-1.06-.44z" stroke="#D1D1D3" fill="#F4F4F5"/>
            <path d="M724 298a2 2 0 012 2v16a2 2 0 01-4 0v-16a2 2 0 012-2z" fill="#D1D1D3"/>
            <path d="M616 304.5c-.414 0-.79.168-1.06.44-.272.27-.44.646-.44 1.06v4c0 .414.168.79.44 1.06a1.495 1.495 0 002.121 0c.271-.27.439-.646.439-1.06v-4c0-.414-.168-.79-.44-1.06a1.495 1.495 0 00-1.06-.44z" stroke="#D1D1D3" fill="#F4F4F5"/>
            <path d="M730 304a2 2 0 012 2v4a2 2 0 01-4 0v-4a2 2 0 012-2zM736 302a2 2 0 012 2v8a2 2 0 01-4 0v-8a2 2 0 012-2zM742 304a2 2 0 012 2v4a2 2 0 01-4 0v-4a2 2 0 012-2zM748 300a2 2 0 012 2v12a2 2 0 01-4 0v-12a2 2 0 012-2zM754 291a2 2 0 012 2v30a2 2 0 01-4 0v-30a2 2 0 012-2zM760 287a2 2 0 012 2v38a2 2 0 01-4 0v-38a2 2 0 012-2zM766 288a2 2 0 012 2v36a2 2 0 01-4 0v-36a2 2 0 012-2zM772 288a2 2 0 012 2v36a2 2 0 01-4 0v-36a2 2 0 012-2zM778 295a2 2 0 012 2v22a2 2 0 01-4 0v-22a2 2 0 012-2zM784 304a2 2 0 012 2v4a2 2 0 01-4 0v-4a2 2 0 012-2zM790 306a2 2 0 110 4 2 2 0 010-4zM796 295a2 2 0 012 2v22a2 2 0 01-4 0v-22a2 2 0 012-2zM802 292a2 2 0 012 2v28a2 2 0 01-4 0v-28a2 2 0 012-2zM808 299a2 2 0 012 2v14a2 2 0 01-4 0v-14a2 2 0 012-2zM814 295a2 2 0 012 2v22a2 2 0 01-4 0v-22a2 2 0 012-2zM820 288a2 2 0 012 2v36a2 2 0 01-4 0v-36a2 2 0 012-2zM826 300a2 2 0 012 2v12a2 2 0 01-4 0v-12a2 2 0 012-2zM832 293a2 2 0 012 2v26a2 2 0 01-4 0v-26a2 2 0 012-2zM838 298a2 2 0 012 2v16a2 2 0 01-4 0v-16a2 2 0 012-2zM844 304a2 2 0 012 2v4a2 2 0 01-4 0v-4a2 2 0 012-2zM850 302a2 2 0 012 2v8a2 2 0 01-4 0v-8a2 2 0 012-2zM856 304a2 2 0 012 2v4a2 2 0 01-4 0v-4a2 2 0 012-2zM862 300a2 2 0 012 2v12a2 2 0 01-4 0v-12a2 2 0 012-2zM868 291a2 2 0 012 2v30a2 2 0 01-4 0v-30a2 2 0 012-2zM874 287a2 2 0 012 2v38a2 2 0 01-4 0v-38a2 2 0 012-2zM880 288a2 2 0 012 2v36a2 2 0 01-4 0v-36a2 2 0 012-2zM886 288a2 2 0 012 2v36a2 2 0 01-4 0v-36a2 2 0 012-2zM892 295a2 2 0 012 2v22a2 2 0 01-4 0v-22a2 2 0 012-2zM898 304a2 2 0 012 2v4a2 2 0 01-4 0v-4a2 2 0 012-2z" fill="#D1D1D3"/>
            <path d="M178 306a2 2 0 110 4 2 2 0 010-4zM184 295a2 2 0 012 2v22a2 2 0 01-4 0v-22a2 2 0 012-2zM190 292a2 2 0 012 2v28a2 2 0 01-4 0v-28a2 2 0 012-2zM196 299a2 2 0 012 2v14a2 2 0 01-4 0v-14a2 2 0 012-2zM202 295a2 2 0 012 2v22a2 2 0 01-4 0v-22a2 2 0 012-2zM208 288a2 2 0 012 2v36a2 2 0 01-4 0v-36a2 2 0 012-2zM214 300a2 2 0 012 2v12a2 2 0 01-4 0v-12a2 2 0 012-2zM220 293a2 2 0 012 2v26a2 2 0 01-4 0v-26a2 2 0 012-2zM226 298a2 2 0 012 2v16a2 2 0 01-4 0v-16a2 2 0 012-2zM232 304a2 2 0 012 2v4a2 2 0 01-4 0v-4a2 2 0 012-2zM4 296a2 2 0 012 2v20a2 2 0 11-4 0v-20a2 2 0 012-2zM10 288a2 2 0 012 2v36a2 2 0 11-4 0v-36a2 2 0 012-2zM16 298a2 2 0 012 2v16a2 2 0 11-4 0v-16a2 2 0 012-2zM22 293a2 2 0 012 2v26a2 2 0 11-4 0v-26a2 2 0 012-2zM28 290a2 2 0 012 2v32a2 2 0 11-4 0v-32a2 2 0 012-2zM34 297a2 2 0 012 2v18a2 2 0 11-4 0v-18a2 2 0 012-2zM40 289a2 2 0 012 2v34a2 2 0 11-4 0v-34a2 2 0 012-2zM46 305a2 2 0 012 2v2a2 2 0 11-4 0v-2a2 2 0 012-2zM52 303a2 2 0 012 2v6a2 2 0 11-4 0v-6a2 2 0 012-2zM58 294a2 2 0 012 2v24a2 2 0 11-4 0v-24a2 2 0 012-2z" fill="#0BD6C4"/>
            <g transform="translate(2 286)">
                <use fill="#F4F4F5" xlink:href="#a"/>
                <path stroke="#F4F4F5" stroke-width="2" d="M536 8a2.99 2.99 0 00-2.121.879A2.99 2.99 0 00533 11v22c0 .828.336 1.578.879 2.121A2.99 2.99 0 00536 36a2.99 2.99 0 002.121-.879A2.99 2.99 0 00539 33V11a2.99 2.99 0 00-.879-2.121A2.99 2.99 0 00536 8z"/>
                <path stroke="#D1D1D3" d="M536 9.5c-.414 0-.79.168-1.06.44-.272.27-.44.646-.44 1.06v22c0 .414.168.79.44 1.06a1.495 1.495 0 002.121 0c.271-.27.439-.646.439-1.06V11c0-.414-.168-.79-.44-1.06A1.495 1.495 0 00536 9.5z" stroke-linejoin="square"/>
            </g>
            <path d="M658 301a2.99 2.99 0 00-2.121.879A2.99 2.99 0 00655 304v8c0 .828.336 1.578.879 2.121A2.99 2.99 0 00658 315a2.99 2.99 0 002.121-.879A2.99 2.99 0 00661 312v-8a2.99 2.99 0 00-.879-2.121A2.99 2.99 0 00658 301z" stroke="#F4F4F5" stroke-width="2" fill="#D1D1D3"/>
        </g>
    </g>
</svg>
