<svg class="u-max-full-width" viewBox="0 0 466 116" xmlns="http://www.w3.org/2000/svg">
    <g fill="none" fill-rule="evenodd">
        <path d="M2 39a2 2 0 012 2v34a2 2 0 01-4 0V41a2 2 0 012-2zm6 16a2 2 0 012 2v2a2 2 0 01-4 0v-2a2 2 0 012-2zm6-2a2 2 0 012 2v6a2 2 0 01-4 0v-6a2 2 0 012-2zm6-9a2 2 0 012 2v24a2 2 0 01-4 0V46a2 2 0 012-2zm6-8a2 2 0 012 2v40a2 2 0 01-4 0V38a2 2 0 012-2zm6 0a2 2 0 012 2v40a2 2 0 01-4 0V38a2 2 0 012-2zm6 0a2 2 0 012 2v40a2 2 0 01-4 0V38a2 2 0 012-2zm6 5a2 2 0 012 2v30a2 2 0 01-4 0V43a2 2 0 012-2zm6 4a2 2 0 012 2v22a2 2 0 01-4 0V47a2 2 0 012-2zm6-4a2 2 0 012 2v30a2 2 0 01-4 0V43a2 2 0 012-2zm6 12a2 2 0 012 2v6a2 2 0 01-4 0v-6a2 2 0 012-2zm6-10a2 2 0 012 2v26a2 2 0 01-4 0V45a2 2 0 012-2zm6 7a2 2 0 012 2v12a2 2 0 01-4 0V52a2 2 0 012-2zm6-5a2 2 0 012 2v22a2 2 0 01-4 0V47a2 2 0 012-2zm6-7a2 2 0 012 2v36a2 2 0 01-4 0V40a2 2 0 012-2zm6 12a2 2 0 012 2v12a2 2 0 01-4 0V52a2 2 0 012-2zm6-5a2 2 0 012 2v22a2 2 0 01-4 0V47a2 2 0 012-2zm6 3a2 2 0 012 2v16a2 2 0 01-4 0V50a2 2 0 012-2zm6 8a2 2 0 110 4 2 2 0 010-4zm6 0a2 2 0 110 4 2 2 0 010-4zm6-3a2 2 0 012 2v6a2 2 0 01-4 0v-6a2 2 0 012-2zm6 0a2 2 0 012 2v6a2 2 0 01-4 0v-6a2 2 0 012-2zm6-6a2 2 0 012 2v18a2 2 0 01-4 0V49a2 2 0 012-2zm6-10a2 2 0 012 2v38a2 2 0 01-4 0V39a2 2 0 012-2zm6 6a2 2 0 012 2v26a2 2 0 01-4 0V45a2 2 0 012-2zm6 5a2 2 0 012 2v16a2 2 0 01-4 0V50a2 2 0 012-2zm6-8a2 2 0 012 2v32a2 2 0 01-4 0V42a2 2 0 012-2zm6 5a2 2 0 012 2v22a2 2 0 01-4 0V47a2 2 0 012-2z" fill="#125677"/>
        <path d="M170 43a2 2 0 012 2v26a2 2 0 01-4 0V45a2 2 0 012-2zm6 10a2 2 0 012 2v6a2 2 0 01-4 0v-6a2 2 0 012-2zm6 1a2 2 0 012 2v4a2 2 0 01-4 0v-4a2 2 0 012-2zm6 2a2 2 0 110 4 2 2 0 010-4zm6 0a2 2 0 110 4 2 2 0 010-4zm6 0a2 2 0 110 4 2 2 0 010-4zm6 0a2 2 0 110 4 2 2 0 010-4zm6-2a2 2 0 012 2v4a2 2 0 01-4 0v-4a2 2 0 012-2zm6-9a2 2 0 012 2v22a2 2 0 01-4 0V47a2 2 0 012-2zm6 7a2 2 0 012 2v8a2 2 0 01-4 0v-8a2 2 0 012-2zm114 0a2 2 0 012 2v8a2 2 0 01-4 0v-8a2 2 0 012-2zm-108 2a2 2 0 012 2v4a2 2 0 01-4 0v-4a2 2 0 012-2zm114 0a2 2 0 012 2v4a2 2 0 01-4 0v-4a2 2 0 012-2zm-108-4a2 2 0 012 2v12a2 2 0 01-4 0V52a2 2 0 012-2zm114 0a2 2 0 012 2v12a2 2 0 01-4 0V52a2 2 0 012-2zm-108-9a2 2 0 012 2v30a2 2 0 01-4 0V43a2 2 0 012-2zm114 0a2 2 0 012 2v30a2 2 0 01-4 0V43a2 2 0 012-2zm-108-4a2 2 0 012 2v38a2 2 0 01-4 0V39a2 2 0 012-2zm114 0a2 2 0 012 2v38a2 2 0 01-4 0V39a2 2 0 012-2zm-108 1a2 2 0 012 2v36a2 2 0 01-4 0V40a2 2 0 012-2zm114 0a2 2 0 012 2v36a2 2 0 01-4 0V40a2 2 0 012-2zm-108 0a2 2 0 012 2v36a2 2 0 01-4 0V40a2 2 0 012-2zm114 0a2 2 0 012 2v36a2 2 0 01-4 0V40a2 2 0 012-2zm-108 7a2 2 0 012 2v22a2 2 0 01-4 0V47a2 2 0 012-2zm114 0a2 2 0 012 2v22a2 2 0 01-4 0V47a2 2 0 012-2zm-108 9a2 2 0 012 2v4a2 2 0 01-4 0v-4a2 2 0 012-2zm114 0a2 2 0 012 2v4a2 2 0 01-4 0v-4a2 2 0 012-2zm-108 2a2 2 0 110 4 2 2 0 010-4zm114 0a2 2 0 110 4 2 2 0 010-4zM284 45a2 2 0 012 2v22a2 2 0 01-4 0V47a2 2 0 012-2zm114 0a2 2 0 012 2v22a2 2 0 01-4 0V47a2 2 0 012-2zm-108-3a2 2 0 012 2v28a2 2 0 01-4 0V44a2 2 0 012-2zm114 0a2 2 0 012 2v28a2 2 0 01-4 0V44a2 2 0 012-2zm-108 7a2 2 0 012 2v14a2 2 0 01-4 0V51a2 2 0 012-2zm114 0a2 2 0 012 2v14a2 2 0 01-4 0V51a2 2 0 012-2zm-108-4a2 2 0 012 2v22a2 2 0 01-4 0V47a2 2 0 012-2zm114 0a2 2 0 012 2v22a2 2 0 01-4 0V47a2 2 0 012-2zm-108-7a2 2 0 012 2v36a2 2 0 01-4 0V40a2 2 0 012-2zm114 0a2 2 0 012 2v36a2 2 0 01-4 0V40a2 2 0 012-2zM314 50a2 2 0 012 2v12a2 2 0 01-4 0V52a2 2 0 012-2zm114 0a2 2 0 012 2v12a2 2 0 01-4 0V52a2 2 0 012-2zm-108-7a2 2 0 012 2v26a2 2 0 01-4 0V45a2 2 0 012-2zm114 0a2 2 0 012 2v26a2 2 0 01-4 0V45a2 2 0 012-2zm-108 5a2 2 0 012 2v16a2 2 0 01-4 0V50a2 2 0 012-2zm114 0a2 2 0 012 2v16a2 2 0 01-4 0V50a2 2 0 012-2zm-108 6a2 2 0 012 2v4a2 2 0 01-4 0v-4a2 2 0 012-2zm114 0a2 2 0 012 2v4a2 2 0 01-4 0v-4a2 2 0 012-2zm6-2a2 2 0 012 2v8a2 2 0 01-4 0v-8a2 2 0 012-2zm6 2a2 2 0 012 2v4a2 2 0 01-4 0v-4a2 2 0 012-2zm6-4a2 2 0 012 2v12a2 2 0 01-4 0V52a2 2 0 012-2z" fill="#D1D1D3"/>
        <g transform="translate(216)">
            <g fill-rule="nonzero">
                <path d="M11.037 11.152c1.752 0 3.047-1.054 3.123-2.584v-.152h-1.53c-.064.82-.661 1.4-1.581 1.4-1.12 0-1.758-.826-1.758-2.302v-.99c0-1.483.65-2.338 1.758-2.338.908 0 1.517.626 1.582 1.476h1.53v-.146c-.071-1.582-1.366-2.666-3.124-2.666-2.139 0-3.357 1.4-3.357 3.668v.996c0 2.267 1.207 3.638 3.357 3.638zM16.843 11V7.572h3.363V11h1.583V3.002h-1.583v3.252h-3.363V3.002h-1.582V11h1.582zm7.242 0l.627-2.057h2.672L28.01 11h1.681L27.02 3.002h-1.85L22.485 11h1.6zm2.982-3.234H25.04l.978-3.235h.07l.98 3.235zM31.971 11V8.316h1.606c1.728 0 2.712-1.142 2.712-2.648 0-1.494-.972-2.666-2.7-2.666h-3.2V11h1.582zm1.313-3.926h-1.319V4.262h1.319c.873 0 1.394.51 1.394 1.406 0 .89-.521 1.406-1.394 1.406zM40.267 11V4.326h2.274V3.002h-6.13v1.324h2.269V11h1.587zm8.121 0V9.705h-3.58V7.561h3.369V6.348h-3.37V4.297h3.581V3.002h-5.15V11h5.15zm2.777 0V8.018h1.418l1.4 2.982h1.77l-1.606-3.223c.727-.28 1.453-1.072 1.453-2.244 0-1.53-1.03-2.531-2.806-2.531H49.6V11h1.565zm1.377-4.172h-1.377V4.244h1.4c.838 0 1.4.463 1.4 1.318 0 .844-.544 1.266-1.423 1.266zm8.77 4.33c1.652 0 3.047-.879 3.03-2.396-.018-1.272-.997-1.84-1.723-1.91V6.77c.586-.094 1.5-.704 1.476-1.834-.017-1.207-1.066-2.092-2.736-2.086-1.746.005-2.725.978-2.766 2.226h1.471c.03-.521.51-1.002 1.248-1.002.71 0 1.236.44 1.236 1.084.006.639-.51 1.113-1.236 1.113h-.844v1.22h.885c.861 0 1.406.503 1.412 1.2.012.715-.568 1.225-1.447 1.225-.797-.006-1.383-.434-1.424-1.008h-1.453c.041 1.219 1.055 2.25 2.871 2.25z" fill="#9C9CA0"/>
                <path d="M11.107 25.152c2.14 0 3.422-1.377 3.422-3.632v-1.026c0-2.262-1.283-3.644-3.422-3.644-2.138 0-3.427 1.37-3.427 3.644v1.026c0 2.255 1.289 3.632 3.427 3.632zm0-1.318c-1.06 0-1.816-.768-1.816-2.309v-1.043c0-1.54.756-2.314 1.816-2.314 1.055 0 1.817.773 1.817 2.314v1.043c0 1.541-.762 2.309-1.817 2.309zM17.124 25v-3.445c0-.938.475-1.576 1.307-1.576.633 0 1.12.369 1.12 1.289V25h1.54v-4.166c0-1.441-.826-2.15-2.074-2.15-1.225 0-1.7.709-1.852 1.195h-.076v-1.096h-1.506V25h1.541zm12.585 0v-1.295h-3.58v-2.144h3.37v-1.213h-3.37v-2.051h3.58v-1.295h-5.15V25h5.15zm2.853.094c.92 0 1.442-.428 1.688-.885h.07V25h1.46v-4.178c0-1.576-1.138-2.138-2.532-2.138-1.705 0-2.432.82-2.502 1.84h1.459c.076-.387.375-.663 1.008-.663s1.037.3 1.037.926v.557h-1.518c-1.441 0-2.215.738-2.215 1.851 0 1.172.832 1.899 2.045 1.899zm.504-1.137c-.527 0-1.013-.281-1.013-.861 0-.475.322-.82 1.007-.82h1.19v.644c0 .603-.533 1.037-1.184 1.037zM38.661 25v-3.557c0-.838.48-1.43 1.489-1.43.24 0 .492.018.61.053V18.73a2.498 2.498 0 00-.487-.04c-.985 0-1.442.644-1.57 1.066h-.077v-.973h-1.54V25h1.575zm5.543.035c.351 0 .785-.04.908-.064v-1.143c-.111.012-.34.024-.533.024-.645 0-.903-.188-.903-.809v-3.018h1.377v-1.183h-1.377v-1.547h-1.5v1.547h-.978v1.183h.943v3.217c0 1.272.516 1.793 2.063 1.793zM47.578 25v-3.445c0-.944.504-1.576 1.313-1.576.638 0 1.142.375 1.142 1.294V25h1.541v-4.154c0-1.448-.855-2.162-2.062-2.162-1.207 0-1.723.75-1.852 1.195h-.082V16.58h-1.535V25h1.535zm9.093.094c.92 0 1.441-.428 1.687-.885h.07V25h1.46v-4.178c0-1.576-1.137-2.138-2.531-2.138-1.706 0-2.432.82-2.502 1.84h1.459c.076-.387.375-.663 1.007-.663.633 0 1.037.3 1.037.926v.557h-1.517c-1.441 0-2.215.738-2.215 1.851 0 1.172.832 1.899 2.045 1.899zm.504-1.137c-.527 0-1.014-.281-1.014-.861 0-.475.322-.82 1.008-.82h1.19v.644c0 .603-.534 1.037-1.184 1.037zm6.117 1.154c1.664 0 2.66-.761 2.66-2.027 0-1.143-.832-1.559-1.98-1.752-.675-.117-1.606-.2-1.606-.844 0-.463.38-.75.996-.75.668 0 1.002.381 1.037.75h1.365c0-1.154-.978-1.816-2.373-1.816-1.318 0-2.496.557-2.496 1.945 0 1.213.902 1.588 2.022 1.81.808.159 1.54.241 1.54.839 0 .427-.322.779-1.095.779-.692 0-1.037-.31-1.096-.762h-1.494c0 1.113.943 1.828 2.52 1.828zm7.41-.111v-7.998h-1.581V25h1.582zm3.873.035c.352 0 .785-.04.908-.064v-1.143c-.111.012-.34.024-.533.024-.644 0-.902-.188-.902-.809v-3.018h1.377v-1.183h-1.377v-1.547h-1.5v1.547h-.979v1.183h.944v3.217c0 1.272.515 1.793 2.062 1.793zm5.6-.035v-7.998h-1.581V25h1.582zm3.533.111c1.664 0 2.66-.761 2.66-2.027 0-1.143-.832-1.559-1.98-1.752-.674-.117-1.606-.2-1.606-.844 0-.463.381-.75.997-.75.668 0 1.002.381 1.037.75h1.365c0-1.154-.979-1.816-2.373-1.816-1.318 0-2.496.557-2.496 1.945 0 1.213.902 1.588 2.021 1.81.809.159 1.541.241 1.541.839 0 .427-.322.779-1.095.779-.692 0-1.038-.31-1.096-.762h-1.494c0 1.113.943 1.828 2.52 1.828zm6.626-7.312c.58 0 .973-.346.973-.85 0-.51-.393-.861-.973-.861-.568 0-.967.346-.967.861 0 .504.399.85.967.85zM91.108 25v-6.217h-1.541V25h1.54zm2.952 0v-3.445c0-.938.475-1.576 1.307-1.576.633 0 1.119.369 1.119 1.289V25h1.541v-4.166c0-1.441-.826-2.15-2.074-2.15-1.225 0-1.7.709-1.852 1.195h-.076v-1.096h-1.506V25h1.541zm9.849.035c.351 0 .785-.04.908-.064v-1.143c-.111.012-.34.024-.533.024-.645 0-.903-.188-.903-.809v-3.018h1.377v-1.183h-1.377v-1.547h-1.5v1.547h-.978v1.183h.943v3.217c0 1.272.516 1.793 2.063 1.793zm3.374-.035v-3.445c0-.944.504-1.576 1.313-1.576.638 0 1.142.375 1.142 1.294V25h1.541v-4.154c0-1.448-.855-2.162-2.062-2.162-1.207 0-1.723.75-1.852 1.195h-.082V16.58h-1.535V25h1.535zm7.798.111c1.776 0 2.543-1.107 2.608-1.88h-1.465c-.07.386-.516.69-1.148.69-.809 0-1.319-.573-1.319-1.394v-.293h3.99v-.714c0-1.758-1.13-2.848-2.742-2.848-1.547 0-2.76 1.008-2.76 2.848v.738c0 1.834 1.114 2.853 2.836 2.853zm1.172-3.814h-2.496v-.065c0-.843.51-1.4 1.254-1.4.75 0 1.242.557 1.242 1.4v.065zM122.516 25v-3.428h3.363V25h1.582v-7.998h-1.582v3.252h-3.363v-3.252h-1.582V25h1.582zm8.87.111c1.776 0 2.544-1.107 2.608-1.88h-1.465c-.07.386-.516.69-1.148.69-.809 0-1.319-.573-1.319-1.394v-.293h3.99v-.714c0-1.758-1.13-2.848-2.742-2.848-1.547 0-2.76 1.008-2.76 2.848v.738c0 1.834 1.114 2.853 2.837 2.853zm1.172-3.814h-2.496v-.065c0-.843.51-1.4 1.254-1.4.75 0 1.242.557 1.242 1.4v.065zm4.201 3.797c.92 0 1.441-.428 1.688-.885h.07V25h1.459v-4.178c0-1.576-1.137-2.138-2.531-2.138-1.705 0-2.432.82-2.502 1.84h1.459c.076-.387.375-.663 1.007-.663.633 0 1.038.3 1.038.926v.557h-1.518c-1.441 0-2.215.738-2.215 1.851 0 1.172.832 1.899 2.045 1.899zm.504-1.137c-.527 0-1.014-.281-1.014-.861 0-.475.323-.82 1.008-.82h1.19v.644c0 .603-.534 1.037-1.184 1.037zM144.229 25l2.18-6.217h-1.629l-1.36 4.781h-.064l-1.23-4.78h-1.682L142.512 25h1.717zm5.226.111c1.776 0 2.543-1.107 2.608-1.88h-1.465c-.07.386-.516.69-1.149.69-.808 0-1.318-.573-1.318-1.394v-.293h3.99v-.714c0-1.758-1.13-2.848-2.742-2.848-1.547 0-2.76 1.008-2.76 2.848v.738c0 1.834 1.114 2.853 2.836 2.853zm1.172-3.814h-2.496v-.065c0-.843.51-1.4 1.254-1.4.75 0 1.242.557 1.242 1.4v.065zm4.02 3.703v-3.445c0-.938.474-1.576 1.306-1.576.633 0 1.119.369 1.119 1.289V25h1.54v-4.166c0-1.441-.825-2.15-2.073-2.15-1.225 0-1.7.709-1.852 1.195h-.076v-1.096h-1.506V25h1.541zm7.387.111c1.664 0 2.66-.761 2.66-2.027 0-1.143-.832-1.559-1.98-1.752-.674-.117-1.606-.2-1.606-.844 0-.463.381-.75.997-.75.668 0 1.002.381 1.037.75h1.365c0-1.154-.979-1.816-2.373-1.816-1.318 0-2.496.557-2.496 1.945 0 1.213.902 1.588 2.021 1.81.809.159 1.541.241 1.541.839 0 .427-.322.779-1.095.779-.692 0-1.038-.31-1.096-.762h-1.494c0 1.113.943 1.828 2.52 1.828z" fill="#125677"/>
            </g>
            <rect fill="#D1D1D3" x="1" y="8" width="2" height="50" rx="1"/>
            <circle stroke="#F4F4F5" stroke-width="2" fill="#125677" cx="2" cy="7" r="3"/>
            <path d="M2 44a2.99 2.99 0 00-2.121.879A2.99 2.99 0 00-1 47v22c0 .828.336 1.578.879 2.121A2.99 2.99 0 002 72a2.99 2.99 0 002.121-.879A2.99 2.99 0 005 69V47a2.99 2.99 0 00-.879-2.121A2.99 2.99 0 002 44z" stroke="#F4F4F5" stroke-width="2" fill="#D1D1D3"/>
        </g>
    </g>
</svg>
