<svg class="u-max-full-width" viewBox="0 0 466 116" xmlns="http://www.w3.org/2000/svg">
    <g fill="none" fill-rule="evenodd">
        <path d="M2 43a2 2 0 012 2v26a2 2 0 01-4 0V45a2 2 0 012-2zm6 7a2 2 0 012 2v12a2 2 0 01-4 0V52a2 2 0 012-2zm6-5a2 2 0 012 2v22a2 2 0 01-4 0V47a2 2 0 012-2zm6-7a2 2 0 012 2v36a2 2 0 01-4 0V40a2 2 0 012-2zm6 12a2 2 0 012 2v12a2 2 0 01-4 0V52a2 2 0 012-2zm6-5a2 2 0 012 2v22a2 2 0 01-4 0V47a2 2 0 012-2zm6 3a2 2 0 012 2v16a2 2 0 01-4 0V50a2 2 0 012-2zm6 8a2 2 0 110 4 2 2 0 010-4zm6 0a2 2 0 110 4 2 2 0 010-4zm6-3a2 2 0 012 2v6a2 2 0 01-4 0v-6a2 2 0 012-2zm6 0a2 2 0 012 2v6a2 2 0 01-4 0v-6a2 2 0 012-2zm6-6a2 2 0 012 2v18a2 2 0 01-4 0V49a2 2 0 012-2zm6 1a2 2 0 012 2v16a2 2 0 01-4 0V50a2 2 0 012-2zm6-5a2 2 0 012 2v26a2 2 0 01-4 0V45a2 2 0 012-2zm6-5a2 2 0 012 2v36a2 2 0 01-4 0V40a2 2 0 012-2zm6-1a2 2 0 012 2v38a2 2 0 01-4 0V39a2 2 0 012-2zm6 8a2 2 0 012 2v22a2 2 0 01-4 0V47a2 2 0 012-2z" fill="#E85059"/>
        <path d="M104 43a2 2 0 012 2v26a2 2 0 01-4 0V45a2 2 0 012-2zm6 10a2 2 0 012 2v6a2 2 0 01-4 0v-6a2 2 0 012-2zm6 1a2 2 0 012 2v4a2 2 0 01-4 0v-4a2 2 0 012-2zm6 2a2 2 0 110 4 2 2 0 010-4zm6 0a2 2 0 110 4 2 2 0 010-4zm6 0a2 2 0 110 4 2 2 0 010-4zm6 0a2 2 0 110 4 2 2 0 010-4zm6-2a2 2 0 012 2v4a2 2 0 01-4 0v-4a2 2 0 012-2zm6-5a2 2 0 012 2v14a2 2 0 01-4 0V51a2 2 0 012-2zm6 3a2 2 0 012 2v8a2 2 0 01-4 0v-8a2 2 0 012-2zm114-8a2 2 0 012 2v24a2 2 0 01-4 0V46a2 2 0 012-2zM164 54a2 2 0 012 2v4a2 2 0 01-4 0v-4a2 2 0 012-2zm114-5a2 2 0 012 2v14a2 2 0 01-4 0V51a2 2 0 012-2zm-108 1a2 2 0 012 2v12a2 2 0 01-4 0V52a2 2 0 012-2zm114-8a2 2 0 012 2v28a2 2 0 01-4 0V44a2 2 0 012-2zm-108-1a2 2 0 012 2v30a2 2 0 01-4 0V43a2 2 0 012-2zm114 3a2 2 0 012 2v24a2 2 0 01-4 0V46a2 2 0 012-2zm-108 1a2 2 0 012 2v22a2 2 0 01-4 0V47a2 2 0 012-2zm114-8a2 2 0 012 2v38a2 2 0 01-4 0V39a2 2 0 012-2zM188 51a2 2 0 012 2v10a2 2 0 01-4 0V53a2 2 0 012-2zm114-11a2 2 0 012 2v32a2 2 0 01-4 0V42a2 2 0 012-2zm-108 7a2 2 0 012 2v18a2 2 0 01-4 0V49a2 2 0 012-2zm114-5a2 2 0 012 2v28a2 2 0 01-4 0V44a2 2 0 012-2zm-108 9a2 2 0 012 2v10a2 2 0 01-4 0V53a2 2 0 012-2zm114-10a2 2 0 012 2v30a2 2 0 01-4 0V43a2 2 0 012-2zM206 54a2 2 0 012 2v4a2 2 0 01-4 0v-4a2 2 0 012-2zm114-10a2 2 0 012 2v24a2 2 0 01-4 0V46a2 2 0 012-2zM212 56a2 2 0 110 4 2 2 0 010-4zm114-5a2 2 0 012 2v10a2 2 0 01-4 0V53a2 2 0 012-2zm-108 2a2 2 0 012 2v6a2 2 0 01-4 0v-6a2 2 0 012-2zm114 2a2 2 0 012 2v2a2 2 0 01-4 0v-2a2 2 0 012-2zm-108 0a2 2 0 012 2v2a2 2 0 01-4 0v-2a2 2 0 012-2zm114-2a2 2 0 012 2v6a2 2 0 01-4 0v-6a2 2 0 012-2zm-108-4a2 2 0 012 2v14a2 2 0 01-4 0V51a2 2 0 012-2zm114 6a2 2 0 012 2v2a2 2 0 01-4 0v-2a2 2 0 012-2zM236 42a2 2 0 012 2v28a2 2 0 01-4 0V44a2 2 0 012-2zm114 12a2 2 0 012 2v4a2 2 0 01-4 0v-4a2 2 0 012-2zM242 43a2 2 0 012 2v26a2 2 0 01-4 0V45a2 2 0 012-2zm114 8a2 2 0 012 2v10a2 2 0 01-4 0V53a2 2 0 012-2zM248 41a2 2 0 012 2v30a2 2 0 01-4 0V43a2 2 0 012-2zm114 5a2 2 0 012 2v20a2 2 0 01-4 0V48a2 2 0 012-2zm-108-6a2 2 0 012 2v32a2 2 0 01-4 0V42a2 2 0 012-2zm114 12a2 2 0 012 2v8a2 2 0 01-4 0v-8a2 2 0 012-2zm-108-8a2 2 0 012 2v24a2 2 0 01-4 0V46a2 2 0 012-2zm114 7a2 2 0 012 2v10a2 2 0 01-4 0V53a2 2 0 012-2zm-108-7a2 2 0 012 2v24a2 2 0 01-4 0V46a2 2 0 012-2zm114-2a2 2 0 012 2v28a2 2 0 01-4 0V44a2 2 0 012-2zm6 3a2 2 0 012 2v22a2 2 0 01-4 0V47a2 2 0 012-2zm6-2a2 2 0 012 2v26a2 2 0 01-4 0V45a2 2 0 012-2zm6-3a2 2 0 012 2v32a2 2 0 01-4 0V42a2 2 0 012-2zm6 1a2 2 0 012 2v30a2 2 0 01-4 0V43a2 2 0 012-2zm6-4a2 2 0 012 2v38a2 2 0 01-4 0V39a2 2 0 012-2zm6 1a2 2 0 012 2v36a2 2 0 01-4 0V40a2 2 0 012-2zm6 0a2 2 0 012 2v36a2 2 0 01-4 0V40a2 2 0 012-2zm6 7a2 2 0 012 2v22a2 2 0 01-4 0V47a2 2 0 012-2zm6 9a2 2 0 012 2v4a2 2 0 01-4 0v-4a2 2 0 012-2zm6 2a2 2 0 110 4 2 2 0 010-4zm6-11a2 2 0 012 2v22a2 2 0 01-4 0V47a2 2 0 012-2zm6-3a2 2 0 012 2v28a2 2 0 01-4 0V44a2 2 0 012-2zm6 7a2 2 0 012 2v14a2 2 0 01-4 0V51a2 2 0 012-2zm6-4a2 2 0 012 2v22a2 2 0 01-4 0V47a2 2 0 012-2z" fill="#D1D1D3"/>
        <g transform="translate(228)">
            <g fill-rule="nonzero">
                <path d="M11.102 11V4.326h2.273V3.002H7.246v1.324h2.268V11h1.588zm4.534 0V8.018h1.418l1.4 2.982h1.77L18.62 7.777c.726-.28 1.453-1.072 1.453-2.244 0-1.53-1.032-2.531-2.807-2.531h-3.193V11h1.564zm1.377-4.172h-1.377V4.244h1.4c.838 0 1.401.463 1.401 1.318 0 .844-.545 1.266-1.424 1.266zM22.052 11l.627-2.057h2.671L25.977 11h1.682l-2.672-7.998h-1.851L20.452 11h1.6zm2.982-3.234h-2.027l.978-3.235h.07l.98 3.235zm6.128 3.386c1.752 0 3.047-1.054 3.124-2.584v-.152h-1.53c-.064.82-.662 1.4-1.582 1.4-1.119 0-1.758-.826-1.758-2.302v-.99c0-1.483.65-2.338 1.758-2.338.908 0 1.518.626 1.582 1.476h1.53v-.146c-.07-1.582-1.366-2.666-3.124-2.666-2.138 0-3.357 1.4-3.357 3.668v.996c0 2.267 1.207 3.638 3.357 3.638zM36.97 11V8.434l.82-.932L40.027 11h1.904l-2.976-4.553 2.853-3.445h-1.74l-3.023 3.58h-.076v-3.58h-1.582V11h1.582zM50 11V9.71h-3.36v-.075l1.817-2.004c.697-.762 1.406-1.442 1.406-2.543 0-1.272-1.078-2.238-2.73-2.238-1.858 0-2.737 1.242-2.737 2.46v.077h1.5v-.088c0-.627.446-1.184 1.201-1.184.686 0 1.196.463 1.196 1.12 0 .661-.47 1.171-.897 1.628l-2.924 3.153V11H50z" fill="#9C9CA0"/>
                <path d="M9.432 25v-5.32h.076l1.904 4.318h1.031l1.893-4.318h.076V25h1.43v-7.998h-1.6l-2.28 5.191h-.052l-2.28-5.191H8.02V25h1.412zm9.526.094c.92 0 1.442-.428 1.688-.885h.07V25h1.46v-4.178c0-1.576-1.137-2.138-2.532-2.138-1.705 0-2.432.82-2.502 1.84h1.459c.076-.387.375-.663 1.008-.663s1.037.3 1.037.926v.557h-1.518c-1.441 0-2.214.738-2.214 1.851 0 1.172.832 1.899 2.044 1.899zm.504-1.137c-.527 0-1.013-.281-1.013-.861 0-.475.322-.82 1.007-.82h1.19v.644c0 .603-.533 1.037-1.184 1.037zM25.058 25v-3.557c0-.838.48-1.43 1.488-1.43.24 0 .492.018.61.053V18.73a2.498 2.498 0 00-.487-.04c-.985 0-1.442.644-1.57 1.066h-.077v-.973h-1.54V25h1.576zm4.364 0v-2.162l.446-.492L31.66 25h1.798l-2.42-3.533 2.268-2.684h-1.74l-2.074 2.596h-.07V16.58h-1.548V25h1.547zm6.937.111c1.776 0 2.543-1.107 2.608-1.88h-1.465c-.07.386-.516.69-1.149.69-.808 0-1.318-.573-1.318-1.394v-.293h3.99v-.714c0-1.758-1.13-2.848-2.742-2.848-1.547 0-2.76 1.008-2.76 2.848v.738c0 1.834 1.114 2.853 2.836 2.853zm1.172-3.814h-2.496v-.065c0-.843.51-1.4 1.254-1.4.75 0 1.242.557 1.242 1.4v.065zm4.974 3.738c.352 0 .785-.04.908-.064v-1.143c-.111.012-.34.024-.533.024-.644 0-.902-.188-.902-.809v-3.018h1.377v-1.183h-1.377v-1.547h-1.5v1.547h-.979v1.183h.944v3.217c0 1.272.515 1.793 2.062 1.793zm5.6-.035v-2.684h1.606c1.729 0 2.713-1.142 2.713-2.648 0-1.494-.973-2.666-2.701-2.666h-3.2V25h1.583zm1.313-3.926H48.1v-2.812h1.318c.873 0 1.395.51 1.395 1.406 0 .89-.522 1.406-1.395 1.406zM54.855 25v-3.557c0-.838.48-1.43 1.488-1.43.24 0 .493.018.61.053V18.73a2.498 2.498 0 00-.487-.04c-.984 0-1.441.644-1.57 1.066h-.076v-.973h-1.541V25h1.576zm3.691-7.201c.58 0 .973-.346.973-.85 0-.51-.393-.861-.973-.861-.568 0-.967.346-.967.861 0 .504.399.85.967.85zM59.319 25v-6.217h-1.54V25h1.54zm3.89.111c1.7 0 2.567-.931 2.59-2.115h-1.423c-.07.51-.375.879-1.12.879-.79 0-1.26-.615-1.26-1.623v-.75c0-.973.446-1.594 1.255-1.594.761 0 1.054.51 1.101.932h1.424c-.024-1.184-.943-2.168-2.566-2.168-1.694 0-2.766 1.101-2.766 2.807v.779c0 1.763 1.043 2.853 2.766 2.853zm6.07 0c1.776 0 2.543-1.107 2.608-1.88h-1.465c-.07.386-.516.69-1.149.69-.808 0-1.318-.573-1.318-1.394v-.293h3.99v-.714c0-1.758-1.13-2.848-2.742-2.848-1.547 0-2.76 1.008-2.76 2.848v.738c0 1.834 1.114 2.853 2.836 2.853zm1.172-3.814h-2.496v-.065c0-.843.51-1.4 1.254-1.4.75 0 1.242.557 1.242 1.4v.065z" fill="#E85059"/>
            </g>
            <rect fill="#D1D1D3" x="1" y="8" width="2" height="50" rx="1"/>
            <circle stroke="#F4F4F5" stroke-width="2" fill="#E85059" cx="2" cy="7" r="3"/>
            <path d="M2 37a2.99 2.99 0 00-2.121.879A2.99 2.99 0 00-1 40v36c0 .828.336 1.578.879 2.121A2.99 2.99 0 002 79a2.99 2.99 0 002.121-.879A2.99 2.99 0 005 76V40a2.99 2.99 0 00-.879-2.121A2.99 2.99 0 002 37z" stroke="#F4F4F5" stroke-width="2" fill="#D1D1D3"/>
        </g>
    </g>
</svg>
