<svg class="u-max-full-width" viewBox="0 0 466 116" xmlns="http://www.w3.org/2000/svg">
    <g fill="none" fill-rule="evenodd">
        <g fill-rule="nonzero">
            <path d="M152.84 11l.627-2.057h2.672l.627 2.057h1.681l-2.672-7.998h-1.851L151.24 11h1.6zm2.982-3.234h-2.027l.978-3.235h.07l.98 3.235zm6.24 3.234c2.414 0 3.58-1.477 3.58-4.02 0-2.525-1.148-3.978-3.58-3.978h-2.918V11h2.918zm-.211-1.295h-1.125V4.291h1.125c1.482 0 2.162.914 2.162 2.719 0 1.804-.674 2.695-2.162 2.695zm10.112 3.123v-1.13h-1.687V3.71h1.687V2.58H168.8v10.247h3.164zm3.38-1.676c2.028 0 3.17-1.02 3.17-2.507 0-1.342-.855-1.963-2.15-2.256l-1.242-.287c-.703-.153-1.096-.47-1.096-.95 0-.62.522-1.072 1.395-1.072.85 0 1.37.44 1.47 1.014h1.5c-.076-1.23-1.13-2.256-2.959-2.256-1.763 0-2.988.955-2.988 2.42 0 1.213.785 1.928 2.028 2.209l1.236.287c.832.193 1.23.48 1.23 1.037 0 .656-.521 1.107-1.506 1.107-.943 0-1.54-.457-1.646-1.078h-1.53c.071 1.266 1.055 2.332 3.089 2.332zm5.818-.152V8.434l.82-.932L184.22 11h1.904l-2.976-4.553L186 3.002h-1.74l-3.023 3.58h-.077v-3.58h-1.582V11h1.582zm7.13 0V3.002h-1.581V11h1.582zm3.041 0V8.316h1.606c1.728 0 2.713-1.142 2.713-2.648 0-1.494-.973-2.666-2.702-2.666h-3.199V11h1.582zm1.313-3.926h-1.319V4.262h1.319c.873 0 1.394.51 1.394 1.406 0 .89-.521 1.406-1.394 1.406zM198.11 11V8.316h1.605c1.729 0 2.713-1.142 2.713-2.648 0-1.494-.972-2.666-2.7-2.666h-3.2V11h1.582zm1.312-3.926h-1.318V4.262h1.318c.874 0 1.395.51 1.395 1.406 0 .89-.521 1.406-1.395 1.406zM208.458 11V9.705h-3.58V7.561h3.37V6.348h-3.37V4.297h3.58V3.002h-5.15V11h5.15zm4.13 0c2.414 0 3.58-1.477 3.58-4.02 0-2.525-1.148-3.978-3.58-3.978h-2.918V11h2.918zm-.21-1.295h-1.126V4.291h1.125c1.483 0 2.163.914 2.163 2.719 0 1.804-.674 2.695-2.163 2.695zm7.2 3.123V2.58h-3.164v1.13h1.693v7.987h-1.693v1.131h3.164z" fill="#9C9CA0"/>
            <path d="M154.598 25.152c2.027 0 3.17-1.02 3.17-2.507 0-1.342-.856-1.963-2.15-2.256l-1.243-.287c-.703-.153-1.096-.47-1.096-.95 0-.62.522-1.072 1.395-1.072.85 0 1.37.44 1.47 1.014h1.5c-.076-1.23-1.13-2.256-2.958-2.256-1.764 0-2.989.955-2.989 2.42 0 1.213.785 1.928 2.028 2.209l1.236.287c.832.193 1.23.48 1.23 1.037 0 .656-.521 1.107-1.505 1.107-.944 0-1.541-.457-1.647-1.078h-1.53c.071 1.266 1.055 2.332 3.089 2.332zm5.7 1.91v-3.011h.076c.276.656.915 1.031 1.764 1.031 1.46 0 2.338-1.043 2.338-2.771v-.844c0-1.729-.873-2.766-2.314-2.766-.873 0-1.559.399-1.811 1.067h-.082v-.99h-1.518v8.284h1.547zm1.319-3.21c-.791 0-1.319-.604-1.319-1.518v-.809c0-.99.498-1.593 1.301-1.593.832 0 1.3.615 1.3 1.693v.54c0 1.071-.468 1.687-1.282 1.687zm6.45 1.26c1.7 0 2.836-1.044 2.836-2.89v-.697c0-1.757-1.136-2.853-2.836-2.853-1.71 0-2.853 1.137-2.853 2.865v.686c0 1.857 1.13 2.888 2.853 2.888zm0-1.202c-.89 0-1.295-.767-1.295-1.7v-.644c0-.937.434-1.699 1.295-1.699.856 0 1.278.756 1.278 1.7v.644c0 .937-.393 1.7-1.278 1.7zm5.385 1.09v-3.445c0-.938.474-1.576 1.306-1.576.633 0 1.12.369 1.12 1.289V25h1.54v-4.166c0-1.441-.826-2.15-2.074-2.15-1.225 0-1.7.709-1.851 1.195h-.077v-1.096h-1.505V25h1.54zm7.388.111c1.664 0 2.66-.761 2.66-2.027 0-1.143-.832-1.559-1.98-1.752-.674-.117-1.606-.2-1.606-.844 0-.463.38-.75.996-.75.668 0 1.002.381 1.037.75h1.365c0-1.154-.978-1.816-2.373-1.816-1.318 0-2.496.557-2.496 1.945 0 1.213.903 1.588 2.022 1.81.808.159 1.54.241 1.54.839 0 .427-.322.779-1.095.779-.691 0-1.037-.31-1.096-.762h-1.494c0 1.113.943 1.828 2.52 1.828zm6.192 0c1.7 0 2.836-1.043 2.836-2.888v-.698c0-1.757-1.136-2.853-2.836-2.853-1.71 0-2.853 1.137-2.853 2.865v.686c0 1.857 1.13 2.888 2.853 2.888zm0-1.2c-.89 0-1.294-.768-1.294-1.7v-.645c0-.937.433-1.699 1.294-1.699.856 0 1.278.756 1.278 1.7v.644c0 .937-.393 1.7-1.278 1.7zM192.51 25v-3.557c0-.838.48-1.43 1.489-1.43.24 0 .492.018.61.053V18.73a2.498 2.498 0 00-.487-.04c-.985 0-1.442.644-1.57 1.066h-.077v-.973h-1.54V25h1.575zm3.773-3.75c.58 0 1.037-.387 1.037-.984 0-.598-.45-1.002-1.037-1.002-.568 0-1.02.392-1.02 1.002 0 .597.458.984 1.02.984zm0 3.867c.58 0 1.037-.392 1.037-.984 0-.604-.45-1.008-1.037-1.008-.568 0-1.02.393-1.02 1.008 0 .592.458.984 1.02.984zm6.034-.117v-2.982h1.418l1.4 2.982h1.77l-1.605-3.223c.726-.28 1.453-1.072 1.453-2.244 0-1.53-1.031-2.531-2.807-2.531h-3.193V25h1.564zm1.377-4.172h-1.377v-2.584h1.4c.839 0 1.401.463 1.401 1.318 0 .844-.545 1.266-1.424 1.266zm4.998-3.03c.58 0 .973-.345.973-.849 0-.51-.393-.861-.973-.861-.568 0-.967.346-.967.861 0 .504.399.85.967.85zm.773 7.202v-6.217h-1.54V25h1.54zm4.822.082c1.46 0 2.338-1.043 2.338-2.771v-.844c0-1.729-.873-2.766-2.314-2.766-.891 0-1.594.416-1.8 1.067h-.075V16.58h-1.547V25h1.523v-.95h.076c.252.64.932 1.032 1.8 1.032zm-.516-1.23c-.79 0-1.335-.622-1.335-1.536v-.773c0-.99.503-1.611 1.318-1.611.82 0 1.289.62 1.289 1.699v.539c0 1.066-.463 1.682-1.272 1.682zM220.146 25v-6.674h2.273v-1.324h-6.129v1.324h2.268V25h1.588zm3.615-7.201c.58 0 .972-.346.972-.85 0-.51-.392-.861-.972-.861-.569 0-.967.346-.967.861 0 .504.398.85.967.85zm.773 7.201v-6.217h-1.54V25h1.54zm2.959 2.062v-3.011h.076c.275.656.914 1.031 1.763 1.031 1.46 0 2.338-1.043 2.338-2.771v-.844c0-1.729-.873-2.766-2.314-2.766-.873 0-1.559.399-1.81 1.067h-.083v-.99h-1.517v8.284h1.547zm1.318-3.21c-.791 0-1.318-.604-1.318-1.518v-.809c0-.99.498-1.593 1.3-1.593.832 0 1.301.615 1.301 1.693v.54c0 1.071-.469 1.687-1.283 1.687zm6.04 1.26c1.664 0 2.66-.762 2.66-2.028 0-1.143-.831-1.559-1.98-1.752-.674-.117-1.605-.2-1.605-.844 0-.463.38-.75.996-.75.668 0 1.002.381 1.037.75h1.365c0-1.154-.978-1.816-2.373-1.816-1.318 0-2.496.557-2.496 1.945 0 1.213.902 1.588 2.021 1.81.809.159 1.541.241 1.541.839 0 .427-.322.779-1.095.779-.692 0-1.037-.31-1.096-.762h-1.494c0 1.113.943 1.828 2.52 1.828zM243.78 25v-6.674h2.273v-1.324h-6.128v1.324h2.267V25h1.588zm9.328.117c.586 0 1.037-.392 1.037-.984 0-.604-.451-1.008-1.037-1.008-.563 0-1.02.393-1.02 1.008 0 .592.457.984 1.02.984zm-3.24 0c.58 0 1.03-.392 1.03-.984 0-.604-.45-1.008-1.03-1.008-.569 0-1.02.393-1.02 1.008 0 .592.451.984 1.02.984zm-3.247 0c.58 0 1.037-.392 1.037-.984 0-.604-.45-1.008-1.037-1.008-.568 0-1.02.393-1.02 1.008 0 .592.458.984 1.02.984z" fill="#000"/>
        </g>
        <rect fill="#D1D1D3" x="145" y="8" width="2" height="36" rx="1"/>
        <circle stroke="#FFF" stroke-width="2" fill="#000" cx="146" cy="7" r="3"/>
        <g fill-rule="nonzero">
            <path d="M275.037 11.152c1.752 0 3.047-1.054 3.123-2.584v-.152h-1.53c-.064.82-.661 1.4-1.581 1.4-1.12 0-1.758-.826-1.758-2.302v-.99c0-1.483.65-2.338 1.758-2.338.908 0 1.517.626 1.582 1.476h1.53v-.146c-.071-1.582-1.366-2.666-3.124-2.666-2.139 0-3.357 1.4-3.357 3.668v.996c0 2.267 1.207 3.638 3.357 3.638zm5.806-.152V7.572h3.363V11h1.583V3.002h-1.583v3.252h-3.363V3.002h-1.582V11h1.582zm7.242 0l.627-2.057h2.672L292.01 11h1.681l-2.672-7.998h-1.851L286.485 11h1.6zm2.982-3.234h-2.027l.978-3.235h.07l.98 3.235zM295.971 11V8.316h1.606c1.728 0 2.712-1.142 2.712-2.648 0-1.494-.972-2.666-2.7-2.666h-3.2V11h1.582zm1.313-3.926h-1.319V4.262h1.319c.873 0 1.394.51 1.394 1.406 0 .89-.521 1.406-1.394 1.406zM304.267 11V4.326h2.274V3.002h-6.13v1.324h2.269V11h1.587zm8.121 0V9.705h-3.58V7.561h3.369V6.348h-3.37V4.297h3.581V3.002h-5.15V11h5.15zm2.777 0V8.018h1.418l1.4 2.982h1.77l-1.606-3.223c.727-.28 1.453-1.072 1.453-2.244 0-1.53-1.03-2.531-2.806-2.531H313.6V11h1.565zm1.377-4.172h-1.377V4.244h1.4c.838 0 1.4.463 1.4 1.318 0 .844-.544 1.266-1.423 1.266z" fill="#9C9CA0"/>
            <path d="M273.15 25l.44-2.156h1.517L274.68 25h1.172l.427-2.156h1.242l.217-1.12h-1.26l.311-1.535h1.283l.211-1.113h-1.242l.41-2.074h-1.172l-.41 2.074h-1.53l.423-2.074h-1.178l-.41 2.074h-1.19l-.21 1.113h1.2l-.31 1.536h-1.219l-.216 1.119h1.183L271.984 25h1.166zm2.239-3.164h-1.676l.357-1.752h1.67l-.351 1.752zm5.22 3.258c.92 0 1.441-.428 1.687-.885h.07V25h1.46v-4.178c0-1.576-1.137-2.138-2.532-2.138-1.705 0-2.431.82-2.502 1.84h1.46c.076-.387.374-.663 1.007-.663.633 0 1.037.3 1.037.926v.557h-1.517c-1.442 0-2.215.738-2.215 1.851 0 1.172.832 1.899 2.045 1.899zm.504-1.137c-.528 0-1.014-.281-1.014-.861 0-.475.322-.82 1.008-.82h1.19v.644c0 .603-.534 1.037-1.184 1.037zm6.116 1.154c1.664 0 2.66-.761 2.66-2.027 0-1.143-.831-1.559-1.98-1.752-.674-.117-1.605-.2-1.605-.844 0-.463.38-.75.996-.75.668 0 1.002.381 1.037.75h1.365c0-1.154-.978-1.816-2.373-1.816-1.318 0-2.496.557-2.496 1.945 0 1.213.902 1.588 2.021 1.81.809.159 1.541.241 1.541.839 0 .427-.322.779-1.095.779-.692 0-1.037-.31-1.096-.762h-1.494c0 1.113.943 1.828 2.52 1.828zm5.18-.111v-2.162l.445-.492L294.647 25h1.799l-2.42-3.533 2.267-2.684h-1.74l-2.074 2.596h-.07V16.58h-1.547V25h1.547zm6.192.094c.92 0 1.442-.428 1.688-.885h.07V25h1.46v-4.178c0-1.576-1.138-2.138-2.532-2.138-1.705 0-2.432.82-2.502 1.84h1.459c.076-.387.375-.663 1.008-.663s1.037.3 1.037.926v.557h-1.518c-1.441 0-2.215.738-2.215 1.851 0 1.172.832 1.899 2.045 1.899zm.504-1.137c-.527 0-1.013-.281-1.013-.861 0-.475.322-.82 1.007-.82h1.19v.644c0 .603-.533 1.037-1.184 1.037zm6.404 1.078c.352 0 .785-.04.908-.064v-1.143c-.111.012-.34.024-.533.024-.644 0-.902-.188-.902-.809v-3.018h1.377v-1.183h-1.377v-1.547h-1.5v1.547h-.979v1.183h.944v3.217c0 1.272.515 1.793 2.062 1.793zm3.363 2.027v-3.011h.076c.275.656.914 1.031 1.764 1.031 1.459 0 2.338-1.043 2.338-2.771v-.844c0-1.729-.874-2.766-2.315-2.766-.873 0-1.559.399-1.81 1.067h-.082v-.99h-1.518v8.284h1.547zm1.318-3.21c-.79 0-1.318-.604-1.318-1.518v-.809c0-.99.498-1.593 1.3-1.593.833 0 1.301.615 1.301 1.693v.54c0 1.071-.468 1.687-1.283 1.687zm4.845-2.602c.58 0 1.037-.387 1.037-.984 0-.598-.45-1.002-1.037-1.002-.568 0-1.02.392-1.02 1.002 0 .597.458.984 1.02.984zm0 3.867c.58 0 1.037-.392 1.037-.984 0-.604-.45-1.008-1.037-1.008-.568 0-1.02.393-1.02 1.008 0 .592.458.984 1.02.984zm5.9-.117v-5.32h.076l1.904 4.318h1.031l1.893-4.318h.076V25h1.43v-7.998h-1.6l-2.28 5.191h-.052l-2.28-5.191h-1.61V25h1.412zm9.526.094c.92 0 1.442-.428 1.688-.885h.07V25h1.46v-4.178c0-1.576-1.137-2.138-2.532-2.138-1.705 0-2.432.82-2.502 1.84h1.459c.076-.387.375-.663 1.008-.663s1.037.3 1.037.926v.557h-1.518c-1.441 0-2.214.738-2.214 1.851 0 1.172.832 1.899 2.044 1.899zm.504-1.137c-.527 0-1.013-.281-1.013-.861 0-.475.322-.82 1.008-.82h1.189v.644c0 .603-.533 1.037-1.184 1.037zm6.44 1.154c1.699 0 2.566-.931 2.59-2.115h-1.425c-.07.51-.375.879-1.119.879-.79 0-1.26-.615-1.26-1.623v-.75c0-.973.446-1.594 1.254-1.594.762 0 1.055.51 1.102.932h1.424c-.024-1.184-.944-2.168-2.567-2.168-1.693 0-2.765 1.101-2.765 2.807v.779c0 1.763 1.043 2.853 2.765 2.853zm7.188 1.951v-3.011h.076c.275.656.914 1.031 1.764 1.031 1.459 0 2.337-1.043 2.337-2.771v-.844c0-1.729-.873-2.766-2.314-2.766-.873 0-1.559.399-1.81 1.067h-.083v-.99h-1.517v8.284h1.547zm1.318-3.21c-.791 0-1.318-.604-1.318-1.518v-.809c0-.99.498-1.593 1.3-1.593.832 0 1.301.615 1.301 1.693v.54c0 1.071-.469 1.687-1.283 1.687zM351.43 25v-3.557c0-.838.48-1.43 1.488-1.43.24 0 .493.018.61.053V18.73a2.498 2.498 0 00-.487-.04c-.984 0-1.441.644-1.57 1.066h-.076v-.973h-1.541V25h1.576zm5.302.111c1.7 0 2.836-1.043 2.836-2.888v-.698c0-1.757-1.137-2.853-2.836-2.853-1.71 0-2.853 1.137-2.853 2.865v.686c0 1.857 1.13 2.888 2.853 2.888zm0-1.2c-.89 0-1.295-.768-1.295-1.7v-.645c0-.937.434-1.699 1.295-1.699.856 0 1.278.756 1.278 1.7v.644c0 .937-.393 1.7-1.278 1.7zm7.687 1.183c.92 0 1.441-.428 1.687-.885h.07V25h1.46v-4.178c0-1.576-1.137-2.138-2.532-2.138-1.705 0-2.431.82-2.502 1.84h1.46c.075-.387.374-.663 1.007-.663.633 0 1.037.3 1.037.926v.557h-1.517c-1.442 0-2.215.738-2.215 1.851 0 1.172.832 1.899 2.045 1.899zm.504-1.137c-.528 0-1.014-.281-1.014-.861 0-.475.322-.82 1.008-.82h1.19v.644c0 .603-.534 1.037-1.184 1.037zm5.507 3.105v-3.011h.076c.275.656.914 1.031 1.764 1.031 1.459 0 2.338-1.043 2.338-2.771v-.844c0-1.729-.873-2.766-2.315-2.766-.873 0-1.558.399-1.81 1.067h-.082v-.99h-1.518v8.284h1.547zm1.318-3.21c-.79 0-1.318-.604-1.318-1.518v-.809c0-.99.498-1.593 1.3-1.593.833 0 1.301.615 1.301 1.693v.54c0 1.071-.468 1.687-1.283 1.687zm5.431 3.21v-3.011h.077c.275.656.914 1.031 1.763 1.031 1.46 0 2.338-1.043 2.338-2.771v-.844c0-1.729-.873-2.766-2.314-2.766-.873 0-1.559.399-1.81 1.067h-.083v-.99h-1.518v8.284h1.547zm1.319-3.21c-.791 0-1.319-.604-1.319-1.518v-.809c0-.99.498-1.593 1.301-1.593.832 0 1.3.615 1.3 1.693v.54c0 1.071-.468 1.687-1.282 1.687zm6.04 1.26c1.664 0 2.66-.762 2.66-2.028 0-1.143-.832-1.559-1.98-1.752-.674-.117-1.606-.2-1.606-.844 0-.463.381-.75.996-.75.668 0 1.002.381 1.038.75h1.365c0-1.154-.979-1.816-2.373-1.816-1.319 0-2.496.557-2.496 1.945 0 1.213.902 1.588 2.021 1.81.809.159 1.541.241 1.541.839 0 .427-.322.779-1.096.779-.69 0-1.037-.31-1.095-.762h-1.494c0 1.113.943 1.828 2.52 1.828zm8.314 0c1.699 0 2.835-1.044 2.835-2.89v-.697c0-1.757-1.136-2.853-2.835-2.853-1.711 0-2.854 1.137-2.854 2.865v.686c0 1.857 1.13 2.888 2.854 2.888zm0-1.202c-.891 0-1.295-.767-1.295-1.7v-.644c0-.937.433-1.699 1.295-1.699.855 0 1.277.756 1.277 1.7v.644c0 .937-.393 1.7-1.277 1.7zm5.384 1.09v-3.445c0-.938.474-1.576 1.306-1.576.633 0 1.12.369 1.12 1.289V25h1.54v-4.166c0-1.441-.826-2.15-2.074-2.15-1.224 0-1.699.709-1.851 1.195h-.076v-1.096h-1.506V25h1.54zm8.231-7.201c.58 0 .973-.346.973-.85 0-.51-.393-.861-.973-.861-.568 0-.967.346-.967.861 0 .504.399.85.967.85zm.774 7.201v-6.217H405.7V25h1.54zm3.075 0v-2.684h1.606c1.728 0 2.713-1.142 2.713-2.648 0-1.494-.973-2.666-2.702-2.666h-3.199V25h1.582zm1.313-3.926h-1.319v-2.812h1.319c.873 0 1.394.51 1.394 1.406 0 .89-.521 1.406-1.394 1.406zm5.443 4.02c.92 0 1.441-.428 1.687-.885h.07V25h1.46v-4.178c0-1.576-1.137-2.138-2.532-2.138-1.705 0-2.432.82-2.502 1.84h1.46c.075-.387.374-.663 1.007-.663.633 0 1.037.3 1.037.926v.557h-1.518c-1.44 0-2.214.738-2.214 1.851 0 1.172.832 1.899 2.045 1.899zm.503-1.137c-.527 0-1.013-.281-1.013-.861 0-.475.322-.82 1.008-.82h1.19v.644c0 .603-.534 1.037-1.185 1.037zm6.006 1.12c.902 0 1.629-.44 1.822-1.073h.076V25h1.518v-8.42h-1.547v3.147h-.07c-.24-.633-.909-1.026-1.782-1.026-1.412 0-2.338 1.02-2.338 2.725v.926c0 1.705.915 2.724 2.32 2.724zm.556-1.225c-.796 0-1.294-.598-1.294-1.665v-.603c0-1.06.492-1.652 1.271-1.652.773 0 1.336.586 1.336 1.517v.803c0 1.014-.527 1.6-1.313 1.6zm6.773-1.36v-.31c0-.645.258-.832.944-1.33.562-.405 1.16-.873 1.16-1.887 0-1.43-1.207-2.127-2.572-2.127-1.319 0-2.69.639-2.637 2.379h1.424c0-.65.386-1.155 1.125-1.155.568 0 1.095.293 1.095.985 0 .557-.351.814-.902 1.201-.656.451-1.102 1.008-1.043 1.887l.006.357h1.4zm-.656 2.625c.633 0 1.043-.375 1.043-.902 0-.545-.41-.914-1.043-.914-.61 0-1.02.369-1.02.914 0 .527.417.902 1.02.902z" fill="#000"/>
        </g>
        <rect fill="#D1D1D3" x="265" y="8" width="2" height="50" rx="1"/>
        <circle stroke="#FFF" stroke-width="2" fill="#000" cx="266" cy="7" r="3"/>
        <path d="M2 56a2 2 0 110 4 2 2 0 010-4zm6 0a2 2 0 110 4 2 2 0 010-4zm6-3a2 2 0 012 2v6a2 2 0 11-4 0v-6a2 2 0 012-2zm6 0a2 2 0 012 2v6a2 2 0 11-4 0v-6a2 2 0 012-2zm6-6a2 2 0 012 2v18a2 2 0 11-4 0V49a2 2 0 012-2zm6-10a2 2 0 012 2v38a2 2 0 11-4 0V39a2 2 0 012-2zm6 6a2 2 0 012 2v26a2 2 0 11-4 0V45a2 2 0 012-2zm6 5a2 2 0 012 2v16a2 2 0 11-4 0V50a2 2 0 012-2zm6-8a2 2 0 012 2v32a2 2 0 11-4 0V42a2 2 0 012-2zm6 5a2 2 0 012 2v22a2 2 0 11-4 0V47a2 2 0 012-2zm6-2a2 2 0 012 2v26a2 2 0 11-4 0V45a2 2 0 012-2zm6 10a2 2 0 012 2v6a2 2 0 11-4 0v-6a2 2 0 012-2zm6 1a2 2 0 012 2v4a2 2 0 11-4 0v-4a2 2 0 012-2zm6 2a2 2 0 110 4 2 2 0 010-4zm6 0a2 2 0 110 4 2 2 0 010-4zm6 0a2 2 0 110 4 2 2 0 010-4zm6 0a2 2 0 110 4 2 2 0 010-4zm6-2a2 2 0 012 2v4a2 2 0 01-4 0v-4a2 2 0 012-2zm6-9a2 2 0 012 2v22a2 2 0 01-4 0V47a2 2 0 012-2zm6 7a2 2 0 012 2v8a2 2 0 01-4 0v-8a2 2 0 012-2z" fill="#000"/>
        <path d="M230 52.5c-.414 0-.79.168-1.06.44a1.49 1.49 0 00-.44 1.06v8c0 .414.168.79.44 1.06a1.495 1.495 0 002.121 0c.271-.27.439-.646.439-1.06v-8c0-.414-.168-.79-.44-1.06a1.495 1.495 0 00-1.06-.44z" stroke="#D1D1D3" fill="#FFF"/>
        <path d="M122 54a2 2 0 012 2v4a2 2 0 01-4 0v-4a2 2 0 012-2z" fill="#000"/>
        <path d="M236 54.5c-.414 0-.79.168-1.06.44a1.49 1.49 0 00-.44 1.06v4c0 .414.168.79.44 1.06a1.495 1.495 0 002.121 0c.271-.27.439-.646.439-1.06v-4c0-.414-.168-.79-.44-1.06a1.495 1.495 0 00-1.06-.44z" stroke="#D1D1D3" fill="#FFF"/>
        <path d="M128 50a2 2 0 012 2v12a2 2 0 01-4 0V52a2 2 0 012-2z" fill="#D1D1D3"/>
        <path d="M242 50.5c-.414 0-.79.168-1.06.44a1.49 1.49 0 00-.44 1.06v12c0 .414.168.79.44 1.06a1.495 1.495 0 002.121 0c.271-.27.439-.646.439-1.06V52c0-.414-.168-.79-.44-1.06a1.495 1.495 0 00-1.06-.44z" stroke="#D1D1D3" fill="#FFF"/>
        <path d="M134 56a2 2 0 110 4 2 2 0 010-4z" fill="#D1D1D3"/>
        <path d="M248 41.5c-.414 0-.79.168-1.06.44a1.49 1.49 0 00-.44 1.06v30c0 .414.168.79.44 1.06a1.495 1.495 0 002.121 0c.271-.27.439-.646.439-1.06V43c0-.414-.168-.79-.44-1.06a1.495 1.495 0 00-1.06-.44z" stroke="#D1D1D3" fill="#FFF"/>
        <path d="M140 56a2 2 0 110 4 2 2 0 010-4z" fill="#D1D1D3"/>
        <path d="M254 37.5c-.414 0-.79.168-1.06.44a1.49 1.49 0 00-.44 1.06v38c0 .414.168.79.44 1.06a1.495 1.495 0 002.121 0c.271-.27.439-.646.439-1.06V39c0-.414-.168-.79-.44-1.06a1.495 1.495 0 00-1.06-.44zm6 8c-.414 0-.79.168-1.06.44a1.49 1.49 0 00-.44 1.06v22c0 .414.168.79.44 1.06a1.495 1.495 0 002.121 0c.271-.27.439-.646.439-1.06V47c0-.414-.168-.79-.44-1.06a1.495 1.495 0 00-1.06-.44zm-108-7c-.414 0-.79.168-1.06.44a1.49 1.49 0 00-.44 1.06v36c0 .414.168.79.44 1.06a1.495 1.495 0 002.121 0c.271-.27.439-.646.439-1.06V40c0-.414-.168-.79-.44-1.06a1.495 1.495 0 00-1.06-.44z" stroke="#D1D1D3" fill="#FFF"/>
        <path stroke="#D1D1D3" d="M146 43.5c-.414 0-.79.168-1.06.44a1.49 1.49 0 00-.44 1.06v26c0 .414.168.79.44 1.06a1.495 1.495 0 002.121 0c.271-.27.439-.646.439-1.06V45c0-.414-.168-.79-.44-1.06a1.495 1.495 0 00-1.06-.44z" stroke-linejoin="square" fill="#FFF"/>
        <path stroke="#FFF" stroke-width="2" d="M146 42a2.99 2.99 0 00-2.121.879A2.99 2.99 0 00143 45v26c0 .828.336 1.578.879 2.121A2.99 2.99 0 00146 74a2.99 2.99 0 002.121-.879A2.99 2.99 0 00149 71V45a2.99 2.99 0 00-.879-2.121A2.99 2.99 0 00146 42z"/>
        <path d="M158 45.5c-.414 0-.79.168-1.06.44a1.49 1.49 0 00-.44 1.06v22c0 .414.168.79.44 1.06a1.495 1.495 0 002.121 0c.271-.27.439-.646.439-1.06V47c0-.414-.168-.79-.44-1.06a1.495 1.495 0 00-1.06-.44z" stroke="#D1D1D3" fill="#FFF"/>
        <path d="M272 45a2 2 0 012 2v22a2 2 0 01-4 0V47a2 2 0 012-2z" fill="#D1D1D3"/>
        <path d="M266 44a2.99 2.99 0 00-2.121.879A2.99 2.99 0 00263 47v22c0 .828.336 1.578.879 2.121A2.99 2.99 0 00266 72a2.99 2.99 0 002.121-.879A2.99 2.99 0 00269 69V47a2.99 2.99 0 00-.879-2.121A2.99 2.99 0 00266 44z" stroke="#FFF" stroke-width="2" fill="#D1D1D3"/>
        <path d="M164 54.5c-.414 0-.79.168-1.06.44a1.49 1.49 0 00-.44 1.06v4c0 .414.168.79.44 1.06a1.495 1.495 0 002.121 0c.271-.27.439-.646.439-1.06v-4c0-.414-.168-.79-.44-1.06a1.495 1.495 0 00-1.06-.44z" stroke="#D1D1D3" fill="#FFF"/>
        <path d="M278 54a2 2 0 012 2v4a2 2 0 01-4 0v-4a2 2 0 012-2z" fill="#D1D1D3"/>
        <path d="M170 56.5c-.414 0-.79.168-1.06.44a1.495 1.495 0 000 2.121c.27.271.646.439 1.06.439.414 0 .79-.168 1.06-.44a1.495 1.495 0 000-2.121A1.495 1.495 0 00170 56.5z" stroke="#D1D1D3" fill="#FFF"/>
        <path d="M284 56a2 2 0 110 4 2 2 0 010-4z" fill="#D1D1D3"/>
        <path d="M176 45.5c-.414 0-.79.168-1.06.44a1.49 1.49 0 00-.44 1.06v22c0 .414.168.79.44 1.06a1.495 1.495 0 002.121 0c.271-.27.439-.646.439-1.06V47c0-.414-.168-.79-.44-1.06a1.495 1.495 0 00-1.06-.44z" stroke="#D1D1D3" fill="#FFF"/>
        <path d="M290 45a2 2 0 012 2v22a2 2 0 01-4 0V47a2 2 0 012-2z" fill="#D1D1D3"/>
        <path d="M182 42.5c-.414 0-.79.168-1.06.44a1.49 1.49 0 00-.44 1.06v28c0 .414.168.79.44 1.06a1.495 1.495 0 002.121 0c.271-.27.439-.646.439-1.06V44c0-.414-.168-.79-.44-1.06a1.495 1.495 0 00-1.06-.44z" stroke="#D1D1D3" fill="#FFF"/>
        <path d="M296 42a2 2 0 012 2v28a2 2 0 01-4 0V44a2 2 0 012-2z" fill="#D1D1D3"/>
        <path d="M188 49.5c-.414 0-.79.168-1.06.44a1.49 1.49 0 00-.44 1.06v14c0 .414.168.79.44 1.06a1.495 1.495 0 002.121 0c.271-.27.439-.646.439-1.06V51c0-.414-.168-.79-.44-1.06a1.495 1.495 0 00-1.06-.44z" stroke="#D1D1D3" fill="#FFF"/>
        <path d="M302 49a2 2 0 012 2v14a2 2 0 01-4 0V51a2 2 0 012-2z" fill="#D1D1D3"/>
        <path d="M194 45.5c-.414 0-.79.168-1.06.44a1.49 1.49 0 00-.44 1.06v22c0 .414.168.79.44 1.06a1.495 1.495 0 002.121 0c.271-.27.439-.646.439-1.06V47c0-.414-.168-.79-.44-1.06a1.495 1.495 0 00-1.06-.44z" stroke="#D1D1D3" fill="#FFF"/>
        <path d="M308 45a2 2 0 012 2v22a2 2 0 01-4 0V47a2 2 0 012-2z" fill="#D1D1D3"/>
        <path d="M200 38.5c-.414 0-.79.168-1.06.44a1.49 1.49 0 00-.44 1.06v36c0 .414.168.79.44 1.06a1.495 1.495 0 002.121 0c.271-.27.439-.646.439-1.06V40c0-.414-.168-.79-.44-1.06a1.495 1.495 0 00-1.06-.44z" stroke="#D1D1D3" fill="#FFF"/>
        <path d="M314 38a2 2 0 012 2v36a2 2 0 01-4 0V40a2 2 0 012-2z" fill="#D1D1D3"/>
        <path d="M206 50.5c-.414 0-.79.168-1.06.44a1.49 1.49 0 00-.44 1.06v12c0 .414.168.79.44 1.06a1.495 1.495 0 002.121 0c.271-.27.439-.646.439-1.06V52c0-.414-.168-.79-.44-1.06a1.495 1.495 0 00-1.06-.44z" stroke="#D1D1D3" fill="#FFF"/>
        <path d="M320 50a2 2 0 012 2v12a2 2 0 01-4 0V52a2 2 0 012-2z" fill="#D1D1D3"/>
        <path d="M212 43.5c-.414 0-.79.168-1.06.44a1.49 1.49 0 00-.44 1.06v26c0 .414.168.79.44 1.06a1.495 1.495 0 002.121 0c.271-.27.439-.646.439-1.06V45c0-.414-.168-.79-.44-1.06a1.495 1.495 0 00-1.06-.44z" stroke="#D1D1D3" fill="#FFF"/>
        <path d="M326 43a2 2 0 012 2v26a2 2 0 01-4 0V45a2 2 0 012-2z" fill="#D1D1D3"/>
        <path d="M218 48.5c-.414 0-.79.168-1.06.44a1.49 1.49 0 00-.44 1.06v16c0 .414.168.79.44 1.06a1.495 1.495 0 002.121 0c.271-.27.439-.646.439-1.06V50c0-.414-.168-.79-.44-1.06a1.495 1.495 0 00-1.06-.44z" stroke="#D1D1D3" fill="#FFF"/>
        <path d="M332 48a2 2 0 012 2v16a2 2 0 01-4 0V50a2 2 0 012-2z" fill="#D1D1D3"/>
        <path d="M224 54.5c-.414 0-.79.168-1.06.44a1.49 1.49 0 00-.44 1.06v4c0 .414.168.79.44 1.06a1.495 1.495 0 002.121 0c.271-.27.439-.646.439-1.06v-4c0-.414-.168-.79-.44-1.06a1.495 1.495 0 00-1.06-.44z" stroke="#D1D1D3" fill="#FFF"/>
        <path d="M338 54a2 2 0 012 2v4a2 2 0 01-4 0v-4a2 2 0 012-2zm6-2a2 2 0 012 2v8a2 2 0 01-4 0v-8a2 2 0 012-2zm6 2a2 2 0 012 2v4a2 2 0 01-4 0v-4a2 2 0 012-2zm6-4a2 2 0 012 2v12a2 2 0 01-4 0V52a2 2 0 012-2zm6-9a2 2 0 012 2v30a2 2 0 01-4 0V43a2 2 0 012-2zm6-4a2 2 0 012 2v38a2 2 0 01-4 0V39a2 2 0 012-2zm6 1a2 2 0 012 2v36a2 2 0 01-4 0V40a2 2 0 012-2zm6 0a2 2 0 012 2v36a2 2 0 01-4 0V40a2 2 0 012-2zm6 7a2 2 0 012 2v22a2 2 0 01-4 0V47a2 2 0 012-2zm6 9a2 2 0 012 2v4a2 2 0 01-4 0v-4a2 2 0 012-2zm6 2a2 2 0 110 4 2 2 0 010-4zm6-11a2 2 0 012 2v22a2 2 0 01-4 0V47a2 2 0 012-2zm6-3a2 2 0 012 2v28a2 2 0 01-4 0V44a2 2 0 012-2zm6 7a2 2 0 012 2v14a2 2 0 01-4 0V51a2 2 0 012-2zm6-4a2 2 0 012 2v22a2 2 0 01-4 0V47a2 2 0 012-2zm6-7a2 2 0 012 2v36a2 2 0 01-4 0V40a2 2 0 012-2zm6 12a2 2 0 012 2v12a2 2 0 01-4 0V52a2 2 0 012-2zm6-7a2 2 0 012 2v26a2 2 0 01-4 0V45a2 2 0 012-2zm6 5a2 2 0 012 2v16a2 2 0 01-4 0V50a2 2 0 012-2zm6 6a2 2 0 012 2v4a2 2 0 01-4 0v-4a2 2 0 012-2zm6-2a2 2 0 012 2v8a2 2 0 01-4 0v-8a2 2 0 012-2zm6 2a2 2 0 012 2v4a2 2 0 01-4 0v-4a2 2 0 012-2z" fill="#D1D1D3"/>
    </g>
</svg>
