<?xml version="1.0" encoding="UTF-8"?>
<svg class="u-max-full-width"viewBox="0 0 466 116" version="1.1" xmlns="http://www.w3.org/2000/svg" xmlns:xlink="http://www.w3.org/1999/xlink">
    <title>_chapters_3</title>
    <defs>
        <path d="M146,43 C147.104569,43 148,43.8954305 148,45 L148,71 C148,72.1045695 147.104569,73 146,73 C144.895431,73 144,72.1045695 144,71 L144,45 C144,43.8954305 144.895431,43 146,43 Z" id="path-1"></path>
    </defs>
    <g id="_chapters_3" stroke="none" stroke-width="1" fill="none" fill-rule="evenodd">
        <g id="-11:10-copy-6" transform="translate(151.240234, 2.580078)" fill-rule="nonzero">
            <path d="M1.59960938,8.41992188 L2.2265625,6.36328125 L4.8984375,6.36328125 L5.52539062,8.41992188 L7.20703125,8.41992188 L4.53515625,0.421875 L2.68359375,0.421875 L0,8.41992188 L1.59960938,8.41992188 Z M4.58203125,5.18554688 L2.5546875,5.18554688 L3.53320312,1.95117188 L3.60351562,1.95117188 L4.58203125,5.18554688 Z M10.821733,8.41992188 C13.2357955,8.41992188 14.4018111,6.94335938 14.4018111,4.40039062 C14.4018111,1.875 13.2533736,0.421875 10.821733,0.421875 L7.9037642,0.421875 L7.9037642,8.41992188 L10.821733,8.41992188 Z M10.6107955,7.125 L9.48579545,7.125 L9.48579545,1.7109375 L10.6107955,1.7109375 C12.0932173,1.7109375 12.7729048,2.625 12.7729048,4.4296875 C12.7729048,6.234375 12.0990767,7.125 10.6107955,7.125 Z M20.7230114,10.2480469 L20.7230114,9.1171875 L19.0355114,9.1171875 L19.0355114,1.13085938 L20.7230114,1.13085938 L20.7230114,0 L17.5589489,0 L17.5589489,10.2480469 L20.7230114,10.2480469 Z M24.1033381,8.57226562 C26.1306818,8.57226562 27.2732599,7.55273438 27.2732599,6.06445312 C27.2732599,4.72265625 26.4177912,4.1015625 25.1228693,3.80859375 L23.8806818,3.52148438 C23.1775568,3.36914062 22.7849787,3.05273438 22.7849787,2.57226562 C22.7849787,1.95117188 23.3064631,1.5 24.1795099,1.5 C25.0291193,1.5 25.5506037,1.93945312 25.6502131,2.51367188 L27.1502131,2.51367188 C27.0740412,1.28320312 26.0193537,0.2578125 24.1912287,0.2578125 C22.4275568,0.2578125 21.2029474,1.21289062 21.2029474,2.67773438 C21.2029474,3.890625 21.9881037,4.60546875 23.2302912,4.88671875 L24.4666193,5.17382812 C25.2986506,5.3671875 25.6970881,5.65429688 25.6970881,6.2109375 C25.6970881,6.8671875 25.1756037,7.31835938 24.1912287,7.31835938 C23.2478693,7.31835938 22.6502131,6.86132812 22.5447443,6.24023438 L21.0154474,6.24023438 C21.0857599,7.50585938 22.0701349,8.57226562 24.1033381,8.57226562 Z M29.9211648,8.41992188 L29.9211648,5.85351562 L30.7414773,4.921875 L32.9797585,8.41992188 L34.8840554,8.41992188 L31.9074929,3.8671875 L34.7610085,0.421875 L33.0207741,0.421875 L29.9973366,4.00195312 L29.9211648,4.00195312 L29.9211648,0.421875 L28.3391335,0.421875 L28.3391335,8.41992188 L29.9211648,8.41992188 Z M37.0514915,8.41992188 L37.0514915,0.421875 L35.4694602,0.421875 L35.4694602,8.41992188 L37.0514915,8.41992188 Z M40.0919744,8.41992188 L40.0919744,5.73632812 L41.6974432,5.73632812 C43.4259588,5.73632812 44.4103338,4.59375 44.4103338,3.08789062 C44.4103338,1.59375 43.4376776,0.421875 41.7091619,0.421875 L38.5099432,0.421875 L38.5099432,8.41992188 L40.0919744,8.41992188 Z M41.4044744,4.49414062 L40.0861151,4.49414062 L40.0861151,1.68164062 L41.4044744,1.68164062 C42.2775213,1.68164062 42.7990057,2.19140625 42.7990057,3.08789062 C42.7990057,3.97851562 42.2775213,4.49414062 41.4044744,4.49414062 Z M46.8707386,8.41992188 L46.8707386,5.73632812 L48.4762074,5.73632812 C50.204723,5.73632812 51.189098,4.59375 51.189098,3.08789062 C51.189098,1.59375 50.2164418,0.421875 48.4879261,0.421875 L45.2887074,0.421875 L45.2887074,8.41992188 L46.8707386,8.41992188 Z M48.1832386,4.49414062 L46.8648793,4.49414062 L46.8648793,1.68164062 L48.1832386,1.68164062 C49.0562855,1.68164062 49.5777699,2.19140625 49.5777699,3.08789062 C49.5777699,3.97851562 49.0562855,4.49414062 48.1832386,4.49414062 Z M57.2178622,8.41992188 L57.2178622,7.125 L53.6377841,7.125 L53.6377841,4.98046875 L57.0069247,4.98046875 L57.0069247,3.76757812 L53.6377841,3.76757812 L53.6377841,1.71679688 L57.2178622,1.71679688 L57.2178622,0.421875 L52.0674716,0.421875 L52.0674716,8.41992188 L57.2178622,8.41992188 Z M61.3481889,8.41992188 C63.7622514,8.41992188 64.928267,6.94335938 64.928267,4.40039062 C64.928267,1.875 63.7798295,0.421875 61.3481889,0.421875 L58.4302202,0.421875 L58.4302202,8.41992188 L61.3481889,8.41992188 Z M61.1372514,7.125 L60.0122514,7.125 L60.0122514,1.7109375 L61.1372514,1.7109375 C62.6196733,1.7109375 63.2993608,2.625 63.2993608,4.4296875 C63.2993608,6.234375 62.6255327,7.125 61.1372514,7.125 Z M68.3378906,10.2480469 L68.3378906,0 L65.1738281,0 L65.1738281,1.13085938 L66.8671875,1.13085938 L66.8671875,9.1171875 L65.1738281,9.1171875 L65.1738281,10.2480469 L68.3378906,10.2480469 Z" id="AD[SKIPPED]" fill="#9C9CA0"></path>
            <path d="M3.35742188,22.5722656 C5.38476563,22.5722656 6.52734375,21.5527344 6.52734375,20.0644531 C6.52734375,18.7226562 5.671875,18.1015625 4.37695313,17.8085938 L3.13476563,17.5214844 C2.43164063,17.3691406 2.0390625,17.0527344 2.0390625,16.5722656 C2.0390625,15.9511719 2.56054688,15.5 3.43359375,15.5 C4.28320313,15.5 4.8046875,15.9394531 4.90429688,16.5136719 L6.40429688,16.5136719 C6.328125,15.2832031 5.2734375,14.2578125 3.4453125,14.2578125 C1.68164063,14.2578125 0.45703125,15.2128906 0.45703125,16.6777344 C0.45703125,17.890625 1.2421875,18.6054688 2.484375,18.8867188 L3.72070313,19.1738281 C4.55273438,19.3671875 4.95117188,19.6542969 4.95117188,20.2109375 C4.95117188,20.8671875 4.4296875,21.3183594 3.4453125,21.3183594 C2.50195313,21.3183594 1.90429688,20.8613281 1.79882813,20.2402344 L0.26953125,20.2402344 C0.33984375,21.5058594 1.32421875,22.5722656 3.35742188,22.5722656 Z M9.05806108,24.4824219 L9.05806108,21.4707031 L9.13423295,21.4707031 C9.40962358,22.1269531 10.0482955,22.5019531 10.8979048,22.5019531 C12.3568892,22.5019531 13.2357955,21.4589844 13.2357955,19.7304688 L13.2357955,18.8867188 C13.2357955,17.1582031 12.3627486,16.1210938 10.9213423,16.1210938 C10.0482955,16.1210938 9.36274858,16.5195312 9.11079545,17.1875 L9.0287642,17.1875 L9.0287642,16.1972656 L7.51118608,16.1972656 L7.51118608,24.4824219 L9.05806108,24.4824219 Z M10.3764205,21.2714844 C9.58540483,21.2714844 9.05806108,20.6679688 9.05806108,19.7539062 L9.05806108,18.9453125 C9.05806108,17.9550781 9.55610795,17.3515625 10.3588423,17.3515625 C11.1908736,17.3515625 11.6596236,17.9667969 11.6596236,19.0449219 L11.6596236,19.5839844 C11.6596236,20.65625 11.1908736,21.2714844 10.3764205,21.2714844 Z M16.8270597,22.53125 C18.5262784,22.53125 19.6629972,21.4882812 19.6629972,19.6425781 L19.6629972,18.9453125 C19.6629972,17.1875 18.5262784,16.0917969 16.8270597,16.0917969 C15.1161222,16.0917969 13.973544,17.2285156 13.973544,18.9570312 L13.973544,19.6425781 C13.973544,21.5 15.1044034,22.53125 16.8270597,22.53125 Z M16.8270597,21.3300781 C15.9364347,21.3300781 15.5321378,20.5625 15.5321378,19.6308594 L15.5321378,18.9863281 C15.5321378,18.0488281 15.9657315,17.2871094 16.8270597,17.2871094 C17.6825284,17.2871094 18.1044034,18.0429688 18.1044034,18.9863281 L18.1044034,19.6308594 C18.1044034,20.5683594 17.7118253,21.3300781 16.8270597,21.3300781 Z M22.2112926,22.4199219 L22.2112926,18.9746094 C22.2112926,18.0371094 22.685902,17.3984375 23.5179332,17.3984375 C24.1507457,17.3984375 24.6370739,17.7675781 24.6370739,18.6875 L24.6370739,22.4199219 L26.1780895,22.4199219 L26.1780895,18.2539062 C26.1780895,16.8125 25.3519176,16.1035156 24.1038707,16.1035156 C22.8792614,16.1035156 22.404652,16.8125 22.2523082,17.2988281 L22.1761364,17.2988281 L22.1761364,16.203125 L20.670277,16.203125 L20.670277,22.4199219 L22.2112926,22.4199219 Z M29.5994318,22.53125 C31.2634943,22.53125 32.2595881,21.7695312 32.2595881,20.5039062 C32.2595881,19.3613281 31.4275568,18.9453125 30.2791193,18.7519531 C29.6052912,18.6347656 28.6736506,18.5527344 28.6736506,17.9082031 C28.6736506,17.4453125 29.0545099,17.1582031 29.6697443,17.1582031 C30.3377131,17.1582031 30.6716974,17.5390625 30.7068537,17.9082031 L32.0720881,17.9082031 C32.0720881,16.7539062 31.0935724,16.0917969 29.6990412,16.0917969 C28.3806818,16.0917969 27.2029474,16.6484375 27.2029474,18.0371094 C27.2029474,19.25 28.1052912,19.625 29.2244318,19.8476562 C30.0330256,20.0058594 30.7654474,20.0878906 30.7654474,20.6855469 C30.7654474,21.1132812 30.4431818,21.4648438 29.6697443,21.4648438 C28.9783381,21.4648438 28.6326349,21.1542969 28.5740412,20.703125 L27.0799006,20.703125 C27.0799006,21.8164062 28.0232599,22.53125 29.5994318,22.53125 Z M35.7922585,22.53125 C37.4914773,22.53125 38.628196,21.4882812 38.628196,19.6425781 L38.628196,18.9453125 C38.628196,17.1875 37.4914773,16.0917969 35.7922585,16.0917969 C34.081321,16.0917969 32.9387429,17.2285156 32.9387429,18.9570312 L32.9387429,19.6425781 C32.9387429,21.5 34.0696023,22.53125 35.7922585,22.53125 Z M35.7922585,21.3300781 C34.9016335,21.3300781 34.4973366,20.5625 34.4973366,19.6308594 L34.4973366,18.9863281 C34.4973366,18.0488281 34.9309304,17.2871094 35.7922585,17.2871094 C36.6477273,17.2871094 37.0696023,18.0429688 37.0696023,18.9863281 L37.0696023,19.6308594 C37.0696023,20.5683594 36.6770241,21.3300781 35.7922585,21.3300781 Z M41.2702415,22.4199219 L41.2702415,18.8632812 C41.2702415,18.0253906 41.7507102,17.4335938 42.7585227,17.4335938 C42.9987571,17.4335938 43.2507102,17.4511719 43.3678977,17.4863281 L43.3678977,16.1503906 C43.2507102,16.1269531 43.0925071,16.109375 42.8815696,16.109375 C41.8971946,16.109375 41.4401634,16.7539062 41.3112571,17.1757812 L41.2350852,17.1757812 L41.2350852,16.203125 L39.6940696,16.203125 L39.6940696,22.4199219 L41.2702415,22.4199219 Z M45.0431463,18.6699219 C45.6232244,18.6699219 46.0802557,18.2832031 46.0802557,17.6855469 C46.0802557,17.0878906 45.6290838,16.6835938 45.0431463,16.6835938 C44.4747869,16.6835938 44.0236151,17.0761719 44.0236151,17.6855469 C44.0236151,18.2832031 44.4806463,18.6699219 45.0431463,18.6699219 Z M45.0431463,22.5371094 C45.6232244,22.5371094 46.0802557,22.1445312 46.0802557,21.5527344 C46.0802557,20.9492188 45.6290838,20.5449219 45.0431463,20.5449219 C44.4747869,20.5449219 44.0236151,20.9375 44.0236151,21.5527344 C44.0236151,22.1445312 44.4806463,22.5371094 45.0431463,22.5371094 Z M51.0772372,22.4199219 L51.0772372,19.4375 L52.495206,19.4375 L53.8955966,22.4199219 L55.6651278,22.4199219 L54.0596591,19.1972656 C54.7862216,18.9160156 55.5127841,18.125 55.5127841,16.953125 C55.5127841,15.4238281 54.4815341,14.421875 52.7061435,14.421875 L49.5127841,14.421875 L49.5127841,22.4199219 L51.0772372,22.4199219 Z M52.4541903,18.2480469 L51.0772372,18.2480469 L51.0772372,15.6640625 L52.4776278,15.6640625 C53.3155185,15.6640625 53.8780185,16.1269531 53.8780185,16.9824219 C53.8780185,17.8261719 53.3330966,18.2480469 52.4541903,18.2480469 Z M57.4517045,15.21875 C58.0317827,15.21875 58.4243608,14.8730469 58.4243608,14.3691406 C58.4243608,13.859375 58.0317827,13.5078125 57.4517045,13.5078125 C56.8833452,13.5078125 56.4849077,13.8535156 56.4849077,14.3691406 C56.4849077,14.8730469 56.8833452,15.21875 57.4517045,15.21875 Z M58.225142,22.4199219 L58.225142,16.203125 L56.6841264,16.203125 L56.6841264,22.4199219 L58.225142,22.4199219 Z M63.046875,22.5019531 C64.5058594,22.5019531 65.3847656,21.4589844 65.3847656,19.7304688 L65.3847656,18.8867188 C65.3847656,17.1582031 64.5117188,16.1210938 63.0703125,16.1210938 C62.1796875,16.1210938 61.4765625,16.5371094 61.2714844,17.1875 L61.1953125,17.1875 L61.1953125,14 L59.6484375,14 L59.6484375,22.4199219 L61.171875,22.4199219 L61.171875,21.4707031 L61.2480469,21.4707031 C61.5,22.109375 62.1796875,22.5019531 63.046875,22.5019531 Z M62.53125,21.2714844 C61.7402344,21.2714844 61.1953125,20.6503906 61.1953125,19.7363281 L61.1953125,18.9628906 C61.1953125,17.9726562 61.6992188,17.3515625 62.5136719,17.3515625 C63.3339844,17.3515625 63.8027344,17.9726562 63.8027344,19.0507812 L63.8027344,19.5898438 C63.8027344,20.65625 63.3398438,21.2714844 62.53125,21.2714844 Z M68.9057173,22.4199219 L68.9057173,15.7460938 L71.1791548,15.7460938 L71.1791548,14.421875 L65.0502486,14.421875 L65.0502486,15.7460938 L67.3178267,15.7460938 L67.3178267,22.4199219 L68.9057173,22.4199219 Z M72.520419,15.21875 C73.1004972,15.21875 73.4930753,14.8730469 73.4930753,14.3691406 C73.4930753,13.859375 73.1004972,13.5078125 72.520419,13.5078125 C71.9520597,13.5078125 71.5536222,13.8535156 71.5536222,14.3691406 C71.5536222,14.8730469 71.9520597,15.21875 72.520419,15.21875 Z M73.2938565,22.4199219 L73.2938565,16.203125 L71.7528409,16.203125 L71.7528409,22.4199219 L73.2938565,22.4199219 Z M76.2523082,24.4824219 L76.2523082,21.4707031 L76.3284801,21.4707031 C76.6038707,22.1269531 77.2425426,22.5019531 78.092152,22.5019531 C79.5511364,22.5019531 80.4300426,21.4589844 80.4300426,19.7304688 L80.4300426,18.8867188 C80.4300426,17.1582031 79.5569957,16.1210938 78.1155895,16.1210938 C77.2425426,16.1210938 76.5569957,16.5195312 76.3050426,17.1875 L76.2230114,17.1875 L76.2230114,16.1972656 L74.7054332,16.1972656 L74.7054332,24.4824219 L76.2523082,24.4824219 Z M77.5706676,21.2714844 C76.779652,21.2714844 76.2523082,20.6679688 76.2523082,19.7539062 L76.2523082,18.9453125 C76.2523082,17.9550781 76.7503551,17.3515625 77.5530895,17.3515625 C78.3851207,17.3515625 78.8538707,17.9667969 78.8538707,19.0449219 L78.8538707,19.5839844 C78.8538707,20.65625 78.3851207,21.2714844 77.5706676,21.2714844 Z M83.6111506,22.53125 C85.2752131,22.53125 86.2713068,21.7695312 86.2713068,20.5039062 C86.2713068,19.3613281 85.4392756,18.9453125 84.2908381,18.7519531 C83.6170099,18.6347656 82.6853693,18.5527344 82.6853693,17.9082031 C82.6853693,17.4453125 83.0662287,17.1582031 83.6814631,17.1582031 C84.3494318,17.1582031 84.6834162,17.5390625 84.7185724,17.9082031 L86.0838068,17.9082031 C86.0838068,16.7539062 85.1052912,16.0917969 83.7107599,16.0917969 C82.3924006,16.0917969 81.2146662,16.6484375 81.2146662,18.0371094 C81.2146662,19.25 82.1170099,19.625 83.2361506,19.8476562 C84.0447443,20.0058594 84.7771662,20.0878906 84.7771662,20.6855469 C84.7771662,21.1132812 84.4549006,21.4648438 83.6814631,21.4648438 C82.9900568,21.4648438 82.6443537,21.1542969 82.5857599,20.703125 L81.0916193,20.703125 C81.0916193,21.8164062 82.0349787,22.53125 83.6111506,22.53125 Z M92.5397727,22.4199219 L92.5397727,15.7460938 L94.8132102,15.7460938 L94.8132102,14.421875 L88.684304,14.421875 L88.684304,15.7460938 L90.9518821,15.7460938 L90.9518821,22.4199219 L92.5397727,22.4199219 Z M101.867365,22.5371094 C102.453303,22.5371094 102.904474,22.1445312 102.904474,21.5527344 C102.904474,20.9492188 102.453303,20.5449219 101.867365,20.5449219 C101.304865,20.5449219 100.847834,20.9375 100.847834,21.5527344 C100.847834,22.1445312 101.304865,22.5371094 101.867365,22.5371094 Z M98.6271307,22.5371094 C99.2072088,22.5371094 99.6583807,22.1445312 99.6583807,21.5527344 C99.6583807,20.9492188 99.2072088,20.5449219 98.6271307,20.5449219 C98.0587713,20.5449219 97.6075994,20.9375 97.6075994,21.5527344 C97.6075994,22.1445312 98.0587713,22.5371094 98.6271307,22.5371094 Z M95.3810369,22.5371094 C95.9611151,22.5371094 96.4181463,22.1445312 96.4181463,21.5527344 C96.4181463,20.9492188 95.9669744,20.5449219 95.3810369,20.5449219 C94.8126776,20.5449219 94.3615057,20.9375 94.3615057,21.5527344 C94.3615057,22.1445312 94.8185369,22.5371094 95.3810369,22.5371094 Z" id="Sponsor:RibTipsT…" fill="#000000"></path>
        </g>
        <rect id="Rectangle" fill="#D1D1D3" x="145" y="8" width="2" height="36" rx="1"></rect>
        <circle id="Oval" stroke="#FFFFFF" stroke-width="2" fill="#000000" cx="146" cy="7" r="3"></circle>
        <g id="-11:10-copy-5" transform="translate(271.228516, 2.849609)" fill-rule="nonzero">
            <path d="M3.80859375,8.30273438 C5.56054687,8.30273438 6.85546875,7.24804688 6.93164062,5.71875 L6.93164062,5.56640625 L5.40234375,5.56640625 C5.33789062,6.38671875 4.74023437,6.96679688 3.8203125,6.96679688 C2.70117187,6.96679688 2.0625,6.140625 2.0625,4.6640625 L2.0625,3.67382812 C2.0625,2.19140625 2.71289062,1.3359375 3.8203125,1.3359375 C4.72851562,1.3359375 5.33789062,1.96289062 5.40234375,2.8125 L6.93164062,2.8125 L6.93164062,2.66601562 C6.86132812,1.08398438 5.56640625,0 3.80859375,0 C1.66992187,0 0.451171875,1.40039062 0.451171875,3.66796875 L0.451171875,4.6640625 C0.451171875,6.93164062 1.65820312,8.30273438 3.80859375,8.30273438 Z M9.6147017,8.15039062 L9.6147017,4.72265625 L12.977983,4.72265625 L12.977983,8.15039062 L14.5600142,8.15039062 L14.5600142,0.15234375 L12.977983,0.15234375 L12.977983,3.40429688 L9.6147017,3.40429688 L9.6147017,0.15234375 L8.03267045,0.15234375 L8.03267045,8.15039062 L9.6147017,8.15039062 Z M16.8563565,8.15039062 L17.4833097,6.09375 L20.1551847,6.09375 L20.7821378,8.15039062 L22.4637784,8.15039062 L19.7919034,0.15234375 L17.9403409,0.15234375 L15.2567472,8.15039062 L16.8563565,8.15039062 Z M19.8387784,4.91601562 L17.8114347,4.91601562 L18.7899503,1.68164062 L18.8602628,1.68164062 L19.8387784,4.91601562 Z M24.7425426,8.15039062 L24.7425426,5.46679688 L26.3480114,5.46679688 C28.076527,5.46679688 29.060902,4.32421875 29.060902,2.81835938 C29.060902,1.32421875 28.0882457,0.15234375 26.3597301,0.15234375 L23.1605114,0.15234375 L23.1605114,8.15039062 L24.7425426,8.15039062 Z M26.0550426,4.22460938 L24.7366832,4.22460938 L24.7366832,1.41210938 L26.0550426,1.41210938 C26.9280895,1.41210938 27.4495739,1.921875 27.4495739,2.81835938 C27.4495739,3.70898438 26.9280895,4.22460938 26.0550426,4.22460938 Z M33.0388849,8.15039062 L33.0388849,1.4765625 L35.3123224,1.4765625 L35.3123224,0.15234375 L29.1834162,0.15234375 L29.1834162,1.4765625 L31.4509943,1.4765625 L31.4509943,8.15039062 L33.0388849,8.15039062 Z M41.159446,8.15039062 L41.159446,6.85546875 L37.5793679,6.85546875 L37.5793679,4.7109375 L40.9485085,4.7109375 L40.9485085,3.49804688 L37.5793679,3.49804688 L37.5793679,1.44726562 L41.159446,1.44726562 L41.159446,0.15234375 L36.0090554,0.15234375 L36.0090554,8.15039062 L41.159446,8.15039062 Z M43.9362571,8.15039062 L43.9362571,5.16796875 L45.3542259,5.16796875 L46.7546165,8.15039062 L48.5241477,8.15039062 L46.918679,4.92773438 C47.6452415,4.64648438 48.371804,3.85546875 48.371804,2.68359375 C48.371804,1.15429688 47.340554,0.15234375 45.5651634,0.15234375 L42.371804,0.15234375 L42.371804,8.15039062 L43.9362571,8.15039062 Z M45.3132102,3.97851562 L43.9362571,3.97851562 L43.9362571,1.39453125 L45.3366477,1.39453125 C46.1745384,1.39453125 46.7370384,1.85742188 46.7370384,2.71289062 C46.7370384,3.55664062 46.1921165,3.97851562 45.3132102,3.97851562 Z" id="CHAPTER" fill="#9C9CA0"></path>
            <path d="M1.921875,22.1503906 L2.36132813,19.9941406 L3.87890625,19.9941406 L3.45117188,22.1503906 L4.62304688,22.1503906 L5.05078125,19.9941406 L6.29296875,19.9941406 L6.50976563,18.875 L5.25,18.875 L5.56054688,17.3398438 L6.84375,17.3398438 L7.0546875,16.2265625 L5.8125,16.2265625 L6.22265625,14.1523438 L5.05078125,14.1523438 L4.640625,16.2265625 L3.11132813,16.2265625 L3.53320313,14.1523438 L2.35546875,14.1523438 L1.9453125,16.2265625 L0.755859375,16.2265625 L0.544921875,17.3398438 L1.74609375,17.3398438 L1.43554688,18.875 L0.216796875,18.875 L7.95807864e-13,19.9941406 L1.18359375,19.9941406 L0.755859375,22.1503906 L1.921875,22.1503906 Z M4.16015625,18.9863281 L2.484375,18.9863281 L2.84179688,17.234375 L4.51171875,17.234375 L4.16015625,18.9863281 Z M9.3803267,22.2441406 C10.3002486,22.2441406 10.821733,21.8164062 11.0678267,21.359375 L11.1381392,21.359375 L11.1381392,22.1503906 L12.5971236,22.1503906 L12.5971236,17.9726562 C12.5971236,16.3964844 11.4604048,15.8339844 10.0658736,15.8339844 C8.36079545,15.8339844 7.63423295,16.6542969 7.56392045,17.6738281 L9.02290483,17.6738281 C9.0990767,17.2871094 9.39790483,17.0117188 10.0307173,17.0117188 C10.6635298,17.0117188 11.0678267,17.3105469 11.0678267,17.9375 L11.0678267,18.4941406 L9.55024858,18.4941406 C8.10884233,18.4941406 7.33540483,19.2324219 7.33540483,20.3457031 C7.33540483,21.5175781 8.16743608,22.2441406 9.3803267,22.2441406 Z M9.88423295,21.1074219 C9.3568892,21.1074219 8.87056108,20.8261719 8.87056108,20.2460938 C8.87056108,19.7714844 9.1928267,19.4257812 9.87837358,19.4257812 L11.0678267,19.4257812 L11.0678267,20.0703125 C11.0678267,20.6738281 10.5346236,21.1074219 9.88423295,21.1074219 Z M16.0008878,22.2617188 C17.6649503,22.2617188 18.661044,21.5 18.661044,20.234375 C18.661044,19.0917969 17.8290128,18.6757812 16.6805753,18.4824219 C16.0067472,18.3652344 15.0751065,18.2832031 15.0751065,17.6386719 C15.0751065,17.1757812 15.4559659,16.8886719 16.0712003,16.8886719 C16.739169,16.8886719 17.0731534,17.2695312 17.1083097,17.6386719 L18.473544,17.6386719 C18.473544,16.484375 17.4950284,15.8222656 16.1004972,15.8222656 C14.7821378,15.8222656 13.6044034,16.3789062 13.6044034,17.7675781 C13.6044034,18.9804688 14.5067472,19.3554688 15.6258878,19.578125 C16.4344815,19.7363281 17.1669034,19.8183594 17.1669034,20.4160156 C17.1669034,20.84375 16.8446378,21.1953125 16.0712003,21.1953125 C15.379794,21.1953125 15.0340909,20.8847656 14.9754972,20.4335938 L13.4813565,20.4335938 C13.4813565,21.546875 14.4247159,22.2617188 16.0008878,22.2617188 Z M21.1800426,22.1503906 L21.1800426,19.9882812 L21.6253551,19.4960938 L23.4183239,22.1503906 L25.217152,22.1503906 L22.7972301,18.6171875 L25.0648082,15.9335938 L23.3245739,15.9335938 L21.2503551,18.5292969 L21.1800426,18.5292969 L21.1800426,13.7304688 L19.6331676,13.7304688 L19.6331676,22.1503906 L21.1800426,22.1503906 Z M27.3728693,22.2441406 C28.2927912,22.2441406 28.8142756,21.8164062 29.0603693,21.359375 L29.1306818,21.359375 L29.1306818,22.1503906 L30.5896662,22.1503906 L30.5896662,17.9726562 C30.5896662,16.3964844 29.4529474,15.8339844 28.0584162,15.8339844 C26.3533381,15.8339844 25.6267756,16.6542969 25.5564631,17.6738281 L27.0154474,17.6738281 C27.0916193,17.2871094 27.3904474,17.0117188 28.0232599,17.0117188 C28.6560724,17.0117188 29.0603693,17.3105469 29.0603693,17.9375 L29.0603693,18.4941406 L27.5427912,18.4941406 C26.1013849,18.4941406 25.3279474,19.2324219 25.3279474,20.3457031 C25.3279474,21.5175781 26.1599787,22.2441406 27.3728693,22.2441406 Z M27.8767756,21.1074219 C27.3494318,21.1074219 26.8631037,20.8261719 26.8631037,20.2460938 C26.8631037,19.7714844 27.1853693,19.4257812 27.8709162,19.4257812 L29.0603693,19.4257812 L29.0603693,20.0703125 C29.0603693,20.6738281 28.5271662,21.1074219 27.8767756,21.1074219 Z M34.2805398,22.1855469 C34.6321023,22.1855469 35.065696,22.1445312 35.1887429,22.1210938 L35.1887429,20.9785156 C35.0774148,20.9902344 34.8488991,21.0019531 34.6555398,21.0019531 C34.0110085,21.0019531 33.753196,20.8144531 33.753196,20.1933594 L33.753196,17.1757812 L35.1301491,17.1757812 L35.1301491,15.9921875 L33.753196,15.9921875 L33.753196,14.4453125 L32.253196,14.4453125 L32.253196,15.9921875 L31.2746804,15.9921875 L31.2746804,17.1757812 L32.2180398,17.1757812 L32.2180398,20.3925781 C32.2180398,21.6640625 32.7336648,22.1855469 34.2805398,22.1855469 Z M37.6432884,24.2128906 L37.6432884,21.2011719 L37.7194602,21.2011719 C37.9948509,21.8574219 38.6335227,22.2324219 39.4831321,22.2324219 C40.9421165,22.2324219 41.8210227,21.1894531 41.8210227,19.4609375 L41.8210227,18.6171875 C41.8210227,16.8886719 40.9479759,15.8515625 39.5065696,15.8515625 C38.6335227,15.8515625 37.9479759,16.25 37.6960227,16.9179688 L37.6139915,16.9179688 L37.6139915,15.9277344 L36.0964134,15.9277344 L36.0964134,24.2128906 L37.6432884,24.2128906 Z M38.9616477,21.0019531 C38.1706321,21.0019531 37.6432884,20.3984375 37.6432884,19.484375 L37.6432884,18.6757812 C37.6432884,17.6855469 38.1413352,17.0820312 38.9440696,17.0820312 C39.7761009,17.0820312 40.2448509,17.6972656 40.2448509,18.7753906 L40.2448509,19.3144531 C40.2448509,20.3867188 39.7761009,21.0019531 38.9616477,21.0019531 Z M43.8068182,18.4003906 C44.3868963,18.4003906 44.8439276,18.0136719 44.8439276,17.4160156 C44.8439276,16.8183594 44.3927557,16.4140625 43.8068182,16.4140625 C43.2384588,16.4140625 42.7872869,16.8066406 42.7872869,17.4160156 C42.7872869,18.0136719 43.2443182,18.4003906 43.8068182,18.4003906 Z M43.8068182,22.2675781 C44.3868963,22.2675781 44.8439276,21.875 44.8439276,21.2832031 C44.8439276,20.6796875 44.3927557,20.2753906 43.8068182,20.2753906 C43.2384588,20.2753906 42.7872869,20.6679688 42.7872869,21.2832031 C42.7872869,21.875 43.2443182,22.2675781 43.8068182,22.2675781 Z M49.7061435,22.1503906 L49.7061435,16.8300781 L49.7823153,16.8300781 L51.6866122,21.1484375 L52.7178622,21.1484375 L54.6104403,16.8300781 L54.6866122,16.8300781 L54.6866122,22.1503906 L56.1162997,22.1503906 L56.1162997,14.1523438 L54.5166903,14.1523438 L52.2373935,19.34375 L52.1846591,19.34375 L49.9053622,14.1523438 L48.2940341,14.1523438 L48.2940341,22.1503906 L49.7061435,22.1503906 Z M59.2329545,22.2441406 C60.1528764,22.2441406 60.6743608,21.8164062 60.9204545,21.359375 L60.990767,21.359375 L60.990767,22.1503906 L62.4497514,22.1503906 L62.4497514,17.9726562 C62.4497514,16.3964844 61.3130327,15.8339844 59.9185014,15.8339844 C58.2134233,15.8339844 57.4868608,16.6542969 57.4165483,17.6738281 L58.8755327,17.6738281 C58.9517045,17.2871094 59.2505327,17.0117188 59.8833452,17.0117188 C60.5161577,17.0117188 60.9204545,17.3105469 60.9204545,17.9375 L60.9204545,18.4941406 L59.4028764,18.4941406 C57.9614702,18.4941406 57.1880327,19.2324219 57.1880327,20.3457031 C57.1880327,21.5175781 58.0200639,22.2441406 59.2329545,22.2441406 Z M59.7368608,21.1074219 C59.209517,21.1074219 58.7231889,20.8261719 58.7231889,20.2460938 C58.7231889,19.7714844 59.0454545,19.4257812 59.7310014,19.4257812 L60.9204545,19.4257812 L60.9204545,20.0703125 C60.9204545,20.6738281 60.3872514,21.1074219 59.7368608,21.1074219 Z M66.1757813,22.2617188 C67.875,22.2617188 68.7421875,21.3300781 68.765625,20.1464844 L67.3417969,20.1464844 C67.2714844,20.65625 66.9667969,21.0253906 66.2226563,21.0253906 C65.4316406,21.0253906 64.9628906,20.4101562 64.9628906,19.4023438 L64.9628906,18.6523438 C64.9628906,17.6796875 65.4082031,17.0585938 66.2167969,17.0585938 C66.9785156,17.0585938 67.2714844,17.5683594 67.3183594,17.9902344 L68.7421875,17.9902344 C68.71875,16.8066406 67.7988281,15.8222656 66.1757813,15.8222656 C64.4824219,15.8222656 63.4101563,16.9238281 63.4101563,18.6289062 L63.4101563,19.4082031 C63.4101563,21.171875 64.453125,22.2617188 66.1757813,22.2617188 Z M73.364169,24.2128906 L73.364169,21.2011719 L73.4403409,21.2011719 C73.7157315,21.8574219 74.3544034,22.2324219 75.2040128,22.2324219 C76.6629972,22.2324219 77.5419034,21.1894531 77.5419034,19.4609375 L77.5419034,18.6171875 C77.5419034,16.8886719 76.6688565,15.8515625 75.2274503,15.8515625 C74.3544034,15.8515625 73.6688565,16.25 73.4169034,16.9179688 L73.3348722,16.9179688 L73.3348722,15.9277344 L71.817294,15.9277344 L71.817294,24.2128906 L73.364169,24.2128906 Z M74.6825284,21.0019531 C73.8915128,21.0019531 73.364169,20.3984375 73.364169,19.484375 L73.364169,18.6757812 C73.364169,17.6855469 73.8622159,17.0820312 74.6649503,17.0820312 C75.4969815,17.0820312 75.9657315,17.6972656 75.9657315,18.7753906 L75.9657315,19.3144531 C75.9657315,20.3867188 75.4969815,21.0019531 74.6825284,21.0019531 Z M80.201527,22.1503906 L80.201527,18.59375 C80.201527,17.7558594 80.6819957,17.1640625 81.6898082,17.1640625 C81.9300426,17.1640625 82.1819957,17.1816406 82.2991832,17.2167969 L82.2991832,15.8808594 C82.1819957,15.8574219 82.0237926,15.8398438 81.8128551,15.8398438 C80.8284801,15.8398438 80.3714489,16.484375 80.2425426,16.90625 L80.1663707,16.90625 L80.1663707,15.9335938 L78.6253551,15.9335938 L78.6253551,22.1503906 L80.201527,22.1503906 Z M85.5037287,22.2617188 C87.2029474,22.2617188 88.3396662,21.21875 88.3396662,19.3730469 L88.3396662,18.6757812 C88.3396662,16.9179688 87.2029474,15.8222656 85.5037287,15.8222656 C83.7927912,15.8222656 82.6502131,16.9589844 82.6502131,18.6875 L82.6502131,19.3730469 C82.6502131,21.2304688 83.7810724,22.2617188 85.5037287,22.2617188 Z M85.5037287,21.0605469 C84.6131037,21.0605469 84.2088068,20.2929688 84.2088068,19.3613281 L84.2088068,18.7167969 C84.2088068,17.7792969 84.6424006,17.0175781 85.5037287,17.0175781 C86.3591974,17.0175781 86.7810724,17.7734375 86.7810724,18.7167969 L86.7810724,19.3613281 C86.7810724,20.2988281 86.3884943,21.0605469 85.5037287,21.0605469 Z M93.1901634,22.2441406 C94.1100852,22.2441406 94.6315696,21.8164062 94.8776634,21.359375 L94.9479759,21.359375 L94.9479759,22.1503906 L96.4069602,22.1503906 L96.4069602,17.9726562 C96.4069602,16.3964844 95.2702415,15.8339844 93.8757102,15.8339844 C92.1706321,15.8339844 91.4440696,16.6542969 91.3737571,17.6738281 L92.8327415,17.6738281 C92.9089134,17.2871094 93.2077415,17.0117188 93.840554,17.0117188 C94.4733665,17.0117188 94.8776634,17.3105469 94.8776634,17.9375 L94.8776634,18.4941406 L93.3600852,18.4941406 C91.918679,18.4941406 91.1452415,19.2324219 91.1452415,20.3457031 C91.1452415,21.5175781 91.9772727,22.2441406 93.1901634,22.2441406 Z M93.6940696,21.1074219 C93.1667259,21.1074219 92.6803977,20.8261719 92.6803977,20.2460938 C92.6803977,19.7714844 93.0026634,19.4257812 93.6882102,19.4257812 L94.8776634,19.4257812 L94.8776634,20.0703125 C94.8776634,20.6738281 94.3444602,21.1074219 93.6940696,21.1074219 Z M99.2013494,24.2128906 L99.2013494,21.2011719 L99.2775213,21.2011719 C99.5529119,21.8574219 100.191584,22.2324219 101.041193,22.2324219 C102.500178,22.2324219 103.379084,21.1894531 103.379084,19.4609375 L103.379084,18.6171875 C103.379084,16.8886719 102.506037,15.8515625 101.064631,15.8515625 C100.191584,15.8515625 99.5060369,16.25 99.2540838,16.9179688 L99.1720526,16.9179688 L99.1720526,15.9277344 L97.6544744,15.9277344 L97.6544744,24.2128906 L99.2013494,24.2128906 Z M100.519709,21.0019531 C99.7286932,21.0019531 99.2013494,20.3984375 99.2013494,19.484375 L99.2013494,18.6757812 C99.2013494,17.6855469 99.6993963,17.0820312 100.502131,17.0820312 C101.334162,17.0820312 101.802912,17.6972656 101.802912,18.7753906 L101.802912,19.3144531 C101.802912,20.3867188 101.334162,21.0019531 100.519709,21.0019531 Z M105.950817,24.2128906 L105.950817,21.2011719 L106.026989,21.2011719 C106.302379,21.8574219 106.941051,22.2324219 107.790661,22.2324219 C109.249645,22.2324219 110.128551,21.1894531 110.128551,19.4609375 L110.128551,18.6171875 C110.128551,16.8886719 109.255504,15.8515625 107.814098,15.8515625 C106.941051,15.8515625 106.255504,16.25 106.003551,16.9179688 L105.92152,16.9179688 L105.92152,15.9277344 L104.403942,15.9277344 L104.403942,24.2128906 L105.950817,24.2128906 Z M107.269176,21.0019531 C106.478161,21.0019531 105.950817,20.3984375 105.950817,19.484375 L105.950817,18.6757812 C105.950817,17.6855469 106.448864,17.0820312 107.251598,17.0820312 C108.083629,17.0820312 108.552379,17.6972656 108.552379,18.7753906 L108.552379,19.3144531 C108.552379,20.3867188 108.083629,21.0019531 107.269176,21.0019531 Z M113.309659,22.2617188 C114.973722,22.2617188 115.969815,21.5 115.969815,20.234375 C115.969815,19.0917969 115.137784,18.6757812 113.989347,18.4824219 C113.315518,18.3652344 112.383878,18.2832031 112.383878,17.6386719 C112.383878,17.1757812 112.764737,16.8886719 113.379972,16.8886719 C114.04794,16.8886719 114.381925,17.2695312 114.417081,17.6386719 L115.782315,17.6386719 C115.782315,16.484375 114.8038,15.8222656 113.409268,15.8222656 C112.090909,15.8222656 110.913175,16.3789062 110.913175,17.7675781 C110.913175,18.9804688 111.815518,19.3554688 112.934659,19.578125 C113.743253,19.7363281 114.475675,19.8183594 114.475675,20.4160156 C114.475675,20.84375 114.153409,21.1953125 113.379972,21.1953125 C112.688565,21.1953125 112.342862,20.8847656 112.284268,20.4335938 L110.790128,20.4335938 C110.790128,21.546875 111.733487,22.2617188 113.309659,22.2617188 Z M121.623047,22.2617188 C123.322266,22.2617188 124.458984,21.21875 124.458984,19.3730469 L124.458984,18.6757812 C124.458984,16.9179688 123.322266,15.8222656 121.623047,15.8222656 C119.912109,15.8222656 118.769531,16.9589844 118.769531,18.6875 L118.769531,19.3730469 C118.769531,21.2304688 119.900391,22.2617188 121.623047,22.2617188 Z M121.623047,21.0605469 C120.732422,21.0605469 120.328125,20.2929688 120.328125,19.3613281 L120.328125,18.7167969 C120.328125,17.7792969 120.761719,17.0175781 121.623047,17.0175781 C122.478516,17.0175781 122.900391,17.7734375 122.900391,18.7167969 L122.900391,19.3613281 C122.900391,20.2988281 122.507813,21.0605469 121.623047,21.0605469 Z M127.00728,22.1503906 L127.00728,18.7050781 C127.00728,17.7675781 127.481889,17.1289062 128.31392,17.1289062 C128.946733,17.1289062 129.433061,17.4980469 129.433061,18.4179688 L129.433061,22.1503906 L130.974077,22.1503906 L130.974077,17.984375 C130.974077,16.5429688 130.147905,15.8339844 128.899858,15.8339844 C127.675249,15.8339844 127.200639,16.5429688 127.048295,17.0292969 L126.972124,17.0292969 L126.972124,15.9335938 L125.466264,15.9335938 L125.466264,22.1503906 L127.00728,22.1503906 Z M135.238636,14.9492188 C135.818714,14.9492188 136.211293,14.6035156 136.211293,14.0996094 C136.211293,13.5898438 135.818714,13.2382812 135.238636,13.2382812 C134.670277,13.2382812 134.271839,13.5839844 134.271839,14.0996094 C134.271839,14.6035156 134.670277,14.9492188 135.238636,14.9492188 Z M136.012074,22.1503906 L136.012074,15.9335938 L134.471058,15.9335938 L134.471058,22.1503906 L136.012074,22.1503906 Z M139.087713,22.1503906 L139.087713,19.4667969 L140.693182,19.4667969 C142.421697,19.4667969 143.406072,18.3242188 143.406072,16.8183594 C143.406072,15.3242188 142.433416,14.1523438 140.704901,14.1523438 L137.505682,14.1523438 L137.505682,22.1503906 L139.087713,22.1503906 Z M140.400213,18.2246094 L139.081854,18.2246094 L139.081854,15.4121094 L140.400213,15.4121094 C141.27326,15.4121094 141.794744,15.921875 141.794744,16.8183594 C141.794744,17.7089844 141.27326,18.2246094 140.400213,18.2246094 Z M145.84304,22.2441406 C146.762962,22.2441406 147.284446,21.8164062 147.53054,21.359375 L147.600852,21.359375 L147.600852,22.1503906 L149.059837,22.1503906 L149.059837,17.9726562 C149.059837,16.3964844 147.923118,15.8339844 146.528587,15.8339844 C144.823509,15.8339844 144.096946,16.6542969 144.026634,17.6738281 L145.485618,17.6738281 C145.56179,17.2871094 145.860618,17.0117188 146.49343,17.0117188 C147.126243,17.0117188 147.53054,17.3105469 147.53054,17.9375 L147.53054,18.4941406 L146.012962,18.4941406 C144.571555,18.4941406 143.798118,19.2324219 143.798118,20.3457031 C143.798118,21.5175781 144.630149,22.2441406 145.84304,22.2441406 Z M146.346946,21.1074219 C145.819602,21.1074219 145.333274,20.8261719 145.333274,20.2460938 C145.333274,19.7714844 145.65554,19.4257812 146.341087,19.4257812 L147.53054,19.4257812 L147.53054,20.0703125 C147.53054,20.6738281 146.997337,21.1074219 146.346946,21.1074219 Z M152.352273,22.2265625 C153.254616,22.2265625 153.981179,21.7871094 154.174538,21.1542969 L154.25071,21.1542969 L154.25071,22.1503906 L155.768288,22.1503906 L155.768288,13.7304688 L154.221413,13.7304688 L154.221413,16.8769531 L154.151101,16.8769531 C153.910866,16.2441406 153.242898,15.8515625 152.369851,15.8515625 C150.957741,15.8515625 150.03196,16.8710938 150.03196,18.5761719 L150.03196,19.5019531 C150.03196,21.2070312 150.946023,22.2265625 152.352273,22.2265625 Z M152.908913,21.0019531 C152.112038,21.0019531 151.613991,20.4042969 151.613991,19.3378906 L151.613991,18.734375 C151.613991,17.6738281 152.106179,17.0820312 152.885476,17.0820312 C153.658913,17.0820312 154.221413,17.6679688 154.221413,18.5996094 L154.221413,19.4023438 C154.221413,20.4160156 153.69407,21.0019531 152.908913,21.0019531 Z M159.681818,19.6425781 L159.681818,19.3320312 C159.681818,18.6875 159.939631,18.5 160.625178,18.0019531 C161.187678,17.5976562 161.785334,17.1289062 161.785334,16.1152344 C161.785334,14.6855469 160.578303,13.9882812 159.213068,13.9882812 C157.894709,13.9882812 156.523615,14.6269531 156.576349,16.3671875 L158.000178,16.3671875 C158.000178,15.7167969 158.386896,15.2128906 159.125178,15.2128906 C159.693537,15.2128906 160.220881,15.5058594 160.220881,16.1972656 C160.220881,16.7539062 159.869318,17.0117188 159.318537,17.3984375 C158.662287,17.8496094 158.216974,18.40625 158.275568,19.2851562 L158.281428,19.6425781 L159.681818,19.6425781 Z M159.025568,22.2675781 C159.658381,22.2675781 160.068537,21.8925781 160.068537,21.3652344 C160.068537,20.8203125 159.658381,20.4511719 159.025568,20.4511719 C158.416193,20.4511719 158.006037,20.8203125 158.006037,21.3652344 C158.006037,21.8925781 158.422053,22.2675781 159.025568,22.2675781 Z" id="#askatp:MacproappsoniPad?" fill="#000000"></path>
        </g>
        <rect id="Rectangle" fill="#D1D1D3" x="265" y="8" width="2" height="50" rx="1"></rect>
        <circle id="Oval" stroke="#FFFFFF" stroke-width="2" fill="#000000" cx="266" cy="7" r="3"></circle>
        <path d="M2,56 C3.1045695,56 4,56.8954305 4,58 C4,59.1045695 3.1045695,60 2,60 C0.8954305,60 1.3527075e-16,59.1045695 0,58 C-1.3527075e-16,56.8954305 0.8954305,56 2,56 Z" id="Rectangle-Copy-29" fill="#000000"></path>
        <path d="M8,56 C9.1045695,56 10,56.8954305 10,58 C10,59.1045695 9.1045695,60 8,60 C6.8954305,60 6,59.1045695 6,58 C6,56.8954305 6.8954305,56 8,56 Z" id="Rectangle-Copy-30" fill="#000000"></path>
        <path d="M14,53 C15.1045695,53 16,53.8954305 16,55 L16,61 C16,62.1045695 15.1045695,63 14,63 C12.8954305,63 12,62.1045695 12,61 L12,55 C12,53.8954305 12.8954305,53 14,53 Z" id="Rectangle-Copy-31" fill="#000000"></path>
        <path d="M20,53 C21.1045695,53 22,53.8954305 22,55 L22,61 C22,62.1045695 21.1045695,63 20,63 C18.8954305,63 18,62.1045695 18,61 L18,55 C18,53.8954305 18.8954305,53 20,53 Z" id="Rectangle-Copy-32" fill="#000000"></path>
        <path d="M26,47 C27.1045695,47 28,47.8954305 28,49 L28,67 C28,68.1045695 27.1045695,69 26,69 C24.8954305,69 24,68.1045695 24,67 L24,49 C24,47.8954305 24.8954305,47 26,47 Z" id="Rectangle-Copy-33" fill="#000000"></path>
        <path d="M32,37 C33.1045695,37 34,37.8954305 34,39 L34,77 C34,78.1045695 33.1045695,79 32,79 C30.8954305,79 30,78.1045695 30,77 L30,39 C30,37.8954305 30.8954305,37 32,37 Z" id="Rectangle-Copy-34" fill="#000000"></path>
        <path d="M38,43 C39.1045695,43 40,43.8954305 40,45 L40,71 C40,72.1045695 39.1045695,73 38,73 C36.8954305,73 36,72.1045695 36,71 L36,45 C36,43.8954305 36.8954305,43 38,43 Z" id="Rectangle-Copy-35" fill="#000000"></path>
        <path d="M44,48 C45.1045695,48 46,48.8954305 46,50 L46,66 C46,67.1045695 45.1045695,68 44,68 C42.8954305,68 42,67.1045695 42,66 L42,50 C42,48.8954305 42.8954305,48 44,48 Z" id="Rectangle-Copy-36" fill="#000000"></path>
        <path d="M50,40 C51.1045695,40 52,40.8954305 52,42 L52,74 C52,75.1045695 51.1045695,76 50,76 C48.8954305,76 48,75.1045695 48,74 L48,42 C48,40.8954305 48.8954305,40 50,40 Z" id="Rectangle-Copy-37" fill="#000000"></path>
        <path d="M56,45 C57.1045695,45 58,45.8954305 58,47 L58,69 C58,70.1045695 57.1045695,71 56,71 C54.8954305,71 54,70.1045695 54,69 L54,47 C54,45.8954305 54.8954305,45 56,45 Z" id="Rectangle-Copy-38" fill="#000000"></path>
        <path d="M62,43 C63.1045695,43 64,43.8954305 64,45 L64,71 C64,72.1045695 63.1045695,73 62,73 C60.8954305,73 60,72.1045695 60,71 L60,45 C60,43.8954305 60.8954305,43 62,43 Z" id="Rectangle-Copy-39" fill="#000000"></path>
        <path d="M68,53 C69.1045695,53 70,53.8954305 70,55 L70,61 C70,62.1045695 69.1045695,63 68,63 C66.8954305,63 66,62.1045695 66,61 L66,55 C66,53.8954305 66.8954305,53 68,53 Z" id="Rectangle-Copy-40" fill="#000000"></path>
        <path d="M74,54 C75.1045695,54 76,54.8954305 76,56 L76,60 C76,61.1045695 75.1045695,62 74,62 C72.8954305,62 72,61.1045695 72,60 L72,56 C72,54.8954305 72.8954305,54 74,54 Z" id="Rectangle-Copy-41" fill="#000000"></path>
        <path d="M80,56 C81.1045695,56 82,56.8954305 82,58 C82,59.1045695 81.1045695,60 80,60 C78.8954305,60 78,59.1045695 78,58 C78,56.8954305 78.8954305,56 80,56 Z" id="Rectangle-Copy-42" fill="#000000"></path>
        <path d="M86,56 C87.1045695,56 88,56.8954305 88,58 C88,59.1045695 87.1045695,60 86,60 C84.8954305,60 84,59.1045695 84,58 C84,56.8954305 84.8954305,56 86,56 Z" id="Rectangle-Copy-43" fill="#000000"></path>
        <path d="M92,56 C93.1045695,56 94,56.8954305 94,58 C94,59.1045695 93.1045695,60 92,60 C90.8954305,60 90,59.1045695 90,58 C90,56.8954305 90.8954305,56 92,56 Z" id="Rectangle-Copy-44" fill="#000000"></path>
        <path d="M98,56 C99.1045695,56 100,56.8954305 100,58 C100,59.1045695 99.1045695,60 98,60 C96.8954305,60 96,59.1045695 96,58 C96,56.8954305 96.8954305,56 98,56 Z" id="Rectangle-Copy-45" fill="#000000"></path>
        <path d="M104,54 C105.104569,54 106,54.8954305 106,56 L106,60 C106,61.1045695 105.104569,62 104,62 C102.895431,62 102,61.1045695 102,60 L102,56 C102,54.8954305 102.895431,54 104,54 Z" id="Rectangle-Copy-46" fill="#000000"></path>
        <path d="M110,45 C111.104569,45 112,45.8954305 112,47 L112,69 C112,70.1045695 111.104569,71 110,71 C108.895431,71 108,70.1045695 108,69 L108,47 C108,45.8954305 108.895431,45 110,45 Z" id="Rectangle-Copy-47" fill="#000000"></path>
        <path d="M116,52 C117.104569,52 118,52.8954305 118,54 L118,62 C118,63.1045695 117.104569,64 116,64 C114.895431,64 114,63.1045695 114,62 L114,54 C114,52.8954305 114.895431,52 116,52 Z" id="Rectangle-Copy-48" fill="#000000"></path>
        <path d="M230,52.5 C229.585786,52.5 229.210786,52.6678932 228.93934,52.9393398 C228.667893,53.2107864 228.5,53.5857864 228.5,54 L228.5,62 C228.5,62.4142136 228.667893,62.7892136 228.93934,63.0606602 C229.210786,63.3321068 229.585786,63.5 230,63.5 C230.414214,63.5 230.789214,63.3321068 231.06066,63.0606602 C231.332107,62.7892136 231.5,62.4142136 231.5,62 L231.5,54 C231.5,53.5857864 231.332107,53.2107864 231.06066,52.9393398 C230.789214,52.6678932 230.414214,52.5 230,52.5 Z" id="Rectangle-Copy-58" stroke="#D1D1D3" fill="#FFFFFF"></path>
        <path d="M122,54 C123.104569,54 124,54.8954305 124,56 L124,60 C124,61.1045695 123.104569,62 122,62 C120.895431,62 120,61.1045695 120,60 L120,56 C120,54.8954305 120.895431,54 122,54 Z" id="Rectangle-Copy-49" fill="#000000"></path>
        <path d="M236,54.5 C235.585786,54.5 235.210786,54.6678932 234.93934,54.9393398 C234.667893,55.2107864 234.5,55.5857864 234.5,56 L234.5,60 C234.5,60.4142136 234.667893,60.7892136 234.93934,61.0606602 C235.210786,61.3321068 235.585786,61.5 236,61.5 C236.414214,61.5 236.789214,61.3321068 237.06066,61.0606602 C237.332107,60.7892136 237.5,60.4142136 237.5,60 L237.5,56 C237.5,55.5857864 237.332107,55.2107864 237.06066,54.9393398 C236.789214,54.6678932 236.414214,54.5 236,54.5 Z" id="Rectangle-Copy-68" stroke="#D1D1D3" fill="#FFFFFF"></path>
        <path d="M128,50 C129.104569,50 130,50.8954305 130,52 L130,64 C130,65.1045695 129.104569,66 128,66 C126.895431,66 126,65.1045695 126,64 L126,52 C126,50.8954305 126.895431,50 128,50 Z" id="Rectangle-Copy-50" fill="#D1D1D3"></path>
        <path d="M242,50.5 C241.585786,50.5 241.210786,50.6678932 240.93934,50.9393398 C240.667893,51.2107864 240.5,51.5857864 240.5,52 L240.5,64 C240.5,64.4142136 240.667893,64.7892136 240.93934,65.0606602 C241.210786,65.3321068 241.585786,65.5 242,65.5 C242.414214,65.5 242.789214,65.3321068 243.06066,65.0606602 C243.332107,64.7892136 243.5,64.4142136 243.5,64 L243.5,52 C243.5,51.5857864 243.332107,51.2107864 243.06066,50.9393398 C242.789214,50.6678932 242.414214,50.5 242,50.5 Z" id="Rectangle-Copy-69" stroke="#D1D1D3" fill="#FFFFFF"></path>
        <path d="M134,56 C135.104569,56 136,56.8954305 136,58 C136,59.1045695 135.104569,60 134,60 C132.895431,60 132,59.1045695 132,58 C132,56.8954305 132.895431,56 134,56 Z" id="Rectangle-Copy-51" fill="#D1D1D3"></path>
        <path d="M248,41.5 C247.585786,41.5 247.210786,41.6678932 246.93934,41.9393398 C246.667893,42.2107864 246.5,42.5857864 246.5,43 L246.5,73 C246.5,73.4142136 246.667893,73.7892136 246.93934,74.0606602 C247.210786,74.3321068 247.585786,74.5 248,74.5 C248.414214,74.5 248.789214,74.3321068 249.06066,74.0606602 C249.332107,73.7892136 249.5,73.4142136 249.5,73 L249.5,43 C249.5,42.5857864 249.332107,42.2107864 249.06066,41.9393398 C248.789214,41.6678932 248.414214,41.5 248,41.5 Z" id="Rectangle-Copy-70" stroke="#D1D1D3" fill="#FFFFFF"></path>
        <path d="M140,56 C141.104569,56 142,56.8954305 142,58 C142,59.1045695 141.104569,60 140,60 C138.895431,60 138,59.1045695 138,58 C138,56.8954305 138.895431,56 140,56 Z" id="Rectangle-Copy-52" fill="#D1D1D3"></path>
        <path d="M254,37.5 C253.585786,37.5 253.210786,37.6678932 252.93934,37.9393398 C252.667893,38.2107864 252.5,38.5857864 252.5,39 L252.5,77 C252.5,77.4142136 252.667893,77.7892136 252.93934,78.0606602 C253.210786,78.3321068 253.585786,78.5 254,78.5 C254.414214,78.5 254.789214,78.3321068 255.06066,78.0606602 C255.332107,77.7892136 255.5,77.4142136 255.5,77 L255.5,39 C255.5,38.5857864 255.332107,38.2107864 255.06066,37.9393398 C254.789214,37.6678932 254.414214,37.5 254,37.5 Z" id="Rectangle-Copy-71" stroke="#D1D1D3" fill="#FFFFFF"></path>
        <path d="M260,45.5 C259.585786,45.5 259.210786,45.6678932 258.93934,45.9393398 C258.667893,46.2107864 258.5,46.5857864 258.5,47 L258.5,69 C258.5,69.4142136 258.667893,69.7892136 258.93934,70.0606602 C259.210786,70.3321068 259.585786,70.5 260,70.5 C260.414214,70.5 260.789214,70.3321068 261.06066,70.0606602 C261.332107,69.7892136 261.5,69.4142136 261.5,69 L261.5,47 C261.5,46.5857864 261.332107,46.2107864 261.06066,45.9393398 C260.789214,45.6678932 260.414214,45.5 260,45.5 Z" id="Rectangle-Copy-72" stroke="#D1D1D3" fill="#FFFFFF"></path>
        <path d="M152,38.5 C151.585786,38.5 151.210786,38.6678932 150.93934,38.9393398 C150.667893,39.2107864 150.5,39.5857864 150.5,40 L150.5,76 C150.5,76.4142136 150.667893,76.7892136 150.93934,77.0606602 C151.210786,77.3321068 151.585786,77.5 152,77.5 C152.414214,77.5 152.789214,77.3321068 153.06066,77.0606602 C153.332107,76.7892136 153.5,76.4142136 153.5,76 L153.5,40 C153.5,39.5857864 153.332107,39.2107864 153.06066,38.9393398 C152.789214,38.6678932 152.414214,38.5 152,38.5 Z" id="Rectangle-Copy-54" stroke="#D1D1D3" fill="#FFFFFF"></path>
        <g id="Rectangle-Copy-73">
            <path stroke="#D1D1D3" stroke-width="1" d="M146,43.5 C145.585786,43.5 145.210786,43.6678932 144.93934,43.9393398 C144.667893,44.2107864 144.5,44.5857864 144.5,45 L144.5,71 C144.5,71.4142136 144.667893,71.7892136 144.93934,72.0606602 C145.210786,72.3321068 145.585786,72.5 146,72.5 C146.414214,72.5 146.789214,72.3321068 147.06066,72.0606602 C147.332107,71.7892136 147.5,71.4142136 147.5,71 L147.5,45 C147.5,44.5857864 147.332107,44.2107864 147.06066,43.9393398 C146.789214,43.6678932 146.414214,43.5 146,43.5 Z" stroke-linejoin="square" fill="#FFFFFF" fill-rule="evenodd"></path>
            <path stroke="#FFFFFF" stroke-width="2" d="M146,42 C145.171573,42 144.421573,42.3357864 143.87868,42.8786797 C143.335786,43.4215729 143,44.1715729 143,45 L143,71 C143,71.8284271 143.335786,72.5784271 143.87868,73.1213203 C144.421573,73.6642136 145.171573,74 146,74 C146.828427,74 147.578427,73.6642136 148.12132,73.1213203 C148.664214,72.5784271 149,71.8284271 149,71 L149,45 C149,44.1715729 148.664214,43.4215729 148.12132,42.8786797 C147.578427,42.3357864 146.828427,42 146,42 Z"></path>
        </g>
        <path d="M158,45.5 C157.585786,45.5 157.210786,45.6678932 156.93934,45.9393398 C156.667893,46.2107864 156.5,46.5857864 156.5,47 L156.5,69 C156.5,69.4142136 156.667893,69.7892136 156.93934,70.0606602 C157.210786,70.3321068 157.585786,70.5 158,70.5 C158.414214,70.5 158.789214,70.3321068 159.06066,70.0606602 C159.332107,69.7892136 159.5,69.4142136 159.5,69 L159.5,47 C159.5,46.5857864 159.332107,46.2107864 159.06066,45.9393398 C158.789214,45.6678932 158.414214,45.5 158,45.5 Z" id="Rectangle-Copy-55" stroke="#D1D1D3" fill="#FFFFFF"></path>
        <path d="M272,45 C273.104569,45 274,45.8954305 274,47 L274,69 C274,70.1045695 273.104569,71 272,71 C270.895431,71 270,70.1045695 270,69 L270,47 C270,45.8954305 270.895431,45 272,45 Z" id="Rectangle-Copy-74" fill="#D1D1D3"></path>
        <path d="M266,44 C265.171573,44 264.421573,44.3357864 263.87868,44.8786797 C263.335786,45.4215729 263,46.1715729 263,47 L263,69 C263,69.8284271 263.335786,70.5784271 263.87868,71.1213203 C264.421573,71.6642136 265.171573,72 266,72 C266.828427,72 267.578427,71.6642136 268.12132,71.1213203 C268.664214,70.5784271 269,69.8284271 269,69 L269,47 C269,46.1715729 268.664214,45.4215729 268.12132,44.8786797 C267.578427,44.3357864 266.828427,44 266,44 Z" id="Rectangle-Copy-105" stroke="#FFFFFF" stroke-width="2" fill="#D1D1D3"></path>
        <path d="M164,54.5 C163.585786,54.5 163.210786,54.6678932 162.93934,54.9393398 C162.667893,55.2107864 162.5,55.5857864 162.5,56 L162.5,60 C162.5,60.4142136 162.667893,60.7892136 162.93934,61.0606602 C163.210786,61.3321068 163.585786,61.5 164,61.5 C164.414214,61.5 164.789214,61.3321068 165.06066,61.0606602 C165.332107,60.7892136 165.5,60.4142136 165.5,60 L165.5,56 C165.5,55.5857864 165.332107,55.2107864 165.06066,54.9393398 C164.789214,54.6678932 164.414214,54.5 164,54.5 Z" id="Rectangle-Copy-56" stroke="#D1D1D3" fill="#FFFFFF"></path>
        <path d="M278,54 C279.104569,54 280,54.8954305 280,56 L280,60 C280,61.1045695 279.104569,62 278,62 C276.895431,62 276,61.1045695 276,60 L276,56 C276,54.8954305 276.895431,54 278,54 Z" id="Rectangle-Copy-75" fill="#D1D1D3"></path>
        <path d="M170,56.5 C169.585786,56.5 169.210786,56.6678932 168.93934,56.9393398 C168.667893,57.2107864 168.5,57.5857864 168.5,58 C168.5,58.4142136 168.667893,58.7892136 168.93934,59.0606602 C169.210786,59.3321068 169.585786,59.5 170,59.5 C170.414214,59.5 170.789214,59.3321068 171.06066,59.0606602 C171.332107,58.7892136 171.5,58.4142136 171.5,58 C171.5,57.5857864 171.332107,57.2107864 171.06066,56.9393398 C170.789214,56.6678932 170.414214,56.5 170,56.5 Z" id="Rectangle-Copy-57" stroke="#D1D1D3" fill="#FFFFFF"></path>
        <path d="M284,56 C285.104569,56 286,56.8954305 286,58 C286,59.1045695 285.104569,60 284,60 C282.895431,60 282,59.1045695 282,58 C282,56.8954305 282.895431,56 284,56 Z" id="Rectangle-Copy-76" fill="#D1D1D3"></path>
        <path d="M176,45.5 C175.585786,45.5 175.210786,45.6678932 174.93934,45.9393398 C174.667893,46.2107864 174.5,46.5857864 174.5,47 L174.5,69 C174.5,69.4142136 174.667893,69.7892136 174.93934,70.0606602 C175.210786,70.3321068 175.585786,70.5 176,70.5 C176.414214,70.5 176.789214,70.3321068 177.06066,70.0606602 C177.332107,69.7892136 177.5,69.4142136 177.5,69 L177.5,47 C177.5,46.5857864 177.332107,46.2107864 177.06066,45.9393398 C176.789214,45.6678932 176.414214,45.5 176,45.5 Z" id="Rectangle-Copy-59" stroke="#D1D1D3" fill="#FFFFFF"></path>
        <path d="M290,45 C291.104569,45 292,45.8954305 292,47 L292,69 C292,70.1045695 291.104569,71 290,71 C288.895431,71 288,70.1045695 288,69 L288,47 C288,45.8954305 288.895431,45 290,45 Z" id="Rectangle-Copy-77" fill="#D1D1D3"></path>
        <path d="M182,42.5 C181.585786,42.5 181.210786,42.6678932 180.93934,42.9393398 C180.667893,43.2107864 180.5,43.5857864 180.5,44 L180.5,72 C180.5,72.4142136 180.667893,72.7892136 180.93934,73.0606602 C181.210786,73.3321068 181.585786,73.5 182,73.5 C182.414214,73.5 182.789214,73.3321068 183.06066,73.0606602 C183.332107,72.7892136 183.5,72.4142136 183.5,72 L183.5,44 C183.5,43.5857864 183.332107,43.2107864 183.06066,42.9393398 C182.789214,42.6678932 182.414214,42.5 182,42.5 Z" id="Rectangle-Copy-60" stroke="#D1D1D3" fill="#FFFFFF"></path>
        <path d="M296,42 C297.104569,42 298,42.8954305 298,44 L298,72 C298,73.1045695 297.104569,74 296,74 C294.895431,74 294,73.1045695 294,72 L294,44 C294,42.8954305 294.895431,42 296,42 Z" id="Rectangle-Copy-78" fill="#D1D1D3"></path>
        <path d="M188,49.5 C187.585786,49.5 187.210786,49.6678932 186.93934,49.9393398 C186.667893,50.2107864 186.5,50.5857864 186.5,51 L186.5,65 C186.5,65.4142136 186.667893,65.7892136 186.93934,66.0606602 C187.210786,66.3321068 187.585786,66.5 188,66.5 C188.414214,66.5 188.789214,66.3321068 189.06066,66.0606602 C189.332107,65.7892136 189.5,65.4142136 189.5,65 L189.5,51 C189.5,50.5857864 189.332107,50.2107864 189.06066,49.9393398 C188.789214,49.6678932 188.414214,49.5 188,49.5 Z" id="Rectangle-Copy-61" stroke="#D1D1D3" fill="#FFFFFF"></path>
        <path d="M302,49 C303.104569,49 304,49.8954305 304,51 L304,65 C304,66.1045695 303.104569,67 302,67 C300.895431,67 300,66.1045695 300,65 L300,51 C300,49.8954305 300.895431,49 302,49 Z" id="Rectangle-Copy-79" fill="#D1D1D3"></path>
        <path d="M194,45 C195.104569,45 196,45.8954305 196,47 L196,69 C196,70.1045695 195.104569,71 194,71 C192.895431,71 192,70.1045695 192,69 L192,47 C192,45.8954305 192.895431,45 194,45 Z" id="Rectangle-Copy-62" stroke="#D1D1D3" fill="#FFFFFF"></path>
        <path d="M308,45 C309.104569,45 310,45.8954305 310,47 L310,69 C310,70.1045695 309.104569,71 308,71 C306.895431,71 306,70.1045695 306,69 L306,47 C306,45.8954305 306.895431,45 308,45 Z" id="Rectangle-Copy-80" fill="#D1D1D3"></path>
        <path d="M200,38 C201.104569,38 202,38.8954305 202,40 L202,76 C202,77.1045695 201.104569,78 200,78 C198.895431,78 198,77.1045695 198,76 L198,40 C198,38.8954305 198.895431,38 200,38 Z" id="Rectangle-Copy-63" stroke="#D1D1D3" fill="#FFFFFF"></path>
        <path d="M314,38 C315.104569,38 316,38.8954305 316,40 L316,76 C316,77.1045695 315.104569,78 314,78 C312.895431,78 312,77.1045695 312,76 L312,40 C312,38.8954305 312.895431,38 314,38 Z" id="Rectangle-Copy-81" fill="#D1D1D3"></path>
        <path d="M206,50 C207.104569,50 208,50.8954305 208,52 L208,64 C208,65.1045695 207.104569,66 206,66 C204.895431,66 204,65.1045695 204,64 L204,52 C204,50.8954305 204.895431,50 206,50 Z" id="Rectangle-Copy-64" stroke="#D1D1D3" fill="#FFFFFF"></path>
        <path d="M320,50 C321.104569,50 322,50.8954305 322,52 L322,64 C322,65.1045695 321.104569,66 320,66 C318.895431,66 318,65.1045695 318,64 L318,52 C318,50.8954305 318.895431,50 320,50 Z" id="Rectangle-Copy-82" fill="#D1D1D3"></path>
        <path d="M212,43.5 C211.585786,43.5 211.210786,43.6678932 210.93934,43.9393398 C210.667893,44.2107864 210.5,44.5857864 210.5,45 L210.5,71 C210.5,71.4142136 210.667893,71.7892136 210.93934,72.0606602 C211.210786,72.3321068 211.585786,72.5 212,72.5 C212.414214,72.5 212.789214,72.3321068 213.06066,72.0606602 C213.332107,71.7892136 213.5,71.4142136 213.5,71 L213.5,45 C213.5,44.5857864 213.332107,44.2107864 213.06066,43.9393398 C212.789214,43.6678932 212.414214,43.5 212,43.5 Z" id="Rectangle-Copy-65" stroke="#D1D1D3" fill="#FFFFFF"></path>
        <path d="M326,43 C327.104569,43 328,43.8954305 328,45 L328,71 C328,72.1045695 327.104569,73 326,73 C324.895431,73 324,72.1045695 324,71 L324,45 C324,43.8954305 324.895431,43 326,43 Z" id="Rectangle-Copy-83" fill="#D1D1D3"></path>
        <path d="M218,48.5 C217.585786,48.5 217.210786,48.6678932 216.93934,48.9393398 C216.667893,49.2107864 216.5,49.5857864 216.5,50 L216.5,66 C216.5,66.4142136 216.667893,66.7892136 216.93934,67.0606602 C217.210786,67.3321068 217.585786,67.5 218,67.5 C218.414214,67.5 218.789214,67.3321068 219.06066,67.0606602 C219.332107,66.7892136 219.5,66.4142136 219.5,66 L219.5,50 C219.5,49.5857864 219.332107,49.2107864 219.06066,48.9393398 C218.789214,48.6678932 218.414214,48.5 218,48.5 Z" id="Rectangle-Copy-66" stroke="#D1D1D3" fill="#FFFFFF"></path>
        <path d="M332,48 C333.104569,48 334,48.8954305 334,50 L334,66 C334,67.1045695 333.104569,68 332,68 C330.895431,68 330,67.1045695 330,66 L330,50 C330,48.8954305 330.895431,48 332,48 Z" id="Rectangle-Copy-84" fill="#D1D1D3"></path>
        <path d="M224,54.5 C223.585786,54.5 223.210786,54.6678932 222.93934,54.9393398 C222.667893,55.2107864 222.5,55.5857864 222.5,56 L222.5,60 C222.5,60.4142136 222.667893,60.7892136 222.93934,61.0606602 C223.210786,61.3321068 223.585786,61.5 224,61.5 C224.414214,61.5 224.789214,61.3321068 225.06066,61.0606602 C225.332107,60.7892136 225.5,60.4142136 225.5,60 L225.5,56 C225.5,55.5857864 225.332107,55.2107864 225.06066,54.9393398 C224.789214,54.6678932 224.414214,54.5 224,54.5 Z" id="Rectangle-Copy-67" stroke="#D1D1D3" fill="#FFFFFF"></path>
        <path d="M338,54 C339.104569,54 340,54.8954305 340,56 L340,60 C340,61.1045695 339.104569,62 338,62 C336.895431,62 336,61.1045695 336,60 L336,56 C336,54.8954305 336.895431,54 338,54 Z" id="Rectangle-Copy-85" fill="#D1D1D3"></path>
        <path d="M344,52 C345.104569,52 346,52.8954305 346,54 L346,62 C346,63.1045695 345.104569,64 344,64 C342.895431,64 342,63.1045695 342,62 L342,54 C342,52.8954305 342.895431,52 344,52 Z" id="Rectangle-Copy-104" fill="#D1D1D3"></path>
        <path d="M350,54 C351.104569,54 352,54.8954305 352,56 L352,60 C352,61.1045695 351.104569,62 350,62 C348.895431,62 348,61.1045695 348,60 L348,56 C348,54.8954305 348.895431,54 350,54 Z" id="Rectangle-Copy-103" fill="#D1D1D3"></path>
        <path d="M356,50 C357.104569,50 358,50.8954305 358,52 L358,64 C358,65.1045695 357.104569,66 356,66 C354.895431,66 354,65.1045695 354,64 L354,52 C354,50.8954305 354.895431,50 356,50 Z" id="Rectangle-Copy-102" fill="#D1D1D3"></path>
        <path d="M362,41 C363.104569,41 364,41.8954305 364,43 L364,73 C364,74.1045695 363.104569,75 362,75 C360.895431,75 360,74.1045695 360,73 L360,43 C360,41.8954305 360.895431,41 362,41 Z" id="Rectangle-Copy-101" fill="#D1D1D3"></path>
        <path d="M368,37 C369.104569,37 370,37.8954305 370,39 L370,77 C370,78.1045695 369.104569,79 368,79 C366.895431,79 366,78.1045695 366,77 L366,39 C366,37.8954305 366.895431,37 368,37 Z" id="Rectangle-Copy-100" fill="#D1D1D3"></path>
        <path d="M374,38 C375.104569,38 376,38.8954305 376,40 L376,76 C376,77.1045695 375.104569,78 374,78 C372.895431,78 372,77.1045695 372,76 L372,40 C372,38.8954305 372.895431,38 374,38 Z" id="Rectangle-Copy-99" fill="#D1D1D3"></path>
        <path d="M380,38 C381.104569,38 382,38.8954305 382,40 L382,76 C382,77.1045695 381.104569,78 380,78 C378.895431,78 378,77.1045695 378,76 L378,40 C378,38.8954305 378.895431,38 380,38 Z" id="Rectangle-Copy-98" fill="#D1D1D3"></path>
        <path d="M386,45 C387.104569,45 388,45.8954305 388,47 L388,69 C388,70.1045695 387.104569,71 386,71 C384.895431,71 384,70.1045695 384,69 L384,47 C384,45.8954305 384.895431,45 386,45 Z" id="Rectangle-Copy-97" fill="#D1D1D3"></path>
        <path d="M392,54 C393.104569,54 394,54.8954305 394,56 L394,60 C394,61.1045695 393.104569,62 392,62 C390.895431,62 390,61.1045695 390,60 L390,56 C390,54.8954305 390.895431,54 392,54 Z" id="Rectangle-Copy-96" fill="#D1D1D3"></path>
        <path d="M398,56 C399.104569,56 400,56.8954305 400,58 C400,59.1045695 399.104569,60 398,60 C396.895431,60 396,59.1045695 396,58 C396,56.8954305 396.895431,56 398,56 Z" id="Rectangle-Copy-95" fill="#D1D1D3"></path>
        <path d="M404,45 C405.104569,45 406,45.8954305 406,47 L406,69 C406,70.1045695 405.104569,71 404,71 C402.895431,71 402,70.1045695 402,69 L402,47 C402,45.8954305 402.895431,45 404,45 Z" id="Rectangle-Copy-94" fill="#D1D1D3"></path>
        <path d="M410,42 C411.104569,42 412,42.8954305 412,44 L412,72 C412,73.1045695 411.104569,74 410,74 C408.895431,74 408,73.1045695 408,72 L408,44 C408,42.8954305 408.895431,42 410,42 Z" id="Rectangle-Copy-93" fill="#D1D1D3"></path>
        <path d="M416,49 C417.104569,49 418,49.8954305 418,51 L418,65 C418,66.1045695 417.104569,67 416,67 C414.895431,67 414,66.1045695 414,65 L414,51 C414,49.8954305 414.895431,49 416,49 Z" id="Rectangle-Copy-92" fill="#D1D1D3"></path>
        <path d="M422,45 C423.104569,45 424,45.8954305 424,47 L424,69 C424,70.1045695 423.104569,71 422,71 C420.895431,71 420,70.1045695 420,69 L420,47 C420,45.8954305 420.895431,45 422,45 Z" id="Rectangle-Copy-91" fill="#D1D1D3"></path>
        <path d="M428,38 C429.104569,38 430,38.8954305 430,40 L430,76 C430,77.1045695 429.104569,78 428,78 C426.895431,78 426,77.1045695 426,76 L426,40 C426,38.8954305 426.895431,38 428,38 Z" id="Rectangle-Copy-90" fill="#D1D1D3"></path>
        <path d="M434,50 C435.104569,50 436,50.8954305 436,52 L436,64 C436,65.1045695 435.104569,66 434,66 C432.895431,66 432,65.1045695 432,64 L432,52 C432,50.8954305 432.895431,50 434,50 Z" id="Rectangle-Copy-89" fill="#D1D1D3"></path>
        <path d="M440,43 C441.104569,43 442,43.8954305 442,45 L442,71 C442,72.1045695 441.104569,73 440,73 C438.895431,73 438,72.1045695 438,71 L438,45 C438,43.8954305 438.895431,43 440,43 Z" id="Rectangle-Copy-88" fill="#D1D1D3"></path>
        <path d="M446,48 C447.104569,48 448,48.8954305 448,50 L448,66 C448,67.1045695 447.104569,68 446,68 C444.895431,68 444,67.1045695 444,66 L444,50 C444,48.8954305 444.895431,48 446,48 Z" id="Rectangle-Copy-87" fill="#D1D1D3"></path>
        <path d="M452,54 C453.104569,54 454,54.8954305 454,56 L454,60 C454,61.1045695 453.104569,62 452,62 C450.895431,62 450,61.1045695 450,60 L450,56 C450,54.8954305 450.895431,54 452,54 Z" id="Rectangle-Copy-86" fill="#D1D1D3"></path>
        <path d="M458,52 C459.104569,52 460,52.8954305 460,54 L460,62 C460,63.1045695 459.104569,64 458,64 C456.895431,64 456,63.1045695 456,62 L456,54 C456,52.8954305 456.895431,52 458,52 Z" id="Rectangle-Copy-123" fill="#D1D1D3"></path>
        <path d="M464,54 C465.104569,54 466,54.8954305 466,56 L466,60 C466,61.1045695 465.104569,62 464,62 C462.895431,62 462,61.1045695 462,60 L462,56 C462,54.8954305 462.895431,54 464,54 Z" id="Rectangle-Copy-122" fill="#D1D1D3"></path>
    </g>
</svg>