<?xml version="1.0" encoding="UTF-8"?>
<svg class="u-max-full-width" viewBox="0 0 375 40" version="1.1" xmlns="http://www.w3.org/2000/svg" xmlns:xlink="http://www.w3.org/1999/xlink"> 
    <defs>
        <path d="M11.4221086,-4.61466857e-16 L315.577891,4.61466857e-16 C319.549607,-2.68125533e-16 320.989848,0.413538098 322.441848,1.1900762 C323.893848,1.96661429 325.033386,3.10615239 325.809924,4.55815239 C326.586462,6.01015239 327,7.45039258 327,11.4221086 L327,20.5778914 C327,24.5496074 326.586462,25.9898476 325.809924,27.4418476 C325.033386,28.8938476 323.893848,30.0333857 322.441848,30.8099238 C320.989848,31.5864619 319.549607,32 315.577891,32 L11.4221086,32 C7.45039258,32 6.01015239,31.5864619 4.55815239,30.8099238 C3.10615239,30.0333857 1.96661429,28.8938476 1.1900762,27.4418476 C0.413538098,25.9898476 -8.75043144e-16,24.5496074 1.50602371e-15,20.5778914 L3.07644571e-16,11.4221086 C-1.78750356e-16,7.45039258 0.413538098,6.01015239 1.1900762,4.55815239 C1.96661429,3.10615239 3.10615239,1.96661429 4.55815239,1.1900762 C6.01015239,0.413538098 7.45039258,2.68125533e-16 11.4221086,-4.61466857e-16 Z" id="path-1"></path>
        <rect id="path-3" x="0" y="0" width="109.588235" height="28"></rect>
        <rect id="path-5" x="0" y="0" width="109.635569" height="28"></rect>
        <rect id="path-7" x="0" y="0" width="109.588235" height="28"></rect>
    </defs>
    <g id="Artboard" stroke="none" stroke-width="1" fill="none" fill-rule="evenodd">
        <path d="M2.39263132,40.0000001 C6.70318448,40.0000001 8.58005878,39.4894592 10.3726514,38.5307702 C12.165244,37.5720812 13.5720811,36.1652441 14.5307701,34.3726515 C15.4894591,32.5800589 16,30.7031846 16,26.3926314 L16,26.3926314 L16,11.998 L16.0379977,11.9986437 C16.1725388,8.63571933 16.6620305,7.13668024 17.4692299,5.62734863 C18.4279189,3.83475604 19.834756,2.42791888 21.6273486,1.46922987 C23.4199412,0.510540862 25.1980155,6.76664389e-10 30.1013686,6.76663488e-10 L344.898631,6.76664628e-10 C349.801984,6.76663727e-10 351.580059,0.510540862 353.372651,1.46922987 C355.165244,2.42791888 356.572081,3.83475604 357.53077,5.62734863 C358.33797,7.13668024 358.827461,8.63571933 358.962002,11.9986437 L359,11.998 L359,26.3926314 C359,30.5641345 359.478134,32.4564378 360.377855,34.1988328 L360.46923,34.3726515 C361.427919,36.1652441 362.834756,37.5720812 364.627349,38.5307702 C366.419941,39.4894592 368.296816,40.0000001 372.607369,40.0000001 L372.607369,40.0000001 L375,40.0000001 L375,48 L0,48 L0,40.0000001 Z" id="Combined-Shape" fill="#161616"></path>
        <g id="Controls/Segmented-Control/Dark/3-Buttons" transform="translate(24.000000, 8.000000)">
            <mask id="mask-2" fill="white">
                <use xlink:href="#path-1"></use>
            </mask>
            <use id="Background" fill-opacity="0.24" fill="#767680" xlink:href="#path-1"></use>
            <g id="Controls/Segmented-Control/Dark/x/Separator" mask="url(#mask-2)" fill="#8E8E93" opacity="0.3">
                <g transform="translate(216.702362, 8.000000)" id="Separator">
                    <rect x="0" y="0" width="1" height="16" rx="0.5"></rect>
                </g>
            </g>
            <g id="Controls/Segmented-Control/Light/x/Separator" mask="url(#mask-2)" fill="#8E8E93" opacity="0.3">
                <g transform="translate(109.293825, 8.000000)" id="Separator">
                    <rect x="0" y="0" width="1" height="16" rx="0.5"></rect>
                </g>
            </g>
            <g id="Option-3" mask="url(#mask-2)">
                <g transform="translate(214.411765, 2.000000)">
                    <mask id="mask-4" fill="white">
                        <use xlink:href="#path-3"></use>
                    </mask>
                    <g id="Mask" stroke="none" fill="none"></g>
                    <path d="M43.4808169,19.9902344 L42.3001528,18.371582 C43.3157778,17.6035156 43.8870669,16.2070312 43.8870669,14.4233398 C43.8870669,11.465332 42.2430239,9.61816406 39.6214419,9.61816406 C36.9935122,9.61816406 35.3431216,11.4589844 35.3431216,14.4233398 C35.3431216,17.4003906 36.9808169,19.222168 39.6214419,19.222168 C40.2117739,19.222168 40.76402,19.1333008 41.2527895,18.9555664 L42.0208559,19.9902344 L43.4808169,19.9902344 Z M39.6277895,17.984375 C37.8758364,17.984375 36.7840395,16.6196289 36.7840395,14.4233398 C36.7840395,12.2270508 37.8821841,10.855957 39.6214419,10.855957 C41.354352,10.855957 42.4524966,12.2333984 42.4524966,14.4233398 C42.4524966,15.6865234 42.0970278,16.6894531 41.4686098,17.2353516 L40.7195864,16.2387695 L39.2469301,16.2387695 L40.4593325,17.8701172 C40.1927309,17.9526367 39.9134341,17.984375 39.6277895,17.984375 Z M47.8906098,19.1333008 C48.9379731,19.1333008 49.642563,18.6889648 49.9789887,17.9082031 L50.0868989,17.9082031 L50.0868989,19 L51.4008637,19 L51.4008637,12.1064453 L50.0361176,12.1064453 L50.0361176,16.1499023 C50.0361176,17.2607422 49.4330903,17.9335938 48.3285981,17.9335938 C47.3256684,17.9335938 46.8749848,17.3876953 46.8749848,16.2451172 L46.8749848,12.1064453 L45.5102387,12.1064453 L45.5102387,16.581543 C45.5102387,18.2001953 46.3608247,19.1333008 47.8906098,19.1333008 Z M56.1534301,19.1333008 C57.7339966,19.1333008 58.8511841,18.371582 59.1495239,17.152832 L57.8355591,17.152832 C57.5816528,17.7114258 57.0167114,18.0161133 56.1915161,18.0161133 C55.0997192,18.0161133 54.3951294,17.2290039 54.3506958,15.9785156 L54.3506958,15.9150391 L59.2320434,15.9150391 L59.2320434,15.4453125 C59.2320434,13.2871094 58.0704223,11.9731445 56.1470825,11.9731445 C54.198352,11.9731445 52.9605591,13.3759766 52.9605591,15.565918 C52.9605591,17.7685547 54.1729614,19.1333008 56.1534301,19.1333008 Z M57.8419067,14.9311523 L54.3506958,14.9311523 C54.4268676,13.8203125 55.1314575,13.0839844 56.1407348,13.0839844 C57.1500122,13.0839844 57.8101684,13.8139648 57.8419067,14.9311523 Z M63.1086333,19.1333008 C64.1559966,19.1333008 64.8605864,18.6889648 65.1970122,17.9082031 L65.3049223,17.9082031 L65.3049223,19 L66.6188872,19 L66.6188872,12.1064453 L65.2541411,12.1064453 L65.2541411,16.1499023 C65.2541411,17.2607422 64.6511137,17.9335938 63.5466216,17.9335938 C62.5436919,17.9335938 62.0930083,17.3876953 62.0930083,16.2451172 L62.0930083,12.1064453 L60.7282622,12.1064453 L60.7282622,16.581543 C60.7282622,18.2001953 61.5788481,19.1333008 63.1086333,19.1333008 Z M71.3714536,19.1333008 C72.95202,19.1333008 74.0692075,18.371582 74.3675473,17.152832 L73.0535825,17.152832 C72.7996762,17.7114258 72.2347348,18.0161133 71.4095395,18.0161133 C70.3177426,18.0161133 69.6131528,17.2290039 69.5687192,15.9785156 L69.5687192,15.9150391 L74.4500669,15.9150391 L74.4500669,15.4453125 C74.4500669,13.2871094 73.2884458,11.9731445 71.3651059,11.9731445 C69.4163755,11.9731445 68.1785825,13.3759766 68.1785825,15.565918 C68.1785825,17.7685547 69.3909848,19.1333008 71.3714536,19.1333008 Z M73.0599301,14.9311523 L69.5687192,14.9311523 C69.6448911,13.8203125 70.3494809,13.0839844 71.3587583,13.0839844 C72.3680356,13.0839844 73.0281919,13.8139648 73.0599301,14.9311523 Z" id="Queue" stroke="none" fill="#FFFFFF" fill-rule="nonzero" mask="url(#mask-4)"></path>
                </g>
            </g>
            <g id="Option-2" mask="url(#mask-2)">
                <g transform="translate(108.682216, 2.000000)">
                    <mask id="mask-6" fill="white">
                        <use xlink:href="#path-5"></use>
                    </mask>
                    <g id="Mask" stroke="none" fill="none"></g>
                    <path d="M52.8804034,19 L52.8804034,17.7749023 L48.4878253,17.7749023 L48.4878253,14.9248047 L52.6455401,14.9248047 L52.6455401,13.7441406 L48.4878253,13.7441406 L48.4878253,11.0654297 L52.8804034,11.0654297 L52.8804034,9.84033203 L47.0659503,9.84033203 L47.0659503,19 L52.8804034,19 Z M62.61588,19.9902344 L61.4352159,18.371582 C62.4508409,17.6035156 63.02213,16.2070312 63.02213,14.4233398 C63.02213,11.465332 61.378087,9.61816406 58.756505,9.61816406 C56.1285753,9.61816406 54.4781846,11.4589844 54.4781846,14.4233398 C54.4781846,17.4003906 56.11588,19.222168 58.756505,19.222168 C59.346837,19.222168 59.8990831,19.1333008 60.3878526,18.9555664 L61.155919,19.9902344 L62.61588,19.9902344 Z M58.7628526,17.984375 C57.0108995,17.984375 55.9191026,16.6196289 55.9191026,14.4233398 C55.9191026,12.2270508 57.0172471,10.855957 58.756505,10.855957 C60.4894151,10.855957 61.5875596,12.2333984 61.5875596,14.4233398 C61.5875596,15.6865234 61.2320909,16.6894531 60.6036729,17.2353516 L59.8546495,16.2387695 L58.3819932,16.2387695 L59.5943956,17.8701172 C59.327794,17.9526367 59.0484971,17.984375 58.7628526,17.984375 Z" id="EQ" stroke="none" fill="#FFFFFF" fill-rule="nonzero" mask="url(#mask-6)"></path>
                </g>
            </g>
            <g id="Option-1" mask="url(#mask-2)">
                <g transform="translate(3.000000, 2.000000)">
                    <mask id="mask-8" fill="white">
                        <use xlink:href="#path-7"></use>
                    </mask>
                    <g id="Mask" stroke="none" fill="none"></g>
                    <path d="M43.4182544,19 L43.4182544,17.762207 L39.1272387,17.762207 L39.1272387,9.84033203 L37.7053637,9.84033203 L37.7053637,19 L43.4182544,19 Z M44.7748247,21.5009766 C46.1840044,21.5009766 46.837813,20.9741211 47.428145,19.3173828 L50.0052934,12.1064453 L48.5580278,12.1064453 L46.8314653,17.6289062 L46.7235551,17.6289062 L44.990645,12.1064453 L43.5052934,12.1064453 L46.00627,19.019043 L45.9047075,19.3745117 C45.6698442,20.1044922 45.3016801,20.3774414 44.6542192,20.3774414 C44.5272661,20.3774414 44.3177934,20.3710938 44.2098833,20.3520508 L44.2098833,21.4692383 C44.3368364,21.4882812 44.6605669,21.5009766 44.7748247,21.5009766 Z M52.6885239,19 L52.6885239,14.8803711 C52.6885239,13.9091797 53.4185044,13.2426758 54.4531723,13.2426758 C54.6943833,13.2426758 55.1006333,13.2871094 55.2148911,13.3188477 L55.2148911,12.0366211 C55.068895,12.0048828 54.8086411,11.9858398 54.6055161,11.9858398 C53.7041489,11.9858398 52.9360825,12.4746094 52.7393051,13.1538086 L52.6377426,13.1538086 L52.6377426,12.1064453 L51.3237778,12.1064453 L51.3237778,19 L52.6885239,19 Z M57.1554458,10.875 C57.63152,10.875 58.018727,10.487793 58.018727,10.0180664 C58.018727,9.54199219 57.63152,9.15478516 57.1554458,9.15478516 C56.6793716,9.15478516 56.2921645,9.54199219 56.2921645,10.0180664 C56.2921645,10.487793 56.6793716,10.875 57.1554458,10.875 Z M57.834645,19 L57.834645,12.1064453 L56.4762466,12.1064453 L56.4762466,19 L57.834645,19 Z M62.6633833,19.1333008 C64.3709028,19.1333008 65.4373091,18.1748047 65.6150434,16.8164062 L64.2883833,16.8164062 C64.1106489,17.5654297 63.5203169,17.9716797 62.6570356,17.9716797 C61.5208051,17.9716797 60.8162153,17.0512695 60.8162153,15.527832 C60.8162153,14.0361328 61.5144575,13.1347656 62.6570356,13.1347656 C63.5710981,13.1347656 64.1296919,13.6489258 64.2883833,14.3217773 L65.6150434,14.3217773 C65.4373091,12.9824219 64.3899458,11.9731445 62.6570356,11.9731445 C60.6448286,11.9731445 59.4197309,13.3378906 59.4197309,15.527832 C59.4197309,17.762207 60.6511762,19.1333008 62.6633833,19.1333008 Z M69.5931958,19.1333008 C71.2435864,19.1333008 72.4559887,18.2636719 72.4559887,16.9814453 C72.4559887,15.9785156 71.8402661,15.4135742 70.5263012,15.1088867 L69.3773755,14.8422852 C68.628352,14.6645508 68.2792309,14.3979492 68.2792309,13.9726562 C68.2792309,13.4140625 68.8568676,13.0395508 69.6185864,13.0395508 C70.3930005,13.0395508 70.8881176,13.3759766 71.0150708,13.8901367 L72.322688,13.8901367 C72.1893872,12.6967773 71.1737622,11.9731445 69.6185864,11.9731445 C68.057063,11.9731445 66.9335278,12.8364258 66.9335278,14.0361328 C66.9335278,15.0581055 67.5429028,15.6420898 68.8568676,15.9467773 L70.0629223,16.2324219 C70.7548169,16.3974609 71.0785473,16.6767578 71.0785473,17.1083984 C71.0785473,17.6733398 70.47552,18.0668945 69.6249341,18.0668945 C68.7997387,18.0668945 68.2919262,17.7304688 68.1205395,17.190918 L66.7557934,17.190918 C66.8763989,18.390625 67.9491528,19.1333008 69.5931958,19.1333008 Z" id="Lyrics" stroke="none" fill="#FFFFFF" fill-rule="nonzero" mask="url(#mask-8)"></path>
                </g>
            </g>
        </g>
    </g>
</svg>