<?xml version="1.0" encoding="UTF-8"?>
<svg class="u-max-full-width" viewBox="0 0 375 40" version="1.1" xmlns="http://www.w3.org/2000/svg" xmlns:xlink="http://www.w3.org/1999/xlink">
    <g id="Artboard" stroke="none" stroke-width="1" fill="none" fill-rule="evenodd">
        <path d="M2.39263132,40.0000001 C6.70318448,40.0000001 8.58005878,39.4894592 10.3726514,38.5307702 C12.165244,37.5720812 13.5720811,36.1652441 14.5307701,34.3726515 C15.4894591,32.5800589 16,30.7031846 16,26.3926314 L16,26.3926314 L16,11.998 L16.0379977,11.9986437 C16.1725388,8.63571933 16.6620305,7.13668024 17.4692299,5.62734863 C18.4279189,3.83475604 19.834756,2.42791888 21.6273486,1.46922987 C23.4199412,0.510540862 25.1980155,6.76664389e-10 30.1013686,6.76663488e-10 L344.898631,6.76664628e-10 C349.801984,6.76663727e-10 351.580059,0.510540862 353.372651,1.46922987 C355.165244,2.42791888 356.572081,3.83475604 357.53077,5.62734863 C358.33797,7.13668024 358.827461,8.63571933 358.962002,11.9986437 L359,11.998 L359,26.3926314 C359,30.5641345 359.478134,32.4564378 360.377855,34.1988328 L360.46923,34.3726515 C361.427919,36.1652441 362.834756,37.5720812 364.627349,38.5307702 C366.419941,39.4894592 368.296816,40.0000001 372.607369,40.0000001 L372.607369,40.0000001 L375,40.0000001 L375,48 L0,48 L0,40.0000001 Z" id="Combined-Shape" fill="#161616"></path>
        <path d="M35.4221086,8 L339.577891,8 C343.549607,8 344.989848,8.4135381 346.441848,9.1900762 C347.893848,9.96661429 349.033386,11.1061524 349.809924,12.5581524 C350.586462,14.0101524 351,15.4503926 351,19.4221086 L351,28.5778914 C351,32.5496074 350.586462,33.9898476 349.809924,35.4418476 C349.033386,36.8938476 347.893848,38.0333857 346.441848,38.8099238 C344.989848,39.5864619 343.549607,40 339.577891,40 L35.4221086,40 C31.4503926,40 30.0101524,39.5864619 28.5581524,38.8099238 C27.1061524,38.0333857 25.9666143,36.8938476 25.1900762,35.4418476 C24.4135381,33.9898476 24,32.5496074 24,28.5778914 L24,19.4221086 C24,15.4503926 24.4135381,14.0101524 25.1900762,12.5581524 C25.9666143,11.1061524 27.1061524,9.96661429 28.5581524,9.1900762 C30.0101524,8.4135381 31.4503926,8 35.4221086,8 Z" id="Background" fill-opacity="0.24" fill="#767680"></path>
        <rect id="Separator" fill="#8E8E93" opacity="0.3" x="240.702362" y="16" width="1" height="16" rx="0.5"></rect>
        <rect id="Separator" fill="#8E8E93" opacity="0.3" x="133.293825" y="16" width="1" height="16" rx="0.5"></rect>
        <path d="M281.892582,29.9902344 L280.711918,28.371582 C281.727543,27.6035156 282.298832,26.2070312 282.298832,24.4233398 C282.298832,21.465332 280.654789,19.6181641 278.033207,19.6181641 C275.405277,19.6181641 273.754886,21.4589844 273.754886,24.4233398 C273.754886,27.4003906 275.392582,29.222168 278.033207,29.222168 C278.623539,29.222168 279.175785,29.1333008 279.664554,28.9555664 L280.432621,29.9902344 L281.892582,29.9902344 Z M278.039554,27.984375 C276.287601,27.984375 275.195804,26.6196289 275.195804,24.4233398 C275.195804,22.2270508 276.293949,20.855957 278.033207,20.855957 C279.766117,20.855957 280.864261,22.2333984 280.864261,24.4233398 C280.864261,25.6865234 280.508793,26.6894531 279.880375,27.2353516 L279.131351,26.2387695 L277.658695,26.2387695 L278.871097,27.8701172 C278.604496,27.9526367 278.325199,27.984375 278.039554,27.984375 Z M286.302375,29.1333008 C287.349738,29.1333008 288.054328,28.6889648 288.390753,27.9082031 L288.498664,27.9082031 L288.498664,29 L289.812628,29 L289.812628,22.1064453 L288.447882,22.1064453 L288.447882,26.1499023 C288.447882,27.2607422 287.844855,27.9335938 286.740363,27.9335938 C285.737433,27.9335938 285.28675,27.3876953 285.28675,26.2451172 L285.28675,22.1064453 L283.922003,22.1064453 L283.922003,26.581543 C283.922003,28.2001953 284.772589,29.1333008 286.302375,29.1333008 Z M294.565195,29.1333008 C296.145761,29.1333008 297.262949,28.371582 297.561289,27.152832 L296.247324,27.152832 C295.993418,27.7114258 295.428476,28.0161133 294.603281,28.0161133 C293.511484,28.0161133 292.806894,27.2290039 292.76246,25.9785156 L292.76246,25.9150391 L297.643808,25.9150391 L297.643808,25.4453125 C297.643808,23.2871094 296.482187,21.9731445 294.558847,21.9731445 C292.610117,21.9731445 291.372324,23.3759766 291.372324,25.565918 C291.372324,27.7685547 292.584726,29.1333008 294.565195,29.1333008 Z M296.253671,24.9311523 L292.76246,24.9311523 C292.838632,23.8203125 293.543222,23.0839844 294.5525,23.0839844 C295.561777,23.0839844 296.221933,23.8139648 296.253671,24.9311523 Z M301.520398,29.1333008 C302.567761,29.1333008 303.272351,28.6889648 303.608777,27.9082031 L303.716687,27.9082031 L303.716687,29 L305.030652,29 L305.030652,22.1064453 L303.665906,22.1064453 L303.665906,26.1499023 C303.665906,27.2607422 303.062878,27.9335938 301.958386,27.9335938 C300.955457,27.9335938 300.504773,27.3876953 300.504773,26.2451172 L300.504773,22.1064453 L299.140027,22.1064453 L299.140027,26.581543 C299.140027,28.2001953 299.990613,29.1333008 301.520398,29.1333008 Z M309.783218,29.1333008 C311.363785,29.1333008 312.480972,28.371582 312.779312,27.152832 L311.465347,27.152832 C311.211441,27.7114258 310.6465,28.0161133 309.821304,28.0161133 C308.729507,28.0161133 308.024918,27.2290039 307.980484,25.9785156 L307.980484,25.9150391 L312.861832,25.9150391 L312.861832,25.4453125 C312.861832,23.2871094 311.70021,21.9731445 309.776871,21.9731445 C307.82814,21.9731445 306.590347,23.3759766 306.590347,25.565918 C306.590347,27.7685547 307.80275,29.1333008 309.783218,29.1333008 Z M311.471695,24.9311523 L307.980484,24.9311523 C308.056656,23.8203125 308.761246,23.0839844 309.770523,23.0839844 C310.7798,23.0839844 311.439957,23.8139648 311.471695,24.9311523 Z" id="Queue" fill="#FFFFFF" fill-rule="nonzero"></path>
        <path d="M185.562619,29 L185.562619,27.7749023 L181.170041,27.7749023 L181.170041,24.9248047 L185.327756,24.9248047 L185.327756,23.7441406 L181.170041,23.7441406 L181.170041,21.0654297 L185.562619,21.0654297 L185.562619,19.840332 L179.748166,19.840332 L179.748166,29 L185.562619,29 Z M195.298096,29.9902344 L194.117432,28.371582 C195.133057,27.6035156 195.704346,26.2070312 195.704346,24.4233398 C195.704346,21.465332 194.060303,19.6181641 191.438721,19.6181641 C188.810791,19.6181641 187.1604,21.4589844 187.1604,24.4233398 C187.1604,27.4003906 188.798096,29.222168 191.438721,29.222168 C192.029053,29.222168 192.581299,29.1333008 193.070068,28.9555664 L193.838135,29.9902344 L195.298096,29.9902344 Z M191.445068,27.984375 C189.693115,27.984375 188.601318,26.6196289 188.601318,24.4233398 C188.601318,22.2270508 189.699463,20.855957 191.438721,20.855957 C193.171631,20.855957 194.269775,22.2333984 194.269775,24.4233398 C194.269775,25.6865234 193.914307,26.6894531 193.285889,27.2353516 L192.536865,26.2387695 L191.064209,26.2387695 L192.276611,27.8701172 C192.01001,27.9526367 191.730713,27.984375 191.445068,27.984375 Z" id="EQ" fill="#FFFFFF" fill-rule="nonzero"></path>
        <path d="M70.4182544,29 L70.4182544,27.762207 L66.1272387,27.762207 L66.1272387,19.840332 L64.7053637,19.840332 L64.7053637,29 L70.4182544,29 Z M71.7748247,31.5009766 C73.1840044,31.5009766 73.837813,30.9741211 74.428145,29.3173828 L77.0052934,22.1064453 L75.5580278,22.1064453 L73.8314653,27.6289062 L73.7235551,27.6289062 L71.990645,22.1064453 L70.5052934,22.1064453 L73.00627,29.019043 L72.9047075,29.3745117 C72.6698442,30.1044922 72.3016801,30.3774414 71.6542192,30.3774414 C71.5272661,30.3774414 71.3177934,30.3710938 71.2098833,30.3520508 L71.2098833,31.4692383 C71.3368364,31.4882812 71.6605669,31.5009766 71.7748247,31.5009766 Z M79.6885239,29 L79.6885239,24.8803711 C79.6885239,23.9091797 80.4185044,23.2426758 81.4531723,23.2426758 C81.6943833,23.2426758 82.1006333,23.2871094 82.2148911,23.3188477 L82.2148911,22.0366211 C82.068895,22.0048828 81.8086411,21.9858398 81.6055161,21.9858398 C80.7041489,21.9858398 79.9360825,22.4746094 79.7393051,23.1538086 L79.6377426,23.1538086 L79.6377426,22.1064453 L78.3237778,22.1064453 L78.3237778,29 L79.6885239,29 Z M84.1554458,20.875 C84.63152,20.875 85.018727,20.487793 85.018727,20.0180664 C85.018727,19.5419922 84.63152,19.1547852 84.1554458,19.1547852 C83.6793716,19.1547852 83.2921645,19.5419922 83.2921645,20.0180664 C83.2921645,20.487793 83.6793716,20.875 84.1554458,20.875 Z M84.834645,29 L84.834645,22.1064453 L83.4762466,22.1064453 L83.4762466,29 L84.834645,29 Z M89.6633833,29.1333008 C91.3709028,29.1333008 92.4373091,28.1748047 92.6150434,26.8164062 L91.2883833,26.8164062 C91.1106489,27.5654297 90.5203169,27.9716797 89.6570356,27.9716797 C88.5208051,27.9716797 87.8162153,27.0512695 87.8162153,25.527832 C87.8162153,24.0361328 88.5144575,23.1347656 89.6570356,23.1347656 C90.5710981,23.1347656 91.1296919,23.6489258 91.2883833,24.3217773 L92.6150434,24.3217773 C92.4373091,22.9824219 91.3899458,21.9731445 89.6570356,21.9731445 C87.6448286,21.9731445 86.4197309,23.3378906 86.4197309,25.527832 C86.4197309,27.762207 87.6511762,29.1333008 89.6633833,29.1333008 Z M96.5931958,29.1333008 C98.2435864,29.1333008 99.4559887,28.2636719 99.4559887,26.9814453 C99.4559887,25.9785156 98.8402661,25.4135742 97.5263012,25.1088867 L96.3773755,24.8422852 C95.628352,24.6645508 95.2792309,24.3979492 95.2792309,23.9726562 C95.2792309,23.4140625 95.8568676,23.0395508 96.6185864,23.0395508 C97.3930005,23.0395508 97.8881176,23.3759766 98.0150708,23.8901367 L99.322688,23.8901367 C99.1893872,22.6967773 98.1737622,21.9731445 96.6185864,21.9731445 C95.057063,21.9731445 93.9335278,22.8364258 93.9335278,24.0361328 C93.9335278,25.0581055 94.5429028,25.6420898 95.8568676,25.9467773 L97.0629223,26.2324219 C97.7548169,26.3974609 98.0785473,26.6767578 98.0785473,27.1083984 C98.0785473,27.6733398 97.47552,28.0668945 96.6249341,28.0668945 C95.7997387,28.0668945 95.2919262,27.7304688 95.1205395,27.190918 L93.7557934,27.190918 C93.8763989,28.390625 94.9491528,29.1333008 96.5931958,29.1333008 Z" id="Lyrics" fill="#FFFFFF" fill-rule="nonzero"></path>
    </g>
</svg>