<svg width="297" height="44" viewBox="0 0 297 44" xmlns="http://www.w3.org/2000/svg" class="u-max-full-width">
    <path d="M23.794 33c6.762 0 11.224-3.956 11.224-9.936 0-3.542-1.38-6.026-4.37-7.682 1.656-1.518 2.53-3.726 2.53-6.256 0-5.014-4.508-8.188-11.684-8.188H.84V33h22.954zM19.24 13.082h-6.9V8.758h7.038c1.426 0 2.208.782 2.208 1.978 0 1.472-.782 2.346-2.346 2.346zm1.702 11.914H12.34v-4.738h8.418c1.84 0 2.76.69 2.76 2.116 0 1.702-.874 2.622-2.576 2.622zM47.438 7.424V.938H37.226v6.486h10.212zM47.116 33V10.322h-9.568V33h9.568zm16.376 10.534c8.602 0 13.708-3.128 13.708-8.096 0-3.45-1.932-5.336-8.786-6.026-9.843-.953-10.651-.832-10.672-1.975v-.187c1.564.368 3.312.552 5.198.552 7.314 0 12.144-2.53 12.144-8.694a8.98 8.98 0 00-.736-3.634l3.174-2.116-4.048-6.026-4.692 3.404c-1.84-.644-3.956-.966-6.256-.966-6.992 0-12.328 2.944-12.328 9.062 0 2.208.69 4.002 1.886 5.382-1.334 1.288-1.978 2.806-1.978 4.554 0 1.748.598 3.128 1.932 4.232l-2.576 1.564c-.092.46-.23 1.15-.23 1.61 0 4.37 5.842 7.36 14.26 7.36zm-.736-21.85c-1.748 0-2.944-1.196-2.944-2.852 0-1.472 1.104-2.53 2.806-2.53 1.84 0 2.99 1.058 2.99 2.53 0 1.656-1.242 2.852-2.852 2.852zm1.104 16.56c-2.346 0-5.428-.552-5.428-2.07 0-.046 0-.092.046-.138l.414-.598 2.438.276c6.072.552 6.302.644 6.302 1.242 0 .736-.92 1.288-3.772 1.288zM117.68 33c6.762 0 11.224-3.956 11.224-9.936 0-3.542-1.38-6.026-4.37-7.682 1.656-1.518 2.53-3.726 2.53-6.256 0-5.014-4.508-8.188-11.684-8.188H94.726V33h22.954zm-4.554-19.918h-6.9V8.758h7.038c1.426 0 2.208.782 2.208 1.978 0 1.472-.782 2.346-2.346 2.346zm1.702 11.914h-8.602v-4.738h8.418c1.84 0 2.76.69 2.76 2.116 0 1.702-.874 2.622-2.576 2.622zm27.094 8.556c2.852 0 5.52-.598 7.682-2.162V33h9.568V10.322h-9.568v9.936c0 3.312-.644 5.98-4.83 5.98-2.622 0-4.14-1.288-4.14-3.496v-12.42h-9.568v14.122c0 5.658 3.956 9.108 10.856 9.108zm35.052 0c2.53 0 4.14-.276 6.118-.782v-6.578c-1.334.322-2.76.506-3.864.506-2.346 0-3.634-.874-3.634-2.99V16.9h7.452v-6.578h-7.452V1.766l-9.476 4.186v4.37h-4.554V16.9h4.554v8.142c0 5.474 3.91 8.51 10.856 8.51zm23.598 0c2.53 0 4.14-.276 6.118-.782v-6.578c-1.334.322-2.76.506-3.864.506-2.346 0-3.634-.874-3.634-2.99V16.9h7.452v-6.578h-7.452V1.766l-9.476 4.186v4.37h-4.554V16.9h4.554v8.142c0 5.474 3.91 8.51 10.856 8.51zm23.23 0c9.062 0 14.812-4.738 14.812-11.914 0-7.222-5.612-11.868-14.812-11.868-9.062 0-14.766 4.692-14.766 11.868s5.75 11.914 14.766 11.914zm0-7.314c-3.266 0-5.244-1.84-5.244-4.6 0-2.806 1.932-4.554 5.244-4.554 3.404 0 5.29 1.748 5.29 4.554s-1.978 4.6-5.29 4.6zM250.758 33V22.788c0-3.634 1.656-5.704 4.922-5.704 2.668 0 4.048 1.426 4.048 4.232V33h9.568V17.544c0-4.646-4.186-7.774-10.58-7.774-3.404 0-6.072.92-7.958 2.806v-2.254h-9.614V33h9.614zm34.638.552c7.406 0 11.868-3.174 11.868-8.418.138-11.5-15.548-5.888-15.548-8.418 0-.644 1.196-.736 2.346-.736 2.852 0 4.968.506 7.82 1.288l4.416-5.198c-4.14-1.61-7.636-2.3-11.592-2.3-7.222 0-11.914 3.128-11.914 8.418 0 10.488 15.042 5.244 15.042 7.958 0 .92-.414 1.104-2.392 1.104-3.128 0-6.072-.736-8.878-2.346l-5.428 4.738c4.6 2.898 8.28 3.91 14.26 3.91z" fill="#CF2684"/>
</svg>
