<svg width="620" height="44" viewBox="0 0 620 44" xmlns="http://www.w3.org/2000/svg" class="u-max-full-width">
    <g fill="none">
        <path d="M27.537 33v-9.384H12.541V.938H1.179V33h26.358zm16.468.552c3.496 0 7.36-.644 11.27-1.886l-3.45-6.394c-2.024.782-5.612 1.426-7.82 1.426-2.76 0-4.508-.69-5.198-1.978h17.756c.138-1.242.184-1.886.184-2.3 0-8.142-5.52-12.65-13.8-12.65-8.372 0-14.26 5.014-14.26 12.006 0 7.084 6.026 11.776 15.318 11.776zm2.806-15.088h-7.958c.552-1.38 2.3-2.438 4.278-2.438 1.702 0 3.358.828 3.68 2.438zm26.864 15.088c2.53 0 4.14-.276 6.118-.782v-6.578c-1.334.322-2.76.506-3.864.506-2.346 0-3.634-.874-3.634-2.99V16.9h7.452v-6.578h-7.452V1.766l-9.476 4.186v4.37h-4.554V16.9h4.554v8.142c0 5.474 3.91 8.51 10.856 8.51zm16.606-16.1V.938h-7.13v16.514h7.13zm16.422 16.1c7.406 0 11.868-3.174 11.868-8.418.138-11.5-15.548-5.888-15.548-8.418 0-.644 1.196-.736 2.346-.736 2.852 0 4.968.506 7.82 1.288l4.416-5.198c-4.14-1.61-7.636-2.3-11.592-2.3-7.222 0-11.914 3.128-11.914 8.418 0 10.488 15.042 5.244 15.042 7.958 0 .92-.414 1.104-2.392 1.104-3.128 0-6.072-.736-8.878-2.346l-5.428 4.738c4.6 2.898 8.28 3.91 14.26 3.91zM156.797 33V10.322h10.58V.938h-32.89v9.384h10.718V33h11.592zm21.482.552c2.898 0 5.658-.69 7.636-2.898l.874 2.346h7.774V19.016c0-6.256-4.324-9.246-13.202-9.246-4.416 0-8.832.598-13.984 3.174l5.152 5.428c2.806-1.518 5.382-2.162 8.096-2.162 2.76 0 3.358 1.058 3.45 2.438h-7.636c-6.072 0-9.43 2.576-9.43 7.084 0 5.06 3.91 7.82 11.27 7.82zm1.84-5.934c-1.426 0-2.668-.46-2.668-1.61 0-.874.828-1.426 2.3-1.426h4.278c-.322 1.472-1.61 3.036-3.91 3.036zm24.886 5.98c1.656 0 3.772-.368 5.152-.828v-7.268c-.506.046-1.196.138-1.61.138-.736 0-1.334-.506-1.334-1.38V.938h-9.568v25.714c0 4.37 2.3 6.946 7.36 6.946zM222.347 33v-6.532l2.576-2.484 6.21 9.016h11.822l-11.178-14.26 10.442-8.418h-13.018l-6.854 6.164V.938h-9.614V33h9.614z" fill="#A8A8A8"/>
        <path d="M280.629 33V10.322h10.58V.938h-32.89v9.384h10.718V33h11.592zm22.448.552c9.062 0 14.812-4.738 14.812-11.914 0-7.222-5.612-11.868-14.812-11.868-9.062 0-14.766 4.692-14.766 11.868s5.75 11.914 14.766 11.914zm0-7.314c-3.266 0-5.244-1.84-5.244-4.6 0-2.806 1.932-4.554 5.244-4.554 3.404 0 5.29 1.748 5.29 4.554s-1.978 4.6-5.29 4.6zm27.876 7.314c2.852 0 5.52-.598 7.682-2.162V33h9.568V10.322h-9.568v9.936c0 3.312-.644 5.98-4.83 5.98-2.622 0-4.14-1.288-4.14-3.496v-12.42h-9.568v14.122c0 5.658 3.956 9.108 10.856 9.108zm34.776 0c6.67 0 11.638-2.53 13.708-7.176l-8.602-3.036c-.552 1.794-2.576 2.898-5.198 2.898-3.036 0-5.336-1.656-5.336-4.508 0-2.852 2.208-4.646 5.382-4.646 2.806 0 4.462 1.38 5.244 2.852l8.786-3.036c-2.668-4.738-6.808-7.13-14.03-7.13-9.2 0-14.904 4.784-14.904 11.96 0 6.9 5.704 11.822 14.95 11.822zM391.765 33V22.788c0-3.634 1.656-5.704 4.922-5.704 2.668 0 4.048 1.426 4.048 4.232V33h9.568V17.544c0-4.646-4.186-7.774-10.58-7.774-3.404 0-6.072.92-7.958 2.806V.938h-9.614V33h9.614zm57.592 0V10.322h10.58V.938h-32.89v9.384h10.718V33h11.592zm21.482.552c2.898 0 5.658-.69 7.636-2.898l.874 2.346h7.774V19.016c0-6.256-4.324-9.246-13.202-9.246-4.416 0-8.832.598-13.984 3.174l5.152 5.428c2.806-1.518 5.382-2.162 8.096-2.162 2.76 0 3.358 1.058 3.45 2.438h-7.636c-6.072 0-9.43 2.576-9.43 7.084 0 5.06 3.91 7.82 11.27 7.82zm1.84-5.934c-1.426 0-2.668-.46-2.668-1.61 0-.874.828-1.426 2.3-1.426h4.278c-.322 1.472-1.61 3.036-3.91 3.036zM500.049 33V22.696c0-2.99 1.334-4.692 4.554-4.692 1.15 0 2.806.414 3.68.92l4.646-7.452c-2.208-1.242-3.91-1.702-6.532-1.702-2.484 0-4.738 1.012-6.256 2.53v-1.978h-9.706V33h9.614zm26.266 10.534c8.602 0 13.708-3.128 13.708-8.096 0-3.45-1.932-5.336-8.786-6.026-9.982-.966-10.672-.828-10.672-2.024v-.138c1.564.368 3.312.552 5.198.552 7.314 0 12.144-2.53 12.144-8.694a8.98 8.98 0 00-.736-3.634l3.174-2.116-4.048-6.026-4.692 3.404c-1.84-.644-3.956-.966-6.256-.966-6.992 0-12.328 2.944-12.328 9.062 0 2.208.69 4.002 1.886 5.382-1.334 1.288-1.978 2.806-1.978 4.554 0 1.748.598 3.128 1.932 4.232l-2.576 1.564c-.092.46-.23 1.15-.23 1.61 0 4.37 5.842 7.36 14.26 7.36zm-.736-21.85c-1.748 0-2.944-1.196-2.944-2.852 0-1.472 1.104-2.53 2.806-2.53 1.84 0 2.99 1.058 2.99 2.53 0 1.656-1.242 2.852-2.852 2.852zm1.104 16.56c-2.346 0-5.428-.552-5.428-2.07 0-.046 0-.092.046-.138l.414-.598 2.438.276c6.072.552 6.302.644 6.302 1.242 0 .736-.92 1.288-3.772 1.288zm29.532-4.692c3.496 0 7.36-.644 11.27-1.886l-3.45-6.394c-2.024.782-5.612 1.426-7.82 1.426-2.76 0-4.508-.69-5.198-1.978h17.756c.138-1.242.184-1.886.184-2.3 0-8.142-5.52-12.65-13.8-12.65-8.372 0-14.26 5.014-14.26 12.006 0 7.084 6.026 11.776 15.318 11.776zm2.806-15.088h-7.958c.552-1.38 2.3-2.438 4.278-2.438 1.702 0 3.358.828 3.68 2.438zm26.864 15.088c2.53 0 4.14-.276 6.118-.782v-6.578c-1.334.322-2.76.506-3.864.506-2.346 0-3.634-.874-3.634-2.99V16.9h7.452v-6.578h-7.452V1.766l-9.476 4.186v4.37h-4.554V16.9h4.554v8.142c0 5.474 3.91 8.51 10.856 8.51zm22.126 0c7.406 0 11.868-3.174 11.868-8.418.138-11.5-15.548-5.888-15.548-8.418 0-.644 1.196-.736 2.346-.736 2.852 0 4.968.506 7.82 1.288l4.416-5.198c-4.14-1.61-7.636-2.3-11.592-2.3-7.222 0-11.914 3.128-11.914 8.418 0 10.488 15.042 5.244 15.042 7.958 0 .92-.414 1.104-2.392 1.104-3.128 0-6.072-.736-8.878-2.346l-5.428 4.738c4.6 2.898 8.28 3.91 14.26 3.91z" fill="#15BF5F"/>
    </g>
</svg>
