<svg width="232" height="35" viewBox="0 0 232 35" xmlns="http://www.w3.org/2000/svg" class="u-max-full-width">
    <path d="M21.257 35.012c4.508 0 8.096-.828 10.488-2.806L32.251 34h8.188V15.646H21.855v7.544h7.038c-.276 1.564-1.61 3.22-6.808 3.22-6.486 0-9.798-2.99-9.798-8.372 0-5.106 2.576-8.51 9.108-8.51 4.6 0 6.9 1.564 8.372 4.738l10.718-3.312C37.311 4.376 29.997.926 21.487.926 9.113.926.879 7.964.879 18.406c0 9.292 7.498 16.606 20.378 16.606zm36.616-.46c3.496 0 7.36-.644 11.27-1.886l-3.45-6.394c-2.024.782-5.612 1.426-7.82 1.426-2.76 0-4.508-.69-5.198-1.978h17.756c.138-1.242.184-1.886.184-2.3 0-8.142-5.52-12.65-13.8-12.65-8.372 0-14.26 5.014-14.26 12.006 0 7.084 6.026 11.776 15.318 11.776zm2.806-15.088h-7.958c.552-1.38 2.3-2.438 4.278-2.438 1.702 0 3.358.828 3.68 2.438zm24.886 15.088c7.406 0 11.868-3.174 11.868-8.418.138-11.5-15.548-5.888-15.548-8.418 0-.644 1.196-.736 2.346-.736 2.852 0 4.968.506 7.82 1.288l4.416-5.198c-4.14-1.61-7.636-2.3-11.592-2.3-7.222 0-11.914 3.128-11.914 8.418 0 10.488 15.042 5.244 15.042 7.958 0 .92-.414 1.104-2.392 1.104-3.128 0-6.072-.736-8.878-2.346l-5.428 4.738c4.6 2.898 8.28 3.91 14.26 3.91zm28.612 0c2.53 0 4.14-.276 6.118-.782v-6.578c-1.334.322-2.76.506-3.864.506-2.346 0-3.634-.874-3.634-2.99V17.9h7.452v-6.578h-7.452V2.766l-9.476 4.186v4.37h-4.554V17.9h4.554v8.142c0 5.474 3.91 8.51 10.856 8.51zm19.918 0c2.852 0 5.52-.598 7.682-2.162V34h9.568V11.322h-9.568v9.936c0 3.312-.644 5.98-4.83 5.98-2.622 0-4.14-1.288-4.14-3.496v-12.42h-9.568v14.122c0 5.658 3.956 9.108 10.856 9.108zM164.547 34V23.696c0-2.99 1.334-4.692 4.554-4.692 1.15 0 2.806.414 3.68.92l4.646-7.452c-2.208-1.242-3.91-1.702-6.532-1.702-2.484 0-4.738 1.012-6.256 2.53v-1.978h-9.706V34h9.614zm27.738.552c3.496 0 7.36-.644 11.27-1.886l-3.45-6.394c-2.024.782-5.612 1.426-7.82 1.426-2.76 0-4.508-.69-5.198-1.978h17.756c.138-1.242.184-1.886.184-2.3 0-8.142-5.52-12.65-13.8-12.65-8.372 0-14.26 5.014-14.26 12.006 0 7.084 6.026 11.776 15.318 11.776zm2.806-15.088h-7.958c.552-1.38 2.3-2.438 4.278-2.438 1.702 0 3.358.828 3.68 2.438zm24.886 15.088c7.406 0 11.868-3.174 11.868-8.418.138-11.5-15.548-5.888-15.548-8.418 0-.644 1.196-.736 2.346-.736 2.852 0 4.968.506 7.82 1.288l4.416-5.198c-4.14-1.61-7.636-2.3-11.592-2.3-7.222 0-11.914 3.128-11.914 8.418 0 10.488 15.042 5.244 15.042 7.958 0 .92-.414 1.104-2.392 1.104-3.128 0-6.072-.736-8.878-2.346l-5.428 4.738c4.6 2.898 8.28 3.91 14.26 3.91z" fill="#FBC40F"/>
</svg>
