<svg width="301" height="88" viewBox="0 0 301 88" xmlns="http://www.w3.org/2000/svg">
    <title>
        _text-intelligently-designed
    </title>
    <path d="M12.294 33V.938H.794V33h11.5zm13.248 0V22.788c0-3.634 1.656-5.704 4.922-5.704 2.668 0 4.048 1.426 4.048 4.232V33h9.568V17.544c0-4.646-4.186-7.774-10.58-7.774-3.404 0-6.072.92-7.958 2.806v-2.254h-9.614V33h9.614zm36.11.552c2.53 0 4.14-.276 6.118-.782v-6.578c-1.334.322-2.76.506-3.864.506-2.346 0-3.634-.874-3.634-2.99V16.9h7.452v-6.578h-7.452V1.766l-9.476 4.186v4.37h-4.554V16.9h4.554v8.142c0 5.474 3.91 8.51 10.856 8.51zm23.782 0c3.496 0 7.36-.644 11.27-1.886l-3.45-6.394c-2.024.782-5.612 1.426-7.82 1.426-2.76 0-4.508-.69-5.198-1.978h17.756c.138-1.242.184-1.886.184-2.3 0-8.142-5.52-12.65-13.8-12.65-8.372 0-14.26 5.014-14.26 12.006 0 7.084 6.026 11.776 15.318 11.776zm2.806-15.088h-7.958c.552-1.38 2.3-2.438 4.278-2.438 1.702 0 3.358.828 3.68 2.438zm19.734 15.134c1.656 0 3.772-.368 5.152-.828v-7.268c-.506.046-1.196.138-1.61.138-.736 0-1.334-.506-1.334-1.38V.938h-9.568v25.714c0 4.37 2.3 6.946 7.36 6.946zm14.858 0c1.656 0 3.772-.368 5.152-.828v-7.268c-.506.046-1.196.138-1.61.138-.736 0-1.334-.506-1.334-1.38V.938h-9.568v25.714c0 4.37 2.3 6.946 7.36 6.946zm17.664-26.174V.938h-10.212v6.486h10.212zM140.174 33V10.322h-9.568V33h9.568zm16.376 10.534c8.602 0 13.708-3.128 13.708-8.096 0-3.45-1.932-5.336-8.786-6.026-9.843-.953-10.651-.832-10.672-1.975v-.187c1.564.368 3.312.552 5.198.552 7.314 0 12.144-2.53 12.144-8.694a8.98 8.98 0 00-.736-3.634l3.174-2.116-4.048-6.026-4.692 3.404c-1.84-.644-3.956-.966-6.256-.966-6.992 0-12.328 2.944-12.328 9.062 0 2.208.69 4.002 1.886 5.382-1.334 1.288-1.978 2.806-1.978 4.554 0 1.748.598 3.128 1.932 4.232l-2.576 1.564c-.092.46-.23 1.15-.23 1.61 0 4.37 5.842 7.36 14.26 7.36zm-.736-21.85c-1.748 0-2.944-1.196-2.944-2.852 0-1.472 1.104-2.53 2.806-2.53 1.84 0 2.99 1.058 2.99 2.53 0 1.656-1.242 2.852-2.852 2.852zm1.104 16.56c-2.346 0-5.428-.552-5.428-2.07 0-.046 0-.092.046-.138l.414-.598 2.438.276c6.072.552 6.302.644 6.302 1.242 0 .736-.92 1.288-3.772 1.288zm29.532-4.692c3.496 0 7.36-.644 11.27-1.886l-3.45-6.394c-2.024.782-5.612 1.426-7.82 1.426-2.76 0-4.508-.69-5.198-1.978h17.756c.138-1.242.184-1.886.184-2.3 0-8.142-5.52-12.65-13.8-12.65-8.372 0-14.26 5.014-14.26 12.006 0 7.084 6.026 11.776 15.318 11.776zm2.806-15.088h-7.958c.552-1.38 2.3-2.438 4.278-2.438 1.702 0 3.358.828 3.68 2.438zM211.474 33V22.788c0-3.634 1.656-5.704 4.922-5.704 2.668 0 4.048 1.426 4.048 4.232V33h9.568V17.544c0-4.646-4.186-7.774-10.58-7.774-3.404 0-6.072.92-7.958 2.806v-2.254h-9.614V33h9.614zm36.11.552c2.53 0 4.14-.276 6.118-.782v-6.578c-1.334.322-2.76.506-3.864.506-2.346 0-3.634-.874-3.634-2.99V16.9h7.452v-6.578h-7.452V1.766l-9.476 4.186v4.37h-4.554V16.9h4.554v8.142c0 5.474 3.91 8.51 10.856 8.51zm16.514.046c1.656 0 3.772-.368 5.152-.828v-7.268c-.506.046-1.196.138-1.61.138-.736 0-1.334-.506-1.334-1.38V.938h-9.568v25.714c0 4.37 2.3 6.946 7.36 6.946zm19.412 8.786l16.744-32.062h-11.178l-5.428 12.512-4.278-12.512h-11.132l10.304 21.712-5.382 10.35h10.35zM18.596 77C30.28 77 36.72 71.434 36.72 61.222c0-10.396-6.716-16.284-17.986-16.284H.794V77h17.802zm-2.208-9.292h-4.094V54.23h5.3c2.398.002 7.58.181 7.58 6.67 0 7.682-7.038 6.808-8.786 6.808zm37.03 9.844c3.496 0 7.36-.644 11.27-1.886l-3.45-6.394c-2.024.782-5.612 1.426-7.82 1.426-2.76 0-4.508-.69-5.198-1.978h17.756c.138-1.242.184-1.886.184-2.3 0-8.142-5.52-12.65-13.8-12.65-8.372 0-14.26 5.014-14.26 12.006 0 7.084 6.026 11.776 15.318 11.776zm2.806-15.088h-7.958c.552-1.38 2.3-2.438 4.278-2.438 1.702 0 3.358.828 3.68 2.438zM81.11 77.552c7.406 0 11.868-3.174 11.868-8.418.138-11.5-15.548-5.888-15.548-8.418 0-.644 1.196-.736 2.346-.736 2.852 0 4.968.506 7.82 1.288l4.416-5.198c-4.14-1.61-7.636-2.3-11.592-2.3-7.222 0-11.914 3.128-11.914 8.418 0 10.488 15.042 5.244 15.042 7.958 0 .92-.414 1.104-2.392 1.104-3.128 0-6.072-.736-8.878-2.346l-5.428 4.738c4.6 2.898 8.28 3.91 14.26 3.91zm24.334-26.128v-6.486H95.232v6.486h10.212zM105.122 77V54.322h-9.568V77h9.568zm16.376 10.534c8.602 0 13.708-3.128 13.708-8.096 0-3.45-1.932-5.336-8.786-6.026-9.982-.966-10.672-.828-10.672-2.024v-.138c1.564.368 3.312.552 5.198.552 7.314 0 12.144-2.53 12.144-8.694a8.98 8.98 0 00-.736-3.634l3.174-2.116-4.048-6.026-4.692 3.404c-1.84-.644-3.956-.966-6.256-.966-6.992 0-12.328 2.944-12.328 9.062 0 2.208.69 4.002 1.886 5.382-1.334 1.288-1.978 2.806-1.978 4.554 0 1.748.598 3.128 1.932 4.232l-2.576 1.564c-.092.46-.23 1.15-.23 1.61 0 4.37 5.842 7.36 14.26 7.36zm-.736-21.85c-1.748 0-2.944-1.196-2.944-2.852 0-1.472 1.104-2.53 2.806-2.53 1.84 0 2.99 1.058 2.99 2.53 0 1.656-1.242 2.852-2.852 2.852zm1.104 16.56c-2.346 0-5.428-.552-5.428-2.07 0-.046 0-.092.046-.138l.414-.598 2.438.276c6.072.552 6.302.644 6.302 1.242 0 .736-.92 1.288-3.772 1.288zM147.35 77V66.788c0-3.634 1.656-5.704 4.922-5.704 2.668 0 4.048 1.426 4.048 4.232V77h9.568V61.544c0-4.646-4.186-7.774-10.58-7.774-3.404 0-6.072.92-7.958 2.806v-2.254h-9.614V77h9.614zm36.202.552c3.496 0 7.36-.644 11.27-1.886l-3.45-6.394c-2.024.782-5.612 1.426-7.82 1.426-2.76 0-4.508-.69-5.198-1.978h17.756c.138-1.242.184-1.886.184-2.3 0-8.142-5.52-12.65-13.8-12.65-8.372 0-14.26 5.014-14.26 12.006 0 7.084 6.026 11.776 15.318 11.776zm2.806-15.088H178.4c.552-1.38 2.3-2.438 4.278-2.438 1.702 0 3.358.828 3.68 2.438zm25.346 15.088c2.346 0 4.508-.644 6.348-1.886V77h9.568V44.938h-9.568v11.316c-1.38-1.38-4.37-2.484-6.808-2.484-8.004 0-13.248 4.738-13.248 11.776 0 7.268 5.29 12.006 13.708 12.006zm1.058-7.314c-3.128 0-5.198-1.932-5.198-4.646s2.07-4.646 5.198-4.646c3.174 0 5.29 1.886 5.29 4.646s-2.116 4.646-5.29 4.646z" fill="#BE1473" fill-rule="nonzero"/>
</svg>
