<svg width="257" height="43" viewBox="0 0 257 43" xmlns="http://www.w3.org/2000/svg">
    <path d="M22.54 33V10.322h10.58V.938H.23v9.384h10.718V33H22.54zM45.08 7.424V.938H34.868v6.486H45.08zM44.758 33V10.322H35.19V33h9.568zm13.202 0V22.788c0-3.634 1.656-5.704 4.922-5.704 2.668 0 4.048 1.426 4.048 4.232V33h9.568V17.544c0-4.646-4.186-7.774-10.58-7.774-3.404 0-6.072.92-7.958 2.806v-2.254h-9.614V33h9.614zm34.086 9.384l16.744-32.062H97.612l-5.428 12.512-4.278-12.512H76.774l10.304 21.712-5.382 10.35h10.35zM136.85 33V21.914h12.144V33h11.408V.938h-11.408v10.856H136.85V.938h-11.362V33h11.362zm37.076-25.576V.938h-10.212v6.486h10.212zM173.604 33V10.322h-9.568V33h9.568zm13.202 0V22.788c0-3.634 1.656-5.704 4.922-5.704 2.668 0 4.048 1.426 4.048 4.232V33h9.568V17.544c0-4.646-4.186-7.774-10.58-7.774-3.404 0-6.072.92-7.958 2.806v-2.254h-9.614V33h9.614zm36.11.552c2.53 0 4.14-.276 6.118-.782v-6.578c-1.334.322-2.76.506-3.864.506-2.346 0-3.634-.874-3.634-2.99V16.9h7.452v-6.578h-7.452V1.766l-9.476 4.186v4.37h-4.554V16.9h4.554v8.142c0 5.474 3.91 8.51 10.856 8.51zm22.126 0c7.406 0 11.868-3.174 11.868-8.418.138-11.5-15.548-5.888-15.548-8.418 0-.644 1.196-.736 2.346-.736 2.852 0 4.968.506 7.82 1.288l4.416-5.198c-4.14-1.61-7.636-2.3-11.592-2.3-7.222 0-11.914 3.128-11.914 8.418 0 10.488 15.042 5.244 15.042 7.958 0 .92-.414 1.104-2.392 1.104-3.128 0-6.072-.736-8.878-2.346l-5.428 4.738c4.6 2.898 8.28 3.91 14.26 3.91z" fill="#1C1C1E"/>
</svg>
