<svg width="204" height="82" viewBox="0 0 204 82" xmlns="http://www.w3.org/2000/svg">
    <path d="M23.794 37c6.762 0 11.224-3.956 11.224-9.936 0-3.542-1.38-6.026-4.37-7.682 1.656-1.518 2.53-3.726 2.53-6.256 0-5.014-4.508-8.188-11.684-8.188H.84V37h22.954zM19.24 17.082h-6.9v-4.324h7.038c1.426 0 2.208.782 2.208 1.978 0 1.472-.782 2.346-2.346 2.346zm1.702 11.914H12.34v-4.738h8.418c1.84 0 2.76.69 2.76 2.116 0 1.702-.874 2.622-2.576 2.622zm26.496-17.572V4.938H37.226v6.486h10.212zM47.116 37V14.322h-9.568V37h9.568zm16.376 10.534c8.602 0 13.708-3.128 13.708-8.096 0-3.45-1.932-5.336-8.786-6.026-9.843-.953-10.651-.832-10.672-1.975v-.187c1.564.368 3.312.552 5.198.552 7.314 0 12.144-2.53 12.144-8.694a8.98 8.98 0 00-.736-3.634l3.174-2.116-4.048-6.026-4.692 3.404c-1.84-.644-3.956-.966-6.256-.966-6.992 0-12.328 2.944-12.328 9.062 0 2.208.69 4.002 1.886 5.382-1.334 1.288-1.978 2.806-1.978 4.554 0 1.748.598 3.128 1.932 4.232l-2.576 1.564c-.092.46-.23 1.15-.23 1.61 0 4.37 5.842 7.36 14.26 7.36zm-.736-21.85c-1.748 0-2.944-1.196-2.944-2.852 0-1.472 1.104-2.53 2.806-2.53 1.84 0 2.99 1.058 2.99 2.53 0 1.656-1.242 2.852-2.852 2.852zm1.104 16.56c-2.346 0-5.428-.552-5.428-2.07 0-.046 0-.092.046-.138l.414-.598 2.438.276c6.072.552 6.302.644 6.302 1.242 0 .736-.92 1.288-3.772 1.288zm28.06-.552c-4.692-5.888-6.624-11.684-6.624-20.608 0-9.016 2.116-14.858 6.624-20.608h-7.59c-2.944 3.082-5.704 9.384-5.704 20.608 0 11.362 2.622 17.434 5.75 20.608h7.544zm14.168 5.842c8.602 0 13.708-3.128 13.708-8.096 0-3.45-1.932-5.336-8.786-6.026-9.843-.953-10.651-.832-10.672-1.975v-.187c1.564.368 3.312.552 5.198.552 7.314 0 12.144-2.53 12.144-8.694a8.98 8.98 0 00-.736-3.634l3.174-2.116-4.048-6.026-4.692 3.404c-1.84-.644-3.956-.966-6.256-.966-6.992 0-12.328 2.944-12.328 9.062 0 2.208.69 4.002 1.886 5.382-1.334 1.288-1.978 2.806-1.978 4.554 0 1.748.598 3.128 1.932 4.232l-2.576 1.564c-.092.46-.23 1.15-.23 1.61 0 4.37 5.842 7.36 14.26 7.36zm-.736-21.85c-1.748 0-2.944-1.196-2.944-2.852 0-1.472 1.104-2.53 2.806-2.53 1.84 0 2.99 1.058 2.99 2.53 0 1.656-1.242 2.852-2.852 2.852zm1.104 16.56c-2.346 0-5.428-.552-5.428-2.07 0-.046 0-.092.046-.138l.414-.598 2.438.276c6.072.552 6.302.644 6.302 1.242 0 .736-.92 1.288-3.772 1.288zm29.532-4.692c3.496 0 7.36-.644 11.27-1.886l-3.45-6.394c-2.024.782-5.612 1.426-7.82 1.426-2.76 0-4.508-.69-5.198-1.978h17.756c.138-1.242.184-1.886.184-2.3 0-8.142-5.52-12.65-13.8-12.65-8.372 0-14.26 5.014-14.26 12.006 0 7.084 6.026 11.776 15.318 11.776zm2.806-15.088h-7.958c.552-1.38 2.3-2.438 4.278-2.438 1.702 0 3.358.828 3.68 2.438zM161.012 37V26.696c0-2.99 1.334-4.692 4.554-4.692 1.15 0 2.806.414 3.68.92l4.646-7.452c-2.208-1.242-3.91-1.702-6.532-1.702-2.484 0-4.738 1.012-6.256 2.53v-1.978h-9.706V37h9.614zm20.194 4.692c3.128-3.174 5.796-9.246 5.796-20.608 0-11.224-2.76-17.526-5.75-20.608h-7.59c4.554 5.75 6.624 11.592 6.624 20.608 0 8.924-1.932 14.72-6.624 20.608h7.544zM23.794 81c6.762 0 11.224-3.956 11.224-9.936 0-3.542-1.38-6.026-4.37-7.682 1.656-1.518 2.53-3.726 2.53-6.256 0-5.014-4.508-8.188-11.684-8.188H.84V81h22.954zM19.24 61.082h-6.9v-4.324h7.038c1.426 0 2.208.782 2.208 1.978 0 1.472-.782 2.346-2.346 2.346zm1.702 11.914H12.34v-4.738h8.418c1.84 0 2.76.69 2.76 2.116 0 1.702-.874 2.622-2.576 2.622zm27.094 8.556c2.852 0 5.52-.598 7.682-2.162V81h9.568V58.322h-9.568v9.936c0 3.312-.644 5.98-4.83 5.98-2.622 0-4.14-1.288-4.14-3.496v-12.42H37.18v14.122c0 5.658 3.956 9.108 10.856 9.108zm35.052 0c2.53 0 4.14-.276 6.118-.782v-6.578c-1.334.322-2.76.506-3.864.506-2.346 0-3.634-.874-3.634-2.99V64.9h7.452v-6.578h-7.452v-8.556l-9.476 4.186v4.37h-4.554V64.9h4.554v8.142c0 5.474 3.91 8.51 10.856 8.51zm23.598 0c2.53 0 4.14-.276 6.118-.782v-6.578c-1.334.322-2.76.506-3.864.506-2.346 0-3.634-.874-3.634-2.99V64.9h7.452v-6.578h-7.452v-8.556l-9.476 4.186v4.37h-4.554V64.9h4.554v8.142c0 5.474 3.91 8.51 10.856 8.51zm23.23 0c9.062 0 14.812-4.738 14.812-11.914 0-7.222-5.612-11.868-14.812-11.868-9.062 0-14.766 4.692-14.766 11.868s5.75 11.914 14.766 11.914zm0-7.314c-3.266 0-5.244-1.84-5.244-4.6 0-2.806 1.932-4.554 5.244-4.554 3.404 0 5.29 1.748 5.29 4.554s-1.978 4.6-5.29 4.6zM156.872 81V70.788c0-3.634 1.656-5.704 4.922-5.704 2.668 0 4.048 1.426 4.048 4.232V81h9.568V65.544c0-4.646-4.186-7.774-10.58-7.774-3.404 0-6.072.92-7.958 2.806v-2.254h-9.614V81h9.614zm34.638.552c7.406 0 11.868-3.174 11.868-8.418.138-11.5-15.548-5.888-15.548-8.418 0-.644 1.196-.736 2.346-.736 2.852 0 4.968.506 7.82 1.288l4.416-5.198c-4.14-1.61-7.636-2.3-11.592-2.3-7.222 0-11.914 3.128-11.914 8.418 0 10.488 15.042 5.244 15.042 7.958 0 .92-.414 1.104-2.392 1.104-3.128 0-6.072-.736-8.878-2.346l-5.428 4.738c4.6 2.898 8.28 3.91 14.26 3.91z" fill="#C63D43" fill-rule="nonzero"/>
</svg>
