<svg width="168" height="79" viewBox="0 0 168 79" xmlns="http://www.w3.org/2000/svg">
    <path d="M20.188 35.012c10.948 0 15.364-4.646 15.364-11.454 0-8.51-9.2-9.936-15.456-10.856-4.646-.69-5.75-1.426-5.75-2.438 0-.92 1.104-1.38 3.128-1.38 3.174 0 6.9 1.564 9.108 4.002l7.59-6.026C29.894 2.858 24.328.926 17.658.926 9.884.926 2.8 4.33 2.8 11.552c0 5.658 4.048 8.97 14.628 10.534 6.21.92 6.578 1.564 6.578 2.76 0 1.564-2.208 1.932-4.232 1.932-2.76 0-7.038-1.15-8.28-4.876l-10.856 2.3c1.886 6.256 8.05 10.81 19.55 10.81zm28.382-.46c2.852 0 5.52-.598 7.682-2.162V34h9.568V11.322h-9.568v9.936c0 3.312-.644 5.98-4.83 5.98-2.622 0-4.14-1.288-4.14-3.496v-12.42h-9.568v14.122c0 5.658 3.956 9.108 10.856 9.108zm36.754 0c8.464 0 13.754-4.738 13.754-12.006 0-7.038-5.198-11.776-13.294-11.776-2.392 0-5.336 1.058-6.762 2.392V1.938h-9.614V34h9.614v-1.334c1.84 1.242 3.956 1.886 6.302 1.886zm-1.058-7.314c-3.174 0-5.244-1.886-5.244-4.646s2.07-4.646 5.244-4.646c3.128 0 5.244 1.932 5.244 4.646s-2.116 4.646-5.244 4.646zm31.832 7.314c2.53 0 4.14-.276 6.118-.782v-6.578c-1.334.322-2.76.506-3.864.506-2.346 0-3.634-.874-3.634-2.99V17.9h7.452v-6.578h-7.452V2.766l-9.476 4.186v4.37h-4.554V17.9h4.554v8.142c0 5.474 3.91 8.51 10.856 8.51zm16.514.046c1.656 0 3.772-.368 5.152-.828v-7.268c-.506.046-1.196.138-1.61.138-.736 0-1.334-.506-1.334-1.38V1.938h-9.568v25.714c0 4.37 2.3 6.946 7.36 6.946zm22.126-.046c3.496 0 7.36-.644 11.27-1.886l-3.45-6.394c-2.024.782-5.612 1.426-7.82 1.426-2.76 0-4.508-.69-5.198-1.978h17.756c.138-1.242.184-1.886.184-2.3 0-8.142-5.52-12.65-13.8-12.65-8.372 0-14.26 5.014-14.26 12.006 0 7.084 6.026 11.776 15.318 11.776zm2.806-15.088h-7.958c.552-1.38 2.3-2.438 4.278-2.438 1.702 0 3.358.828 3.68 2.438zM13.656 78V66.914H25.8V78h11.408V45.938H25.8v10.856H13.656V45.938H2.294V78h11.362zm37.076-25.576v-6.486H40.52v6.486h10.212zM50.41 78V55.322h-9.568V78h9.568zm13.202 0V67.788c0-3.634 1.656-5.704 4.922-5.704 2.668 0 4.048 1.426 4.048 4.232V78h9.568V62.544c0-4.646-4.186-7.774-10.58-7.774-3.404 0-6.072.92-7.958 2.806v-2.254h-9.614V78h9.614zm36.11.552c2.53 0 4.14-.276 6.118-.782v-6.578c-1.334.322-2.76.506-3.864.506-2.346 0-3.634-.874-3.634-2.99V61.9h7.452v-6.578h-7.452v-8.556l-9.476 4.186v4.37h-4.554V61.9h4.554v8.142c0 5.474 3.91 8.51 10.856 8.51zm22.126 0c7.406 0 11.868-3.174 11.868-8.418.138-11.5-15.548-5.888-15.548-8.418 0-.644 1.196-.736 2.346-.736 2.852 0 4.968.506 7.82 1.288l4.416-5.198c-4.14-1.61-7.636-2.3-11.592-2.3-7.222 0-11.914 3.128-11.914 8.418 0 10.488 15.042 5.244 15.042 7.958 0 .92-.414 1.104-2.392 1.104-3.128 0-6.072-.736-8.878-2.346l-5.428 4.738c4.6 2.898 8.28 3.91 14.26 3.91z" fill="#F5F5F7"/>
</svg>
