<svg viewBox="0 0 241 79" xmlns="http://www.w3.org/2000/svg">
    <path d="M19.688 35.012c10.948 0 15.364-4.646 15.364-11.454 0-8.51-9.2-9.936-15.456-10.856-4.646-.69-5.75-1.426-5.75-2.438 0-.92 1.104-1.38 3.128-1.38 3.174 0 6.9 1.564 9.108 4.002l7.59-6.026C29.394 2.858 23.828.926 17.158.926 9.384.926 2.3 4.33 2.3 11.552c0 5.658 4.048 8.97 14.628 10.534 6.21.92 6.578 1.564 6.578 2.76 0 1.564-2.208 1.932-4.232 1.932-2.76 0-7.038-1.15-8.28-4.876l-10.856 2.3c1.886 6.256 8.05 10.81 19.55 10.81zm28.382-.46c2.852 0 5.52-.598 7.682-2.162V34h9.568V11.322h-9.568v9.936c0 3.312-.644 5.98-4.83 5.98-2.622 0-4.14-1.288-4.14-3.496v-12.42h-9.568v14.122c0 5.658 3.956 9.108 10.856 9.108zm30.452 8.832V32.16c1.426 1.334 4.37 2.392 6.762 2.392 8.096 0 13.294-4.738 13.294-11.776 0-7.268-5.29-12.006-13.754-12.006-2.346 0-4.462.644-6.302 1.886v-1.334h-9.614v32.062h9.614zm5.244-16.008c-3.174 0-5.244-1.886-5.244-4.646s2.07-4.646 5.244-4.646c3.128 0 5.244 1.932 5.244 4.646s-2.116 4.646-5.244 4.646zm31.786 7.176c3.496 0 7.36-.644 11.27-1.886l-3.45-6.394c-2.024.782-5.612 1.426-7.82 1.426-2.76 0-4.508-.69-5.198-1.978h17.756c.138-1.242.184-1.886.184-2.3 0-8.142-5.52-12.65-13.8-12.65-8.372 0-14.26 5.014-14.26 12.006 0 7.084 6.026 11.776 15.318 11.776zm2.806-15.088H110.4c.552-1.38 2.3-2.438 4.278-2.438 1.702 0 3.358.828 3.68 2.438zM140.576 34V23.696c0-2.99 1.334-4.692 4.554-4.692 1.15 0 2.806.414 3.68.92l4.646-7.452c-2.208-1.242-3.91-1.702-6.532-1.702-2.484 0-4.738 1.012-6.256 2.53v-1.978h-9.706V34h9.614zM19.688 79.012c10.948 0 15.364-4.646 15.364-11.454 0-8.51-9.2-9.936-15.456-10.856-4.646-.69-5.75-1.426-5.75-2.438 0-.92 1.104-1.38 3.128-1.38 3.174 0 6.9 1.564 9.108 4.002l7.59-6.026c-4.278-4.002-9.844-5.934-16.514-5.934C9.384 44.926 2.3 48.33 2.3 55.552c0 5.658 4.048 8.97 14.628 10.534 6.21.92 6.578 1.564 6.578 2.76 0 1.564-2.208 1.932-4.232 1.932-2.76 0-7.038-1.15-8.28-4.876l-10.856 2.3c1.886 6.256 8.05 10.81 19.55 10.81zm31.786-.46c6.67 0 11.638-2.53 13.708-7.176L56.58 68.34c-.552 1.794-2.576 2.898-5.198 2.898-3.036 0-5.336-1.656-5.336-4.508 0-2.852 2.208-4.646 5.382-4.646 2.806 0 4.462 1.38 5.244 2.852l8.786-3.036c-2.668-4.738-6.808-7.13-14.03-7.13-9.2 0-14.904 4.784-14.904 11.96 0 6.9 5.704 11.822 14.95 11.822zM77.51 78V67.696c0-2.99 1.334-4.692 4.554-4.692 1.15 0 2.806.414 3.68.92l4.646-7.452c-2.208-1.242-3.91-1.702-6.532-1.702-2.484 0-4.738 1.012-6.256 2.53v-1.978h-9.706V78h9.614zm25.392.552c2.852 0 5.52-.598 7.682-2.162V78h9.568V55.322h-9.568v9.936c0 3.312-.644 5.98-4.83 5.98-2.622 0-4.14-1.288-4.14-3.496v-12.42h-9.568v14.122c0 5.658 3.956 9.108 10.856 9.108zm36.754 0c8.464 0 13.754-4.738 13.754-12.006 0-7.038-5.198-11.776-13.294-11.776-2.392 0-5.336 1.058-6.762 2.392V45.938h-9.614V78h9.614v-1.334c1.84 1.242 3.956 1.886 6.302 1.886zm-1.058-7.314c-3.174 0-5.244-1.886-5.244-4.646s2.07-4.646 5.244-4.646c3.128 0 5.244 1.932 5.244 4.646s-2.116 4.646-5.244 4.646zm33.396 7.314c8.464 0 13.754-4.738 13.754-12.006 0-7.038-5.198-11.776-13.294-11.776-2.392 0-5.336 1.058-6.762 2.392V45.938h-9.614V78h9.614v-1.334c1.84 1.242 3.956 1.886 6.302 1.886zm-1.058-7.314c-3.174 0-5.244-1.886-5.244-4.646s2.07-4.646 5.244-4.646c3.128 0 5.244 1.932 5.244 4.646s-2.116 4.646-5.244 4.646zm31.786 7.314c3.496 0 7.36-.644 11.27-1.886l-3.45-6.394c-2.024.782-5.612 1.426-7.82 1.426-2.76 0-4.508-.69-5.198-1.978h17.756c.138-1.242.184-1.886.184-2.3 0-8.142-5.52-12.65-13.8-12.65-8.372 0-14.26 5.014-14.26 12.006 0 7.084 6.026 11.776 15.318 11.776zm2.806-15.088h-7.958c.552-1.38 2.3-2.438 4.278-2.438 1.702 0 3.358.828 3.68 2.438zM227.746 78V67.696c0-2.99 1.334-4.692 4.554-4.692 1.15 0 2.806.414 3.68.92l4.646-7.452c-2.208-1.242-3.91-1.702-6.532-1.702-2.484 0-4.738 1.012-6.256 2.53v-1.978h-9.706V78h9.614z" fill="#1C1C1E" fill-rule="nonzero"/>
</svg>
