<svg viewBox="0 0 1406 881" xmlns="http://www.w3.org/2000/svg" class="u-max-full-width">
    <g fill="none" fill-rule="evenodd">
        <path d="M1328.966 9C1377.887 9 1404 35.093 1404 84.006v123.25c-.246.261-.463.709-.63 1.286l.616.144c1.738.382 2.014.246 2.014.246v97.326l-.06.08c-.208.254-.958 1.032-2.524 1.268.16.505.36.9.584 1.138v488.25c0 48.902-26.11 75.006-75.034 75.006H1216.13c-1.046-.556-2.936-.943-5.13-.994l-40.5-.006c-2.405 0-4.506.402-5.63 1h-112.836C1003.11 872 977 845.902 977 797V329.859c.189-.114.36-.3.505-.566l-.52-.18c-.905-.323-1.536-.588-1.894-.797l-.091-.055v-60.327c.943-.241 1.826-.42 2.648-.534l.02.027c-.172-.452-.403-.703-.667-.828v-15.74c.189-.115.36-.302.506-.57-1.449-.267-2.274-.588-2.476-.96l-.031-.07v-60.327a20.343 20.343 0 012.261-.584l.348-.063c-.164-.363-.373-.575-.608-.686v-28.058c.133-.286.241-.694.331-1.192l-2.334-.002-.998-1.089v-30.326l.934-.932h2.244a3.9 3.9 0 00-.177-.493L977 84.006C977 35.093 1003.113 9 1052.034 9h276.932z" fill="#BE1473" opacity=".198"/>
        <path d="M1081 35a5 5 0 015 5v3c0 12.15 9.85 22 22 22h165c12.15 0 22-9.85 22-22v-3a5 5 0 015-5h39c21.54 0 39 17.46 39 39v734c0 21.54-17.46 39-39 39h-297c-21.54 0-39-17.46-39-39V74c0-21.54 17.46-39 39-39h39z" fill="#401E31" opacity=".497"/>
        <path fill="#15BF5F" d="M1004 638h373v44h-373z"/>
        <path d="M815.966 0C864.887 0 891 26.093 891 75.006v109.25c-.308.326-.57.945-.747 1.744h1.7l1.047.927v62.984l-1.118 1.083-1.63.006c.179.8.44 1.417.748 1.744v553.25c0 48.902-26.11 75.007-75.034 75.007H703.131c-1.046-.557-2.936-.944-5.131-.995L657.5 880c-2.407 0-4.508.402-5.632 1H539.034C490.11 881 464 854.897 464 805.995v-472.25c.26-.277.489-.764.66-1.393l-1.631-.004-1.029-1.089v-63.326l.963-.932h1.784c-.178-.799-.439-1.416-.746-1.743v-9.513c.26-.277.488-.764.66-1.393l-1.632-.004-1.029-1.089v-63.326l.963-.932h1.784c-.178-.799-.439-1.416-.746-1.743v-38.86a7.36 7.36 0 00.32-1.044l-2.292-.006-1.029-1.089v-33.326l.963-.932h2.304c-.084-.43-.173-.82-.266-1.137L464 75.006C464 26.093 490.113 0 539.034 0h276.932z" fill="#BE1473" opacity=".198"/>
        <path fill="#401E31" opacity=".497" d="M490 107h375v667H490z"/>
        <path fill="#15BF5F" d="M490 585h375v44H490z"/>
        <g>
            <path d="M315.329 42l1.165.595L316.5 46h5.494c31.169 0 57.475 25.013 57.998 56.06l.008.943v679.994c0 31.17-25.995 56.492-57.063 57.003H62.006c-31.169 0-57.475-25.013-57.998-56.06L4 782.997V322.998l-3.405-.004L0 321.829v-24.832L.595 296H4v-38.002l-3.405-.004L0 256.829v-24.832L.595 231H4v-40.002l-3.405-.004L0 189.829v-33.832L.595 155H4v-51.997c0-31.17 25.995-56.492 57.063-56.995l.943-.008H255.5v-3.405l.997-.595h58.832z" fill="#BE1473" opacity=".202"/>
            <path fill="#401E31" opacity=".497" d="M32 160h320v568H32z"/>
            <path fill="#15BF5F" d="M32 573h320v44H32z"/>
        </g>
    </g>
</svg>
