<svg viewBox="0 0 1406 881" class="u-max-full-width">
    <g fill="none" fill-rule="evenodd">
        <g transform="translate(974 9)">
            <path d="M354.966 0C403.887 0 430 26.093 430 75.006v123.25c-.246.261-.463.709-.63 1.286l.616.144c1.738.382 2.014.246 2.014.246v97.326l-.06.08c-.208.254-.958 1.032-2.524 1.268.16.505.36.9.584 1.138v488.25C430 836.896 403.89 863 354.966 863H242.13c-1.046-.556-2.936-.943-5.13-.994L196.5 862c-2.405 0-4.506.402-5.63 1H78.034C29.11 863 3 836.902 3 788V320.859c.189-.114.36-.3.505-.566l-.52-.18c-.905-.323-1.536-.588-1.894-.797L1 319.261v-60.327c.943-.241 1.826-.42 2.648-.534l.02.027c-.172-.452-.403-.703-.667-.828v-15.74c.189-.115.36-.302.506-.57-1.449-.267-2.274-.588-2.476-.96l-.031-.07v-60.327a20.343 20.343 0 012.261-.584l.348-.063c-.164-.363-.373-.575-.608-.686v-28.058c.133-.286.241-.694.331-1.192l-2.334-.002L0 148.258v-30.326L.934 117h2.244a3.9 3.9 0 00-.177-.493L3 75.006C3 26.093 29.113 0 78.034 0h276.932z" fill="#BE1473" opacity=".201"/>
            <path d="M107 26a5 5 0 015 5v3c0 12.15 9.85 22 22 22h165c12.15 0 22-9.85 22-22v-3a5 5 0 015-5h39c21.54 0 39 17.46 39 39v734c0 21.54-17.46 39-39 39H68c-21.54 0-39-17.46-39-39V65c0-21.54 17.46-39 39-39h39z" fill="#401E31" opacity=".497"/>
            <a href="https://apps.apple.com/us/app/overcast-podcast-player/id888422857?ls=1">
                <circle fill="#15BF5F" cx="166" cy="474" r="9"/>
            </a>
        </g>
        <g transform="translate(461)">
            <path d="M354.966 0C403.887 0 430 26.093 430 75.006v109.25c-.308.326-.57.945-.747 1.744h1.7l1.047.927v62.984l-1.118 1.083-1.63.006c.179.8.44 1.417.748 1.744v553.25c0 48.902-26.11 75.007-75.034 75.007H242.131c-1.046-.557-2.936-.944-5.131-.995L196.5 880c-2.407 0-4.508.402-5.632 1H78.034C29.11 881 3 854.897 3 805.995v-472.25c.26-.277.489-.764.66-1.393l-1.631-.004L1 331.258v-63.326l.963-.932h1.784c-.178-.799-.439-1.416-.746-1.743v-9.513c.26-.277.488-.764.66-1.393l-1.632-.004L1 253.258v-63.326l.963-.932h1.784c-.178-.799-.439-1.416-.746-1.743v-38.86a7.36 7.36 0 00.32-1.044l-2.292-.006L0 146.258v-33.326L.963 112h2.304c-.084-.43-.173-.82-.266-1.137L3 75.006C3 26.093 29.113 0 78.034 0h276.932z" fill="#BE1473" opacity=".201"/>
            <path fill="#401E31" opacity=".497" d="M29 107h375v667H29z"/>
			<a href="https://apps.apple.com/app/spotify-music/id324684580">
            	<circle fill="#15BF5F" cx="154" cy="662" r="7"/>
			</a>
        </g>
        <g transform="translate(0 42)">
            <path d="M315.329 0l1.165.595L316.5 4h5.494c31.169 0 57.475 25.013 57.998 56.06l.008.943v679.994c0 31.17-25.995 56.492-57.063 57.003H62.006c-31.169 0-57.475-25.013-57.998-56.06L4 740.997V280.998l-3.405-.004L0 279.829v-24.832L.595 254H4v-38.002l-3.405-.004L0 214.829v-24.832L.595 189H4v-40.002l-3.405-.004L0 147.829v-33.832L.595 113H4V61.003C4 29.833 29.995 4.51 61.063 4.008L62.006 4H255.5V.595l.997-.595h58.832z" fill="#BE1473" opacity=".201"/>
            <path fill="#401E31" opacity=".497" d="M32 118h320v568H32z"/>
			<a href="https://apps.apple.com/au/app/pocket-casts/id414834813">
            	<circle fill="#15BF5F" cx="68" cy="447" r="9"/>
			</a>
        </g>
    </g>
</svg>
